<svg width="45" height="45" viewBox="0 0 45 45" fill="none" xmlns="http://www.w3.org/2000/svg">
<path d="M28.7908 8.06954C28.6 8.24485 28.5869 8.5411 28.7617 8.73188C29.0265 9.02063 29.2797 9.34594 29.5145 9.69844C29.6045 9.83391 29.7536 9.90704 29.905 9.90704C29.994 9.90704 30.0845 9.88172 30.1647 9.82829C30.3798 9.68485 30.4384 9.39376 30.2945 9.17813C30.033 8.78626 29.7498 8.42251 29.4526 8.09813C29.2783 7.90735 28.982 7.89469 28.7908 8.06954Z" fill="#28B4FF" stroke="#28B4FF" stroke-width="0.5"/>
<path d="M25.5473 18.916C25.6284 18.916 25.7104 18.8954 25.785 18.8508C27.4598 17.8637 28.5004 16.0388 28.5004 14.0888C28.5004 11.0316 26.0193 8.54443 22.9692 8.54443C19.912 8.54443 17.4248 11.0316 17.4248 14.0888C17.4248 15.7472 18.165 17.3077 19.4559 18.3704C19.6565 18.5349 19.9514 18.5063 20.1159 18.3066C20.2804 18.1069 20.2514 17.8112 20.0517 17.6466C18.9778 16.7626 18.3623 15.466 18.3623 14.0888C18.3623 11.5487 20.429 9.48193 22.9692 9.48193C25.5018 9.48193 27.5629 11.5487 27.5629 14.0888C27.5629 15.7088 26.699 17.2238 25.3087 18.0437C25.0856 18.1749 25.0115 18.4622 25.1428 18.6854C25.2304 18.834 25.3865 18.916 25.5473 18.916Z" fill="#28B4FF" stroke="#28B4FF" stroke-width="0.5"/>
<path d="M22.9689 18.6832C22.6609 18.6832 22.4349 18.6654 22.2367 18.6255C21.9831 18.5744 21.7365 18.739 21.685 18.993C21.6343 19.2471 21.7984 19.4941 22.0525 19.5447C22.3135 19.5972 22.5962 19.6207 22.9684 19.6207H23.0481C23.3073 19.6207 23.5168 19.4107 23.5168 19.1519C23.5168 18.8932 23.3073 18.6832 23.0481 18.6832H22.9689Z" fill="#28B4FF" stroke="#28B4FF" stroke-width="0.5"/>
<path d="M25.2188 14.0893C25.2188 12.8415 24.21 11.8267 22.9692 11.8267C21.7219 11.8267 20.707 12.8415 20.707 14.0893C20.707 15.3296 21.7219 16.3384 22.9692 16.3384C24.2095 16.3384 25.2188 15.3296 25.2188 14.0893ZM22.9692 15.4009C22.2384 15.4009 21.6445 14.8126 21.6445 14.0893C21.6445 13.3585 22.2389 12.7642 22.9692 12.7642C23.6925 12.7642 24.2812 13.3585 24.2812 14.0893C24.2812 14.8126 23.6925 15.4009 22.9692 15.4009Z" fill="#28B4FF" stroke="#28B4FF" stroke-width="0.5"/>
<path d="M27.5137 34.1758C27.2545 34.1758 27.0449 34.3853 27.0449 34.6445V36.558C27.0449 36.8172 27.2545 37.0267 27.5137 37.0267C27.7729 37.0267 27.9824 36.8172 27.9824 36.558V34.6445C27.9824 34.3853 27.7729 34.1758 27.5137 34.1758Z" fill="#28B4FF" stroke="#28B4FF" stroke-width="0.5"/>
<path d="M10.6648 10.3061C12.4324 10.3061 13.871 8.86797 13.871 7.10031C13.871 5.33266 12.4329 3.89453 10.6648 3.89453C8.89711 3.89453 7.45898 5.33266 7.45898 7.10031C7.45898 8.86797 8.89711 10.3061 10.6648 10.3061ZM10.6648 4.83156C11.9159 4.83156 12.9335 5.84922 12.9335 7.09984C12.9335 8.35047 11.9159 9.36813 10.6648 9.36813C9.41414 9.36813 8.39648 8.35047 8.39648 7.09984C8.39648 5.84922 9.41414 4.83156 10.6648 4.83156Z" fill="#28B4FF" stroke="#28B4FF" stroke-width="0.5"/>
<path d="M44.1707 1.75207C44.098 1.57629 43.9269 1.46191 43.7371 1.46191H35.383V0.93457C35.383 0.67582 35.1735 0.46582 34.9142 0.46582C34.655 0.46582 34.4455 0.67582 34.4455 0.93457V1.93113V6.70113V20.038H29.4524C30.8938 18.4682 31.7825 16.3832 31.7825 14.0891C31.7825 13.2496 31.6682 12.4349 31.4328 11.5972C31.363 11.3479 31.1052 11.2039 30.8549 11.2729C30.6055 11.3427 30.4602 11.6019 30.5305 11.8508C30.7424 12.6046 30.8455 13.3368 30.8455 14.0891C30.8455 18.4321 27.3125 21.965 22.9696 21.965C18.6196 21.965 15.0805 18.4321 15.0805 14.0891C15.0805 9.7391 18.6196 6.20004 22.9696 6.20004C24.3107 6.20004 25.6466 6.5516 26.8325 7.21629C27.0594 7.34285 27.3439 7.26223 27.4705 7.03676C27.5971 6.81129 27.5169 6.52535 27.291 6.39879C25.9649 5.65535 24.4705 5.26254 22.9691 5.26254C19.2838 5.26254 16.1225 7.53457 14.803 10.7502H13.4024H9.21643H8.20674C7.31096 10.7502 6.55721 11.3343 6.33268 12.1996L4.52518 18.8966C4.52096 18.9121 4.52471 18.9271 4.52237 18.9425L4.28612 19.813C4.28237 19.8261 4.28284 19.8397 4.27956 19.8529L1.29034 30.9997C1.28846 31.0063 1.28378 31.01 1.2819 31.0166L0.843619 32.6647C0.645806 33.4147 1.0794 34.1727 1.84018 34.3935L3.36362 34.8004H2.90518C1.97987 34.8004 1.22706 35.5532 1.22706 36.4785V42.8568C1.22706 43.7816 1.97987 44.5339 2.90518 44.5339H9.0969C9.57268 44.5339 10.0007 44.3329 10.3063 44.0141C10.6114 44.3333 11.0394 44.5339 11.5152 44.5339H17.7074C18.1822 44.5339 18.6092 44.3338 18.9144 44.0164C19.2172 44.3343 19.641 44.5339 20.1121 44.5339H26.3042C26.78 44.5339 27.208 44.3329 27.5132 44.0141C27.8188 44.3333 28.2467 44.5339 28.7225 44.5339H34.9142C35.8396 44.5339 36.5924 43.7816 36.5924 42.8568V21.7161C36.5924 20.9544 36.0791 20.3174 35.383 20.113V7.16988H43.7371C43.9264 7.16988 44.098 7.05551 44.1702 6.88066C44.2428 6.70535 44.2025 6.50379 44.0685 6.36973L42.0092 4.31051L44.068 2.26348C44.2025 2.12941 44.2433 1.92785 44.1707 1.75207ZM22.9691 22.9021C24.4396 22.9021 25.8242 22.535 27.0444 21.8957V24.2975C26.8199 24.186 26.571 24.1175 26.3042 24.1175H20.1121C19.1942 24.1175 18.4475 24.8699 18.4475 25.7947V29.6905C18.223 29.5799 17.9741 29.5119 17.7074 29.5119H14.871L14.9188 29.3422C15.1817 28.3349 14.7449 27.2933 13.8875 26.7599L14.9839 22.6893C15.1199 22.1886 15.0496 21.6641 14.7857 21.2122C14.5236 20.7636 14.1046 20.4421 13.6039 20.3066L10.6321 19.5083L12.9449 14.4913H14.1636C14.376 19.1638 18.238 22.9021 22.9691 22.9021ZM9.83753 31.1764V34.9799C9.61299 34.8688 9.36362 34.7999 9.0969 34.7999H6.00737L6.16253 34.2566C6.42315 33.2436 5.98628 32.1974 5.13034 31.663L6.53331 26.4486C6.60081 26.1988 6.45221 25.9414 6.20237 25.8739C5.95299 25.8064 5.69518 25.955 5.62768 26.2049L4.12674 31.7853C4.12065 31.8078 4.12534 31.8294 4.12253 31.8514C4.11878 31.8833 4.11362 31.9138 4.11643 31.9452C4.11878 31.9752 4.12721 32.0028 4.13565 32.0319C4.14409 32.0614 4.15065 32.0891 4.16471 32.1163C4.17784 32.143 4.19612 32.165 4.2144 32.1889C4.23268 32.2133 4.25003 32.2368 4.27299 32.2569C4.29643 32.2771 4.32268 32.2911 4.35034 32.3066C4.37003 32.3178 4.38503 32.3352 4.40706 32.3436C5.0694 32.6047 5.43362 33.3271 5.25737 34.0119L5.17159 34.3124L2.0919 33.4911C1.82893 33.4147 1.68268 33.1625 1.75018 32.9052L1.77643 32.8068L4.76331 21.6683C5.00659 21.9229 5.31034 22.1089 5.65299 22.1961L6.63456 22.46L6.30549 23.6802C6.23799 23.93 6.38612 24.1874 6.63596 24.2554C6.67721 24.2661 6.71799 24.2713 6.75878 24.2713C6.96503 24.2713 7.15487 24.1335 7.21112 23.9249L7.54018 22.7043L10.7286 23.5625L10.055 26.0694C10.0508 26.0811 10.0419 26.09 10.0386 26.1022L9.60034 27.7602C9.50284 28.1216 9.55299 28.4999 9.7419 28.8252C9.86143 29.0314 10.0311 29.1946 10.2289 29.3146C10.265 29.3366 10.2983 29.3629 10.3363 29.3811C10.3649 29.3947 10.3958 29.4022 10.4249 29.4139C10.4807 29.4369 10.5355 29.4618 10.5946 29.4772L11.0249 29.5935C10.3405 29.8021 9.83753 30.4283 9.83753 31.1764ZM13.3592 21.2118C13.6203 21.2825 13.8388 21.4504 13.9757 21.6847C14.1116 21.9182 14.1486 22.1877 14.0788 22.4446L12.883 26.8827C12.8769 26.9052 12.8811 26.9272 12.8788 26.9502C12.875 26.9811 12.8699 27.0116 12.8727 27.0425C12.875 27.073 12.8835 27.1007 12.8919 27.1302C12.9003 27.1593 12.9069 27.1869 12.921 27.2136C12.9341 27.2408 12.9528 27.2629 12.9711 27.2872C12.9894 27.3107 13.0063 27.3341 13.0292 27.3543C13.0527 27.3749 13.0799 27.3889 13.1075 27.4049C13.1272 27.4157 13.1422 27.4325 13.1638 27.441C13.8266 27.7021 14.1908 28.4174 14.0136 29.0971L13.9264 29.4069L12.8075 29.1041C12.7972 29.1004 12.7892 29.0924 12.778 29.0896L10.8364 28.5711C10.716 28.5393 10.6147 28.4629 10.5528 28.3546C10.49 28.2472 10.4736 28.123 10.506 28.0021L11.7547 23.3525C11.7772 23.2677 11.7753 23.1829 11.7533 23.1046C11.7533 23.1041 11.7533 23.1041 11.7533 23.1036L11.7528 23.1032C11.7528 23.1027 11.7528 23.1027 11.7528 23.1022L11.7524 23.1013V23.0999C11.7524 23.0994 11.7519 23.0994 11.7519 23.0994C11.7519 23.0994 11.7519 23.0989 11.7519 23.0985C11.7519 23.098 11.7519 23.098 11.7514 23.098C11.7514 23.098 11.7514 23.0975 11.7514 23.0971L11.751 23.0961V23.0952C11.751 23.0952 11.751 23.0947 11.7505 23.0947V23.0938L11.75 23.0929C11.75 23.0929 11.75 23.0924 11.75 23.0919C11.7496 23.0919 11.7496 23.0914 11.7496 23.0914C11.7496 23.0914 11.7496 23.091 11.7496 23.0905L11.7491 23.09C11.7491 23.0896 11.7491 23.0891 11.7486 23.0886C11.7017 22.9414 11.5836 22.8205 11.4238 22.7774L7.3344 21.6768C7.33299 21.6768 7.33253 21.6754 7.33112 21.6754C7.32971 21.6749 7.32878 21.6754 7.32737 21.6754L5.88971 21.2882C5.63987 21.2244 5.42799 21.0636 5.29393 20.8344C5.16268 20.6099 5.12612 20.3507 5.18284 20.1004L5.45424 19.0879L13.3592 21.2118ZM7.23878 12.4396C7.35737 11.9825 7.73706 11.6877 8.20628 11.6877H9.21596H13.4019H14.4828C14.3132 12.2868 14.2082 12.9107 14.1692 13.5538H12.6599C12.6589 13.5538 12.658 13.5538 12.6566 13.5538H10.2796C10.0203 13.5538 9.81081 13.7638 9.81081 14.0225C9.81081 14.2813 10.0203 14.4913 10.2796 14.4913H11.9117L9.71331 19.2613L5.68956 18.1804L7.23878 12.4396ZM9.0969 43.5964H2.90518C2.4969 43.5964 2.16456 43.2646 2.16456 42.8568V36.478C2.16456 36.0697 2.4969 35.7374 2.90518 35.7374H9.0969C9.50518 35.7374 9.83753 36.0697 9.83753 36.478V42.8563C9.83753 43.2646 9.50518 43.5964 9.0969 43.5964ZM17.7074 43.5964H11.5152C11.1069 43.5964 10.775 43.2646 10.775 42.8568V36.478V31.1764C10.775 30.7757 11.1069 30.4494 11.5152 30.4494H17.7074C18.1157 30.4494 18.4475 30.7752 18.4475 31.1764V42.8568C18.4475 43.2646 18.1157 43.5964 17.7074 43.5964ZM35.6549 21.7161V42.8568C35.6549 43.2646 35.3225 43.5964 34.9142 43.5964H28.7225C28.3142 43.5964 27.9819 43.2646 27.9819 42.8568V39.1625C27.9819 38.9033 27.7724 38.6938 27.5132 38.6938C27.2539 38.6938 27.0444 38.9033 27.0444 39.1625V42.8568C27.0444 43.2646 26.7125 43.5964 26.3042 43.5964H20.1121C19.7113 43.5964 19.385 43.2646 19.385 42.8568V31.1764V25.7952C19.385 25.3874 19.7108 25.0555 20.1121 25.0555H26.3042C26.7125 25.0555 27.0444 25.3874 27.0444 25.7952V32.0408C27.0444 32.3 27.2539 32.5096 27.5132 32.5096C27.7724 32.5096 27.9819 32.3 27.9819 32.0408V25.7947V21.7157C27.9819 21.3074 28.3142 20.975 28.7225 20.975H34.9142C35.3225 20.9755 35.6549 21.3079 35.6549 21.7161ZM41.015 3.97723C40.9269 4.06535 40.8767 4.18441 40.8767 4.3091C40.8767 4.43379 40.926 4.55332 41.0141 4.64098L42.606 6.23238H35.383V2.39988H42.6008L41.015 3.97723Z" fill="#28B4FF" stroke="#28B4FF" stroke-width="0.5"/>
</svg>
