<svg width="45" height="45" viewBox="0 0 45 45" fill="none" xmlns="http://www.w3.org/2000/svg">
<g clip-path="url(#clip0_923_4671)">
<path d="M44.0177 11.3111C44.5595 11.3111 45 10.8706 45 10.3288V8.79283C45 8.25141 44.5595 7.81058 44.0177 7.81058H28.1583C27.9829 4.92839 25.5834 2.63672 22.658 2.63672H16.966C15.8128 2.63672 14.7073 2.99034 13.7694 3.65913C13.769 3.65982 13.7683 3.66016 13.7676 3.66085C12.3192 4.69493 11.454 6.37241 11.454 8.14841V11.3794C11.454 11.4611 11.4612 11.5415 11.4739 11.6204C11.4516 11.6362 11.4289 11.652 11.4073 11.6688C10.8439 12.1042 10.5761 12.8251 10.7076 13.5502L11.0269 15.3084C11.1488 15.948 11.4914 16.2776 11.7578 16.4417C12.0242 16.6058 12.315 16.6704 12.588 16.6824V17.2629C12.588 17.267 12.588 17.2715 12.5883 17.276C12.6309 19.4104 14.0605 20.8276 15.2092 21.9668L15.2817 22.0382C15.3425 22.099 15.4046 22.1604 15.4678 22.2226V23.8863C15.4678 24.1901 15.327 24.5293 15.1227 24.7614C15.0846 24.7508 15.0469 24.7405 15.0081 24.7319C14.8306 24.6917 14.6496 24.6725 14.4714 24.6746C14.3873 24.6756 14.3022 24.6814 14.2191 24.6914C14.1346 24.7017 14.0502 24.7168 13.9678 24.7364L5.91792 26.7709C3.99085 27.2275 2.51697 28.7089 2.06997 30.6388C2.06859 30.6439 2.06756 30.6491 2.06653 30.6542L1.47327 33.5244C1.3998 33.8811 1.6288 34.2299 1.98551 34.3034C2.34188 34.3772 2.69069 34.1478 2.76451 33.7915L3.35605 30.9289C3.69148 29.4924 4.79114 28.3907 6.2276 28.0525C6.23206 28.0515 6.23687 28.0501 6.24133 28.0491L11.8073 26.6092L18.7111 35.6605C18.8347 35.8222 18.9889 35.9503 19.1616 36.0423C19.1736 36.0488 19.1849 36.0564 19.1969 36.0626C19.212 36.0701 19.2282 36.0753 19.2436 36.0821C19.2759 36.0969 19.3082 36.112 19.3415 36.124C19.3435 36.1247 19.3456 36.125 19.3476 36.1257C19.395 36.1425 19.4434 36.157 19.4929 36.1686C19.4946 36.169 19.4966 36.169 19.4987 36.1693C19.6 36.1927 19.7044 36.205 19.8111 36.205C20.0834 36.205 20.3419 36.1274 20.562 35.9846C20.6942 35.8991 20.8126 35.7903 20.9115 35.6605L27.8164 26.6092C27.8164 26.6092 33.6875 28.1342 33.7181 28.1445C34.9952 28.562 35.9579 29.6019 36.2676 30.9289L38.2963 40.7444C38.2976 40.7496 38.2987 40.7547 38.2997 40.7599C38.3182 40.8392 38.2843 40.8972 38.2626 40.9247C38.2407 40.9521 38.1919 40.9982 38.1105 40.9982H33.2065L31.6949 32.7673C31.629 32.4093 31.285 32.1724 30.9276 32.2383C30.5695 32.3039 30.3322 32.6475 30.3982 33.0056L31.8662 40.9982H7.75744L9.22548 33.0056C9.2914 32.6475 9.05451 32.3039 8.69642 32.2383C8.33834 32.1724 7.99467 32.4093 7.9291 32.7673L6.41711 40.9982H1.5131C1.43173 40.9982 1.38298 40.9521 1.36101 40.9247C1.33938 40.8972 1.30539 40.8395 1.32393 40.7599C1.3253 40.7547 1.32633 40.7499 1.32736 40.7448L2.13588 36.833C2.20935 36.4763 1.98002 36.1278 1.62365 36.054C1.26694 35.9802 0.918464 36.2095 0.844649 36.5662L0.0374992 40.4712C-0.0637808 40.9202 0.0423057 41.384 0.32898 41.7449C0.617713 42.1078 1.04927 42.3162 1.5131 42.3162H38.1105C38.5744 42.3162 39.0059 42.1078 39.2947 41.7449C39.5813 41.384 39.6874 40.9202 39.5861 40.4712L37.5571 30.6542C37.5561 30.6491 37.555 30.6439 37.554 30.6388C37.3357 29.6967 36.8722 28.8621 36.2312 28.2008H44.0181C44.5595 28.2008 45 27.7603 45 27.2186V25.6826C45 25.1411 44.5595 24.7003 44.0181 24.7003H43.5683V11.3111H44.0177ZM12.5883 15.3616C12.531 15.3544 12.4836 15.3403 12.4493 15.3194C12.3906 15.283 12.3477 15.1965 12.3233 15.0677L12.0047 13.3147C11.9621 13.0795 12.0442 12.843 12.2138 12.7118C12.2179 12.7084 12.222 12.7053 12.2265 12.7022C12.2313 12.705 12.2364 12.7074 12.2416 12.7101C12.2543 12.717 12.267 12.7239 12.28 12.7304C12.3027 12.7424 12.326 12.7537 12.3494 12.7644C12.361 12.7699 12.3731 12.7754 12.3851 12.7802C12.4187 12.7946 12.4531 12.8083 12.4881 12.8203C12.4898 12.821 12.4915 12.8217 12.4929 12.8224C12.5245 12.833 12.556 12.8427 12.588 12.8516V15.3616H12.5883ZM27.0357 12.8516C27.0676 12.8427 27.0992 12.833 27.1304 12.8224C27.1328 12.8217 27.1352 12.8207 27.1373 12.8197C27.1716 12.808 27.2053 12.7946 27.2386 12.7805C27.2509 12.775 27.2629 12.7695 27.275 12.764C27.2983 12.7534 27.321 12.7424 27.3433 12.7307C27.3563 12.7239 27.3697 12.717 27.3828 12.7098C27.3876 12.707 27.3924 12.705 27.3975 12.7022C27.4016 12.7053 27.4061 12.7084 27.4102 12.7118C27.5798 12.843 27.6615 13.0795 27.619 13.3147L27.3017 15.0622C27.276 15.1965 27.2334 15.283 27.1744 15.3194C27.1404 15.3403 27.0926 15.3544 27.0357 15.3616V12.8516ZM16.966 3.95508H22.658C24.9702 3.95508 26.8513 5.83648 26.8513 8.14875V9.16602H20.528C18.7997 9.16602 17.4927 8.23493 16.5327 7.07107C16.5279 7.06523 16.5242 7.05871 16.5194 7.05287C15.8234 6.20349 15.316 5.2391 14.9744 4.45804C15.5835 4.12777 16.2629 3.95508 16.966 3.95508ZM26.8513 10.4844V11.3794C26.8513 11.433 26.8286 11.4824 26.7912 11.5198C26.783 11.5284 26.7727 11.5373 26.7603 11.5459C26.7586 11.5473 26.7569 11.5487 26.7552 11.55C26.7483 11.5545 26.7404 11.5583 26.7325 11.5624C26.7291 11.5641 26.726 11.5662 26.7222 11.5676C26.7109 11.5727 26.6985 11.5772 26.6851 11.5806C26.4839 11.6311 26.2958 11.6963 26.1207 11.7766V10.4844H26.8513ZM13.5033 11.7766C13.3282 11.6963 13.14 11.6311 12.9389 11.5806C12.9255 11.5772 12.9131 11.5727 12.9018 11.5676C12.8977 11.5658 12.8939 11.5638 12.8901 11.5617C12.8829 11.5579 12.8753 11.5542 12.8688 11.55C12.8664 11.5483 12.8644 11.5466 12.8619 11.5449C12.8499 11.5363 12.84 11.5277 12.8317 11.5191C12.795 11.4817 12.7723 11.4326 12.7723 11.3794V8.14875C12.7723 7.07999 13.1843 6.05792 13.9022 5.28785C13.9698 5.43308 14.0419 5.58242 14.1189 5.73417C14.1199 5.73623 14.1209 5.73829 14.1219 5.74001C14.1552 5.80558 14.1899 5.87219 14.2249 5.93879C14.2318 5.95184 14.2383 5.96454 14.2452 5.97759C14.2768 6.03732 14.3101 6.09775 14.3434 6.15817C14.3547 6.17877 14.3654 6.19903 14.377 6.21963C14.4076 6.2749 14.4395 6.33018 14.4714 6.3858C14.4869 6.41223 14.5017 6.43867 14.5171 6.4651C14.547 6.51626 14.5782 6.56707 14.6091 6.61822C14.628 6.64981 14.6469 6.68105 14.6661 6.71264C14.6953 6.76002 14.7255 6.80739 14.7557 6.85443C14.778 6.88979 14.8007 6.9255 14.8237 6.96086C14.8525 7.00515 14.8821 7.04909 14.9116 7.09304C14.9301 7.12016 14.9476 7.14797 14.9665 7.17509C14.0825 7.69797 13.5033 8.66236 13.5033 9.73319V11.7766ZM13.9067 17.2561V13.4802C13.919 13.4809 13.9314 13.4819 13.9438 13.4819C14.0574 13.4819 14.1721 13.4599 14.2819 13.4139C14.6098 13.2773 14.8216 12.9594 14.8216 12.6044V9.73284C14.8216 9.07572 15.2147 8.49173 15.7943 8.23012C17.1466 9.72563 18.7393 10.4844 20.528 10.4844H24.8023V12.6044C24.8023 12.9594 25.0142 13.2773 25.3424 13.4143C25.4519 13.4599 25.5666 13.4823 25.6802 13.4823C25.6926 13.4823 25.7049 13.4809 25.7173 13.4805V17.2561C25.6826 18.8532 24.516 20.0098 23.4864 21.0305L23.4136 21.103C23.2629 21.2523 23.1115 21.4027 22.957 21.55C22.9563 21.5507 22.9553 21.5517 22.9542 21.5524C22.12 22.3475 21.1944 23.0537 19.8122 23.073C18.3877 23.0534 17.448 22.3032 16.5935 21.4789C16.5932 21.4786 16.5928 21.4786 16.5928 21.4782C16.4637 21.354 16.3371 21.2283 16.2107 21.1026L16.1379 21.0305C15.108 20.0098 13.9414 18.8532 13.9067 17.2561ZM19.8118 26.441C18.5494 26.441 17.3413 26.0866 16.2876 25.4137C16.6 24.9739 16.7861 24.4291 16.7861 23.8863V23.371C17.5789 23.9381 18.5443 24.3762 19.8039 24.3913H19.8118H19.8197C21.0395 24.3769 21.9833 23.9659 22.7616 23.4252V23.8863C22.7616 24.438 22.9601 24.9987 23.2866 25.4453C22.2449 26.0983 21.0546 26.441 19.8118 26.441ZM20.4899 28.7446C20.4748 28.7481 20.4607 28.7522 20.4452 28.7553C20.4253 28.7591 20.4051 28.7625 20.3848 28.7663C20.3464 28.7731 20.3072 28.7793 20.2674 28.7848C20.2513 28.7869 20.2355 28.7893 20.219 28.7913C20.1634 28.7979 20.1064 28.8027 20.048 28.8064C20.0336 28.8075 20.0185 28.8082 20.0037 28.8092C19.9412 28.8123 19.8777 28.8143 19.8118 28.8143C19.7462 28.8143 19.6827 28.8123 19.6202 28.8092C19.6051 28.8082 19.5904 28.8075 19.5756 28.8064C19.5172 28.803 19.4603 28.7979 19.405 28.7913C19.3885 28.7893 19.3727 28.7869 19.3566 28.7848C19.3164 28.7793 19.2776 28.7731 19.2392 28.7663C19.2189 28.7625 19.1983 28.7591 19.1787 28.7553C19.1633 28.7519 19.1489 28.7481 19.1338 28.7446L19.8118 28.046L20.4899 28.7446ZM17.5215 31.9266L16.5767 30.6878C17.0364 30.6106 17.4673 30.4049 17.8185 30.0901L17.5215 31.9266ZM16.9969 29.0529C16.7621 29.295 16.4346 29.422 16.0978 29.4021C15.7781 29.3829 15.4832 29.2315 15.2793 28.9863L13.207 26.2696L14.2699 26.0194C14.3053 26.0111 14.3417 26.0046 14.3784 26.0001C14.4141 25.9957 14.4505 25.9933 14.4865 25.9929C14.5628 25.9926 14.6407 26.0005 14.7173 26.018C14.7368 26.0221 14.7561 26.0273 14.7749 26.0327C14.8182 26.0451 14.8597 26.0602 14.8985 26.0774C14.8999 26.0777 14.9085 26.0815 14.9099 26.0822C14.9126 26.0832 14.915 26.0849 14.9178 26.0863C14.9267 26.0915 14.936 26.0959 14.9456 26.1007C14.9978 26.1268 15.0486 26.1567 15.0949 26.1914C16.0782 26.9264 17.1954 27.4119 18.3798 27.6285L16.9969 29.0529ZM19.8633 34.8609C19.8585 34.8671 19.8437 34.8863 19.8115 34.8863C19.8032 34.8863 19.7964 34.8853 19.7902 34.8832C19.7723 34.8778 19.7631 34.8657 19.7593 34.8609L18.6232 33.3713L19.1544 30.0881C19.3634 30.1179 19.5832 30.1327 19.8122 30.1327C20.0408 30.1327 20.2605 30.1179 20.4696 30.0881L21.0004 33.3702L19.8633 34.8609ZM22.1021 31.9255L21.8055 30.0898C22.1564 30.4046 22.5869 30.6103 23.0466 30.6875L22.1021 31.9255ZM24.3406 28.9915C24.1366 29.2335 23.8438 29.3829 23.5262 29.4021C23.1901 29.422 22.8619 29.295 22.6271 29.0529L21.2442 27.6285C22.4286 27.4119 23.5454 26.9264 24.5291 26.1914C24.5692 26.1611 24.6115 26.1347 24.6557 26.1114C24.6599 26.109 24.6643 26.1069 24.6685 26.1042C24.8092 26.0317 24.9668 25.9929 25.1258 25.9929H25.1374C25.2099 25.9939 25.283 26.0025 25.3541 26.0194L26.4166 26.2696L24.3406 28.9915ZM43.6816 26.0187V26.8825H34.1043C34.104 26.8821 34.1033 26.8821 34.1029 26.8821C34.0432 26.8629 33.9831 26.8447 33.9224 26.8275C33.9151 26.8255 33.9083 26.8234 33.9014 26.8214C33.8369 26.8035 33.772 26.7863 33.7064 26.7709C33.7061 26.7709 33.7061 26.7709 33.7061 26.7709L30.7985 26.0187H43.6816ZM33.6154 11.3111H42.25V24.7003H25.4643C25.3609 24.6852 25.2569 24.6759 25.1525 24.6749C24.9112 24.6718 24.6709 24.7089 24.4412 24.78C24.2273 24.5486 24.08 24.2015 24.08 23.8863V22.2974C24.1693 22.2102 24.2565 22.1233 24.342 22.0385L24.4144 21.9668C25.5631 20.828 26.9927 19.4104 27.0353 17.2763C27.0357 17.2719 27.0357 17.2674 27.0357 17.2629V16.6824C27.3086 16.6704 27.5994 16.6061 27.8658 16.4417C28.1322 16.2779 28.4749 15.948 28.5974 15.3032L28.916 13.5502C29.0475 12.8251 28.7797 12.1042 28.2163 11.6688C28.1944 11.652 28.1721 11.6362 28.1497 11.6204C28.1624 11.5418 28.1696 11.4615 28.1696 11.3794V11.3111H30.5461C30.91 11.3111 31.2053 11.0162 31.2053 10.6519C31.2053 10.288 30.91 9.99274 30.5461 9.99274H28.1696V9.12928H43.6816V9.99274H33.6154C33.2512 9.99274 32.9562 10.288 32.9562 10.6519C32.9562 11.0162 33.2512 11.3111 33.6154 11.3111Z" fill="#28B4FF"/>
<path d="M30.3481 14.7095C30.3481 15.0737 30.6434 15.3686 31.0073 15.3686H39.7085C40.0727 15.3686 40.3677 15.0737 40.3677 14.7095C40.3677 14.3455 40.0727 14.0503 39.7085 14.0503H31.0073C30.6434 14.0503 30.3481 14.3455 30.3481 14.7095Z" fill="#28B4FF"/>
<path d="M39.7085 17.3462H31.0073C30.6434 17.3462 30.3481 17.6414 30.3481 18.0054C30.3481 18.3696 30.6434 18.6645 31.0073 18.6645H39.7085C40.0727 18.6645 40.3677 18.3696 40.3677 18.0054C40.3677 17.6414 40.0727 17.3462 39.7085 17.3462Z" fill="#28B4FF"/>
<path d="M39.7085 20.6431H31.0073C30.6434 20.6431 30.3481 20.938 30.3481 21.3022C30.3481 21.6662 30.6434 21.9614 31.0073 21.9614H39.7085C40.0727 21.9614 40.3677 21.6662 40.3677 21.3022C40.3677 20.938 40.0727 20.6431 39.7085 20.6431Z" fill="#28B4FF"/>
</g>
<defs>
<clipPath id="clip0_923_4671">
<rect width="45" height="45" fill="white"/>
</clipPath>
</defs>
</svg>
