<svg width="194" height="200" viewBox="0 0 194 200" fill="none" xmlns="http://www.w3.org/2000/svg">
<path d="M131.442 109.426L131.331 109.718L131.544 109.946L133.611 112.154L131.685 114.859L131.685 114.859L129.758 117.566L126.999 116.334L126.714 116.207L126.474 116.408C125.259 117.429 123.907 118.275 122.457 118.921L122.171 119.048L122.161 119.362L122.065 122.388L118.788 122.938L118.787 122.938L115.513 123.492L114.43 120.666L114.318 120.373L114.006 120.347C112.421 120.21 110.864 119.852 109.379 119.282L109.086 119.169L108.857 119.384L106.652 121.453L103.945 119.526L101.238 117.6L102.47 114.841L102.598 114.555L102.396 114.315C101.375 113.102 100.529 111.751 99.8831 110.302L99.7555 110.015L99.4423 110.005L96.4187 109.909L95.8656 106.632L95.8656 106.632L95.315 103.356L98.1523 102.28L98.4463 102.169L98.4732 101.856C98.6089 100.274 98.9649 98.7185 99.5307 97.235L99.6423 96.9426L99.428 96.7145L97.3591 94.5123L99.2856 91.805L101.212 89.0976L103.971 90.3298L104.257 90.4575L104.496 90.256C105.711 89.2347 107.063 88.3889 108.513 87.7432L108.799 87.6156L108.809 87.3024L108.906 84.2764L112.182 83.7257L112.183 83.7256L115.459 83.1725L116.54 85.998L116.652 86.2909L116.964 86.3176C118.545 86.4529 120.1 86.8097 121.581 87.3774L121.874 87.4895L122.102 87.2751L124.308 85.2057L127.017 87.13L127.018 87.1302L129.725 89.0565L128.493 91.815L128.365 92.1009L128.566 92.3406C129.586 93.5536 130.431 94.903 131.077 96.3497L131.204 96.6356L131.517 96.6456L134.541 96.7421L135.094 100.019L135.094 100.019L135.645 103.297L132.818 104.385L132.526 104.497L132.5 104.808C132.364 106.39 132.008 107.944 131.442 109.426ZM106.464 106.757C107.142 108.541 108.334 110.085 109.888 111.192C110.921 111.927 112.089 112.452 113.325 112.736C114.56 113.02 115.84 113.058 117.091 112.848C118.341 112.637 119.538 112.182 120.612 111.509C121.687 110.835 122.618 109.957 123.353 108.923C124.459 107.368 125.079 105.519 125.135 103.612C125.19 101.704 124.679 99.8222 123.666 98.2048C122.652 96.5875 121.182 95.3069 119.441 94.5251C117.7 93.7432 115.766 93.4951 113.884 93.8122C112.001 94.1293 110.256 94.9973 108.867 96.3065C107.478 97.6157 106.508 99.3073 106.081 101.167C105.653 103.028 105.787 104.973 106.464 106.757Z" stroke="white"/>
<path d="M103.253 80.9711L103.14 81.2649L103.357 81.4933L104.33 82.5208L103.417 83.8042L103.417 83.8045L102.503 85.0913L101.206 84.512L100.92 84.3839L100.68 84.5864C100.051 85.117 99.3507 85.5558 98.599 85.8898L98.312 86.0172L98.3022 86.331L98.2576 87.7492L96.7014 88.0123L96.7008 88.0124L95.1447 88.2735L94.6383 86.9487L94.5263 86.6558L94.214 86.629C93.3935 86.5586 92.5869 86.374 91.8174 86.0805L91.525 85.969L91.2969 86.1832L90.2642 87.1532L88.9769 86.2369L88.9768 86.2368L87.6919 85.323L88.2691 84.0288L88.3964 83.7434L88.1957 83.5039C87.6667 82.8729 87.2285 82.171 86.8937 81.4187L86.7661 81.1321L86.4526 81.1223L85.0349 81.0777L84.7738 79.5215L84.7737 79.5208L84.5106 77.9669L85.8379 77.4582L86.1307 77.346L86.1572 77.0335C86.2267 76.2133 86.4113 75.4069 86.7055 74.638L86.8174 74.3454L86.6029 74.117L85.6329 73.0842L86.5459 71.8006L86.5467 71.7995L87.4644 70.5172L88.7594 71.0968L89.0455 71.2248L89.2854 71.0232C89.9155 70.4935 90.6165 70.0544 91.3681 69.7187L91.6536 69.5912L91.6639 69.2786L91.7105 67.8597L93.2647 67.5965L93.2654 67.5964L94.8219 67.3353L95.3307 68.6608L95.4426 68.9526L95.7539 68.9798C96.5702 69.0511 97.3725 69.2357 98.1379 69.5282L98.4301 69.6399L98.6584 69.426L99.6935 68.4557L100.978 69.3717L100.979 69.372L102.264 70.2859L101.687 71.5801L101.559 71.8653L101.76 72.1047C102.289 72.7367 102.728 73.4388 103.065 74.1912L103.193 74.4768L103.506 74.4866L104.924 74.5312L105.187 76.0875L105.187 76.088L105.448 77.642L104.123 78.1508L103.831 78.2627L103.804 78.5741C103.732 79.3948 103.547 80.2016 103.253 80.9711ZM91.8535 82.1837L91.8537 82.1838C93.0138 83.007 94.4531 83.3366 95.8558 83.1002C97.2586 82.8639 98.5104 82.081 99.3368 80.9232L99.337 80.923C99.9539 80.0577 100.3 79.0289 100.332 77.9668C100.364 76.9046 100.08 75.8568 99.5167 74.956C98.9529 74.0552 98.1347 73.3418 97.1654 72.9062C96.1962 72.4706 95.1195 72.3323 94.0716 72.5089C93.0237 72.6854 92.0517 73.1688 91.2787 73.8979C90.5056 74.627 89.9662 75.5691 89.7287 76.6049C89.4913 77.6406 89.5664 78.7236 89.9446 79.7167C90.3228 80.7097 90.9871 81.5683 91.8535 82.1837Z" stroke="white"/>
<path d="M61.9807 125.337C61.8949 125.337 61.8099 125.321 61.7306 125.288C61.6513 125.255 61.5793 125.207 61.5187 125.146L47.3446 110.97C47.2784 110.911 47.225 110.839 47.1876 110.758C47.1503 110.678 47.1297 110.59 47.1272 110.502C47.1247 110.413 47.1404 110.324 47.1732 110.242C47.206 110.16 47.2553 110.085 47.3181 110.022C47.3809 109.959 47.4558 109.91 47.5383 109.877C47.6207 109.844 47.7091 109.828 47.7978 109.831C47.8865 109.833 47.9738 109.854 48.0543 109.891C48.1349 109.929 48.2069 109.982 48.2661 110.048L62.4427 124.222C62.5342 124.314 62.5965 124.43 62.6218 124.557C62.6471 124.684 62.6342 124.815 62.5847 124.934C62.5352 125.054 62.4514 125.156 62.3438 125.227C62.2363 125.299 62.1099 125.337 61.9807 125.337Z" fill="white"/>
<path d="M45.5097 108.866C45.4238 108.866 45.3387 108.849 45.2594 108.815C45.1801 108.782 45.1082 108.734 45.0477 108.673L31.709 95.3366C31.6483 95.2759 31.6002 95.2039 31.5673 95.1246C31.5345 95.0454 31.5176 94.9604 31.5176 94.8746C31.5176 94.7888 31.5345 94.7038 31.5673 94.6246C31.6002 94.5453 31.6483 94.4732 31.709 94.4126C31.7696 94.3519 31.8417 94.3038 31.9209 94.2709C32.0002 94.2381 32.0852 94.2212 32.171 94.2212C32.2568 94.2212 32.3418 94.2381 32.421 94.2709C32.5003 94.3038 32.5723 94.3519 32.633 94.4126L45.9691 107.751C46.0298 107.812 46.078 107.883 46.1108 107.963C46.1437 108.042 46.1606 108.126 46.1606 108.212C46.1606 108.298 46.1437 108.382 46.1108 108.461C46.078 108.541 46.0298 108.612 45.9691 108.673C45.9093 108.734 45.8378 108.783 45.7589 108.816C45.68 108.849 45.5953 108.866 45.5097 108.866Z" fill="white"/>
<path d="M28.5222 128.154C28.4368 128.154 28.3521 128.138 28.2732 128.105C28.1943 128.072 28.1228 128.024 28.0628 127.963C28.002 127.902 27.9538 127.83 27.9209 127.751C27.888 127.672 27.8711 127.587 27.8711 127.501C27.8711 127.415 27.888 127.33 27.9209 127.251C27.9538 127.172 28.002 127.1 28.0628 127.039L43.3541 111.748C43.4142 111.685 43.4861 111.635 43.5657 111.601C43.6452 111.567 43.7308 111.549 43.8175 111.548C43.9041 111.547 43.9901 111.563 44.0703 111.596C44.1506 111.629 44.2235 111.677 44.2849 111.738C44.3462 111.8 44.3948 111.872 44.4277 111.952C44.4606 112.033 44.4773 112.119 44.4766 112.205C44.476 112.292 44.4581 112.377 44.424 112.457C44.39 112.537 44.3404 112.609 44.2781 112.669L28.9738 127.958C28.8548 128.08 28.6926 128.15 28.5222 128.154Z" fill="white"/>
<path d="M47.554 128.676H47.5227C47.4311 128.671 47.3416 128.647 47.2599 128.606C47.1781 128.564 47.1058 128.506 47.0476 128.435L45.9408 127.07C45.8827 127.004 45.8384 126.928 45.8107 126.844C45.783 126.761 45.7724 126.673 45.7795 126.585C45.7866 126.498 45.8114 126.413 45.8522 126.335C45.893 126.257 45.9492 126.188 46.0172 126.133C46.0852 126.077 46.1638 126.036 46.2481 126.012C46.3324 125.987 46.4209 125.98 46.5081 125.99C46.5953 126.001 46.6794 126.029 46.7555 126.073C46.8317 126.117 46.8981 126.175 46.951 126.245L47.614 127.055L49.1541 125.512C49.2766 125.389 49.4428 125.321 49.6161 125.321C49.7894 125.321 49.9556 125.389 50.0782 125.512C50.2007 125.634 50.2695 125.801 50.2695 125.974C50.2695 126.147 50.2007 126.313 50.0782 126.436L48.0291 128.488C47.9665 128.549 47.8922 128.598 47.8106 128.63C47.729 128.662 47.6417 128.678 47.554 128.676Z" fill="white"/>
<path d="M28.1901 96.6235C28.3587 97.1444 28.6475 97.6184 29.0332 98.007L38.7697 107.741C38.8297 107.802 38.9013 107.85 38.9802 107.883C39.0591 107.915 39.1437 107.932 39.2292 107.931C39.3579 107.931 39.4836 107.893 39.5906 107.821C39.6975 107.75 39.781 107.648 39.8303 107.529C39.8797 107.41 39.8929 107.28 39.8681 107.153C39.8433 107.027 39.7818 106.911 39.6912 106.819L30.4193 97.5449L34.8386 93.1257L45.6793 103.956C45.8022 104.075 45.9669 104.141 46.138 104.14C46.3091 104.138 46.4729 104.07 46.5941 103.949C46.7153 103.828 46.7841 103.665 46.7858 103.494C46.7876 103.323 46.722 103.158 46.6033 103.034L35.3032 91.7396C34.9147 91.3538 34.4407 91.065 33.9198 90.8965L28.0857 89.017C27.8391 88.938 27.5755 88.9285 27.3238 88.9895C27.0721 89.0504 26.8421 89.1796 26.6589 89.3627C26.4758 89.5458 26.3467 89.7758 26.2857 90.0275C26.2247 90.2792 26.2343 90.5428 26.3133 90.7894L28.1901 96.6235ZM33.8415 92.2773L29.5736 96.5478C29.5184 96.444 29.4722 96.3357 29.4352 96.2241L28.4433 93.1439L30.4402 91.1471L33.5204 92.139C33.6324 92.1747 33.7408 92.2211 33.8441 92.2773H33.8415ZM27.5767 90.283C27.5896 90.269 27.6066 90.2592 27.6252 90.255C27.6439 90.2508 27.6634 90.2524 27.6811 90.2595L29.0411 90.6955L27.9969 91.7396L27.561 90.3796C27.5549 90.3634 27.5533 90.3458 27.5565 90.3287C27.5598 90.3117 27.5676 90.2959 27.5793 90.283H27.5767Z" fill="white"/>
<path d="M67.1913 123.627L52.7902 109.226C52.6669 109.107 52.502 109.042 52.3309 109.044C52.1598 109.045 51.9962 109.114 51.8754 109.235C51.7545 109.357 51.6861 109.52 51.6849 109.691C51.6837 109.863 51.7497 110.027 51.8687 110.15L63.73 122.014L59.3108 126.433L49.107 116.232C48.9827 116.121 48.8205 116.062 48.6539 116.066C48.4872 116.071 48.3286 116.139 48.2107 116.257C48.0928 116.375 48.0245 116.534 48.0198 116.701C48.0151 116.867 48.0744 117.029 48.1856 117.154L60.9265 129.895C61.6161 130.583 62.5507 130.97 63.5251 130.97C64.4995 130.97 65.4341 130.583 66.1237 129.895L67.1913 128.827C67.8793 128.137 68.2656 127.202 68.2656 126.227C68.2656 125.253 67.8793 124.318 67.1913 123.627ZM66.2699 127.893L65.1996 128.963C64.7541 129.405 64.1517 129.654 63.5238 129.654C62.8959 129.654 62.2935 129.405 61.848 128.963L60.2322 127.37L64.6541 122.933L66.2699 124.549C66.7143 124.993 66.9639 125.596 66.9639 126.225C66.9639 126.853 66.7143 127.456 66.2699 127.9V127.893Z" fill="white"/>
<path d="M46.9979 115.154L49.308 112.844C49.4239 112.728 49.5158 112.591 49.5785 112.439C49.6412 112.288 49.6735 112.126 49.6735 111.962C49.6735 111.798 49.6412 111.636 49.5785 111.484C49.5158 111.333 49.4239 111.195 49.308 111.08L48.7337 110.505L61.7853 97.4537L63.1192 97.1456C63.7084 97.0108 64.226 96.6608 64.5706 96.1642L67.7577 91.5909C67.9261 91.3511 68.0042 91.0595 67.9784 90.7677C67.9526 90.4759 67.8246 90.2025 67.6168 89.996L66.0245 88.4011C65.8177 88.1938 65.5444 88.066 65.2527 88.0402C64.961 88.0145 64.6696 88.0923 64.4296 88.2601L59.8537 91.4499C59.358 91.7942 59.0081 92.3106 58.8722 92.8986L58.572 94.2195L45.5204 107.271L44.9462 106.697C44.7123 106.464 44.3955 106.333 44.0652 106.333C43.7349 106.333 43.4181 106.464 43.1842 106.697L40.8715 109.007C40.5417 108.97 40.2079 109.008 39.8948 109.118C39.5817 109.228 39.2972 109.407 39.0625 109.641L25.9822 122.722C25.5671 123.137 25.334 123.7 25.334 124.288C25.334 124.875 25.5671 125.438 25.9822 125.854L30.1587 130.03C30.5743 130.446 31.1376 130.679 31.7249 130.679C32.3122 130.679 32.8756 130.446 33.2911 130.03L46.3714 116.95C46.6034 116.717 46.78 116.434 46.8884 116.123C46.9969 115.812 47.0343 115.481 46.9979 115.154ZM60.1513 93.1753C60.2144 92.9018 60.3773 92.6617 60.6081 92.5019L65.1422 89.3408L66.6666 90.8652L63.5055 95.4019C63.3456 95.6321 63.1054 95.7941 62.8321 95.8561L61.6705 96.1172L59.8824 94.3317L60.1513 93.1753ZM59.1672 95.4672L60.5402 96.8428L47.8123 109.571L46.4367 108.198L59.1672 95.4672ZM44.0561 107.663L48.3448 111.97L46.4184 113.896L46.3636 113.836L42.1871 109.659L42.127 109.605L44.0561 107.663ZM45.4421 116.031L32.3671 129.122C32.1933 129.288 31.9624 129.38 31.7223 129.38C31.4822 129.38 31.2513 129.288 31.0776 129.122L26.901 124.946C26.7305 124.774 26.6347 124.542 26.6347 124.301C26.6347 124.059 26.7305 123.827 26.901 123.656L39.984 110.573C40.1552 110.403 40.387 110.307 40.6287 110.307C40.8704 110.307 41.1022 110.403 41.2735 110.573L45.45 114.75C45.5343 114.835 45.601 114.936 45.6462 115.047C45.6915 115.158 45.7144 115.277 45.7137 115.397C45.713 115.517 45.6886 115.636 45.642 115.747C45.5954 115.857 45.5275 115.957 45.4421 116.042V116.031Z" fill="white"/>
<path d="M47.9556 122.014C46.9855 122.014 46.0372 122.302 45.2306 122.841C44.424 123.38 43.7954 124.146 43.4241 125.042C43.0529 125.938 42.9558 126.924 43.145 127.876C43.3343 128.827 43.8014 129.701 44.4874 130.387C45.1733 131.073 46.0473 131.54 46.9987 131.729C47.9501 131.919 48.9363 131.821 49.8326 131.45C50.7288 131.079 51.4948 130.45 52.0338 129.644C52.5727 128.837 52.8604 127.889 52.8604 126.919C52.859 125.618 52.3418 124.372 51.4223 123.452C50.5027 122.533 49.256 122.015 47.9556 122.014ZM47.9556 130.516C47.2435 130.516 46.5475 130.305 45.9555 129.909C45.3634 129.513 44.9021 128.951 44.6297 128.293C44.3573 127.635 44.2862 126.911 44.4253 126.213C44.5644 125.515 44.9075 124.873 45.4112 124.37C45.9149 123.867 46.5565 123.524 47.2549 123.385C47.9534 123.247 48.6772 123.318 49.3349 123.591C49.9926 123.864 50.5546 124.326 50.9498 124.918C51.345 125.511 51.5557 126.207 51.5552 126.919C51.5538 127.873 51.174 128.787 50.4992 129.462C49.8244 130.136 48.9096 130.515 47.9556 130.516Z" fill="white"/>
<path d="M42.0438 93.3894L42.9548 93.6243L42.4771 94.4335C42.3391 94.6673 42.2826 94.9403 42.3166 95.2096C42.3506 95.4789 42.4732 95.7293 42.6651 95.9214L43.5865 96.8428C43.7786 97.0347 44.029 97.1573 44.2983 97.1913C44.5677 97.2253 44.8407 97.1689 45.0744 97.0308L45.8836 96.5531L46.1185 97.4641C46.1872 97.727 46.3409 97.9597 46.5558 98.1259C46.7707 98.2921 47.0346 98.3825 47.3062 98.3829H48.6114C48.8831 98.3825 49.1469 98.2921 49.3618 98.1259C49.5767 97.9597 49.7305 97.727 49.7991 97.4641L50.0314 96.5531L50.8432 97.0308C51.077 97.1689 51.35 97.2253 51.6193 97.1913C51.8886 97.1573 52.139 97.0347 52.3311 96.8428L53.2499 95.9214C53.4422 95.7296 53.5653 95.4794 53.5998 95.2101C53.6343 94.9407 53.5782 94.6675 53.4405 94.4335L52.9628 93.6243L53.8712 93.3894C54.1343 93.3212 54.3672 93.1675 54.5335 92.9525C54.6998 92.7376 54.7901 92.4735 54.79 92.2017V90.8965C54.7901 90.6248 54.6998 90.3607 54.5335 90.1457C54.3672 89.9307 54.1343 89.7771 53.8712 89.7088L52.9628 89.4739L53.4405 88.6647C53.5795 88.4302 53.6363 88.1559 53.6018 87.8854C53.5673 87.6149 53.4434 87.3637 53.2499 87.1716L52.3311 86.2528C52.1389 86.0603 51.8882 85.9371 51.6184 85.9026C51.3486 85.8681 51.075 85.9243 50.8406 86.0622L50.0314 86.5399L49.7991 85.6289C49.7305 85.3661 49.5767 85.1333 49.3618 84.9671C49.1469 84.8009 48.8831 84.7105 48.6114 84.7101H47.3062C47.0341 84.7102 46.7697 84.8008 46.5547 84.9676C46.3397 85.1344 46.1863 85.368 46.1185 85.6315L45.8836 86.5399L45.0744 86.0622C44.8405 85.924 44.5672 85.8677 44.2978 85.9022C44.0283 85.9368 43.778 86.0601 43.5865 86.2528L42.6651 87.1716C42.473 87.3641 42.3503 87.6149 42.3163 87.8847C42.2823 88.1545 42.3389 88.428 42.4771 88.6621L42.9548 89.4687L42.0438 89.7036C41.781 89.7723 41.5483 89.926 41.382 90.1409C41.2158 90.3558 41.1254 90.6196 41.125 90.8913V92.1965C41.1243 92.469 41.2141 92.7341 41.3804 92.95C41.5468 93.166 41.7801 93.3205 42.0438 93.3894ZM42.4302 90.9644L44.119 90.5285C44.2173 90.503 44.3082 90.4552 44.3848 90.3886C44.4613 90.322 44.5214 90.2385 44.5602 90.1448C44.5989 90.0516 44.6152 89.9507 44.608 89.8501C44.6007 89.7495 44.57 89.6519 44.5184 89.5653L43.6335 88.0617L44.4662 87.229L45.9671 88.1165C46.0545 88.1678 46.1525 88.198 46.2536 88.2048C46.3546 88.2116 46.4558 88.1948 46.5492 88.1557C46.6428 88.1177 46.726 88.0582 46.7922 87.982C46.8584 87.9058 46.9058 87.8151 46.9304 87.7172L47.3663 86.0257H48.5514L48.9873 87.7172C49.0129 87.815 49.0609 87.9055 49.1275 87.9816C49.1941 88.0577 49.2774 88.1173 49.371 88.1557C49.4638 88.1954 49.5647 88.2125 49.6654 88.2057C49.7662 88.1989 49.8638 88.1683 49.9505 88.1165L51.454 87.229L52.2867 88.0617L51.3992 89.5653C51.3484 89.6525 51.3185 89.7503 51.3117 89.851C51.305 89.9517 51.3216 90.0526 51.3602 90.1458C51.3989 90.2391 51.4586 90.3221 51.5346 90.3885C51.6106 90.4549 51.701 90.5028 51.7986 90.5285L53.4875 90.9644V92.1312L51.7986 92.5645C51.7009 92.5906 51.6106 92.6388 51.5345 92.7054C51.4585 92.7721 51.3989 92.8553 51.3602 92.9487C51.3216 93.0422 51.305 93.1432 51.3118 93.2441C51.3185 93.345 51.3485 93.4429 51.3992 93.5303L52.2867 95.0313L51.454 95.864L49.9427 95.0026C49.8557 94.9512 49.758 94.9207 49.6573 94.9135C49.5566 94.9063 49.4556 94.9226 49.3622 94.9611C49.2689 94.9995 49.1857 95.0591 49.1193 95.1352C49.0529 95.2112 49.005 95.3016 48.9795 95.3993L48.5514 97.0908H47.3741L46.9382 95.3993C46.9136 95.3014 46.8663 95.2107 46.8001 95.1345C46.7338 95.0583 46.6506 94.9988 46.5571 94.9608C46.4634 94.9223 46.3621 94.906 46.2611 94.9133C46.1601 94.9205 46.0622 94.9511 45.975 95.0026L44.474 95.8875L43.6414 95.0548L44.5262 93.5538C44.5781 93.4666 44.6089 93.3686 44.6162 93.2674C44.6235 93.1662 44.6072 93.0647 44.5684 92.9709C44.5296 92.8772 44.4695 92.7938 44.3929 92.7273C44.3163 92.6608 44.2252 92.6131 44.1269 92.588L42.4302 92.1312V90.9644Z" fill="white"/>
<path d="M47.9561 94.1985C47.4325 94.199 46.9205 94.0442 46.4849 93.7537C46.0493 93.4632 45.7096 93.05 45.5089 92.5664C45.3081 92.0828 45.2553 91.5505 45.3572 91.0369C45.459 90.5233 45.7109 90.0514 46.081 89.681C46.451 89.3105 46.9227 89.0582 47.4362 88.9558C47.9497 88.8535 48.482 88.9058 48.9658 89.106C49.4496 89.3063 49.8632 89.6455 50.1541 90.0809C50.4451 90.5162 50.6004 91.028 50.6004 91.5516C50.5997 92.253 50.3209 92.9254 49.8253 93.4216C49.3296 93.9177 48.6574 94.1971 47.9561 94.1985ZM47.9561 90.2126C47.6905 90.212 47.4308 90.2904 47.2097 90.4376C46.9887 90.5848 46.8163 90.7943 46.7144 91.0396C46.6126 91.2849 46.5858 91.5549 46.6375 91.8154C46.6891 92.0759 46.817 92.3152 47.0048 92.503C47.1926 92.6908 47.4319 92.8186 47.6924 92.8703C47.9529 92.922 48.2229 92.8952 48.4682 92.7933C48.7134 92.6915 48.9229 92.5191 49.0702 92.298C49.2174 92.077 49.2957 91.8172 49.2952 91.5516C49.2945 91.1967 49.1532 90.8565 48.9022 90.6055C48.6513 90.3545 48.3111 90.2132 47.9561 90.2126Z" fill="white"/>
<path d="M123.446 164.064C123.531 164.064 123.616 164.047 123.695 164.014C123.774 163.981 123.846 163.933 123.907 163.873C123.968 163.812 124.016 163.74 124.048 163.661C124.081 163.582 124.098 163.497 124.098 163.411V134.94C124.098 134.767 124.167 134.601 124.289 134.479C124.412 134.357 124.578 134.288 124.751 134.288H170.191C170.364 134.288 170.53 134.357 170.653 134.479C170.775 134.601 170.844 134.767 170.844 134.94V163.411C170.844 163.584 170.912 163.75 171.035 163.873C171.157 163.995 171.323 164.064 171.496 164.064C171.669 164.064 171.835 163.995 171.958 163.873C172.08 163.75 172.149 163.584 172.149 163.411V134.94C172.148 134.421 171.942 133.924 171.575 133.557C171.208 133.19 170.71 132.983 170.191 132.983H124.751C124.232 132.983 123.734 133.19 123.367 133.557C123 133.924 122.794 134.421 122.793 134.94V163.411C122.793 163.497 122.809 163.582 122.842 163.661C122.875 163.741 122.923 163.813 122.983 163.873C123.044 163.934 123.116 163.982 123.195 164.015C123.275 164.047 123.36 164.064 123.446 164.064Z" fill="white"/>
<path d="M127.471 137.569C127.385 137.569 127.3 137.585 127.221 137.618C127.141 137.651 127.069 137.699 127.009 137.759C126.948 137.82 126.9 137.892 126.867 137.971C126.835 138.051 126.818 138.136 126.818 138.222V163.411C126.818 163.497 126.835 163.582 126.867 163.661C126.9 163.741 126.948 163.813 127.009 163.873C127.069 163.934 127.141 163.982 127.221 164.015C127.3 164.047 127.385 164.064 127.471 164.064H167.477C167.65 164.064 167.816 163.995 167.938 163.873C168.06 163.75 168.129 163.584 168.129 163.411V138.222C168.129 138.048 168.06 137.882 167.938 137.76C167.816 137.638 167.65 137.569 167.477 137.569H127.471ZM128.124 138.874H138.99V162.759H128.124V138.874ZM166.824 162.759H140.295V138.874H166.824V162.759Z" fill="white"/>
<path d="M174.491 166.264H120.458C119.939 166.265 119.441 166.471 119.074 166.838C118.707 167.205 118.501 167.703 118.5 168.222V170.647C118.5 171.166 118.706 171.664 119.073 172.031C119.441 172.398 119.939 172.605 120.458 172.605H174.491C175.01 172.604 175.508 172.398 175.875 172.031C176.242 171.664 176.448 171.166 176.449 170.647V168.222C176.448 167.703 176.241 167.206 175.874 166.839C175.507 166.472 175.01 166.266 174.491 166.264ZM175.144 170.647C175.144 170.82 175.075 170.986 174.953 171.108C174.83 171.231 174.664 171.3 174.491 171.3H120.458C120.285 171.3 120.119 171.231 119.996 171.108C119.874 170.986 119.805 170.82 119.805 170.647V168.222C119.805 168.049 119.874 167.883 119.996 167.761C120.119 167.638 120.285 167.569 120.458 167.569H174.491C174.664 167.569 174.83 167.638 174.953 167.761C175.075 167.883 175.144 168.049 175.144 168.222V170.647Z" fill="white"/>
<path d="M153.05 169.987H141.899C141.726 169.987 141.56 169.918 141.437 169.795C141.315 169.673 141.246 169.507 141.246 169.334C141.246 169.161 141.315 168.995 141.437 168.873C141.56 168.75 141.726 168.681 141.899 168.681H153.05C153.223 168.681 153.389 168.75 153.511 168.873C153.634 168.995 153.703 169.161 153.703 169.334C153.703 169.507 153.634 169.673 153.511 169.795C153.389 169.918 153.223 169.987 153.05 169.987Z" fill="white"/>
<path d="M134.749 148.932H130.115C129.942 148.932 129.776 148.863 129.654 148.741C129.532 148.618 129.463 148.452 129.463 148.279C129.463 148.106 129.532 147.94 129.654 147.818C129.776 147.695 129.942 147.627 130.115 147.627H134.749C134.922 147.627 135.088 147.695 135.21 147.818C135.333 147.94 135.401 148.106 135.401 148.279C135.401 148.452 135.333 148.618 135.21 148.741C135.088 148.863 134.922 148.932 134.749 148.932Z" fill="white"/>
<path d="M134.749 142.536H130.115C129.942 142.536 129.776 142.468 129.654 142.345C129.532 142.223 129.463 142.057 129.463 141.884C129.463 141.711 129.532 141.545 129.654 141.422C129.776 141.3 129.942 141.231 130.115 141.231H134.749C134.922 141.231 135.088 141.3 135.21 141.422C135.333 141.545 135.401 141.711 135.401 141.884C135.401 142.057 135.333 142.223 135.21 142.345C135.088 142.468 134.922 142.536 134.749 142.536Z" fill="white"/>
<path d="M134.749 152.727H130.115C129.942 152.727 129.776 152.658 129.654 152.536C129.532 152.414 129.463 152.248 129.463 152.075C129.463 151.901 129.532 151.735 129.654 151.613C129.776 151.491 129.942 151.422 130.115 151.422H134.749C134.922 151.422 135.088 151.491 135.21 151.613C135.333 151.735 135.401 151.901 135.401 152.075C135.401 152.248 135.333 152.414 135.21 152.536C135.088 152.658 134.922 152.727 134.749 152.727Z" fill="white"/>
<path d="M134.749 156.523H130.115C129.942 156.523 129.776 156.454 129.654 156.331C129.532 156.209 129.463 156.043 129.463 155.87C129.463 155.697 129.532 155.531 129.654 155.408C129.776 155.286 129.942 155.217 130.115 155.217H134.749C134.922 155.217 135.088 155.286 135.21 155.408C135.333 155.531 135.401 155.697 135.401 155.87C135.401 156.043 135.333 156.209 135.21 156.331C135.088 156.454 134.922 156.523 134.749 156.523Z" fill="white"/>
<path d="M134.749 160.321H130.115C129.942 160.321 129.776 160.252 129.654 160.129C129.532 160.007 129.463 159.841 129.463 159.668C129.463 159.495 129.532 159.329 129.654 159.207C129.776 159.084 129.942 159.015 130.115 159.015H134.749C134.922 159.015 135.088 159.084 135.21 159.207C135.333 159.329 135.401 159.495 135.401 159.668C135.401 159.841 135.333 160.007 135.21 160.129C135.088 160.252 134.922 160.321 134.749 160.321Z" fill="white"/>
<path d="M150.093 155.773C149.964 155.774 149.838 155.735 149.73 155.664C149.622 155.592 149.539 155.49 149.489 155.371C149.44 155.251 149.427 155.12 149.452 154.993C149.477 154.866 149.54 154.75 149.631 154.659L158.326 145.964C158.449 145.841 158.615 145.772 158.788 145.772C158.961 145.772 159.128 145.841 159.25 145.964C159.373 146.086 159.442 146.253 159.442 146.426C159.442 146.599 159.373 146.765 159.25 146.888L150.553 155.583C150.493 155.644 150.421 155.692 150.342 155.725C150.263 155.757 150.179 155.774 150.093 155.773Z" fill="white"/>
<path d="M164.322 144.964C164.323 144.546 164.241 144.132 164.081 143.746C163.921 143.359 163.686 143.009 163.39 142.714L162.497 141.821C162.202 141.526 161.851 141.291 161.465 141.131C161.079 140.972 160.666 140.889 160.248 140.889C159.83 140.889 159.417 140.972 159.031 141.131C158.645 141.291 158.295 141.526 157.999 141.821L147.245 152.573C146.909 152.909 146.658 153.321 146.514 153.774L144.948 158.652C144.886 158.845 144.871 159.049 144.903 159.248C144.935 159.448 145.014 159.637 145.132 159.8C145.251 159.964 145.407 160.097 145.586 160.189C145.766 160.281 145.965 160.33 146.167 160.331C146.301 160.331 146.435 160.31 146.564 160.268L151.442 158.702C151.894 158.556 152.304 158.304 152.64 157.969L161.659 148.953L163.395 147.217C163.691 146.921 163.925 146.57 164.084 146.183C164.243 145.797 164.324 145.382 164.322 144.964ZM146.198 159.013L146.496 158.083L147.127 158.713L146.198 159.013ZM151.038 157.446L148.524 158.256L146.958 156.69L147.767 154.176C147.78 154.135 147.796 154.095 147.814 154.056L151.168 157.41L151.048 157.457L151.038 157.446ZM152.181 156.58L148.631 153.035L156.723 144.943L160.273 148.485L152.181 156.58ZM162.471 146.287L161.197 147.564L157.652 144.019L158.929 142.743C159.28 142.391 159.757 142.194 160.253 142.194C160.75 142.194 161.227 142.391 161.578 142.743L162.471 143.638C162.645 143.812 162.784 144.018 162.878 144.245C162.973 144.473 163.021 144.716 163.021 144.963C163.021 145.209 162.973 145.453 162.878 145.68C162.784 145.907 162.645 146.114 162.471 146.287Z" fill="white"/>
<path d="M145.61 69.9747C145.538 69.9751 145.467 69.9612 145.401 69.9339C145.334 69.9066 145.274 69.8664 145.223 69.8157C145.173 69.765 145.133 69.7047 145.105 69.6384C145.078 69.572 145.064 69.5009 145.064 69.4292V52.7858C145.064 52.7142 145.079 52.6432 145.106 52.577C145.133 52.5108 145.174 52.4507 145.224 52.4C145.275 52.3494 145.335 52.3092 145.401 52.2818C145.467 52.2543 145.538 52.2402 145.61 52.2402C145.682 52.2402 145.753 52.2543 145.819 52.2818C145.885 52.3092 145.945 52.3494 145.996 52.4C146.046 52.4507 146.087 52.5108 146.114 52.577C146.141 52.6432 146.156 52.7142 146.156 52.7858V69.4214C146.157 69.4937 146.144 69.5657 146.117 69.6329C146.09 69.7002 146.05 69.7614 145.999 69.813C145.949 69.8645 145.888 69.9054 145.821 69.9332C145.754 69.961 145.682 69.9751 145.61 69.9747Z" fill="white"/>
<path d="M141.309 43.1511C141.201 43.1506 141.096 43.1182 141.006 43.0579C140.916 42.9976 140.847 42.9122 140.805 42.8124C140.764 42.7125 140.753 42.6027 140.774 42.4967C140.795 42.3907 140.847 42.2933 140.923 42.2166L149.446 33.6939C149.549 33.5901 149.69 33.5317 149.837 33.5317C149.984 33.5317 150.125 33.5901 150.229 33.6939C150.333 33.7978 150.391 33.9386 150.391 34.0855C150.391 34.2323 150.333 34.3732 150.229 34.477L141.706 42.9997C141.653 43.0501 141.591 43.0894 141.523 43.1154C141.455 43.1414 141.382 43.1535 141.309 43.1511Z" fill="white"/>
<path d="M154.268 30.5094L153.391 29.6323C152.824 29.0666 152.056 28.7489 151.255 28.7489C150.454 28.7489 149.685 29.0666 149.118 29.6323L138.588 40.1858C138.27 40.5052 138.031 40.8951 137.891 41.3239L136.351 46.106C136.295 46.2809 136.281 46.4667 136.31 46.6482C136.339 46.8296 136.41 47.0016 136.518 47.1502C136.626 47.2988 136.768 47.4197 136.932 47.5032C137.096 47.5867 137.277 47.6303 137.46 47.6305C137.582 47.6305 137.703 47.6111 137.818 47.573L142.6 46.0329C143.029 45.894 143.419 45.6561 143.738 45.3386L154.268 34.7851C154.834 34.2172 155.151 33.4485 155.151 32.6472C155.151 31.846 154.834 31.0773 154.268 30.5094ZM143.342 44.1666L139.734 40.5591L147.8 32.4932L151.407 36.1007L143.342 44.1666ZM137.474 46.5158C137.46 46.5202 137.446 46.5209 137.433 46.5176C137.42 46.5144 137.407 46.5074 137.398 46.4976C137.387 46.4883 137.38 46.4759 137.378 46.4623C137.375 46.4487 137.376 46.4345 137.382 46.4219L137.735 45.3282L138.57 46.1608L137.474 46.5158ZM142.256 44.9758L139.737 45.785L138.11 44.1587L138.922 41.6398C138.949 41.5496 138.984 41.4622 139.027 41.3787L142.522 44.8844C142.438 44.927 142.351 44.9628 142.261 44.9914L142.256 44.9758ZM153.496 34.0124L152.19 35.3176L148.583 31.7101L149.888 30.405C150.251 30.0438 150.742 29.841 151.253 29.841C151.765 29.841 152.256 30.0438 152.619 30.405L153.496 31.282C153.858 31.6432 154.063 32.1333 154.065 32.6451C154.067 33.1568 153.866 33.6485 153.506 34.0124H153.496Z" fill="white"/>
<path d="M137.501 36.4348C136.568 36.4379 135.655 36.164 134.878 35.6479C134.101 35.1318 133.494 34.3966 133.135 33.5355C132.776 32.6744 132.68 31.726 132.86 30.8105C133.04 29.895 133.488 29.0535 134.147 28.3927C134.805 27.7318 135.645 27.2813 136.56 27.0981C137.475 26.9149 138.424 27.0074 139.286 27.3637C140.148 27.72 140.886 28.3243 141.404 29.0999C141.923 29.8754 142.2 30.7875 142.2 31.7206C142.199 32.9677 141.704 34.1636 140.823 35.047C139.943 35.9303 138.749 36.4293 137.501 36.4348ZM137.501 28.1C136.785 28.1 136.085 28.3124 135.49 28.7102C134.895 29.108 134.43 29.6735 134.156 30.335C133.882 30.9966 133.811 31.7246 133.95 32.4269C134.09 33.1292 134.435 33.7743 134.941 34.2806C135.448 34.787 136.093 35.1318 136.795 35.2715C137.497 35.4112 138.225 35.3395 138.887 35.0655C139.548 34.7915 140.114 34.3274 140.512 33.732C140.91 33.1366 141.122 32.4366 141.122 31.7206C141.121 30.7608 140.739 29.8407 140.06 29.162C139.381 28.4833 138.461 28.1014 137.501 28.1Z" fill="white"/>
<path d="M161.192 37.5755C161.062 32.9511 159.123 28.5624 155.791 25.3529C152.459 22.1435 148.001 20.3694 143.375 20.4121C138.749 20.4549 134.324 22.311 131.052 25.5815C127.78 28.852 125.922 33.2758 125.877 37.9018L121.795 46.2783C121.755 46.3605 121.736 46.4514 121.741 46.5427C121.745 46.6339 121.773 46.7226 121.821 46.8004C121.87 46.8798 121.938 46.9455 122.019 46.9911C122.101 47.0368 122.192 47.061 122.286 47.0614H125.849V55.1534C125.849 55.2983 125.907 55.4371 126.01 55.5393C126.113 55.6415 126.252 55.6989 126.397 55.6989H136.961C138.153 55.6975 139.296 55.2236 140.139 54.381C140.982 53.5384 141.456 52.3959 141.458 51.204C141.458 51.1323 141.444 51.0614 141.417 50.9952C141.389 50.929 141.349 50.8689 141.299 50.8182C141.248 50.7675 141.188 50.7274 141.122 50.6999C141.055 50.6725 140.984 50.6584 140.913 50.6584C140.841 50.6584 140.77 50.6725 140.704 50.6999C140.638 50.7274 140.578 50.7675 140.527 50.8182C140.476 50.8689 140.436 50.929 140.409 50.9952C140.381 51.0614 140.367 51.1323 140.367 51.204C140.363 52.1027 140.004 52.9634 139.369 53.5989C138.733 54.2344 137.873 54.5933 136.974 54.5974H126.942V46.5054C126.942 46.3605 126.885 46.2214 126.783 46.1187C126.681 46.016 126.542 45.9579 126.397 45.9572H123.16L126.916 38.2568C126.953 38.1819 126.971 38.0998 126.971 38.0166C126.971 35.8196 127.408 33.6444 128.256 31.6178C129.104 29.5912 130.348 27.7536 131.913 26.212C133.478 24.6704 135.335 23.4556 137.374 22.6383C139.414 21.821 141.595 21.4176 143.792 21.4515C152.565 21.5821 159.879 28.8205 160.101 37.5885C160.173 40.5422 159.457 43.4616 158.025 46.0462C156.594 48.6307 154.499 50.7869 151.957 52.2925C151.877 52.3416 151.81 52.4107 151.765 52.493C151.719 52.5754 151.695 52.6681 151.696 52.7623V68.8602H135.945V58.1213C135.945 58.0497 135.931 57.9787 135.904 57.9125C135.876 57.8463 135.836 57.7862 135.786 57.7355C135.735 57.6849 135.675 57.6447 135.609 57.6173C135.542 57.5899 135.471 57.5757 135.4 57.5757C135.328 57.5757 135.257 57.5899 135.191 57.6173C135.125 57.6447 135.065 57.6849 135.014 57.7355C134.963 57.7862 134.923 57.8463 134.896 57.9125C134.868 57.9787 134.854 58.0497 134.854 58.1213V69.4214C134.854 69.5661 134.912 69.7048 135.014 69.8071C135.116 69.9094 135.255 69.9669 135.4 69.9669H152.236C152.381 69.9669 152.52 69.9094 152.622 69.8071C152.724 69.7048 152.782 69.5661 152.782 69.4214V53.0938C155.419 51.4688 157.583 49.1805 159.059 46.4574C160.535 43.7344 161.27 40.6718 161.192 37.5755Z" fill="white"/>
<path d="M138.732 30.4101L137.145 31.9946L136.43 31.1201C136.338 31.008 136.206 30.9369 136.062 30.9224C135.918 30.908 135.774 30.9514 135.661 31.0431C135.549 31.1349 135.478 31.2674 135.464 31.4116C135.449 31.5557 135.493 31.6997 135.584 31.8119L136.683 33.1536C136.731 33.2127 136.791 33.2609 136.859 33.2951C136.927 33.3293 137.001 33.3487 137.077 33.352H137.106C137.178 33.3518 137.249 33.3374 137.315 33.3096C137.382 33.2818 137.442 33.2412 137.493 33.1901L139.502 31.1802C139.606 31.0781 139.665 30.9389 139.667 30.7933C139.668 30.6476 139.611 30.5075 139.509 30.4036C139.407 30.2998 139.268 30.2407 139.122 30.2395C138.976 30.2383 138.836 30.295 138.732 30.3971V30.4101Z" fill="white"/>
<circle cx="48" cy="108" r="47.75" stroke="white" stroke-width="0.5"/>
<circle cx="146" cy="152" r="47.75" stroke="white" stroke-width="0.5"/>
<circle cx="144" cy="48" r="47.75" stroke="white" stroke-width="0.5"/>
</svg>
