<svg width="45" height="45" viewBox="0 0 45 45" fill="none" xmlns="http://www.w3.org/2000/svg">
<path d="M41.4764 6.05371H40.2113V7.3188H41.4764C41.6441 7.31891 41.8049 7.38559 41.9235 7.5042C42.0421 7.6228 42.1088 7.78362 42.1089 7.95135V30.0905H2.89107V7.95138C2.89118 7.78365 2.95786 7.62282 3.07646 7.50422C3.19506 7.38562 3.35589 7.31894 3.52361 7.31883H4.7887V6.05371H3.52361C3.02049 6.05426 2.53814 6.25437 2.18238 6.61013C1.82662 6.96589 1.62652 7.44825 1.62598 7.95138V33.8857C1.62653 34.3889 1.82663 34.8712 2.18239 35.227C2.53815 35.5827 3.0205 35.7828 3.52361 35.7834H18.0721C18.0721 38.0256 18.1295 38.0121 17.809 38.6786C17.6645 38.9628 17.5605 39.2657 17.4998 39.5786H15.8972C15.4739 39.5782 15.0626 39.7194 14.7289 39.98C14.3953 40.2405 14.1585 40.6053 14.0563 41.0161L13.6635 42.5882C13.6402 42.6814 13.6384 42.7787 13.6584 42.8727C13.6783 42.9667 13.7194 43.0549 13.7785 43.1307C13.8377 43.2064 13.9133 43.2677 13.9996 43.3098C14.086 43.352 14.1808 43.3739 14.2769 43.3739H30.7231C30.8192 43.3739 30.914 43.352 31.0003 43.3098C31.0867 43.2677 31.1623 43.2064 31.2214 43.1307C31.2806 43.0549 31.3216 42.9667 31.3416 42.8727C31.3615 42.7787 31.3598 42.6814 31.3365 42.5882L30.9436 41.0155C30.8413 40.6048 30.6045 40.2402 30.2709 39.9798C29.9372 39.7194 29.526 39.5782 29.1028 39.5787H27.5001C27.3196 38.609 26.9278 38.5683 26.9278 37.5785V35.7834H41.4764C41.9795 35.7828 42.4618 35.5827 42.8176 35.227C43.1734 34.8712 43.3735 34.3889 43.374 33.8857V7.95138C43.3735 7.44825 43.1734 6.96589 42.8176 6.61013C42.4619 6.25437 41.9795 6.05426 41.4764 6.05371ZM29.7168 41.3225L29.9133 42.1088H15.0867L15.2832 41.3231C15.3173 41.1861 15.3963 41.0645 15.5076 40.9776C15.6189 40.8908 15.756 40.8436 15.8972 40.8438H29.1028C29.2439 40.8436 29.381 40.8907 29.4922 40.9774C29.6035 41.0642 29.6825 41.1856 29.7168 41.3225ZM26.2032 39.5787H18.7968C18.9552 39.1128 19.3373 38.7074 19.3373 37.5785V35.7834H25.6628V37.5785C25.6627 38.7061 26.0476 39.1213 26.2032 39.5787ZM42.1089 33.8857C42.1088 34.0535 42.0421 34.2143 41.9235 34.3329C41.8049 34.4515 41.6441 34.5182 41.4764 34.5183H3.52361C3.35589 34.5182 3.19506 34.4515 3.07646 34.3329C2.95786 34.2143 2.89118 34.0535 2.89107 33.8857V31.3556H42.1089V33.8857Z" fill="#28B4FF"/>
<path d="M4.15625 32.3047H5.42135V33.5698H4.15625V32.3047Z" fill="#28B4FF"/>
<path d="M6.68652 32.3047H7.95162V33.5698H6.68652V32.3047Z" fill="#28B4FF"/>
<path d="M9.2168 32.3047H10.4819V33.5698H9.2168V32.3047Z" fill="#28B4FF"/>
<path d="M37.0484 28.8255C37.5516 28.8249 38.0339 28.6248 38.3897 28.2691C38.7454 27.9133 38.9455 27.431 38.9461 26.9278V3.52361C38.9455 3.0205 38.7454 2.53815 38.3897 2.18239C38.0339 1.82663 37.5516 1.62653 37.0484 1.62598H7.95138C7.44825 1.62652 6.96589 1.82662 6.61013 2.18238C6.25437 2.53814 6.05426 3.02049 6.05371 3.52361V26.9278C6.05425 27.431 6.25436 27.9133 6.61012 28.2691C6.96589 28.6248 7.44825 28.8249 7.95138 28.8255H37.0484ZM9.84893 27.5604V26.2953C9.8496 25.6245 10.1164 24.9813 10.5907 24.5069C11.0651 24.0326 11.7083 23.7658 12.3791 23.7651H14.9093C15.5802 23.7658 16.2233 24.0326 16.6977 24.5069C17.172 24.9813 17.4388 25.6245 17.4395 26.2953V27.5604H9.84893ZM13.6443 22.5C13.2689 22.5 12.9021 22.3887 12.59 22.1802C12.2779 21.9717 12.0347 21.6753 11.8911 21.3286C11.7474 20.9818 11.7099 20.6003 11.7831 20.2322C11.8563 19.864 12.037 19.5259 12.3024 19.2605C12.5678 18.9951 12.9059 18.8144 13.2741 18.7412C13.6422 18.668 14.0237 18.7055 14.3705 18.8492C14.7172 18.9928 15.0136 19.236 15.2221 19.5481C15.4306 19.8602 15.5419 20.227 15.5419 20.6024C15.5414 21.1055 15.3412 21.5878 14.9855 21.9436C14.6297 22.2993 14.1474 22.4995 13.6443 22.5ZM37.681 7.95147V17.1234H33.8857V15.542C33.8845 15.0616 33.7464 14.5916 33.4876 14.1869C33.2288 13.7822 32.8601 13.4596 32.4245 13.257C33.6816 11.5827 32.4792 9.21653 30.4067 9.21653C28.3295 9.21653 27.1337 11.5852 28.389 13.257C27.9534 13.4596 27.5846 13.7822 27.3258 14.1869C27.067 14.5916 26.9289 15.0616 26.9277 15.542V17.1234H23.1325V7.95147H37.681ZM30.4067 13.0118C30.1565 13.0118 29.9119 12.9376 29.7039 12.7986C29.4958 12.6596 29.3337 12.462 29.2379 12.2309C29.1422 11.9997 29.1171 11.7453 29.1659 11.4999C29.2148 11.2545 29.3353 11.0291 29.5122 10.8522C29.6891 10.6753 29.9145 10.5548 30.1599 10.506C30.4053 10.4571 30.6597 10.4822 30.8909 10.5779C31.122 10.6737 31.3196 10.8358 31.4586 11.0439C31.5976 11.2519 31.6718 11.4965 31.6718 11.7467C31.6714 12.0821 31.538 12.4037 31.3008 12.6408C31.0636 12.878 30.7421 13.0114 30.4067 13.0118ZM29.4579 14.2769H31.3556C31.6909 14.2774 32.0125 14.4108 32.2496 14.6479C32.4868 14.8851 32.6202 15.2066 32.6206 15.542V17.1234H28.1928V15.542C28.1933 15.2066 28.3267 14.8851 28.5638 14.6479C28.801 14.4108 29.1225 14.2774 29.4579 14.2769ZM30.4067 23.7651C30.1565 23.7651 29.9119 23.6909 29.7039 23.5519C29.4959 23.4129 29.3337 23.2153 29.238 22.9842C29.1422 22.753 29.1172 22.4986 29.166 22.2532C29.2148 22.0078 29.3353 21.7824 29.5122 21.6055C29.6891 21.4286 29.9145 21.3081 30.1599 21.2592C30.4053 21.2104 30.6597 21.2355 30.8909 21.3312C31.122 21.427 31.3196 21.5891 31.4586 21.7972C31.5976 22.0052 31.6718 22.2498 31.6718 22.5C31.6714 22.8354 31.538 23.1569 31.3008 23.3941C31.0637 23.6312 30.7421 23.7647 30.4067 23.7651ZM29.4579 25.0302H31.3556C31.6909 25.0307 32.0125 25.1641 32.2496 25.4012C32.4868 25.6384 32.6202 25.9599 32.6206 26.2953V27.5604H28.1928V26.2953C28.1933 25.9599 28.3267 25.6384 28.5638 25.4012C28.801 25.164 29.1225 25.0306 29.4579 25.0302ZM37.0484 27.5604H33.8857V26.2953C33.8845 25.8149 33.7464 25.3449 33.4876 24.9402C33.2288 24.5355 32.8601 24.2129 32.4245 24.0103C33.6816 22.336 32.4792 19.9698 30.4067 19.9698C28.3295 19.9698 27.1337 22.3385 28.389 24.0103C27.9534 24.2129 27.5846 24.5355 27.3258 24.9402C27.067 25.3449 26.9289 25.8149 26.9277 26.2953V27.5604H23.1325V18.3885H37.681V26.9278C37.6809 27.0956 37.6142 27.2564 37.4956 27.375C37.377 27.4936 37.2162 27.5603 37.0484 27.5604ZM7.95138 2.89107H37.0484C37.2162 2.89118 37.377 2.95786 37.4956 3.07646C37.6142 3.19506 37.6809 3.35589 37.681 3.52361V6.68635H7.3188V3.52361C7.31891 3.35588 7.3856 3.19505 7.5042 3.07645C7.62281 2.95785 7.78364 2.89117 7.95138 2.89107ZM7.31883 26.9278V7.95147H21.8674V27.5604H18.7046V26.2953C18.7036 25.4831 18.4424 24.6926 17.9594 24.0396C17.4764 23.3866 16.7969 22.9055 16.0206 22.6668C17.8162 20.6024 16.3308 17.4396 13.6442 17.4396C10.9513 17.4396 9.47506 20.6056 11.2679 22.6668C10.4915 22.9055 9.81208 23.3866 9.32908 24.0396C8.84607 24.6926 8.58491 25.4831 8.58387 26.2953V27.5604H7.95138C7.78364 27.5603 7.62281 27.4936 7.5042 27.375C7.3856 27.2564 7.31894 27.0956 7.31883 26.9278Z" fill="#28B4FF"/>
<path d="M8.58398 4.15625H9.84908V5.42135H8.58398V4.15625Z" fill="#28B4FF"/>
<path d="M11.1143 4.15625H12.3794V5.42135H11.1143V4.15625Z" fill="#28B4FF"/>
<path d="M13.6445 4.15625H14.9096V5.42135H13.6445V4.15625Z" fill="#28B4FF"/>
<path d="M22.5 4.15625H36.416V5.42135H22.5V4.15625Z" fill="#28B4FF"/>
<path d="M13.6445 11.7466H18.0724V13.0117H13.6445V11.7466Z" fill="#28B4FF"/>
<path d="M10.4816 15.5418H15.2035L16.2808 17.1577C16.3386 17.2443 16.4169 17.3153 16.5087 17.3644C16.6005 17.4134 16.703 17.4391 16.8071 17.4391C16.9112 17.4391 17.0137 17.4134 17.1055 17.3644C17.1973 17.3153 17.2756 17.2443 17.3334 17.1577L18.4107 15.5418H18.7047C19.2078 15.5412 19.6902 15.3411 20.0459 14.9854C20.4017 14.6296 20.6018 14.1472 20.6024 13.6441V11.1139C20.6018 10.6108 20.4017 10.1285 20.0459 9.77272C19.6902 9.41696 19.2078 9.21686 18.7047 9.21631H10.4816C9.97851 9.21686 9.49615 9.41696 9.1404 9.77272C8.78464 10.1285 8.58453 10.6108 8.58398 11.1139V13.6441C8.58453 14.1472 8.78464 14.6296 9.1404 14.9854C9.49615 15.3411 9.97851 15.5412 10.4816 15.5418ZM9.84907 11.1139C9.84919 10.9462 9.91587 10.7854 10.0345 10.6668C10.1531 10.5482 10.3139 10.4815 10.4816 10.4814H18.7047C18.8724 10.4815 19.0333 10.5482 19.1519 10.6668C19.2705 10.7854 19.3372 10.9462 19.3373 11.1139V13.6441C19.3372 13.8119 19.2705 13.9727 19.1519 14.0913C19.0333 14.2099 18.8724 14.2766 18.7047 14.2767H18.0722C17.968 14.2767 17.8655 14.3024 17.7737 14.3516C17.6819 14.4007 17.6036 14.4717 17.5459 14.5584L16.8071 15.6665L16.0683 14.5584C16.0105 14.4717 15.9323 14.4007 15.8404 14.3516C15.7486 14.3024 15.6461 14.2767 15.542 14.2767H10.4816C10.3139 14.2766 10.1531 14.2099 10.0345 14.0913C9.91587 13.9727 9.84919 13.8119 9.84907 13.6441V11.1139Z" fill="#28B4FF"/>
<path d="M11.1143 11.7466H12.3794V13.0117H11.1143V11.7466Z" fill="#28B4FF"/>
</svg>
