<svg width="45" height="45" viewBox="0 0 45 45" fill="none" xmlns="http://www.w3.org/2000/svg">
<g clip-path="url(#clip0_923_4703)">
<path d="M41.9992 0.75H3.00076C1.34622 0.75 0 2.09631 0 3.75076V28.5C0 28.9139 0.336006 29.2499 0.749971 29.2499H44.2499C44.6639 29.2499 44.9999 28.9139 44.9999 28.5V3.75076C45 2.09631 43.6538 0.75 41.9992 0.75ZM43.5 27.75H1.50003V3.75076C1.50003 2.92274 2.17354 2.25003 3.00076 2.25003H41.9992C42.8265 2.25003 43.5 2.92274 43.5 3.75076V27.75Z" fill="#28B4FF"/>
<path d="M44.25 27.75H0.749971C0.336006 27.75 0 28.086 0 28.5V32.2492C0 33.9038 1.34622 35.25 3.00076 35.25H41.9992C43.6538 35.25 45 33.9038 45 32.2492V28.5C45 28.086 44.664 27.75 44.25 27.75ZM43.5 32.2493C43.5 33.0773 42.8265 33.75 41.9992 33.75H3.00076C2.17354 33.75 1.50003 33.0773 1.50003 32.2493V29.25H43.5001L43.5 32.2493Z" fill="#28B4FF"/>
<path d="M24.75 30.75H20.25C19.836 30.75 19.5 31.086 19.5 31.5C19.5 31.9139 19.836 32.2499 20.25 32.2499H24.75C25.1639 32.2499 25.4999 31.9139 25.4999 31.5C25.4999 31.086 25.1639 30.75 24.75 30.75Z" fill="#28B4FF"/>
<path d="M41.2499 3.75H3.74997C3.33601 3.75 3 4.08601 3 4.49997V28.5C3 28.914 3.33601 29.25 3.74997 29.25H41.25C41.664 29.25 42 28.914 42 28.5V4.49997C42 4.08601 41.664 3.75 41.2499 3.75ZM40.4999 27.7499H4.49994V5.24994H40.4999V27.7499Z" fill="#28B4FF"/>
<path d="M32.2499 39.75H12.75C11.5095 39.75 10.5 40.7595 10.5 42C10.5 43.2405 11.5095 44.25 12.75 44.25H32.25C33.4905 44.25 34.5 43.2405 34.5 42C34.5 40.7595 33.4904 39.75 32.2499 39.75ZM32.2499 42.75H12.75C12.336 42.75 12 42.4133 12 42C12 41.5867 12.336 41.25 12.75 41.25H32.25C32.664 41.25 33 41.5867 33 42C33 42.4133 32.664 42.75 32.2499 42.75Z" fill="#28B4FF"/>
<path d="M30.7499 39.7499C28.2614 39.7499 26.9999 37.9837 26.9999 34.5C26.9999 34.086 26.6639 33.75 26.2499 33.75H18.75C18.336 33.75 18 34.086 18 34.5C18 37.9837 16.7385 39.7499 14.25 39.7499C13.836 39.7499 13.5 40.0859 13.5 40.4999C13.5 40.9139 13.836 41.2499 14.25 41.2499H30.7499C31.1639 41.2499 31.4999 40.9139 31.4999 40.4999C31.4999 40.0859 31.1639 39.7499 30.7499 39.7499ZM17.9031 39.7499C18.8264 38.727 19.3701 37.2037 19.4796 35.2499H25.5209C25.6296 37.2037 26.1734 38.727 27.0974 39.7499H17.9031Z" fill="#28B4FF"/>
<path d="M35.8379 22.8481L34.0275 21.0377L35.0347 20.0305C35.2215 19.8437 35.2964 19.5722 35.2319 19.3164C35.1674 19.0607 34.9732 18.8582 34.7204 18.7817L27.2204 16.5317C26.9557 16.4522 26.67 16.5249 26.4749 16.72C26.2792 16.915 26.2072 17.2014 26.2867 17.4655L28.5367 24.9654C28.6124 25.2189 28.8156 25.4131 29.0714 25.4777C29.3264 25.5407 29.5986 25.4671 29.7854 25.2804L30.8459 24.2192L32.6564 26.0304C32.7966 26.1714 32.9879 26.2501 33.1866 26.2501C33.3853 26.2501 33.5766 26.1714 33.7169 26.0304L35.8378 23.9086C36.1311 23.6154 36.1311 23.1414 35.8379 22.8481ZM33.1866 24.4397L31.5381 22.7904C31.3469 22.5992 31.0964 22.5039 30.8459 22.5039C30.5946 22.5039 30.3441 22.5999 30.1537 22.7896L29.6122 23.3311L28.1234 18.3684L33.0861 19.8571L32.5056 20.4377C32.3458 20.5981 32.2581 20.8112 32.2581 21.0377C32.2581 21.265 32.3466 21.4794 32.5071 21.6384L34.2471 23.3784L33.1866 24.4397Z" fill="#28B4FF"/>
<path d="M31.4999 6.75H10.5C10.086 6.75 9.75 7.08601 9.75 7.49997V11.25C9.75 11.664 10.086 12 10.5 12H31.4999C31.9139 12 32.2499 11.664 32.2499 11.25V7.49997C32.2499 7.08601 31.9139 6.75 31.4999 6.75ZM30.75 10.5H11.2499V8.25003H30.75V10.5Z" fill="#28B4FF"/>
<path d="M19.5 15H13.5C13.086 15 12.75 15.336 12.75 15.75V18.7499C12.75 19.1639 13.086 19.4999 13.5 19.4999H19.5C19.914 19.4999 20.25 19.1639 20.25 18.7499V15.75C20.25 15.336 19.914 15 19.5 15ZM18.7499 18H14.2499V16.4999H18.7499V18Z" fill="#28B4FF"/>
<path d="M31.4999 6.75H10.5C10.086 6.75 9.75 7.08601 9.75 7.49997V21.7499C9.75 22.1639 10.086 22.4999 10.5 22.4999H28.3545C28.5923 22.4999 28.815 22.3882 28.956 22.1977C29.0978 22.0072 29.1413 21.7612 29.073 21.5339L28.1235 18.3682L31.2848 19.317C31.5121 19.3852 31.7581 19.3417 31.9477 19.2C32.1382 19.059 32.25 18.8355 32.25 18.5984V7.49997C32.2499 7.08601 31.9139 6.75 31.4999 6.75ZM30.75 17.5905L27.2197 16.5315C26.9549 16.452 26.6692 16.5248 26.4742 16.7198C26.2784 16.9155 26.2065 17.2013 26.2859 17.4661L27.3464 21.0001H11.2499V8.25003H30.75V17.5905Z" fill="#28B4FF"/>
</g>
<defs>
<clipPath id="clip0_923_4703">
<rect width="45" height="45" fill="white"/>
</clipPath>
</defs>
</svg>
