<svg width="45" height="45" viewBox="0 0 45 45" fill="none" xmlns="http://www.w3.org/2000/svg">
<g clip-path="url(#clip0_923_4676)">
<path d="M11.6016 32.3438H13.0078C13.1943 32.3438 13.3731 32.2697 13.505 32.1378C13.6369 32.0059 13.7109 31.8271 13.7109 31.6406C13.7109 31.4541 13.6369 31.2753 13.505 31.1434C13.3731 31.0116 13.1943 30.9375 13.0078 30.9375H11.6016C11.4151 30.9375 11.2362 31.0116 11.1044 31.1434C10.9725 31.2753 10.8984 31.4541 10.8984 31.6406C10.8984 31.8271 10.9725 32.0059 11.1044 32.1378C11.2362 32.2697 11.4151 32.3438 11.6016 32.3438Z" fill="#28B4FF"/>
<path d="M15.8203 32.3438H17.2266C17.413 32.3438 17.5919 32.2697 17.7237 32.1378C17.8556 32.0059 17.9297 31.8271 17.9297 31.6406C17.9297 31.4541 17.8556 31.2753 17.7237 31.1434C17.5919 31.0116 17.413 30.9375 17.2266 30.9375H15.8203C15.6338 30.9375 15.455 31.0116 15.3231 31.1434C15.1913 31.2753 15.1172 31.4541 15.1172 31.6406C15.1172 31.8271 15.1913 32.0059 15.3231 32.1378C15.455 32.2697 15.6338 32.3438 15.8203 32.3438Z" fill="#28B4FF"/>
<path d="M11.6016 29.5312H13.0078C13.1943 29.5312 13.3731 29.4572 13.505 29.3253C13.6369 29.1934 13.7109 29.0146 13.7109 28.8281C13.7109 28.6416 13.6369 28.4628 13.505 28.3309C13.3731 28.1991 13.1943 28.125 13.0078 28.125H11.6016C11.4151 28.125 11.2362 28.1991 11.1044 28.3309C10.9725 28.4628 10.8984 28.6416 10.8984 28.8281C10.8984 29.0146 10.9725 29.1934 11.1044 29.3253C11.2362 29.4572 11.4151 29.5312 11.6016 29.5312Z" fill="#28B4FF"/>
<path d="M15.8203 29.5312H17.2266C17.413 29.5312 17.5919 29.4572 17.7237 29.3253C17.8556 29.1934 17.9297 29.0146 17.9297 28.8281C17.9297 28.6416 17.8556 28.4628 17.7237 28.3309C17.5919 28.1991 17.413 28.125 17.2266 28.125H15.8203C15.6338 28.125 15.455 28.1991 15.3231 28.3309C15.1913 28.4628 15.1172 28.6416 15.1172 28.8281C15.1172 29.0146 15.1913 29.1934 15.3231 29.3253C15.455 29.4572 15.6338 29.5312 15.8203 29.5312Z" fill="#28B4FF"/>
<path d="M11.6016 26.7188H13.0078C13.1943 26.7188 13.3731 26.6447 13.505 26.5128C13.6369 26.3809 13.7109 26.2021 13.7109 26.0156C13.7109 25.8291 13.6369 25.6503 13.505 25.5184C13.3731 25.3866 13.1943 25.3125 13.0078 25.3125H11.6016C11.4151 25.3125 11.2362 25.3866 11.1044 25.5184C10.9725 25.6503 10.8984 25.8291 10.8984 26.0156C10.8984 26.2021 10.9725 26.3809 11.1044 26.5128C11.2362 26.6447 11.4151 26.7188 11.6016 26.7188Z" fill="#28B4FF"/>
<path d="M15.8203 26.7188H17.2266C17.413 26.7188 17.5919 26.6447 17.7237 26.5128C17.8556 26.3809 17.9297 26.2021 17.9297 26.0156C17.9297 25.8291 17.8556 25.6503 17.7237 25.5184C17.5919 25.3866 17.413 25.3125 17.2266 25.3125H15.8203C15.6338 25.3125 15.455 25.3866 15.3231 25.5184C15.1913 25.6503 15.1172 25.8291 15.1172 26.0156C15.1172 26.2021 15.1913 26.3809 15.3231 26.5128C15.455 26.6447 15.6338 26.7188 15.8203 26.7188Z" fill="#28B4FF"/>
<path d="M11.6016 23.9062H13.0078C13.1943 23.9062 13.3731 23.8322 13.505 23.7003C13.6369 23.5684 13.7109 23.3896 13.7109 23.2031C13.7109 23.0166 13.6369 22.8378 13.505 22.7059C13.3731 22.5741 13.1943 22.5 13.0078 22.5H11.6016C11.4151 22.5 11.2362 22.5741 11.1044 22.7059C10.9725 22.8378 10.8984 23.0166 10.8984 23.2031C10.8984 23.3896 10.9725 23.5684 11.1044 23.7003C11.2362 23.8322 11.4151 23.9062 11.6016 23.9062Z" fill="#28B4FF"/>
<path d="M15.8203 23.9062H17.2266C17.413 23.9062 17.5919 23.8322 17.7237 23.7003C17.8556 23.5684 17.9297 23.3896 17.9297 23.2031C17.9297 23.0166 17.8556 22.8378 17.7237 22.7059C17.5919 22.5741 17.413 22.5 17.2266 22.5H15.8203C15.6338 22.5 15.455 22.5741 15.3231 22.7059C15.1913 22.8378 15.1172 23.0166 15.1172 23.2031C15.1172 23.3896 15.1913 23.5684 15.3231 23.7003C15.455 23.8322 15.6338 23.9062 15.8203 23.9062Z" fill="#28B4FF"/>
<path d="M21.7969 11.9531C21.6104 11.9531 21.4316 12.0272 21.2997 12.1591C21.1678 12.2909 21.0938 12.4698 21.0938 12.6562V14.149L16.6943 12.3912C16.4811 12.3059 16.2502 12.2741 16.0219 12.2986C15.7935 12.3231 15.5747 12.4031 15.3844 12.5317C15.1941 12.6603 15.0382 12.8335 14.9304 13.0363C14.8225 13.239 14.766 13.4651 14.7656 13.6948V19.6875H9.49219V18.6328C9.49219 18.4463 9.41811 18.2675 9.28625 18.1356C9.15439 18.0038 8.97554 17.9297 8.78906 17.9297C8.60258 17.9297 8.42374 18.0038 8.29188 18.1356C8.16002 18.2675 8.08594 18.4463 8.08594 18.6328V28.125H6.32812C5.95516 28.125 5.59748 28.2732 5.33376 28.5369C5.07003 28.8006 4.92188 29.1583 4.92188 29.5312V40.7812C4.54891 40.7812 4.19123 40.9294 3.92751 41.1931C3.66378 41.4569 3.51563 41.8145 3.51562 42.1875V43.5938C3.51563 43.9667 3.66378 44.3244 3.92751 44.5881C4.19123 44.8518 4.54891 45 4.92188 45H40.0781C40.4511 45 40.8088 44.8518 41.0725 44.5881C41.3362 44.3244 41.4844 43.9667 41.4844 43.5938V42.1875C41.4844 41.8145 41.3362 41.4569 41.0725 41.1931C40.8088 40.9294 40.4511 40.7812 40.0781 40.7812V29.5312C40.0781 29.1583 39.93 28.8006 39.6662 28.5369C39.4025 28.2732 39.0448 28.125 38.6719 28.125H36.9141V22.8516C36.9141 22.6651 36.84 22.4862 36.7081 22.3544C36.5763 22.2225 36.3974 22.1484 36.2109 22.1484C36.0245 22.1484 35.8456 22.2225 35.7138 22.3544C35.5819 22.4862 35.5078 22.6651 35.5078 22.8516V23.9062H30.2344V18.7573C30.2353 18.4759 30.1514 18.2008 29.9936 17.9679C29.8358 17.735 29.6115 17.555 29.3498 17.4516L28.125 16.9615V10.5469C28.125 10.3604 28.0509 10.1816 27.9191 10.0497C27.7872 9.91783 27.6084 9.84375 27.4219 9.84375C27.2354 9.84375 27.0566 9.91783 26.9247 10.0497C26.7928 10.1816 26.7188 10.3604 26.7188 10.5469V16.399L25.3125 15.8365V11.6016C25.3125 11.4151 25.2384 11.2362 25.1066 11.1044C24.9747 10.9725 24.7959 10.8984 24.6094 10.8984C24.4229 10.8984 24.2441 10.9725 24.1122 11.1044C23.9803 11.2362 23.9062 11.4151 23.9062 11.6016V15.274L22.5 14.7115V12.6562C22.5 12.4698 22.4259 12.2909 22.2941 12.1591C22.1622 12.0272 21.9834 11.9531 21.7969 11.9531ZM19.3359 21.0938V40.7812H17.9297V35.1562C17.9297 34.7833 17.7815 34.4256 17.5178 34.1619C17.2541 33.8982 16.8964 33.75 16.5234 33.75H12.3047C11.9317 33.75 11.574 33.8982 11.3103 34.1619C11.0466 34.4256 10.8984 34.7833 10.8984 35.1562V40.7812H9.49219V21.0938H19.3359ZM26.1914 40.7812H20.7422V37.9688H26.1914V40.7812ZM16.5234 40.7812H12.3047V35.1562H16.5234V40.7812ZM6.32812 29.5312H8.08594V40.7812H6.32812V29.5312ZM40.0781 43.5938H4.92188V42.1875H40.0781V43.5938ZM30.2344 36.5625H32.6953V40.7812H30.2344V36.5625ZM38.6719 29.5312V40.7812H36.9141V29.5312H38.6719ZM35.5078 25.3125V40.7812H34.1016V36.5625C34.1016 36.1895 33.9534 35.8319 33.6897 35.5681C33.426 35.3044 33.0683 35.1562 32.6953 35.1562H30.2344V33.75H33.3984C33.5849 33.75 33.7638 33.6759 33.8956 33.5441C34.0275 33.4122 34.1016 33.2334 34.1016 33.0469C34.1016 32.8604 34.0275 32.6816 33.8956 32.5497C33.7638 32.4178 33.5849 32.3438 33.3984 32.3438H30.2344V30.9375H33.3984C33.5849 30.9375 33.7638 30.8634 33.8956 30.7316C34.0275 30.5997 34.1016 30.4209 34.1016 30.2344C34.1016 30.0479 34.0275 29.8691 33.8956 29.7372C33.7638 29.6053 33.5849 29.5312 33.3984 29.5312H30.2344V28.125H33.3984C33.5849 28.125 33.7638 28.0509 33.8956 27.9191C34.0275 27.7872 34.1016 27.6084 34.1016 27.4219C34.1016 27.2354 34.0275 27.0566 33.8956 26.9247C33.7638 26.7928 33.5849 26.7188 33.3984 26.7188H30.2344V25.3125H35.5078ZM28.8281 40.7812H27.5977V37.9688C27.5977 37.5958 27.4495 37.2381 27.1858 36.9744C26.9221 36.7107 26.5644 36.5625 26.1914 36.5625H20.7422V21.0938C20.7422 20.7208 20.594 20.3631 20.3303 20.0994C20.0666 19.8357 19.7089 19.6875 19.3359 19.6875H16.1719V13.6955L24.3345 16.9601L27.147 18.0851L28.8281 18.7573V40.7812Z" fill="#28B4FF"/>
<path d="M23.5547 30.9375H22.6758C22.4893 30.9375 22.3105 31.0116 22.1786 31.1434C22.0467 31.2753 21.9727 31.4541 21.9727 31.6406C21.9727 31.8271 22.0467 32.0059 22.1786 32.1378C22.3105 32.2697 22.4893 32.3438 22.6758 32.3438H23.5547C23.7412 32.3438 23.92 32.2697 24.0519 32.1378C24.1837 32.0059 24.2578 31.8271 24.2578 31.6406C24.2578 31.4541 24.1837 31.2753 24.0519 31.1434C23.92 31.0116 23.7412 30.9375 23.5547 30.9375Z" fill="#28B4FF"/>
<path d="M26.8945 30.9375H26.0156C25.8291 30.9375 25.6503 31.0116 25.5184 31.1434C25.3866 31.2753 25.3125 31.4541 25.3125 31.6406C25.3125 31.8271 25.3866 32.0059 25.5184 32.1378C25.6503 32.2697 25.8291 32.3438 26.0156 32.3438H26.8945C27.081 32.3438 27.2599 32.2697 27.3917 32.1378C27.5236 32.0059 27.5977 31.8271 27.5977 31.6406C27.5977 31.4541 27.5236 31.2753 27.3917 31.1434C27.2599 31.0116 27.081 30.9375 26.8945 30.9375Z" fill="#28B4FF"/>
<path d="M23.5547 33.75H22.6758C22.4893 33.75 22.3105 33.8241 22.1786 33.9559C22.0467 34.0878 21.9727 34.2666 21.9727 34.4531C21.9727 34.6396 22.0467 34.8184 22.1786 34.9503C22.3105 35.0822 22.4893 35.1562 22.6758 35.1562H23.5547C23.7412 35.1562 23.92 35.0822 24.0519 34.9503C24.1837 34.8184 24.2578 34.6396 24.2578 34.4531C24.2578 34.2666 24.1837 34.0878 24.0519 33.9559C23.92 33.8241 23.7412 33.75 23.5547 33.75Z" fill="#28B4FF"/>
<path d="M26.8945 33.75H26.0156C25.8291 33.75 25.6503 33.8241 25.5184 33.9559C25.3866 34.0878 25.3125 34.2666 25.3125 34.4531C25.3125 34.6396 25.3866 34.8184 25.5184 34.9503C25.6503 35.0822 25.8291 35.1562 26.0156 35.1562H26.8945C27.081 35.1562 27.2599 35.0822 27.3917 34.9503C27.5236 34.8184 27.5977 34.6396 27.5977 34.4531C27.5977 34.2666 27.5236 34.0878 27.3917 33.9559C27.2599 33.8241 27.081 33.75 26.8945 33.75Z" fill="#28B4FF"/>
<path d="M23.5547 28.125H22.6758C22.4893 28.125 22.3105 28.1991 22.1786 28.3309C22.0467 28.4628 21.9727 28.6416 21.9727 28.8281C21.9727 29.0146 22.0467 29.1934 22.1786 29.3253C22.3105 29.4572 22.4893 29.5312 22.6758 29.5312H23.5547C23.7412 29.5312 23.92 29.4572 24.0519 29.3253C24.1837 29.1934 24.2578 29.0146 24.2578 28.8281C24.2578 28.6416 24.1837 28.4628 24.0519 28.3309C23.92 28.1991 23.7412 28.125 23.5547 28.125Z" fill="#28B4FF"/>
<path d="M26.8945 28.125H26.0156C25.8291 28.125 25.6503 28.1991 25.5184 28.3309C25.3866 28.4628 25.3125 28.6416 25.3125 28.8281C25.3125 29.0146 25.3866 29.1934 25.5184 29.3253C25.6503 29.4572 25.8291 29.5312 26.0156 29.5312H26.8945C27.081 29.5312 27.2599 29.4572 27.3917 29.3253C27.5236 29.1934 27.5977 29.0146 27.5977 28.8281C27.5977 28.6416 27.5236 28.4628 27.3917 28.3309C27.2599 28.1991 27.081 28.125 26.8945 28.125Z" fill="#28B4FF"/>
<path d="M23.5547 25.3125H22.6758C22.4893 25.3125 22.3105 25.3866 22.1786 25.5184C22.0467 25.6503 21.9727 25.8291 21.9727 26.0156C21.9727 26.2021 22.0467 26.3809 22.1786 26.5128C22.3105 26.6447 22.4893 26.7188 22.6758 26.7188H23.5547C23.7412 26.7188 23.92 26.6447 24.0519 26.5128C24.1837 26.3809 24.2578 26.2021 24.2578 26.0156C24.2578 25.8291 24.1837 25.6503 24.0519 25.5184C23.92 25.3866 23.7412 25.3125 23.5547 25.3125Z" fill="#28B4FF"/>
<path d="M26.8945 25.3125H26.0156C25.8291 25.3125 25.6503 25.3866 25.5184 25.5184C25.3866 25.6503 25.3125 25.8291 25.3125 26.0156C25.3125 26.2021 25.3866 26.3809 25.5184 26.5128C25.6503 26.6447 25.8291 26.7188 26.0156 26.7188H26.8945C27.081 26.7188 27.2599 26.6447 27.3917 26.5128C27.5236 26.3809 27.5977 26.2021 27.5977 26.0156C27.5977 25.8291 27.5236 25.6503 27.3917 25.5184C27.2599 25.3866 27.081 25.3125 26.8945 25.3125Z" fill="#28B4FF"/>
<path d="M23.5547 22.5H22.6758C22.4893 22.5 22.3105 22.5741 22.1786 22.7059C22.0467 22.8378 21.9727 23.0166 21.9727 23.2031C21.9727 23.3896 22.0467 23.5684 22.1786 23.7003C22.3105 23.8322 22.4893 23.9062 22.6758 23.9062H23.5547C23.7412 23.9062 23.92 23.8322 24.0519 23.7003C24.1837 23.5684 24.2578 23.3896 24.2578 23.2031C24.2578 23.0166 24.1837 22.8378 24.0519 22.7059C23.92 22.5741 23.7412 22.5 23.5547 22.5Z" fill="#28B4FF"/>
<path d="M26.8945 22.5H26.0156C25.8291 22.5 25.6503 22.5741 25.5184 22.7059C25.3866 22.8378 25.3125 23.0166 25.3125 23.2031C25.3125 23.3896 25.3866 23.5684 25.5184 23.7003C25.6503 23.8322 25.8291 23.9062 26.0156 23.9062H26.8945C27.081 23.9062 27.2599 23.8322 27.3917 23.7003C27.5236 23.5684 27.5977 23.3896 27.5977 23.2031C27.5977 23.0166 27.5236 22.8378 27.3917 22.7059C27.2599 22.5741 27.081 22.5 26.8945 22.5Z" fill="#28B4FF"/>
<path d="M23.5547 19.6875H22.6758C22.4893 19.6875 22.3105 19.7616 22.1786 19.8934C22.0467 20.0253 21.9727 20.2041 21.9727 20.3906C21.9727 20.5771 22.0467 20.7559 22.1786 20.8878C22.3105 21.0197 22.4893 21.0938 22.6758 21.0938H23.5547C23.7412 21.0938 23.92 21.0197 24.0519 20.8878C24.1837 20.7559 24.2578 20.5771 24.2578 20.3906C24.2578 20.2041 24.1837 20.0253 24.0519 19.8934C23.92 19.7616 23.7412 19.6875 23.5547 19.6875Z" fill="#28B4FF"/>
<path d="M26.8945 19.6875H26.0156C25.8291 19.6875 25.6503 19.7616 25.5184 19.8934C25.3866 20.0253 25.3125 20.2041 25.3125 20.3906C25.3125 20.5771 25.3866 20.7559 25.5184 20.8878C25.6503 21.0197 25.8291 21.0938 26.0156 21.0938H26.8945C27.081 21.0938 27.2599 21.0197 27.3917 20.8878C27.5236 20.7559 27.5977 20.5771 27.5977 20.3906C27.5977 20.2041 27.5236 20.0253 27.3917 19.8934C27.2599 19.7616 27.081 19.6875 26.8945 19.6875Z" fill="#28B4FF"/>
<path d="M8.78906 16.875C8.97554 16.875 9.15439 16.8009 9.28625 16.6691C9.41811 16.5372 9.49219 16.3584 9.49219 16.1719V14.4141C9.49219 14.2276 9.41811 14.0487 9.28625 13.9169C9.15439 13.785 8.97554 13.7109 8.78906 13.7109C8.60258 13.7109 8.42374 13.785 8.29188 13.9169C8.16002 14.0487 8.08594 14.2276 8.08594 14.4141V16.1719C8.08594 16.3584 8.16002 16.5372 8.29188 16.6691C8.42374 16.8009 8.60258 16.875 8.78906 16.875Z" fill="#28B4FF"/>
<path d="M35.5078 18.6328V20.3906C35.5078 20.5771 35.5819 20.7559 35.7138 20.8878C35.8456 21.0197 36.0245 21.0938 36.2109 21.0938C36.3974 21.0938 36.5763 21.0197 36.7081 20.8878C36.84 20.7559 36.9141 20.5771 36.9141 20.3906V18.6328C36.9141 18.4463 36.84 18.2675 36.7081 18.1356C36.5763 18.0038 36.3974 17.9297 36.2109 17.9297C36.0245 17.9297 35.8456 18.0038 35.7138 18.1356C35.5819 18.2675 35.5078 18.4463 35.5078 18.6328Z" fill="#28B4FF"/>
<path d="M40.6294 15.0692C41.5302 14.1907 42.1486 13.0635 42.4056 11.8317C42.6627 10.5999 42.5466 9.31946 42.0724 8.15394C41.5981 6.98843 40.7871 5.99076 39.7431 5.28842C38.699 4.58607 37.4693 4.21094 36.2109 4.21094C34.9526 4.21094 33.7229 4.58607 32.6788 5.28842C31.6348 5.99076 30.8238 6.98843 30.3495 8.15394C29.8752 9.31946 29.7592 10.5999 30.0162 11.8317C30.2733 13.0635 30.8917 14.1907 31.7925 15.0692C31.8059 15.0826 31.8199 15.0939 31.834 15.1065C33.0087 16.2409 34.5779 16.875 36.2109 16.875C37.844 16.875 39.4132 16.2409 40.5879 15.1065C40.602 15.0939 40.616 15.0826 40.6294 15.0692ZM36.2109 5.62487C37.1114 5.62375 37.9948 5.86998 38.7649 6.33669C39.5349 6.8034 40.162 7.47266 40.5776 8.27143C40.9932 9.0702 41.1815 9.96779 41.1218 10.8662C41.0621 11.7647 40.7568 12.6295 40.2391 13.3663C39.7495 12.6528 39.079 12.0823 38.2964 11.7132C38.6616 11.3096 38.9019 10.8087 38.988 10.2713C39.0741 9.73381 39.0025 9.18291 38.7817 8.68538C38.5609 8.18786 38.2005 7.76509 37.7442 7.46836C37.2879 7.17162 36.7553 7.01368 36.2109 7.01368C35.6666 7.01368 35.134 7.17162 34.6777 7.46836C34.2214 7.76509 33.861 8.18786 33.6402 8.68538C33.4194 9.18291 33.3477 9.73381 33.4339 10.2713C33.52 10.8087 33.7603 11.3096 34.1255 11.7132C33.3428 12.0823 32.6724 12.6528 32.1827 13.3663C31.6651 12.6295 31.3598 11.7647 31.3001 10.8662C31.2404 9.96779 31.4286 9.0702 31.8443 8.27143C32.2599 7.47266 32.887 6.8034 33.657 6.33669C34.4271 5.86998 35.3105 5.62375 36.2109 5.62487ZM34.8047 9.84362C34.8047 9.56549 34.8872 9.29361 35.0417 9.06235C35.1962 8.8311 35.4158 8.65085 35.6728 8.54442C35.9298 8.43798 36.2125 8.41013 36.4853 8.46439C36.7581 8.51865 37.0086 8.65259 37.2053 8.84925C37.402 9.04592 37.5359 9.29649 37.5902 9.56928C37.6444 9.84206 37.6166 10.1248 37.5101 10.3818C37.4037 10.6387 37.2235 10.8584 36.9922 11.0129C36.761 11.1674 36.4891 11.2499 36.2109 11.2499C35.838 11.2499 35.4803 11.1017 35.2166 10.838C34.9528 10.5743 34.8047 10.2166 34.8047 9.84362ZM33.172 14.4139C33.4801 13.8806 33.9231 13.4377 34.4565 13.1297C34.9899 12.8218 35.595 12.6597 36.2109 12.6597C36.8269 12.6597 37.432 12.8218 37.9654 13.1297C38.4988 13.4377 38.9418 13.8806 39.2498 14.4139C38.3852 15.0993 37.3143 15.4722 36.2109 15.4722C35.1076 15.4722 34.0367 15.0993 33.172 14.4139Z" fill="#28B4FF"/>
<path d="M8.7889 2.79902e-06C7.53096 -0.0011806 6.30125 0.372911 5.25708 1.07443C4.21291 1.77595 3.40174 2.773 2.92732 3.93805C2.4529 5.10311 2.33681 6.3832 2.59389 7.61459C2.85097 8.84599 3.46953 9.9727 4.37046 10.8506C4.38382 10.864 4.39788 10.8752 4.41195 10.8879C5.58662 12.0223 7.15587 12.6564 8.7889 12.6564C10.4219 12.6564 11.9912 12.0223 13.1659 10.8879C13.1799 10.8752 13.194 10.864 13.2073 10.8506C14.1083 9.9727 14.7268 8.84599 14.9839 7.61459C15.241 6.3832 15.1249 5.10311 14.6505 3.93805C14.1761 2.773 13.3649 1.77595 12.3207 1.07443C11.2765 0.372911 10.0468 -0.0011806 8.7889 2.79902e-06ZM5.74999 10.1953C6.05803 9.66194 6.50102 9.21904 7.03445 8.91111C7.56789 8.60318 8.17297 8.44107 8.7889 8.44107C9.40483 8.44107 10.0099 8.60318 10.5433 8.91111C11.0768 9.21904 11.5198 9.66194 11.8278 10.1953C10.9631 10.8806 9.89222 11.2536 8.7889 11.2536C7.68558 11.2536 6.61465 10.8806 5.74999 10.1953ZM7.38265 5.625C7.38265 5.34687 7.46513 5.07499 7.61965 4.84373C7.77417 4.61248 7.99379 4.43223 8.25075 4.3258C8.50771 4.21936 8.79046 4.19151 9.06325 4.24577C9.33603 4.30003 9.5866 4.43397 9.78327 4.63063C9.97994 4.8273 10.1139 5.07787 10.1681 5.35066C10.2224 5.62344 10.1945 5.90619 10.0881 6.16315C9.98167 6.42011 9.80143 6.63974 9.57017 6.79426C9.33891 6.94878 9.06703 7.03125 8.7889 7.03125C8.41594 7.03125 8.05825 6.88309 7.79453 6.61937C7.53081 6.35565 7.38265 5.99796 7.38265 5.625ZM12.8171 9.14766C12.3275 8.43421 11.657 7.86371 10.8744 7.49461C11.2396 7.09101 11.4798 6.5901 11.566 6.05264C11.6521 5.51519 11.5804 4.96429 11.3596 4.46676C11.1389 3.96924 10.7785 3.54647 10.3221 3.24974C9.86583 2.953 9.33321 2.79506 8.7889 2.79506C8.24459 2.79506 7.71197 2.953 7.25566 3.24974C6.79934 3.54647 6.43893 3.96924 6.21815 4.46676C5.99737 4.96429 5.9257 5.51519 6.01184 6.05264C6.09798 6.5901 6.33822 7.09101 6.70343 7.49461C5.92079 7.86371 5.25033 8.43421 4.7607 9.14766C4.24301 8.41031 3.93764 7.54501 3.87787 6.64606C3.8181 5.74711 4.00621 4.84899 4.42171 4.04959C4.83721 3.25019 5.46416 2.58017 6.23424 2.11254C7.00431 1.64492 7.88796 1.39763 8.7889 1.39763C9.68984 1.39763 10.5735 1.64492 11.3436 2.11254C12.1136 2.58017 12.7406 3.25019 13.1561 4.04959C13.5716 4.84899 13.7597 5.74711 13.6999 6.64606C13.6402 7.54501 13.3348 8.41031 12.8171 9.14766Z" fill="#28B4FF"/>
</g>
<defs>
<clipPath id="clip0_923_4676">
<rect width="45" height="45" fill="white"/>
</clipPath>
</defs>
</svg>
