<svg width="45" height="45" viewBox="0 0 45 45" fill="none" xmlns="http://www.w3.org/2000/svg">
<g clip-path="url(#clip0_921_4634)">
<path d="M7.57861 11.2104H42.0786" stroke="#28B4FF" stroke-miterlimit="13.3333" stroke-linecap="round" stroke-linejoin="round"/>
<path d="M11.4471 7.57909C10.4208 7.57909 9.63135 6.7896 9.63135 5.76328V2.13172C9.63135 1.10541 10.4208 0.315918 11.4471 0.315918C12.4735 0.315918 13.2629 1.10541 13.2629 2.13172V5.76328C13.2629 6.7896 12.4735 7.57909 11.4471 7.57909Z" stroke="#28B4FF" stroke-miterlimit="13.3333" stroke-linecap="round" stroke-linejoin="round"/>
<path d="M31.4208 7.57909C32.4471 7.57909 33.2366 6.7896 33.2366 5.76328V2.13172C33.2366 1.10541 32.4471 0.315918 31.4208 0.315918C30.3944 0.315918 29.605 1.10541 29.605 2.13172V5.76328C29.605 6.7896 30.3944 7.57909 31.4208 7.57909Z" stroke="#28B4FF" stroke-miterlimit="13.3333" stroke-linecap="round" stroke-linejoin="round"/>
<path d="M42.4734 31.6317V5.89489C42.4734 4.86858 41.684 4.0791 40.6577 4.0791H33.6313" stroke="#28B4FF" stroke-miterlimit="13.3333" stroke-linecap="round" stroke-linejoin="round"/>
<path d="M21.7104 40.9736H30.5526" stroke="#28B4FF" stroke-miterlimit="13.3333" stroke-linecap="round" stroke-linejoin="round"/>
<path d="M9.31574 4.02637H2.28942C1.26311 4.02637 0.473633 4.81583 0.473633 5.84215V39.1579C0.473633 40.1843 1.26311 40.9737 2.28942 40.9737H14.5263" stroke="#28B4FF" stroke-miterlimit="13.3333" stroke-linecap="round" stroke-linejoin="round"/>
<path d="M29.2629 4.02637H13.6313" stroke="#28B4FF" stroke-miterlimit="13.3333" stroke-linecap="round" stroke-linejoin="round"/>
<path d="M29.1057 36.7105H4.71094V15.4736H38.1057V29.5263" stroke="#28B4FF" stroke-miterlimit="13.3333" stroke-linecap="round" stroke-linejoin="round"/>
<path d="M44.6052 37.0262C44.6052 32.842 41.2104 29.4473 37.0262 29.4473C32.842 29.4473 29.4473 32.842 29.4473 37.0262C29.4473 41.2104 32.842 44.6052 37.0262 44.6052C41.2104 44.6052 44.6052 41.2104 44.6052 37.0262Z" stroke="#28B4FF" stroke-miterlimit="13.3333" stroke-linecap="round" stroke-linejoin="round"/>
<path d="M35.0264 37.0264L36.9211 38.9211L40.3158 35.5264" stroke="#28B4FF" stroke-miterlimit="13.3333" stroke-linecap="round" stroke-linejoin="round"/>
<path d="M5 22.5791H38" stroke="#28B4FF" stroke-miterlimit="13.3333" stroke-linecap="round" stroke-linejoin="round"/>
<path d="M5 29.6055H35.8684" stroke="#28B4FF" stroke-miterlimit="13.3333" stroke-linecap="round" stroke-linejoin="round"/>
<path d="M11.3682 15.4736V36.5526" stroke="#28B4FF" stroke-miterlimit="13.3333" stroke-linecap="round" stroke-linejoin="round"/>
<path d="M18.0786 15.4736V36.5526" stroke="#28B4FF" stroke-miterlimit="13.3333" stroke-linecap="round" stroke-linejoin="round"/>
<path d="M24.7891 15.4736V36.5526" stroke="#28B4FF" stroke-miterlimit="13.3333" stroke-linecap="round" stroke-linejoin="round"/>
<path d="M31.4209 15.4736V31.8947" stroke="#28B4FF" stroke-miterlimit="13.3333" stroke-linecap="round" stroke-linejoin="round"/>
</g>
<defs>
<clipPath id="clip0_921_4634">
<rect width="45" height="45" fill="white"/>
</clipPath>
</defs>
</svg>
