<svg width="277" height="200" viewBox="0 0 277 200" fill="none" xmlns="http://www.w3.org/2000/svg">
<path fill-rule="evenodd" clip-rule="evenodd" d="M0 198.884V145.56H21.4574V153.259H8.23404V167.237H17.753V174.942H8.23404V190.884H21.4574V198.884H0Z" fill="white"/>
<path fill-rule="evenodd" clip-rule="evenodd" d="M23.417 198.884L33.161 171.772L23.5671 145.56H32.1059L37.0904 161.268H37.4702L42.7549 145.56H51.139L41.8452 171.092L51.969 198.884H43.3598L37.9954 181.511H37.6907L31.8762 198.884H23.417Z" fill="#28B4FF"/>
<path fill-rule="evenodd" clip-rule="evenodd" d="M54.9886 185.215V157.873C54.9886 153.653 56.1234 150.371 58.3929 147.979C60.6625 145.588 63.9026 144.425 67.9071 144.425C71.6584 144.425 74.711 145.635 76.9712 148.054C79.161 150.544 80.2958 153.869 80.2958 158.098V163.233H71.8554V157.343C71.8554 155.529 71.5553 154.094 70.7957 153.189C70.1204 152.279 69.0607 151.829 67.6258 151.829C67.0278 151.797 66.4304 151.903 65.8799 152.138C65.3294 152.374 64.8405 152.734 64.4513 153.189C63.776 154.094 63.3962 155.533 63.3962 157.343V187.105C63.3962 188.981 63.776 190.355 64.4513 191.26C64.8249 191.738 65.309 192.118 65.8619 192.368C66.4148 192.618 67.0201 192.73 67.6258 192.694C69.0654 192.694 70.1157 192.226 70.7957 191.26C71.5553 190.355 71.8554 188.995 71.8554 187.105V179.856H80.2958V185.44C80.2958 190.13 79.236 193.674 76.9712 196.225C74.786 198.72 71.6819 200 67.593 200C63.4384 200 60.2639 198.72 58.1491 196.225C56.0344 193.731 54.9746 190.031 54.9746 185.201L54.9886 185.215Z" fill="#28B4FF"/>
<path fill-rule="evenodd" clip-rule="evenodd" d="M87.3252 198.884V145.56H108.778V153.259H95.5545V167.237H105.073V174.942H95.5545V190.884H108.778V198.884H87.3252Z" fill="#28B4FF"/>
<path fill-rule="evenodd" clip-rule="evenodd" d="M115.117 198.884V145.56H123.276V191.185H136.04V198.884H115.117Z" fill="#28B4FF"/>
<path fill-rule="evenodd" clip-rule="evenodd" d="M0 110.359L7.85895 109.149C8.00431 111.869 8.53418 113.838 9.44387 115.118C10.2738 116.474 11.6337 117.078 13.2936 117.078C13.974 117.112 14.6538 117.004 15.2905 116.762C15.9271 116.519 16.5069 116.148 16.9933 115.672C17.4559 115.176 17.8149 114.593 18.0492 113.957C18.2835 113.321 18.3884 112.644 18.3579 111.967C18.3579 109.154 16.1681 105.548 11.7087 101.182L10.9537 100.427C6.64915 96.1228 3.84976 92.7982 2.64466 90.4583C1.43382 88.1768 0.790456 85.6371 0.76902 83.0542C0.700617 79.5179 2.0301 76.0973 4.46873 73.5353C5.6289 72.2972 7.03473 71.3148 8.59632 70.6511C10.1579 69.9874 11.8408 69.6569 13.5374 69.6809C17.0074 69.6809 19.8818 70.8907 22.0716 73.2353C24.2614 75.5798 25.5463 78.8247 25.8229 82.9042L17.8186 84.0389C17.6686 81.6147 17.2137 79.9594 16.5338 78.8809C15.8539 77.8024 14.7941 77.371 13.2842 77.371C12.6957 77.3591 12.1108 77.4668 11.5651 77.6876C11.0194 77.9085 10.5243 78.2379 10.1097 78.6559C9.28975 79.6823 8.86248 80.9674 8.90461 82.2805C8.90461 85.3753 11.4743 89.4595 16.6839 94.4394L17.1528 94.9083C20.9259 98.6096 23.4174 101.631 24.6272 103.972C25.792 106.404 26.3824 109.07 26.3528 111.766C26.3528 115.62 25.143 118.799 22.7281 121.36C20.3085 123.849 17.2888 125.059 13.5891 125.059C9.50953 125.059 6.25998 123.774 3.91542 121.13C1.50053 118.57 0.225077 114.945 0 110.359Z" fill="white"/>
<path fill-rule="evenodd" clip-rule="evenodd" d="M31.5112 70.5293H39.8953V111.85C39.8558 113.188 40.2835 114.497 41.1051 115.554C41.5052 115.996 41.9961 116.345 42.544 116.579C43.092 116.813 43.684 116.926 44.2796 116.909C44.8545 116.94 45.4284 116.833 45.9537 116.598C46.4789 116.362 46.9403 116.004 47.2994 115.554C48.1072 114.494 48.5096 113.18 48.4342 111.85V70.5293H56.8182V110.41C56.8182 115.099 55.7585 118.724 53.5687 121.195C51.3789 123.666 48.2794 124.97 44.1905 124.97C40.1016 124.97 36.9365 123.685 34.7466 121.195C32.5568 118.625 31.4971 115.001 31.4971 110.166L31.5112 70.5293Z" fill="#28B4FF"/>
<path fill-rule="evenodd" clip-rule="evenodd" d="M63.7529 110.19V82.8431C63.7529 78.6229 64.8877 75.3405 67.1478 72.949C69.4924 70.6045 72.6669 69.3994 76.6667 69.3994C80.4462 69.3994 83.4691 70.6076 85.7355 73.0241C87.9253 75.514 89.0553 78.8386 89.0553 83.0681V88.2262H80.6149V82.3132C80.6149 80.5032 80.3101 79.0637 79.5552 78.1587C78.8768 77.2521 77.8187 76.7988 76.3807 76.7988C75.7834 76.7673 75.187 76.8736 74.6374 77.1094C74.0877 77.3452 73.5997 77.7042 73.2109 78.1587C72.5263 79.0637 72.1511 80.5032 72.1511 82.3132V112.075C72.1511 113.951 72.5263 115.325 73.2109 116.23C73.5836 116.708 74.0666 117.089 74.6186 117.339C75.1707 117.59 75.7753 117.703 76.3807 117.669C77.8155 117.669 78.8753 117.2 79.5552 116.23C80.3101 115.325 80.6149 113.965 80.6149 112.075V104.821H89.0553V110.41C89.0553 115.099 87.9956 118.649 85.7308 121.195C83.5363 123.685 80.4415 124.97 76.3526 124.97C72.198 124.97 69.0282 123.685 66.9134 121.195C64.7986 118.705 63.7529 115.048 63.7529 110.19Z" fill="#28B4FF"/>
<path fill-rule="evenodd" clip-rule="evenodd" d="M95.1006 110.19V82.8431C95.1006 78.6229 96.2353 75.3405 98.5002 72.949C100.845 70.6045 104.015 69.3994 108.019 69.3994C111.795 69.3994 114.817 70.6076 117.083 73.0241C119.273 75.514 120.408 78.8386 120.408 83.0681V88.2262H111.967V82.3132C111.967 80.5032 111.662 79.0637 110.908 78.1587C110.229 77.2521 109.173 76.7988 107.738 76.7988C107.14 76.7666 106.542 76.8725 105.992 77.1083C105.441 77.3441 104.953 77.7035 104.563 78.1587C103.883 79.0637 103.508 80.5032 103.508 82.3132V112.075C103.508 113.951 103.883 115.325 104.563 116.23C104.936 116.708 105.42 117.09 105.973 117.34C106.526 117.591 107.132 117.704 107.738 117.669C109.173 117.669 110.228 117.2 110.908 116.23C111.662 115.325 111.967 113.965 111.967 112.075V104.821H120.408V110.41C120.408 115.099 119.353 118.649 117.083 121.195C114.893 123.685 111.794 124.97 107.705 124.97C103.55 124.97 100.376 123.685 98.261 121.195C96.1463 118.705 95.1006 115.048 95.1006 110.19Z" fill="#28B4FF"/>
<path fill-rule="evenodd" clip-rule="evenodd" d="M127.432 123.858V70.5293H148.884V78.2335H135.661V92.207H145.18V99.9112H135.661V115.854H148.884V123.858H127.432Z" fill="#28B4FF"/>
<path fill-rule="evenodd" clip-rule="evenodd" d="M155.229 123.858V70.5293H176.681V78.2335H163.463V92.207H172.981V99.9112H163.463V115.854H176.681V123.858H155.229Z" fill="#28B4FF"/>
<path fill-rule="evenodd" clip-rule="evenodd" d="M183.025 123.858V70.5293H194.748C199.278 70.5293 202.602 71.7344 204.788 74.079C206.973 76.4235 208.037 80.1748 208.037 85.1828V108.975C208.037 114.19 207.057 117.964 204.942 120.309C202.903 122.653 199.578 123.858 195.123 123.858H183.025ZM191.184 116.004H195.344C196.75 116.004 197.909 115.535 198.589 114.64C199.268 113.744 199.644 112.295 199.644 110.42V84.7279C199.644 82.5428 199.114 80.9532 198.059 79.8981C196.999 78.9134 195.339 78.3882 193.074 78.3882H191.199L191.184 116.004Z" fill="#28B4FF"/>
<path fill-rule="evenodd" clip-rule="evenodd" d="M0 8.85312V1.14893H25.3024V8.85312H16.7682V54.4781H8.53417V8.85312H0Z" fill="white"/>
<path fill-rule="evenodd" clip-rule="evenodd" d="M37.2417 32.0407V54.4781H29.0029V1.14893H41.0914C45.6258 1.14893 48.8707 2.35871 50.9386 4.7736C53.0065 7.18849 53.9162 11.0992 53.9162 16.5573C53.9162 19.8819 53.5363 22.6016 52.7064 24.6413C51.9063 26.6883 50.5136 28.45 48.7066 29.7009L54.7461 54.4781H46.226L41.1665 32.0407H37.2417ZM37.2417 8.85312V24.3272H40.4912C42.3669 24.3272 43.7361 23.802 44.416 22.5922C45.1757 21.4574 45.5539 19.3426 45.5508 16.2478C45.5508 13.4344 45.171 11.4837 44.416 10.4287C43.5861 9.37361 42.2262 8.84374 40.1958 8.84374L37.2417 8.85312Z" fill="#28B4FF"/>
<path fill-rule="evenodd" clip-rule="evenodd" d="M67.6778 35.3653H73.9518L71.1383 13.0827H70.6084L67.6778 35.3653ZM56.8037 54.4781L65.5677 1.14893H76.2916L85.0509 54.4781H76.6105L74.9505 42.9195H66.6274L64.8877 54.4781H56.8037Z" fill="#28B4FF"/>
<path fill-rule="evenodd" clip-rule="evenodd" d="M89.7354 54.4781V1.14893H97.1394L107.563 33.0348C107.793 33.6397 108.032 34.4697 108.323 35.4497C108.548 36.4297 108.848 37.5645 109.148 38.6993C108.928 37.1143 108.679 35.6795 108.473 34.39C108.347 33.4395 108.271 32.4833 108.243 31.5249V1.14893H115.947V54.4781H108.243L98.1992 25.0165C98.1269 24.8207 98.075 24.618 98.0444 24.4116C97.4091 22.7078 96.8798 20.9664 96.4595 19.1973C96.7643 21.0729 96.9894 22.6016 97.1394 23.8864C97.2689 24.7877 97.3457 25.6958 97.3692 26.6061V54.4828L89.7354 54.4781Z" fill="#28B4FF"/>
<path fill-rule="evenodd" clip-rule="evenodd" d="M121.843 40.9548L129.697 39.745C129.852 42.4694 130.382 44.4341 131.287 45.7189C132.117 47.0741 133.476 47.6789 135.136 47.6789C135.819 47.7076 136.501 47.595 137.138 47.3481C137.776 47.1012 138.355 46.7253 138.841 46.2441C139.302 45.7489 139.66 45.1665 139.894 44.5313C140.127 43.896 140.231 43.2205 140.201 42.5444C140.201 39.7309 138.006 36.1203 133.551 31.7594L132.797 31.0045C128.487 26.6999 125.697 23.3706 124.487 21.0307C123.277 18.7509 122.633 16.2127 122.612 13.6314C122.542 10.0939 123.874 6.67226 126.316 4.11245C127.474 2.87376 128.878 1.89126 130.438 1.2282C131.999 0.565151 133.68 0.236263 135.376 0.262708C138.855 0.262708 141.725 1.46781 143.914 3.81236C146.104 6.22725 147.389 9.40177 147.694 13.4766L139.685 14.6114C139.53 12.1965 139.08 10.5318 138.4 9.45334C137.72 8.37485 136.665 7.94347 135.15 7.94347C134.563 7.92988 133.979 8.03639 133.433 8.25651C132.888 8.47663 132.394 8.80571 131.981 9.22358C131.157 10.2482 130.728 11.5342 130.771 12.8483C130.771 15.9478 133.336 20.0273 138.55 25.0118L139.019 25.4807C142.798 29.1788 145.291 32.2002 146.498 34.5448C147.678 36.993 148.273 39.6816 148.238 42.399C148.238 46.2535 147.028 49.4327 144.613 51.9976C142.193 54.4875 139.174 55.6973 135.469 55.6973C131.394 55.6973 128.145 54.4078 125.805 51.7678C123.353 49.1888 122.073 45.5641 121.843 40.9548Z" fill="#28B4FF"/>
<path fill-rule="evenodd" clip-rule="evenodd" d="M153.948 54.4781V1.14893H175.401V8.85312H162.178V22.822H171.697V30.5355H162.178V54.4781H153.948Z" fill="#28B4FF"/>
<path fill-rule="evenodd" clip-rule="evenodd" d="M178.177 13.4437C178.177 9.22346 179.307 5.96924 181.571 3.54966C183.916 1.2051 187.086 0 191.09 0C194.87 0 197.891 1.20822 200.154 3.62467C202.344 6.11927 203.479 9.44385 203.479 13.6734V41.0203C203.479 45.7094 202.419 49.2497 200.154 51.8052C197.965 54.2952 194.87 55.5847 190.776 55.5847C186.683 55.5847 183.527 54.2952 181.398 51.8052C179.208 49.3153 178.148 45.6109 178.148 40.7765L178.177 13.4437ZM195.057 42.6896V12.9325C195.057 11.1179 194.757 9.68299 194.002 8.77799C193.327 7.86831 192.267 7.41817 190.828 7.41817C190.23 7.38599 189.634 7.49192 189.084 7.72775C188.534 7.96359 188.046 8.32297 187.658 8.77799C186.978 9.6783 186.598 11.1225 186.598 12.9325V42.6896C186.598 44.5653 186.973 45.9392 187.653 46.8489C188.026 47.3262 188.51 47.7062 189.062 47.956C189.614 48.2059 190.218 48.3183 190.823 48.2837C192.263 48.2837 193.322 47.8148 193.998 46.8489C194.734 45.9392 195.057 44.584 195.057 42.6896Z" fill="#28B4FF"/>
<path fill-rule="evenodd" clip-rule="evenodd" d="M219.132 32.0407V54.4781H210.902V1.14893H222.986C227.521 1.14893 230.765 2.35871 232.805 4.7736C234.845 7.18849 235.825 11.118 235.825 16.5573C235.825 19.8819 235.45 22.6016 234.62 24.6413C233.818 26.6886 232.424 28.4502 230.615 29.7009L236.66 54.4781H228.121L223.066 32.0407H219.132ZM219.132 8.85312V24.3272H222.381C224.257 24.3272 225.631 23.802 226.306 22.5922C227.066 21.4574 227.444 19.3426 227.441 16.2478C227.441 13.4344 227.066 11.4837 226.306 10.4287C225.546 9.37361 224.121 8.84374 222.086 8.84374L219.132 8.85312Z" fill="#28B4FF"/>
<path fill-rule="evenodd" clip-rule="evenodd" d="M242.479 54.4781V1.14893H253.432L258.787 30.6903C259.017 31.9001 259.172 33.1099 259.317 34.4697C259.462 35.8296 259.472 37.2832 259.472 38.6899C259.474 37.4268 259.549 36.1649 259.697 34.9105C259.777 33.5553 259.997 32.1955 260.227 30.7559L265.361 1.14893H276.47V54.4781H268.761V20.7869C268.761 19.8069 268.836 18.5221 268.911 16.9371C269.067 15.2709 269.224 13.4563 269.38 11.4931C269.305 12.248 269.08 13.2327 268.911 14.4425C268.536 16.8621 268.231 18.372 268.086 19.0519L261.362 54.4781H257.282L250.858 19.0707C250.628 17.6358 250.328 16.0509 250.098 14.3816C249.798 12.6466 249.629 11.7369 249.573 11.5071C249.723 13.3265 249.873 15.0615 249.948 16.6652C250.098 18.2501 250.098 19.6146 250.098 20.8197V54.5109L242.479 54.4781Z" fill="#28B4FF"/>
</svg>
