<svg width="58" height="58" viewBox="0 0 58 58" fill="none" xmlns="http://www.w3.org/2000/svg">
<circle cx="29" cy="29" r="29" fill="#00B3FF"/>
<path d="M8.01075 19.8842C8.00852 19.866 8.00002 19.8504 8.00002 19.8318C7.99958 19.822 8.00494 19.8131 8.00539 19.8033C8.00718 19.7736 8.01477 19.7456 8.02193 19.7162C8.02997 19.6874 8.03712 19.6594 8.05053 19.6327C8.055 19.6238 8.055 19.614 8.05992 19.6052C8.06931 19.5892 8.08451 19.5794 8.09523 19.5652C8.11401 19.5403 8.13278 19.5176 8.15602 19.4972C8.17748 19.4785 8.20117 19.4639 8.22531 19.4496C8.24989 19.4354 8.27358 19.4225 8.3013 19.4128C8.3299 19.4026 8.35985 19.3981 8.39069 19.3941C8.40857 19.3919 8.42422 19.3834 8.44255 19.3834L50.549 19C50.5521 19 50.5552 19.0018 50.5584 19.0018C50.5642 19.0018 50.5691 19.0013 50.5749 19.0018C50.5879 19.0022 50.5995 19.0067 50.612 19.0084C50.6388 19.012 50.663 19.0195 50.6884 19.028C50.6943 19.0298 50.7005 19.0298 50.7063 19.032C50.7095 19.0329 50.7126 19.0329 50.7157 19.0338C50.7242 19.0373 50.7327 19.0387 50.7412 19.0427C50.7524 19.048 50.7613 19.056 50.772 19.0622C50.7971 19.0764 50.8185 19.0942 50.8404 19.1133C50.8529 19.124 50.8681 19.1293 50.8798 19.1413C50.8807 19.1422 50.8807 19.1435 50.8815 19.1444C50.8887 19.1524 50.8927 19.1631 50.8994 19.1715C50.9178 19.1942 50.9303 19.219 50.9441 19.2453L50.9446 19.2457C50.9499 19.2555 50.9571 19.2639 50.962 19.2737C50.9651 19.2817 50.9709 19.2884 50.9736 19.2959C50.9741 19.2972 50.975 19.2977 50.9754 19.299C50.9785 19.3084 50.9768 19.3177 50.979 19.327C50.9817 19.3368 50.9888 19.3448 50.9911 19.355C50.9942 19.371 50.9897 19.3857 50.9911 19.4012C50.9924 19.4145 51 19.4261 51 19.4399C51 19.443 50.9982 19.4461 50.9982 19.4492C50.9982 19.455 50.9982 19.4608 50.9982 19.4665C50.9978 19.479 50.9933 19.4901 50.9915 19.5025C50.9879 19.527 50.9817 19.5492 50.9745 19.5723C50.9696 19.5878 50.9692 19.6043 50.9629 19.6189C50.9611 19.6229 50.9589 19.6269 50.9571 19.6314C50.9522 19.642 50.9437 19.6509 50.9379 19.6616C50.9258 19.6825 50.9119 19.7002 50.8967 19.7189C50.8856 19.7331 50.8771 19.7487 50.8641 19.7611C50.8619 19.7633 50.861 19.7664 50.8588 19.7687L50.8529 19.774L50.8525 19.7744L34.4989 34.9474C34.4949 34.9514 34.4895 34.9527 34.486 34.9563C34.452 34.9852 34.414 35.0083 34.3738 35.026C34.3612 35.0318 34.3496 35.0367 34.3367 35.0411C34.2911 35.0563 34.2437 35.0669 34.1954 35.0674H34.1945C34.1427 35.0674 34.0908 35.0549 34.0403 35.0363C34.0282 35.0318 34.0166 35.0274 34.005 35.022C33.9943 35.0167 33.9826 35.0145 33.9719 35.0087L29.7425 32.5907L19.278 38.9329L19.2776 38.9334L19.2749 38.9351C19.2628 38.9427 19.2494 38.9449 19.2373 38.9511C19.2248 38.9573 19.2119 38.9627 19.1989 38.968C19.1868 38.9729 19.1752 38.9796 19.1627 38.9831C19.1247 38.9938 19.0854 38.9991 19.046 38.9996H19.0447H19.0438L19.0425 39H19.0416L19.0407 38.9996C18.9879 38.9996 18.937 38.9876 18.8874 38.9693C18.8775 38.9653 18.8677 38.9631 18.8587 38.9591C18.8556 38.9573 18.8529 38.9582 18.8498 38.9569C18.8471 38.9556 18.8458 38.9529 18.8431 38.952C18.8015 38.9311 18.7631 38.9058 18.7296 38.8729C18.7251 38.8685 18.7224 38.8636 18.7188 38.8596L18.7184 38.8592C18.7099 38.8498 18.7036 38.8409 18.696 38.8316C18.6844 38.8169 18.6701 38.8041 18.6598 38.7872C18.654 38.7778 18.654 38.7672 18.6496 38.7583C18.642 38.7441 18.6339 38.7316 18.6277 38.7165C18.6205 38.6988 18.6187 38.6796 18.6138 38.6614C18.608 38.6365 18.6031 38.6134 18.6013 38.5886C18.6004 38.5783 18.5946 38.5695 18.5946 38.5588L18.5123 26.1335L8.22352 20.2125C8.20787 20.2032 8.19804 20.1885 8.18419 20.1779C8.15871 20.1588 8.13546 20.1406 8.11445 20.1166C8.09568 20.0952 8.08182 20.0726 8.06752 20.0481C8.05366 20.0237 8.04025 19.9997 8.03086 19.9726C8.01925 19.9433 8.01477 19.9148 8.01075 19.8842ZM23.979 29.2681L20.088 37.4005L28.8606 32.0838L23.979 29.2681ZM23.3805 28.451L23.3818 28.4497C23.3845 28.4439 23.3894 28.4395 23.3921 28.4337C23.3948 28.4288 23.3948 28.4235 23.3975 28.4186C23.4087 28.4 23.4261 28.388 23.4395 28.3715C23.4556 28.3515 23.4668 28.328 23.486 28.3111C23.4909 28.3066 23.4976 28.3049 23.503 28.3009C23.5258 28.2822 23.5508 28.2707 23.5772 28.2569C23.5973 28.2462 23.6147 28.2307 23.6366 28.2231L23.638 28.2222L43.9572 21.2407L19.4059 26.2379L19.4743 36.6145L23.3805 28.451Z" fill="white"/>
</svg>
