<svg width="50" height="50" viewBox="0 0 50 50" fill="none" xmlns="http://www.w3.org/2000/svg">
<g clip-path="url(#clip0_901_5315)">
<path d="M29.695 0H47.6418C48.993 0 50 1.20664 50 2.52422V13.8285C50 15.1461 48.993 16.3527 47.6418 16.3527H29.695C28.3333 16.3527 27.3364 15.1461 27.3364 13.8285V11.7805L23.5168 9.83164C22.343 9.23359 22.343 7.47344 23.5168 6.87539C24.7903 6.22227 26.0633 5.58008 27.3364 4.92656V2.52422C27.336 1.20664 28.3329 0 29.695 0ZM47.6418 1.56094H29.695C29.1969 1.56094 28.8977 2.07031 28.8977 2.52422V5.40312C28.8977 5.67969 28.743 5.95664 28.4661 6.08945C27.0485 6.82031 25.6426 7.55117 24.2254 8.2707C24.1481 8.31484 24.17 8.41445 24.2254 8.43672L28.4001 10.5848C28.6876 10.6953 28.8981 10.9723 28.8981 11.3043V13.8285C28.8981 14.2824 29.1973 14.7918 29.6954 14.7918H47.6422C48.1403 14.7918 48.4395 14.2824 48.4395 13.8285V2.52422C48.4391 2.07031 48.1399 1.56094 47.6418 1.56094Z" fill="#28B4FF"/>
<path d="M32.9833 5.50234C31.9532 5.50234 31.9532 3.94141 32.9833 3.94141H44.6969C45.7157 3.94141 45.7157 5.50234 44.6969 5.50234H32.9833ZM32.9833 12.4223C31.9532 12.4223 31.9532 10.8609 32.9833 10.8609H39.9364C40.9661 10.8609 40.9661 12.4223 39.9364 12.4223H32.9833ZM32.9833 8.95703C31.9532 8.95703 31.9532 7.3957 32.9833 7.3957H44.6969C45.7157 7.3957 45.7157 8.95703 44.6969 8.95703H32.9833Z" fill="#28B4FF"/>
<path d="M10.0531 14.7805C9.8207 14.6918 9.62148 14.5922 9.4332 14.4816L9.31094 15.3785L11.8797 18.268L14.4371 15.3785L14.3152 14.4816C14.1273 14.5922 13.9277 14.6922 13.7063 14.7805C12.677 15.1902 11.0719 15.1902 10.0531 14.7805ZM8.01602 13.3414L7.93867 13.275C6.74258 12.2121 6.15625 10.7508 6.15625 9.15625V5.56875C6.15625 2.18086 8.54766 0 11.8801 0C15.2125 0 17.593 2.18086 17.593 5.56875V9.15625C17.593 10.7508 17.0063 12.2121 15.8105 13.275L15.7328 13.3414L15.9875 15.2234L17.3273 16.3969L21.125 18.0469C21.9445 18.4125 22.5977 18.977 23.0516 19.6855C23.5055 20.4051 23.7492 21.2465 23.7492 22.1434V24.3023C23.7492 24.734 23.4059 25.0887 22.9742 25.0887C22.5426 25.0887 22.1879 24.7344 22.1879 24.3023V22.1434C22.1879 21.5344 22.0332 20.9809 21.734 20.527C21.4465 20.073 21.0258 19.7078 20.5051 19.4754L17.3941 18.1246L16.0875 22.2102C15.9656 22.6199 15.523 22.8414 15.1133 22.7195C15.0359 22.6863 14.9582 22.6531 14.8918 22.5977L12.6551 20.9699V24.3023C12.6551 24.734 12.3121 25.0887 11.8805 25.0887C11.4488 25.0887 11.0938 24.734 11.0938 24.3023V20.9699L8.86836 22.6086C8.86836 22.6086 8.6582 22.7082 8.63594 22.7191C8.22617 22.841 7.79453 22.6195 7.66172 22.2098L6.36641 18.1242L3.24414 19.475C2.72383 19.7074 2.30312 20.0727 2.01523 20.5266C1.72734 20.9805 1.56133 21.5344 1.56133 22.143V31.941C1.56133 32.373 1.21797 32.7273 0.786328 32.7273C0.354688 32.7273 0 32.3738 0 31.9418V22.1434C0 21.2465 0.24375 20.4051 0.708594 19.6855C1.15156 18.977 1.80469 18.4121 2.62383 18.0469L6.42148 16.3973L7.76133 15.2238L8.01602 13.3414ZM9.31133 12.4113C9.35547 12.4445 9.38906 12.4777 9.42227 12.5219C9.7875 12.843 10.1637 13.1531 10.618 13.3301C11.2715 13.5848 12.4895 13.5848 13.1316 13.3301C13.5855 13.1527 13.9621 12.843 14.3273 12.5219C14.3609 12.4777 14.4051 12.4445 14.4492 12.4113C14.5602 12.3117 14.6707 12.2121 14.7703 12.1121C15.634 11.3371 16.0324 10.3074 16.0324 9.15625V7.4957C13.1648 8.03789 11.5371 6.73164 10.7066 5.64687C9.77656 6.74297 8.59219 6.79805 7.72852 6.63203V9.15625C7.72852 10.3074 8.11602 11.3371 8.97969 12.1121C9.09023 12.2121 9.20078 12.3117 9.31133 12.4113ZM8.42578 16.718L7.73906 17.316L8.81289 20.7039L10.7281 19.309L8.42578 16.718ZM15.3234 16.718L13.0316 19.309L14.9359 20.7039L16.0102 17.316L15.3234 16.718ZM4.58359 26.7164C4.58359 26.2848 4.93789 25.9301 5.36992 25.9301C5.80195 25.9301 6.14492 26.2844 6.14492 26.7164V31.9418C6.14492 32.3738 5.80156 32.7281 5.36992 32.7281C4.93828 32.7281 4.58359 32.3742 4.58359 31.9418V26.7164ZM7.75039 5.0375C8.35977 5.19258 9.42227 5.23672 9.99805 3.81953C10.275 3.15508 11.1938 3.1332 11.4594 3.875C11.4594 3.875 12.4445 6.72031 16.032 5.90117V5.56875C16.032 3.04453 14.3492 1.56094 11.8801 1.56094C9.65469 1.56094 7.9832 2.76758 7.75039 5.0375Z" fill="#28B4FF"/>
<path d="M32.4738 34.0236C31.0453 32.7611 30.348 31.2443 30.348 29.3287V25.2768C30.348 21.5232 32.9941 19.0986 36.7035 19.0986C40.4015 19.0986 43.0472 21.5236 43.0472 25.2768V29.3287C43.0472 31.2439 42.3605 32.7607 40.9328 34.0236L41.2429 37.2451L47.0996 39.4486C48.9152 40.2459 50.0004 42.0064 50.0004 43.9771V49.2139C50.0004 49.6455 49.6465 50.0002 49.2144 50.0002C48.7824 50.0002 48.4394 49.6459 48.4394 49.2139V43.9771C48.4394 42.6264 47.7422 41.4416 46.4906 40.8881L40.2465 38.5299C37.9109 37.7885 35.5519 37.633 33.1828 38.3307L26.9051 40.8881C25.6652 41.4416 24.9676 42.6264 24.9676 43.9771V49.2139C24.9676 49.6455 24.6133 50.0002 24.1812 50.0002C23.75 50.0002 23.4066 49.6459 23.4066 49.2139V43.9771C23.4066 42.0064 24.4914 40.2459 26.3074 39.4486L32.1867 37.0572L32.4738 34.0236ZM39.0836 34.7982H34.3117C34.1125 34.7982 33.9461 34.9533 33.9242 35.1521L33.7914 36.5697C35.7394 36.1822 37.6996 36.2705 39.6261 36.7357L39.4711 35.1521C39.4597 34.9533 39.2937 34.7982 39.0836 34.7982ZM34.2453 33.2596H39.15C39.4375 33.2596 39.7922 32.9936 40.1023 32.6947C41.0433 31.7646 41.4863 30.6799 41.4863 29.3291V25.2768C41.4863 22.3756 39.5488 20.6596 36.7035 20.6596C33.8582 20.6596 31.9094 22.376 31.9094 25.2768V29.3287C31.9094 30.7572 32.4297 31.9193 33.4929 32.8607C33.7472 33.0932 34.0125 33.2596 34.2453 33.2596Z" fill="#28B4FF"/>
<path d="M8.03825 33.8578L9.33317 26.4398C9.53278 25.2996 10.6175 24.3691 11.7691 24.3691H24.9332C26.2172 24.3691 27.0922 25.4656 26.8711 26.7055L25.2101 36.1715C24.9996 37.3895 23.8484 38.3859 22.6082 38.3859H9.72106H5.68005C4.81599 38.3859 3.9527 37.8988 3.73122 37.0129L3.19997 34.8316C3.0781 34.3336 3.45466 33.8574 3.9531 33.8574L8.03825 33.8578ZM17.9804 30.5695C18.4121 30.5695 18.7554 30.9129 18.7554 31.3441C18.7554 31.7758 18.4121 32.1305 17.9804 32.1305C17.5488 32.1305 17.1941 31.7762 17.1941 31.3441C17.1945 30.9129 17.5488 30.5695 17.9804 30.5695ZM9.21169 36.1719C9.15622 36.5484 9.3445 36.825 9.732 36.825H22.6086C23.1066 36.825 23.5828 36.3934 23.6718 35.9059L25.3324 26.4398C25.3879 26.1406 25.2328 25.9305 24.9336 25.9305H11.7695C11.3597 25.9305 10.95 26.2961 10.8726 26.7055C10.3191 29.8605 9.76521 33.0164 9.21169 36.1719ZM7.7613 35.4187H4.94919L5.24802 36.6367C5.38122 36.8691 5.56911 36.8246 5.68005 36.8246H7.69489C7.62849 36.5258 7.62849 36.2047 7.67263 35.9055L7.7613 35.4187Z" fill="#28B4FF"/>
</g>
<defs>
<clipPath id="clip0_901_5315">
<rect width="50" height="50" fill="white"/>
</clipPath>
</defs>
</svg>
