<svg width="100" height="100" viewBox="0 0 100 100" fill="none" xmlns="http://www.w3.org/2000/svg">
<g clip-path="url(#clip0_620_4609)">
<path d="M33.2424 17.3854C19.3059 17.3854 7.96738 28.7236 7.96738 42.6602C7.96738 56.5967 19.3057 67.935 33.2424 67.935C47.1791 67.935 58.5172 56.5967 58.5172 42.6602C58.5172 28.7236 47.1789 17.3854 33.2424 17.3854ZM22.2039 62.3064C20.8633 61.5502 19.607 60.6615 18.4539 59.657V50.4459H22.2039V62.3064ZM31.3674 65.1221V39.9871H35.1174V65.1219C34.4988 65.173 33.8738 65.2006 33.2424 65.2006C32.6109 65.2006 31.9857 65.1732 31.3674 65.1221ZM48.0309 59.657C46.8777 60.6617 45.6215 61.5504 44.2809 62.3064V51.4064H48.0309V59.6568V59.657ZM50.7652 56.8211V50.0395C50.7652 49.2844 50.1531 48.6723 49.3981 48.6723H42.9137C42.1586 48.6723 41.5465 49.2844 41.5465 50.0395V63.6154C40.3607 64.0869 39.1258 64.4604 37.8518 64.7262V38.6199C37.8518 37.8648 37.2397 37.2527 36.4846 37.2527H30.0002C29.2451 37.2527 28.633 37.8648 28.633 38.6199V64.726C27.359 64.4602 26.124 64.0867 24.9383 63.6152V49.0787C24.9383 48.3236 24.3262 47.7115 23.5711 47.7115H17.0867C16.3316 47.7115 15.7195 48.3236 15.7195 49.0787V56.8209C12.5836 52.948 10.702 48.0199 10.702 42.66C10.702 30.2311 20.8135 20.1195 33.2426 20.1195C42.0734 20.1195 49.733 25.225 53.4285 32.6385L48.4715 37.1752C47.792 36.774 47.0008 36.5428 46.1563 36.5428C45.2092 36.5428 44.3287 36.8324 43.5984 37.3277L37.2414 30.6719C37.6043 30.0172 37.8115 29.2648 37.8115 28.4646C37.8115 25.9455 35.7619 23.8957 33.2426 23.8957C30.7232 23.8957 28.6736 25.9453 28.6736 28.4646C28.6736 29.1896 28.8441 29.8754 29.1461 30.485L22.5375 36.7934C21.8824 36.4301 21.1297 36.2225 20.3293 36.2225C17.8102 36.2225 15.7604 38.2721 15.7604 40.7914C15.7604 43.3107 17.81 45.3603 20.3293 45.3603C22.8486 45.3603 24.8982 43.3107 24.8982 40.7914C24.8982 40.0664 24.7277 39.3807 24.4258 38.7711L31.0344 32.4627C31.6895 32.826 32.4422 33.0336 33.2428 33.0336C33.9682 33.0336 34.6543 32.8629 35.2643 32.5605L41.8848 39.4924C41.6932 39.9959 41.5873 40.5416 41.5873 41.1115C41.5873 43.6307 43.6369 45.6805 46.1563 45.6805C48.6756 45.6805 50.725 43.6309 50.725 41.1115C50.725 40.4305 50.5742 39.7844 50.3059 39.2031L54.5537 35.3156C55.3496 37.6187 55.7832 40.0896 55.7832 42.66C55.7832 48.0199 53.9016 52.9478 50.7656 56.8207L50.7652 56.8211ZM46.1559 39.2773C47.1674 39.2773 47.9902 40.1004 47.9902 41.1119C47.9902 42.1234 47.1674 42.9465 46.1559 42.9465C45.1443 42.9465 44.3213 42.1234 44.3213 41.1119C44.3213 40.1004 45.1443 39.2773 46.1559 39.2773ZM31.4078 28.465C31.4078 27.4535 32.2307 26.6305 33.2424 26.6305C34.2541 26.6305 35.077 27.4535 35.077 28.465C35.077 29.4766 34.2541 30.2996 33.2424 30.2996C32.2307 30.2996 31.4078 29.4766 31.4078 28.465ZM22.1633 40.7916C22.1633 41.8031 21.3404 42.6262 20.3287 42.6262C19.317 42.6262 18.4941 41.8031 18.4941 40.7916C18.4941 39.7801 19.317 38.957 20.3287 38.957C21.3404 38.957 22.1633 39.7801 22.1633 40.7916ZM69.4139 67.4338C68.5475 66.5672 67.3934 66.09 66.1641 66.09C65.4822 66.09 64.8238 66.2373 64.2246 66.516L61.7824 64.0736C60.4779 62.7693 60.2352 60.8279 61.1783 59.2424C64.1527 54.2422 65.7248 48.5084 65.7248 42.6604C65.7248 37.4695 64.4988 32.5604 62.3244 28.2037L80.0578 11.9734C81.0502 12.6619 82.2533 13.0668 83.55 13.0668C86.9371 13.0668 89.6928 10.3111 89.6928 6.92403C89.6928 3.53692 86.9371 0.781448 83.55 0.781448C80.1629 0.781448 77.4074 3.53692 77.4074 6.92403C77.4074 8.02657 77.7008 9.06114 78.2115 9.95664L60.9621 25.7439C55.2481 16.4154 44.9604 10.1779 33.2426 10.1779C15.3314 10.1775 0.759766 24.7492 0.759766 42.6602C0.759766 54.1225 6.72774 64.2168 15.7195 70V87.3387C15.7195 88.0938 16.3316 88.7059 17.0867 88.7059H23.5711C24.3262 88.7059 24.9383 88.0938 24.9383 87.3387V74.0652C26.1439 74.3844 27.3772 74.635 28.633 74.8143V87.3387C28.633 88.0938 29.2451 88.7059 30.0002 88.7059H36.4846C37.2397 88.7059 37.8518 88.0938 37.8518 87.3387V74.8119C39.0986 74.6338 40.332 74.3834 41.5465 74.0631V87.3387C41.5465 88.0938 42.1586 88.7059 42.9137 88.7059H49.3981C50.1531 88.7059 50.7652 88.0938 50.7652 87.3387V70.1855C52.1285 69.7853 53.6006 70.1451 54.6559 71.2002L57.098 73.6424C56.8195 74.2416 56.6723 74.9002 56.6723 75.5818C56.6723 76.8113 57.1494 77.9654 58.0156 78.8316L76.05 96.866C77.567 98.3834 79.591 99.2187 81.749 99.2187C83.907 99.2187 85.9311 98.3834 87.4481 96.866C90.5906 93.7234 90.5906 88.6102 87.4481 85.468L69.4137 67.4338H69.4139ZM83.55 3.51563C85.4295 3.51563 86.9584 5.04453 86.9584 6.92383C86.9584 8.80313 85.4295 10.3322 83.55 10.3322C81.6705 10.3322 80.1418 8.80332 80.1418 6.92383C80.1418 5.04434 81.6707 3.51563 83.55 3.51563ZM22.2039 85.9715H18.4539V71.5768C19.6621 72.1971 20.9143 72.743 22.2039 73.2104V85.9715ZM35.1174 85.9715H31.3674V75.0873C31.9881 75.1228 32.6129 75.1428 33.2424 75.1428C33.8719 75.1428 34.4941 75.1209 35.1174 75.0852V85.9715ZM44.2809 85.9715V73.2107C45.5619 72.7486 46.815 72.2074 48.0309 71.5854V85.9717L44.2809 85.9715ZM48.4268 68.2465C43.8494 70.9691 38.5988 72.4084 33.2424 72.4084C16.8391 72.4084 3.49414 59.0635 3.49414 42.6602C3.49414 26.2568 16.8391 12.9119 33.2424 12.9119C49.6457 12.9119 62.9906 26.2568 62.9906 42.6602C62.9906 48.0164 61.5514 53.2672 58.8285 57.8443C57.235 60.523 57.6451 63.8033 59.849 66.007L62.0949 68.2529L58.8352 71.5125L56.5893 69.2666C54.3854 67.0629 51.1051 66.6529 48.4266 68.2463L48.4268 68.2465ZM85.5149 94.9328C84.5143 95.9334 83.177 96.4844 81.7492 96.4844C80.3215 96.4844 78.9842 95.9334 77.9836 94.9328L59.9492 76.8982C59.5994 76.5484 59.4066 76.0809 59.4066 75.582C59.4066 75.0832 59.5994 74.6156 59.9492 74.2658L64.8479 69.3672C65.1979 69.0174 65.6654 68.8246 66.1643 68.8246C66.6631 68.8246 67.1307 69.0174 67.4807 69.3672L85.5151 87.4014C87.5914 89.4779 87.5914 92.8564 85.5151 94.933L85.5149 94.9328ZM98.1389 49.965L95.9817 49.5395L95.2801 47.8484L96.5053 46.0213C96.869 45.4789 96.7982 44.7551 96.3365 44.2932L92.9699 40.9266C92.5082 40.4645 91.7842 40.3937 91.2416 40.7578L89.4147 41.983L87.7234 41.2814L87.2981 39.1242C87.1717 38.4836 86.6098 38.0215 85.9566 38.0215H81.1955C80.5424 38.0215 79.9805 38.4834 79.8541 39.1242L79.4287 41.2814L77.7375 41.983L75.9106 40.7578C75.368 40.3939 74.6441 40.4646 74.1822 40.9266L70.8156 44.2932C70.3539 44.7549 70.2832 45.4787 70.6469 46.0213L71.8721 47.8484L71.1705 49.5395L69.0135 49.965C68.3727 50.0912 67.9108 50.6531 67.9108 51.3062V56.0674C67.9108 56.7205 68.3727 57.2824 69.0135 57.4086L71.1705 57.834L71.8721 59.5252L70.6469 61.3521C70.283 61.8945 70.3539 62.6184 70.8156 63.0803L74.1822 66.4469C74.644 66.9088 75.3678 66.9795 75.9106 66.6156L77.7375 65.3906L79.4287 66.092L79.8541 68.2492C79.9805 68.8898 80.5424 69.352 81.1955 69.352H85.9566C86.6098 69.352 87.1717 68.89 87.2981 68.2492L87.7234 66.092L89.4147 65.3906L91.2416 66.6156C91.7844 66.9795 92.5082 66.9088 92.9699 66.4469L96.3365 63.0803C96.7982 62.6186 96.8691 61.8947 96.5053 61.3521L95.2801 59.5252L95.9817 57.834L98.1387 57.4086C98.7795 57.2824 99.2414 56.7205 99.2414 56.0674V51.3062C99.2414 50.6531 98.7797 50.0912 98.1389 49.965ZM96.5072 54.9434L94.7348 55.293C94.2863 55.3812 93.9115 55.6881 93.7363 56.1105L92.4738 59.1545C92.2986 59.5771 92.3463 60.0596 92.6012 60.4396L93.6084 61.9416L91.8313 63.7189L90.3293 62.7117C89.9492 62.4566 89.4666 62.409 89.044 62.5844L86.0002 63.8469C85.5779 64.0219 85.2711 64.3967 85.1826 64.8451L84.833 66.6176H82.3197L81.9701 64.8451C81.8816 64.3967 81.5748 64.0219 81.1525 63.8469L78.1088 62.5844C77.6861 62.4094 77.2037 62.457 76.8234 62.7117L75.3215 63.7189L73.5443 61.9416L74.5516 60.4396C74.8064 60.0596 74.8543 59.5771 74.6789 59.1545L73.4162 56.1105C73.241 55.6883 72.8664 55.3814 72.4178 55.293L70.6455 54.9434V52.4301L72.418 52.0805C72.8664 51.9922 73.241 51.6854 73.4162 51.2631L74.6787 48.2193C74.8541 47.7965 74.8063 47.3141 74.5516 46.934L73.5441 45.4318L75.3213 43.6545L76.8232 44.6619C77.2035 44.917 77.6857 44.9646 78.1086 44.7893L81.1524 43.5266C81.5746 43.3514 81.8813 42.9768 81.9699 42.5283L82.3195 40.7559H84.8328L85.1824 42.5283C85.2709 42.9768 85.5775 43.3514 86 43.5266L89.0438 44.7893C89.4666 44.9643 89.949 44.917 90.3291 44.6619L91.8311 43.6545L93.6082 45.4318L92.6008 46.934C92.3459 47.3141 92.2982 47.7965 92.4734 48.2191L93.7359 51.2629C93.9111 51.6852 94.2858 51.992 94.7342 52.0805L96.5066 52.4301V54.9434H96.5072ZM83.5764 44.9869C78.7793 44.9869 74.8768 48.8895 74.8768 53.6865C74.8768 58.4836 78.7793 62.3861 83.5764 62.3861C88.3734 62.3861 92.276 58.4836 92.276 53.6865C92.276 48.8895 88.3734 44.9869 83.5764 44.9869ZM83.5764 59.6518C80.2871 59.6518 77.6111 56.9758 77.6111 53.6865C77.6111 50.3973 80.2871 47.7213 83.5764 47.7213C86.8656 47.7213 89.5416 50.3973 89.5416 53.6865C89.5416 56.9758 86.8656 59.6518 83.5764 59.6518ZM84.9174 27.2107C84.9174 27.9658 84.3053 28.5779 83.5502 28.5779C82.7951 28.5779 82.183 27.9658 82.183 27.2107V23.8629C82.183 23.1078 82.7951 22.4957 83.5502 22.4957C84.3053 22.4957 84.9174 23.1078 84.9174 23.8629V27.2107ZM84.9174 31.9105V35.2584C84.9174 36.0135 84.3053 36.6256 83.5502 36.6256C82.7951 36.6256 82.183 36.0135 82.183 35.2584V31.9105C82.183 31.1555 82.7951 30.5434 83.5502 30.5434C84.3053 30.5434 84.9174 31.1555 84.9174 31.9105ZM84.9174 19.1629C84.9174 19.918 84.3053 20.5301 83.5502 20.5301C82.7951 20.5301 82.183 19.918 82.183 19.1629V15.8148C82.183 15.0598 82.7951 14.4477 83.5502 14.4477C84.3053 14.4477 84.9174 15.0598 84.9174 15.8148V19.1629Z" fill="url(#paint0_linear_620_4609)"/>
</g>
<defs>
<linearGradient id="paint0_linear_620_4609" x1="17.4824" y1="89.668" x2="96.2299" y2="10.9207" gradientUnits="userSpaceOnUse">
<stop stop-color="white"/>
<stop offset="1" stop-color="#00C1FF"/>
</linearGradient>
<clipPath id="clip0_620_4609">
<rect width="100" height="100" fill="white"/>
</clipPath>
</defs>
</svg>
