<svg width="58" height="58" viewBox="0 0 58 58" fill="none" xmlns="http://www.w3.org/2000/svg">
<circle cx="29" cy="29" r="29" fill="#00B3FF"/>
<path fill-rule="evenodd" clip-rule="evenodd" d="M47.7537 43.5379C47.1746 44.3394 46.4204 45.0007 45.5489 45.47L42.1677 42.0888H42.1692C41.7776 41.6987 41.1453 41.6987 40.7537 42.0888C40.3636 42.4804 40.3636 43.1128 40.7537 43.5028L43.6731 46.4238C40.7979 47.6626 37.1043 48.3955 34.5169 47.7753C24.8548 44.7081 13.2914 33.1445 10.2242 23.4828C9.66045 21.1241 10.2166 17.8482 11.2588 15.1084L14.1295 17.9775C14.5227 18.3554 15.1459 18.3493 15.5298 17.9653C15.9153 17.5798 15.9214 16.9567 15.5435 16.5635L12.1334 13.1534C12.8435 11.7988 13.6602 10.7398 14.4617 10.2462C15.1154 9.84545 15.4887 9.99933 15.7889 10.2462C18.5163 13.1458 20.5521 15.7743 21.8428 18.0613C22.4264 19.2224 22.0394 19.6703 21.6143 19.9903L18.7908 21.7974C18.7435 21.8279 18.6978 21.8629 18.6552 21.901C17.488 22.9692 17.1589 24.2841 17.7272 25.6021V25.6037C17.744 25.6418 17.7638 25.6799 17.7851 25.7164C21.5655 32.0992 25.9022 36.4344 32.285 40.2162L32.2835 40.2146C32.32 40.236 32.3581 40.2558 32.3962 40.2726C33.7158 40.8424 35.0292 40.5133 36.0974 39.3446H36.0989C36.137 39.3019 36.172 39.2578 36.2025 39.209L38.0096 36.3855C38.3296 35.9604 38.7761 35.5734 39.9387 36.157C42.2258 37.4476 44.8544 39.4848 47.7538 42.2109C48.0007 42.5095 48.1544 42.8843 47.7537 43.5379Z" fill="white"/>
</svg>
