<svg width="37" height="33" viewBox="0 0 37 33" fill="none" xmlns="http://www.w3.org/2000/svg">
<path d="M31.9371 24.3525C29.9673 24.3525 28.3265 25.7074 27.85 27.5283H22.2591C21.8676 26.0453 20.7136 24.8914 19.2307 24.4999V20.1165H31.9355C33.0686 20.1165 34.1271 19.6713 34.9312 18.8778C35.7247 18.0738 36.1699 17.0137 36.1699 15.8821C36.1699 13.8706 34.7614 12.1867 32.8556 11.7534C32.1678 7.47565 28.4308 4.2358 23.9937 4.2358C23.486 4.2358 22.9768 4.27749 22.4899 4.36236C20.5097 1.61981 17.3652 0 13.9348 0C8.10119 0 3.34738 4.75419 3.34738 10.5874C3.34738 10.979 3.36823 11.3706 3.41141 11.7622C2.6595 11.9423 1.97166 12.3235 1.41033 12.8848C0.616754 13.6888 0.171561 14.7489 0.171561 15.8805C0.171561 18.221 2.06695 20.1148 4.40585 20.1148H17.1106V24.4981C15.6277 24.8896 14.4738 26.0436 14.0822 27.5265H8.49137C8.01492 25.7056 6.37415 24.3507 4.40421 24.3507C2.06367 24.3507 0.169922 26.2461 0.169922 28.585C0.169922 30.9255 2.06531 32.8193 4.40421 32.8193C6.37404 32.8193 8.01481 31.4644 8.49137 29.6434H14.0822C14.5587 31.4644 16.1994 32.8193 18.1694 32.8193C20.1393 32.8193 21.78 31.4644 22.2565 29.6434H27.8474C28.3238 31.4644 29.9646 32.8193 31.9345 32.8193C34.2751 32.8193 36.1688 30.9239 36.1688 28.585C36.1688 26.2444 34.2734 24.3507 31.9345 24.3507L31.9371 24.3525ZM4.41024 30.7056C3.24592 30.7056 2.29302 29.7527 2.29302 28.5884C2.29302 27.4241 3.24592 26.4712 4.41024 26.4712C5.57457 26.4712 6.52746 27.4241 6.52746 28.5884C6.52746 29.7527 5.57457 30.7056 4.41024 30.7056ZM18.1735 30.7056C17.0092 30.7056 16.0563 29.7527 16.0563 28.5884C16.0563 27.4241 17.0092 26.4712 18.1735 26.4712C19.3378 26.4712 20.2907 27.4241 20.2907 28.5884C20.2907 29.7527 19.3378 30.7056 18.1735 30.7056ZM31.9367 30.7056C30.7724 30.7056 29.8195 29.7527 29.8195 28.5884C29.8195 27.4241 30.7724 26.4712 31.9367 26.4712C33.1011 26.4712 34.054 27.4241 34.054 28.5884C34.054 29.7527 33.1011 30.7056 31.9367 30.7056Z" fill="#005E90"/>
</svg>
