<svg width="142" height="90" viewBox="0 0 142 90" fill="none" xmlns="http://www.w3.org/2000/svg">
<path d="M6.86371 83.2711L6.86394 83.2713C10.9081 87.2917 16.2349 89.499 21.855 89.499H21.9933H114.626H114.795C121.785 89.499 128.387 86.7578 133.411 81.7632L133.411 81.763C138.506 76.7039 141.314 69.9774 141.314 62.8182C141.314 55.2057 138.05 47.9405 132.355 42.8766L6.86371 83.2711ZM6.86371 83.2711C2.75548 79.1924 0.5 73.7646 0.5 68.0065C0.5 62.1238 2.83178 56.6381 7.0571 52.559L7.05746 52.5587M6.86371 83.2711L7.05746 52.5587M7.05746 52.5587C10.8363 48.9032 15.6882 46.8123 20.865 46.542L21.447 46.5116M7.05746 52.5587L21.447 46.5116M21.447 46.5116L21.3284 45.9409M21.447 46.5116L21.3284 45.9409M21.3284 45.9409C19.675 37.9847 23.1172 29.6865 30.0954 25.2535L30.0958 25.2532M21.3284 45.9409L30.0958 25.2532M30.0958 25.2532C36.1277 21.4137 43.7199 21.202 49.9357 24.5618L50.4986 24.8661M30.0958 25.2532L50.4986 24.8661M50.4986 24.8661L50.6578 24.2464M50.4986 24.8661L50.6578 24.2464M50.6578 24.2464C52.6579 16.4589 57.6298 9.65708 64.4908 5.33632C71.948 0.655166 81.0991 -0.706296 89.5975 1.59595L89.5985 1.59621M50.6578 24.2464L89.5985 1.59621M89.5985 1.59621C97.083 3.60782 103.535 8.33568 107.81 14.8844C111.823 21.0338 113.551 28.3371 112.752 35.6122L112.688 36.1955M89.5985 1.59621L112.688 36.1955M112.688 36.1955L113.274 36.1662M112.688 36.1955L113.274 36.1662M113.274 36.1662C120.238 35.818 127.114 38.2202 132.355 42.8765L113.274 36.1662Z" stroke="white"/>
</svg>
