<svg width="121" height="84" viewBox="0 0 121 84" fill="none" xmlns="http://www.w3.org/2000/svg">
<path d="M1.54702 60.5748L1.54701 60.572C1.53413 56.0517 3.01863 51.6544 5.76853 48.067C6.10484 47.6437 6.31016 47.1313 6.35912 46.5927C6.40844 46.0502 6.29688 45.5051 6.03836 45.0256L6.03368 45.0169L6.02883 45.0083C4.93537 43.0723 4.28716 40.917 4.13133 38.699C3.9755 36.481 4.31598 34.2562 5.128 32.1863C5.94002 30.1165 7.20317 28.2536 8.82557 26.7333C10.4436 25.217 12.3783 24.0794 14.4898 23.4027C14.9453 23.2737 15.3603 23.0302 15.6952 22.6953C16.0356 22.3549 16.2815 21.9318 16.4088 21.4675L16.4089 21.4675L16.412 21.4557C17.7434 16.3562 20.5464 11.7615 24.4716 8.24439C28.3969 4.7273 33.2706 2.44349 38.4851 1.67772C43.6995 0.911957 49.0241 1.69812 53.7948 3.9382C58.5654 6.17827 62.5712 9.77313 65.3125 14.2745L65.3254 14.2958L65.3394 14.3164C65.667 14.7984 66.138 15.165 66.6856 15.3641C67.2332 15.5633 67.8297 15.5849 68.3903 15.4258L68.3992 15.4233L68.4081 15.4206C70.6145 14.7504 72.907 14.4065 75.213 14.3997C88.011 14.4005 98.331 24.2872 98.331 36.2779V36.8011C98.3207 37.446 98.5354 38.0745 98.9384 38.5783C99.3438 39.085 99.9141 39.4336 100.55 39.5633L100.55 39.5633L100.563 39.5658C111.293 41.6097 118.912 50.6249 119.081 60.7689C119.164 65.7484 116.578 71.1737 112.287 75.3788C108.007 79.573 102.13 82.453 95.784 82.453H24.844C12.0355 82.453 1.54702 72.5567 1.54702 60.5748Z" stroke="white" stroke-width="2"/>
</svg>
