<svg width="38" height="25" viewBox="0 0 38 25" fill="none" xmlns="http://www.w3.org/2000/svg">
<path d="M1.94889 14.6959H34.2842C35.062 14.6959 35.6934 14.0656 35.6934 13.2868C35.6934 12.5079 35.062 11.8776 34.2842 11.8776H1.94889C1.17102 11.8776 0.539703 12.5079 0.539703 13.2868C0.539703 14.0656 1.17102 14.6959 1.94889 14.6959Z" fill="#005E90"/>
<path d="M25.7558 24.75C26.11 24.75 26.4651 24.6175 26.7385 24.3507L37.0735 14.2975C37.6193 13.7667 37.6447 12.8968 37.1299 12.3359L26.7948 1.05679C26.2697 0.481838 25.3763 0.44614 24.8041 0.96942C24.2311 1.49552 24.1916 2.38612 24.7177 2.96013L34.1273 13.2303L24.7731 22.3309C24.2151 22.8739 24.2029 23.7654 24.7459 24.3235C25.0221 24.6072 25.3894 24.75 25.7558 24.75Z" fill="#005E90"/>
</svg>
