<svg width="615" height="275" viewBox="0 0 615 275" fill="none" xmlns="http://www.w3.org/2000/svg">
<path d="M593.1 63.7336C564.035 18.2247 508.966 -7.20057 455.454 1.79993C426.599 6.65426 403.827 23.5854 382.095 41.8377C373.978 48.6528 366.005 55.6468 357.918 62.2716C347.848 70.522 328.758 86.4633 307.738 104.103C298.696 96.6897 289.253 88.9494 280.824 82.0353C270.198 73.3242 261.193 65.9418 256.716 62.2716C226.981 37.9009 198.811 8.46655 159.18 1.79993C105.665 -7.20057 50.5993 18.2209 21.5343 63.7336C14.5364 74.6911 9.16432 86.6041 5.53595 99.0236C1.88854 111.5 0.00390625 124.491 0.00390625 137.55C0.00390625 207.068 54.3267 267.338 123.532 274.366C163.517 278.425 204.327 262.582 233.457 235.402C257.063 213.376 282.084 193.11 307.155 172.855C313.537 178.185 320.531 184.026 327.62 189.946C345.8 205.13 364.604 220.801 375.306 229.573C420.081 266.268 470.942 288.126 528.01 265.316C575.945 246.157 610.005 200.279 614.193 148.797C614.497 145.058 614.65 141.304 614.65 137.554C614.635 111.489 607.13 85.698 593.1 63.7336ZM215.742 181.84C194.47 200.679 167.511 220.831 137.52 220.831C131.311 220.831 125.268 220.127 119.443 218.832C82.1849 210.551 54.2354 177.26 54.2354 137.546C54.2354 109.235 70.7554 82.2752 94.0638 66.8518C108.425 57.3449 123.056 54.2724 137.414 55.5098C162.047 57.6304 185.866 72.4295 206.109 89.1551C211.976 94.0018 223.166 103.227 235.978 113.788C245.724 121.822 256.4 130.624 266.402 138.879C240.958 160.325 219.58 178.444 215.742 181.84ZM488.612 220.013C468.125 223.371 447.25 218.2 430.848 205.446C416.924 194.618 394.396 175.707 373.018 157.683C364.886 150.826 356.967 144.14 349.706 138.033C369.287 121.711 388.872 105.393 408.522 89.1551C410.075 87.872 411.655 86.6042 413.25 85.3478C432.431 70.2365 454.472 57.4629 477.217 55.5098C491.571 54.2762 506.202 57.3449 520.567 66.8518C543.872 82.279 560.395 109.235 560.395 137.546C560.399 177.999 528.125 213.536 488.612 220.013Z" fill="url(#paint0_linear_279_4754)"/>
<path d="M491.11 0.631135C451.125 -3.43127 410.315 12.4148 381.185 39.5952C366.287 53.4957 316.548 96.2253 279.518 127.826C275.079 131.565 270.674 135.273 266.398 138.879C240.958 160.329 219.583 178.444 215.742 181.844C194.47 200.683 167.511 220.835 137.52 220.835C131.311 220.835 125.268 220.131 119.443 218.836C90.4391 221.079 64.8197 212.01 36.28 183.051C13.3485 159.781 6.82653 125.115 5.53204 99.0275C1.88463 111.504 0 124.495 0 137.554C0 207.072 54.3228 267.342 123.528 274.37C163.513 278.428 204.324 262.586 233.453 235.406C244.784 224.833 256.453 214.682 268.283 204.726C268.287 204.734 268.294 204.742 268.298 204.749C269.49 203.763 270.727 202.705 271.995 201.616C283.611 191.911 295.368 182.377 307.148 172.859C317.789 164.262 328.435 155.669 338.988 146.946C340.435 145.747 341.882 144.548 343.329 143.345C345.453 141.574 347.585 139.812 349.714 138.041C369.295 121.719 388.88 105.401 408.529 89.1627C410.083 87.8796 411.662 86.6118 413.258 85.3554C413.258 85.3554 455.816 48.314 495.191 56.1685C524.195 53.926 549.815 62.995 578.354 91.9535C601.286 115.224 607.808 149.889 609.102 175.977C612.75 163.501 614.638 150.51 614.638 137.451C614.634 67.9293 560.312 7.65945 491.11 0.631135Z" fill="url(#paint1_linear_279_4754)"/>
<defs>
<linearGradient id="paint0_linear_279_4754" x1="628.07" y1="137.498" x2="-15.5673" y2="137.498" gradientUnits="userSpaceOnUse">
<stop stop-color="#FFD000"/>
<stop offset="0.5" stop-color="#1BA0DE"/>
<stop offset="0.6629" stop-color="#1783CC"/>
<stop offset="1" stop-color="#0D3EA2"/>
</linearGradient>
<linearGradient id="paint1_linear_279_4754" x1="28.1079" y1="213.8" x2="623.515" y2="51.0874" gradientUnits="userSpaceOnUse">
<stop stop-color="#FFD000"/>
<stop offset="0.5" stop-color="#22C6D4"/>
<stop offset="0.6211" stop-color="#1EA9C9"/>
<stop offset="0.8818" stop-color="#1261AF"/>
<stop offset="1" stop-color="#0D3EA2"/>
</linearGradient>
</defs>
</svg>
