<svg width="100" height="100" viewBox="0 0 100 100" fill="none" xmlns="http://www.w3.org/2000/svg">
<path d="M60.8261 24.8547C60.2922 24.3209 60.2922 23.4553 60.8261 22.9215L61.5414 22.2062C62.075 21.6723 62.941 21.6723 63.4746 22.2062C64.0086 22.74 64.0086 23.6057 63.4746 24.1394L62.7593 24.8547C62.4925 25.1217 62.1425 25.2553 61.7927 25.2553C61.4429 25.2553 61.0929 25.1217 60.8261 24.8547ZM62.7593 46.5019C62.2258 45.968 61.3597 45.968 60.8261 46.5019C60.2922 47.0357 60.2922 47.9014 60.8261 48.4352L61.5414 49.1504C61.8082 49.4174 62.1582 49.551 62.508 49.551C62.8578 49.551 63.2078 49.4174 63.4746 49.1504C64.0086 48.6166 64.0086 47.751 63.4746 47.2172L62.7593 46.5019ZM66.6763 37.0455H67.6881C68.4431 37.0455 69.0552 36.4334 69.0552 35.6783C69.0552 34.9232 68.4431 34.3111 67.6881 34.3111H66.6763C65.9213 34.3111 65.3092 34.9232 65.3092 35.6783C65.3092 36.4334 65.9213 37.0455 66.6763 37.0455ZM33.3287 34.3111H32.317C31.5619 34.3111 30.9498 34.9232 30.9498 35.6783C30.9498 36.4334 31.5619 37.0455 32.317 37.0455H33.3287C34.0838 37.0455 34.6959 36.4334 34.6959 35.6783C34.6959 34.9232 34.0838 34.3111 33.3287 34.3111ZM37.2457 46.5019L36.5304 47.2172C35.9965 47.751 35.9965 48.6166 36.5304 49.1504C36.7972 49.4174 37.1472 49.551 37.497 49.551C37.8468 49.551 38.1968 49.4174 38.4636 49.1504L39.1789 48.4352C39.7129 47.9014 39.7129 47.0357 39.1789 46.5019C38.6453 45.968 37.7793 45.968 37.2457 46.5019ZM50.0025 20.3717C50.7576 20.3717 51.3697 19.7596 51.3697 19.0045V17.9928C51.3697 17.2377 50.7576 16.6256 50.0025 16.6256C49.2474 16.6256 48.6353 17.2377 48.6353 17.9928V19.0045C48.6353 19.7596 49.2474 20.3717 50.0025 20.3717ZM37.2457 24.8547C37.5125 25.1217 37.8625 25.2553 38.2123 25.2553C38.5621 25.2553 38.9121 25.1217 39.1789 24.8547C39.7129 24.3209 39.7129 23.4553 39.1789 22.9215L38.4636 22.2062C37.93 21.6723 37.064 21.6723 36.5304 22.2062C35.9965 22.74 35.9965 23.6057 36.5304 24.1394L37.2457 24.8547ZM70.4265 91.3933C70.4302 91.4342 70.432 91.475 70.432 91.516V97.8516C70.432 98.6066 69.8199 99.2187 69.0648 99.2187H30.9402C30.1851 99.2187 29.573 98.6066 29.573 97.8516V91.516C29.573 91.475 29.575 91.4342 29.5785 91.3933C30.0359 86.3154 32.3631 81.6119 36.1314 78.1494C38.4408 76.0273 41.1713 74.4873 44.1172 73.6062C41.3441 71.718 39.5191 68.5361 39.5191 64.9355C39.5191 64.8494 39.5236 64.7644 39.5256 64.6789L35.0572 62.8254L31.6457 65.1131C31.1037 65.4768 30.3795 65.4064 29.9175 64.9443L20.7361 55.7629C20.2742 55.3012 20.2035 54.5773 20.5674 54.0348L22.8548 50.6232L20.2343 44.3053L16.208 43.5117C15.5672 43.3853 15.1052 42.8234 15.1052 42.1703V29.1859C15.1052 28.5328 15.5672 27.9709 16.208 27.8447L20.2343 27.051L22.8548 20.733L20.5674 17.3215C20.2037 16.7791 20.2742 16.0553 20.7361 15.5934L29.9175 6.41191C30.3793 5.9498 31.1035 5.87949 31.6457 6.24316L35.0572 8.53086L41.3752 5.91015L42.1689 1.88379C42.2951 1.24297 42.857 0.781052 43.5101 0.781052H56.4945C57.1476 0.781052 57.7095 1.24316 57.8357 1.88398L58.6295 5.91015L64.9474 8.53086L68.359 6.24316C68.9009 5.87929 69.6252 5.9498 70.0871 6.41191L79.2685 15.5934C79.7304 16.0551 79.8011 16.7789 79.4373 17.3215L77.1496 20.733L79.7703 27.051L83.7967 27.8447C84.4373 27.9709 84.8994 28.5328 84.8994 29.1859V42.1703C84.8994 42.8234 84.4375 43.3853 83.7967 43.5115L79.7703 44.3053L77.1496 50.6232L79.4373 54.0346C79.8009 54.5768 79.7304 55.3008 79.2687 55.7627L70.0871 64.9443C69.8228 65.2088 69.4726 65.3449 69.1201 65.3449C68.8562 65.3449 68.591 65.2687 68.3591 65.1131L64.9476 62.8254L60.4793 64.6789C60.4812 64.7644 60.4857 64.8494 60.4857 64.9355C60.4857 68.5361 58.6607 71.718 55.8875 73.6062C58.8334 74.4871 61.5638 76.0271 63.873 78.1492C67.6414 81.6117 69.9685 86.3152 70.4261 91.3932L70.4265 91.3933ZM50.606 75.4949C50.4052 75.4883 50.2048 75.4809 50.0023 75.4809C49.8084 75.4809 49.6162 75.4883 49.4238 75.4943L48.0539 89.1943L50.015 92.0016L51.9761 89.1943L50.606 75.4949ZM39.9683 61.9025C40.514 60.101 41.5322 58.5037 42.8785 57.2543C33.6847 54.2338 27.2884 45.6018 27.2884 35.6783C27.2884 23.1537 37.4779 12.9643 50.0025 12.9643C62.5271 12.9643 72.7166 23.1537 72.7166 35.6783C72.7166 45.6018 66.3203 54.2336 57.1265 57.2541C58.4728 58.5035 59.4912 60.1008 60.0367 61.9023L64.5769 60.0189C64.9994 59.8439 65.4822 59.8914 65.8621 60.1463L68.9486 62.2162L76.5406 54.624L74.4707 51.5377C74.2156 51.1578 74.1679 50.6752 74.3433 50.2525L77.5252 42.582C77.7004 42.1598 78.075 41.8529 78.5236 41.7645L82.1652 41.0463V30.3098L78.5236 29.5916C78.075 29.5033 77.7004 29.1965 77.5252 28.774L74.3433 21.1035C74.1681 20.6809 74.2158 20.1984 74.4707 19.8184L76.5406 16.7318L68.9486 9.13984L65.8621 11.2098C65.4822 11.4646 64.9994 11.5125 64.5769 11.3371L56.9064 8.15527C56.4841 7.98007 56.1773 7.60547 56.0886 7.15703L55.3707 3.51523H44.6341L43.916 7.15683C43.8277 7.60547 43.5209 7.98007 43.0984 8.15527L35.4279 11.3371C35.0052 11.5123 34.5226 11.4644 34.1427 11.2098L31.0562 9.13984L23.4642 16.7318L25.534 19.8184C25.789 20.1984 25.8367 20.6809 25.6613 21.1035L22.4797 28.774C22.3047 29.1963 21.9299 29.5031 21.4812 29.5916L17.8394 30.3098V41.0463L21.4812 41.7643C21.9299 41.8527 22.3047 42.1596 22.4797 42.582L25.6613 50.2525C25.8365 50.6752 25.7888 51.1576 25.534 51.5377L23.4642 54.6242L31.0562 62.2162L34.1427 60.1463C34.5226 59.8912 35.0052 59.8437 35.4279 60.0189L39.9681 61.9023L39.9683 61.9025ZM51.3697 52.3523V53.3641C51.3697 53.8283 51.1379 54.2377 50.7843 54.4848C51.9195 54.5689 53.005 54.8328 54.0117 55.251C63.2888 53.3639 69.9822 45.199 69.9822 35.6785C69.9822 24.6617 61.0193 15.6988 50.0025 15.6988C38.9857 15.6988 30.0228 24.6617 30.0228 35.6785C30.0228 45.199 36.7162 53.3641 45.9933 55.251C47 54.8326 48.0857 54.5689 49.2209 54.4848C48.8672 54.2377 48.6355 53.8281 48.6355 53.3641V52.3523C48.6355 51.5973 49.2476 50.9852 50.0027 50.9852C50.7578 50.9852 51.3697 51.5973 51.3697 52.3523ZM50.0025 72.685C54.2754 72.685 57.7515 69.2088 57.7515 64.9359C57.7515 60.6631 54.2754 57.1869 50.0025 57.1869C45.7297 57.1869 42.2535 60.6631 42.2535 64.9359C42.2535 69.2088 45.7297 72.685 50.0025 72.685ZM67.6976 91.5789C66.947 83.5465 61.0386 77.2475 53.3839 75.7967L54.747 89.4262C54.7797 89.7512 54.6945 90.0773 54.5074 90.3451L51.1355 95.1717C50.8797 95.5377 50.4613 95.7559 50.0148 95.7559C49.5683 95.7559 49.1498 95.5377 48.8941 95.1717L45.5222 90.3451C45.3351 90.0773 45.25 89.7512 45.2826 89.4262L46.6459 75.7922C38.9789 77.2338 33.0584 83.5373 32.3072 91.5787V96.4844H67.6972V91.5787L67.6976 91.5789ZM60.7355 31.9621L48.3095 44.3879C47.6785 45.0191 46.8732 45.3537 46.0064 45.3537C45.8568 45.3537 45.7058 45.3437 45.5531 45.3238C44.5156 45.1871 43.6558 44.6127 43.1326 43.7066L38.7154 36.0555C37.7527 34.3881 38.3261 32.2482 39.9935 31.2853C41.6613 30.3228 43.8009 30.8963 44.7636 32.5635L46.7748 36.0465L55.7972 27.024C57.1588 25.6625 59.374 25.6627 60.7355 27.024C62.0972 28.3857 62.0972 30.6008 60.7355 31.9623V31.9621ZM58.8023 28.9572C58.5117 28.6674 58.0209 28.6672 57.7306 28.9572L47.4482 39.2396C47.1478 39.5402 46.7257 39.6838 46.3031 39.6285C45.8818 39.573 45.5101 39.3246 45.2976 38.9566L42.3959 33.9307C42.1906 33.575 41.7164 33.4475 41.3609 33.6533C41.0054 33.8588 40.8783 34.3328 41.0838 34.6883L45.5009 42.3394C45.597 42.5061 45.7193 42.5877 45.9103 42.6127C46.1007 42.6387 46.2402 42.5908 46.3765 42.4545L58.8025 30.0287C59.0927 29.7383 59.0927 29.2477 58.8025 28.9572H58.8023ZM19.8152 86.2502C15.4705 84.5439 12.459 80.432 12.1431 75.7748C11.9031 72.2326 13.2173 68.8014 15.7025 66.3385L15.2636 68.7701C15.1295 69.5131 15.6232 70.2242 16.3664 70.3584C17.1088 70.4939 17.8203 69.9986 17.9547 69.2557L19.0099 63.4092C19.0863 62.9869 18.9595 62.5531 18.6681 62.2381C18.3767 61.923 17.9521 61.7642 17.5273 61.806L11.197 62.4447C10.4457 62.5207 9.89821 63.191 9.97379 63.9422C10.0496 64.6937 10.7232 65.2385 11.4713 65.1654L13.2109 64.99C10.5334 67.9529 9.13962 71.8969 9.4152 75.96C9.80212 81.6664 13.4922 86.7045 18.8158 88.7955C18.9798 88.86 19.1488 88.8904 19.3152 88.8904C19.8609 88.8904 20.3765 88.5613 20.5882 88.0226C20.8642 87.3199 20.5183 86.5266 19.8154 86.2504L19.8152 86.2502ZM90.3439 76.5881C91.447 70.9762 89.1869 65.1545 84.5859 61.757C83.9787 61.3086 83.1224 61.4375 82.674 62.0447C82.2254 62.6521 82.3543 63.5082 82.9617 63.9566C86.717 66.7295 88.5615 71.4805 87.6613 76.0607C86.9763 79.5445 84.8187 82.5185 81.781 84.2543L82.8343 82.0193C83.156 81.3363 82.8633 80.5219 82.1802 80.2C81.4976 79.8783 80.6826 80.1709 80.3609 80.8541L77.8285 86.2281C77.6455 86.6162 77.6554 87.068 77.8554 87.4476C78.0554 87.8273 78.422 88.0914 78.8457 88.1601L85.1254 89.1816C85.1998 89.1937 85.2736 89.1996 85.3466 89.1996C86.0048 89.1996 86.5853 88.7226 86.6943 88.0518C86.8156 87.3066 86.3095 86.6041 85.5644 86.4828L83.8386 86.2019C87.1918 84.033 89.5588 80.584 90.3443 76.5881H90.3439Z" fill="url(#paint0_linear_620_4616)"/>
<defs>
<linearGradient id="paint0_linear_620_4616" x1="17.0009" y1="88.7191" x2="84.6976" y2="21.0226" gradientUnits="userSpaceOnUse">
<stop stop-color="white"/>
<stop offset="1" stop-color="#00C1FF"/>
</linearGradient>
</defs>
</svg>
