<svg width="50" height="50" viewBox="0 0 50 50" fill="none" xmlns="http://www.w3.org/2000/svg">
<path d="M7.52493 41.9065C7.23977 41.9064 6.9581 41.8439 6.69967 41.7234C6.44124 41.6028 6.21232 41.4272 6.02897 41.2088C5.84561 40.9904 5.71227 40.7346 5.63831 40.4592C5.56434 40.1838 5.55153 39.8955 5.60079 39.6147L7.02138 31.5641C7.09063 31.1709 7.27891 30.8085 7.56079 30.5258L27.7352 10.3521C27.844 10.2433 27.9731 10.1569 28.1153 10.098C28.2575 10.0391 28.4099 10.0088 28.5637 10.0088C28.7176 10.0088 28.87 10.0391 29.0122 10.098C29.1543 10.1569 29.2835 10.2433 29.3923 10.3521L37.1262 18.086C37.2351 18.1948 37.3214 18.324 37.3803 18.4662C37.4392 18.6083 37.4695 18.7607 37.4695 18.9146C37.4695 19.0685 37.4392 19.2208 37.3803 19.363C37.3214 19.5052 37.2351 19.6343 37.1262 19.7431L16.9556 39.9137C16.6726 40.1978 16.3085 40.3873 15.9134 40.4562L7.86441 41.8768C7.75232 41.8965 7.63874 41.9065 7.52493 41.9065ZM9.30868 32.0928L8.0063 39.4712L15.3862 38.1689L34.6406 18.9146L28.5637 12.8378L9.30868 32.0928Z" fill="#28B4FF"/>
<path d="M36.2976 20.0865C36.1437 20.0867 35.9913 20.0564 35.8491 19.9975C35.7069 19.9386 35.5778 19.8521 35.4691 19.7432L27.7352 12.0092C27.6263 11.9004 27.54 11.7712 27.4811 11.6291C27.4222 11.4869 27.3918 11.3345 27.3918 11.1806C27.3918 11.0267 27.4222 10.8744 27.4811 10.7322C27.54 10.59 27.6263 10.4609 27.7352 10.3521L32.7072 5.38C33.3768 4.74058 34.2671 4.38379 35.1929 4.38379C36.1187 4.38379 37.009 4.74058 37.6786 5.38L42.0983 9.79981C42.7563 10.4596 43.1259 11.3534 43.126 12.2853C43.1262 13.2172 42.7569 14.1111 42.099 14.7711L37.1262 19.7432C37.0175 19.8522 36.8884 19.9386 36.7462 19.9975C36.604 20.0564 36.4515 20.0867 36.2976 20.0865ZM30.2208 11.1807L36.2976 17.2575L40.4412 13.114C40.6603 12.8939 40.7833 12.596 40.7833 12.2854C40.7833 11.9749 40.6603 11.6769 40.4412 11.4569L36.0215 7.03717C35.7984 6.82415 35.5017 6.70528 35.1933 6.70528C34.8848 6.70528 34.5882 6.82415 34.3651 7.03717L30.2208 11.1807Z" fill="#28B4FF"/>
<path d="M40.625 46.4844H6.25C5.9392 46.4844 5.64113 46.3609 5.42136 46.1411C5.20159 45.9214 5.07812 45.6233 5.07812 45.3125C5.07812 45.0017 5.20159 44.7036 5.42136 44.4839C5.64113 44.2641 5.9392 44.1406 6.25 44.1406H40.625C40.9358 44.1406 41.2339 44.2641 41.4536 44.4839C41.6734 44.7036 41.7969 45.0017 41.7969 45.3125C41.7969 45.6233 41.6734 45.9214 41.4536 46.1411C41.2339 46.3609 40.9358 46.4844 40.625 46.4844Z" fill="#28B4FF"/>
<path d="M7.8125 12.1094C7.50172 12.1093 7.2037 11.9858 6.98395 11.766C6.7642 11.5463 6.64071 11.2483 6.64062 10.9375V4.6875C6.64062 4.3767 6.76409 4.07863 6.98386 3.85886C7.20363 3.63909 7.5017 3.51563 7.8125 3.51562C8.1233 3.51562 8.42137 3.63909 8.64114 3.85886C8.86091 4.07863 8.98438 4.3767 8.98438 4.6875V10.9375C8.98429 11.2483 8.8608 11.5463 8.64105 11.766C8.4213 11.9858 8.12328 12.1093 7.8125 12.1094Z" fill="#28B4FF"/>
<path d="M10.9375 8.98438H4.6875C4.3767 8.98438 4.07863 8.86091 3.85886 8.64114C3.63909 8.42137 3.51562 8.1233 3.51562 7.8125C3.51562 7.5017 3.63909 7.20363 3.85886 6.98386C4.07863 6.76409 4.3767 6.64063 4.6875 6.64062H10.9375C11.2483 6.64063 11.5464 6.76409 11.7661 6.98386C11.9859 7.20363 12.1094 7.5017 12.1094 7.8125C12.1094 8.1233 11.9859 8.42137 11.7661 8.64114C11.5464 8.86091 11.2483 8.98438 10.9375 8.98438Z" fill="#28B4FF"/>
<path d="M18.75 15.2344C18.4392 15.2343 18.1412 15.1108 17.9215 14.891C17.7017 14.6713 17.5782 14.3733 17.5781 14.0625V7.8125C17.5781 7.5017 17.7016 7.20363 17.9214 6.98386C18.1411 6.76409 18.4392 6.64063 18.75 6.64062C19.0608 6.64063 19.3589 6.76409 19.5786 6.98386C19.7984 7.20363 19.9219 7.5017 19.9219 7.8125V14.0625C19.9218 14.3733 19.7983 14.6713 19.5785 14.891C19.3588 15.1108 19.0608 15.2343 18.75 15.2344Z" fill="#28B4FF"/>
<path d="M21.875 12.1094H15.625C15.3142 12.1094 15.0161 11.9859 14.7964 11.7661C14.5766 11.5464 14.4531 11.2483 14.4531 10.9375C14.4531 10.6267 14.5766 10.3286 14.7964 10.1089C15.0161 9.88909 15.3142 9.76563 15.625 9.76562H21.875C22.1858 9.76562 22.4839 9.88909 22.7036 10.1089C22.9234 10.3286 23.0469 10.6267 23.0469 10.9375C23.0469 11.2483 22.9234 11.5464 22.7036 11.7661C22.4839 11.9859 22.1858 12.1094 21.875 12.1094Z" fill="#28B4FF"/>
<path d="M34.375 41.7969C34.0642 41.7968 33.7662 41.6733 33.5465 41.4535C33.3267 41.2338 33.2032 40.9358 33.2031 40.625V34.375C33.2031 34.0642 33.3266 33.7661 33.5464 33.5464C33.7661 33.3266 34.0642 33.2031 34.375 33.2031C34.6858 33.2031 34.9839 33.3266 35.2036 33.5464C35.4234 33.7661 35.5469 34.0642 35.5469 34.375V40.625C35.5468 40.9358 35.4233 41.2338 35.2035 41.4535C34.9838 41.6733 34.6858 41.7968 34.375 41.7969Z" fill="#28B4FF"/>
<path d="M37.5 38.6719H31.25C30.9392 38.6719 30.6411 38.5484 30.4214 38.3286C30.2016 38.1089 30.0781 37.8108 30.0781 37.5C30.0781 37.1892 30.2016 36.8911 30.4214 36.6714C30.6411 36.4516 30.9392 36.3281 31.25 36.3281H37.5C37.8108 36.3281 38.1089 36.4516 38.3286 36.6714C38.5484 36.8911 38.6719 37.1892 38.6719 37.5C38.6719 37.8108 38.5484 38.1089 38.3286 38.3286C38.1089 38.5484 37.8108 38.6719 37.5 38.6719Z" fill="#28B4FF"/>
<path d="M42.1875 32.4219C41.8767 32.4218 41.5787 32.2983 41.359 32.0785C41.1392 31.8588 41.0157 31.5608 41.0156 31.25V25C41.0156 24.6892 41.1391 24.3911 41.3589 24.1714C41.5786 23.9516 41.8767 23.8281 42.1875 23.8281C42.4983 23.8281 42.7964 23.9516 43.0161 24.1714C43.2359 24.3911 43.3594 24.6892 43.3594 25V31.25C43.3593 31.5608 43.2358 31.8588 43.016 32.0785C42.7963 32.2983 42.4983 32.4218 42.1875 32.4219Z" fill="#28B4FF"/>
<path d="M45.3125 29.2969H39.0625C38.7517 29.2969 38.4536 29.1734 38.2339 28.9536C38.0141 28.7339 37.8906 28.4358 37.8906 28.125C37.8906 27.8142 38.0141 27.5161 38.2339 27.2964C38.4536 27.0766 38.7517 26.9531 39.0625 26.9531H45.3125C45.6233 26.9531 45.9214 27.0766 46.1411 27.2964C46.3609 27.5161 46.4844 27.8142 46.4844 28.125C46.4844 28.4358 46.3609 28.7339 46.1411 28.9536C45.9214 29.1734 45.6233 29.2969 45.3125 29.2969Z" fill="#28B4FF"/>
</svg>
