<svg width="30" height="30" viewBox="0 0 30 30" fill="none" xmlns="http://www.w3.org/2000/svg">
<path d="M0.169922 28.2826C0.169922 29.2273 0.942652 30 1.88728 30H28.2803C29.225 30 29.9977 29.2273 29.9977 28.2826V4.36375H0.169922V28.2826ZM12.6096 6.94092H27.0809C27.3321 6.94092 27.5356 7.14434 27.5356 7.39553C27.5356 7.64671 27.3321 7.85013 27.0809 7.85013H12.6096C12.3588 7.85013 12.155 7.64671 12.155 7.39553C12.155 7.14434 12.3585 6.94092 12.6096 6.94092ZM10.0913 9.73712H27.0809C27.3321 9.73712 27.5356 9.94053 27.5356 10.1917C27.5356 10.4426 27.3321 10.6463 27.0809 10.6463H10.0913C9.8401 10.6463 9.63668 10.4429 9.63668 10.1917C9.63668 9.94053 9.84042 9.73712 10.0913 9.73712ZM27.5356 12.9876C27.5356 13.2388 27.3321 13.4422 27.0809 13.4422H12.6096C12.3588 13.4422 12.155 13.2388 12.155 12.9876C12.155 12.7364 12.3585 12.533 12.6096 12.533H27.0809C27.3321 12.5333 27.5356 12.7367 27.5356 12.9876ZM10.0913 15.3295H27.0809C27.3321 15.3295 27.5356 15.5329 27.5356 15.7841C27.5356 16.0353 27.3321 16.2387 27.0809 16.2387H10.0913C9.8401 16.2387 9.63668 16.0353 9.63668 15.7841C9.63668 15.5329 9.84042 15.3295 10.0913 15.3295ZM27.5356 18.58C27.5356 18.8308 27.3321 19.0346 27.0809 19.0346H12.6096C12.3588 19.0346 12.155 18.8312 12.155 18.58C12.155 18.3288 12.3585 18.1254 12.6096 18.1254H27.0809C27.3321 18.1254 27.5356 18.3291 27.5356 18.58ZM9.03877 18.0675C9.37737 17.8719 9.80435 17.9002 10.1144 18.1384L13.7385 20.9219H27.0809C27.3321 20.9219 27.5356 21.1253 27.5356 21.3765C27.5356 21.6273 27.3321 21.8311 27.0809 21.8311H14.922L15.1611 22.0147C15.4747 22.2555 15.6106 22.6633 15.5046 23.0441C15.4123 23.3753 15.1537 23.6284 14.8297 23.7181H27.0809C27.3321 23.7181 27.5356 23.9215 27.5356 24.1727C27.5356 24.4239 27.3321 24.6273 27.0809 24.6273H14.767L15.5004 25.8975C15.6122 26.0912 15.6492 26.3079 15.6206 26.5143H27.0809C27.3321 26.5143 27.5356 26.7177 27.5356 26.9689C27.5356 27.2201 27.3321 27.4235 27.0809 27.4235H14.7969L13.9137 27.933C13.4509 28.2001 12.8563 28.0409 12.5892 27.5781L12.4998 27.4232H10.0913C9.8401 27.4232 9.63668 27.2197 9.63668 26.9685C9.63668 26.7174 9.8401 26.5139 10.0913 26.5139H11.975L11.3735 25.4718L11.1383 25.7913C10.9033 26.11 10.4991 26.2537 10.1157 26.1549C9.73254 26.0561 9.44853 25.7354 9.39654 25.3431L8.56272 19.0342C8.51105 18.645 8.69887 18.2638 9.03877 18.0675ZM3.25922 7.33476C3.25922 7.13297 3.42429 6.96789 3.62609 6.96789H6.54413C6.74593 6.96789 6.911 7.13297 6.911 7.33476V10.2525C6.911 10.4543 6.74593 10.6194 6.54413 10.6194H3.62609C3.42429 10.6194 3.25922 10.4543 3.25922 10.2525V7.33476ZM3.25922 12.9268C3.25922 12.725 3.42429 12.56 3.62609 12.56H6.54413C6.74593 12.56 6.911 12.725 6.911 12.9268V15.8449C6.911 16.0467 6.74593 16.2117 6.54413 16.2117H3.62609C3.42429 16.2117 3.25922 16.0467 3.25922 15.8449V12.9268ZM3.25922 18.5192C3.25922 18.3174 3.42429 18.1523 3.62609 18.1523H6.54413C6.74593 18.1523 6.911 18.3174 6.911 18.5192V21.4369C6.911 21.6387 6.74593 21.8038 6.54413 21.8038H3.62609C3.42429 21.8038 3.25922 21.6387 3.25922 21.4369V18.5192ZM3.25922 24.1116C3.25922 23.9098 3.42429 23.7447 3.62609 23.7447H6.54413C6.74593 23.7447 6.911 23.9098 6.911 24.1116V27.0293C6.911 27.2311 6.74593 27.3962 6.54413 27.3962H3.62609C3.42429 27.3962 3.25922 27.2311 3.25922 27.0293V24.1116ZM28.2803 0H1.88728C0.942652 0 0.169922 0.77273 0.169922 1.71736V3.45486H29.9977V1.71736C29.9977 0.77273 29.225 0 28.2803 0ZM4.13041 2.18204H3.19293C2.94174 2.18204 2.73832 1.97862 2.73832 1.72743C2.73832 1.47625 2.94174 1.27283 3.19293 1.27283H4.13041C4.38127 1.27283 4.58501 1.47625 4.58501 1.72743C4.58501 1.97829 4.38127 2.18204 4.13041 2.18204ZM7.28242 2.18204H6.34494C6.09375 2.18204 5.89034 1.97862 5.89034 1.72743C5.89034 1.47625 6.09375 1.27283 6.34494 1.27283H7.28242C7.53361 1.27283 7.73702 1.47625 7.73702 1.72743C7.73702 1.97829 7.53328 2.18204 7.28242 2.18204ZM10.4344 2.18204H9.49695C9.24576 2.18204 9.04235 1.97862 9.04235 1.72743C9.04235 1.47625 9.24576 1.27283 9.49695 1.27283H10.4344C10.6853 1.27283 10.889 1.47625 10.889 1.72743C10.889 1.97829 10.6856 2.18204 10.4344 2.18204ZM26.7852 2.18204H16.1838C15.9326 2.18204 15.7292 1.97862 15.7292 1.72743C15.7292 1.47625 15.9326 1.27283 16.1838 1.27283H26.7852C27.0364 1.27283 27.2398 1.47625 27.2398 1.72743C27.2398 1.97829 27.0361 2.18204 26.7852 2.18204ZM10.2973 25.2239L9.46348 18.915C9.46023 18.8903 9.4716 18.8672 9.49338 18.8546C9.51515 18.8419 9.54082 18.8438 9.56064 18.8591L14.6074 22.7354C14.6276 22.7507 14.6357 22.7754 14.6289 22.7998C14.6221 22.8241 14.6022 22.841 14.5772 22.8436L12.8946 23.0324C12.8738 23.0347 12.8569 23.0464 12.8472 23.0653C12.8378 23.0841 12.8384 23.1046 12.8488 23.1228L14.713 26.3518C14.7296 26.3807 14.7199 26.4178 14.6909 26.4347L13.4594 27.1456C13.4305 27.1622 13.3934 27.1525 13.3765 27.1235L11.5123 23.8945C11.5019 23.8763 11.4843 23.8656 11.4632 23.8643C11.4421 23.863 11.4236 23.8718 11.4109 23.8887L10.4062 25.2515C10.3912 25.272 10.3668 25.2804 10.3421 25.2743C10.3178 25.2681 10.3006 25.2489 10.2973 25.2239Z" fill="#005E90"/>
</svg>
