<svg width="110" height="110" viewBox="0 0 110 110" fill="none" xmlns="http://www.w3.org/2000/svg">
<path d="M54.9943 77.2214C67.2666 77.2214 77.2152 67.2728 77.2152 55.0005C77.2152 42.7283 67.2666 32.7797 54.9943 32.7797C42.7221 32.7797 32.7734 42.7283 32.7734 55.0005C32.7734 67.2728 42.7221 77.2214 54.9943 77.2214Z" stroke="#005E90" stroke-miterlimit="10"/>
<path d="M65.4412 55.0006C65.4412 60.7699 60.7643 65.4468 54.995 65.4468C49.2257 65.4468 44.5488 60.7699 44.5488 55.0006C44.5488 49.2313 49.2257 44.5544 54.995 44.5544C60.7643 44.5544 65.4412 49.2313 65.4412 55.0006Z" stroke="#005E90"/>
<path d="M82.5 82.5C97.6878 67.3122 97.6878 42.6878 82.5 27.5C67.3122 12.3122 42.6878 12.3122 27.5 27.5C12.3122 42.6878 12.3122 67.3122 27.5 82.5C42.6878 97.6878 67.3122 97.6878 82.5 82.5Z" stroke="#005E90" stroke-miterlimit="10"/>
<path d="M54.9942 109.04C84.8392 109.04 109.033 84.8455 109.033 55.0005C109.033 25.1556 84.8392 0.961426 54.9942 0.961426C25.1492 0.961426 0.955078 25.1556 0.955078 55.0005C0.955078 84.8455 25.1492 109.04 54.9942 109.04Z" stroke="#005E90" stroke-miterlimit="10"/>
</svg>
