<svg width="450" height="352" viewBox="0 0 450 352" fill="none" xmlns="http://www.w3.org/2000/svg">
<path d="M224.768 351C348.352 351 448.536 321.569 448.536 285.264C448.536 248.958 348.352 219.527 224.768 219.527C101.184 219.527 1 248.958 1 285.264C1 321.569 101.184 351 224.768 351Z" stroke="white" stroke-opacity="0.5" stroke-width="1.4" stroke-miterlimit="10"/>
<path d="M224.768 285.264C348.352 285.264 448.536 255.833 448.536 219.528C448.536 183.222 348.352 153.791 224.768 153.791C101.184 153.791 1 183.222 1 219.528C1 255.833 101.184 285.264 224.768 285.264Z" stroke="white" stroke-opacity="0.5" stroke-width="1.4" stroke-miterlimit="10"/>
<path d="M224.768 219.527C348.352 219.527 448.536 190.096 448.536 153.791C448.536 117.486 348.352 88.0547 224.768 88.0547C101.184 88.0547 1 117.486 1 153.791C1 190.096 101.184 219.527 224.768 219.527Z" stroke="white" stroke-opacity="0.5" stroke-width="1.4" stroke-miterlimit="10"/>
<path d="M224.768 132.473C348.352 132.473 448.536 103.041 448.536 66.7363C448.536 30.4311 348.352 1 224.768 1C101.184 1 1 30.4311 1 66.7363C1 103.041 101.184 132.473 224.768 132.473Z" stroke="white" stroke-opacity="0.5" stroke-width="1.4" stroke-miterlimit="10"/>
</svg>
