<svg width="123" height="92" viewBox="0 0 123 92" fill="none" xmlns="http://www.w3.org/2000/svg">
<path d="M61.4174 91C94.7849 91 121.835 83.432 121.835 74.0964C121.835 64.7608 94.7849 57.1927 61.4174 57.1927C28.0498 57.1927 1 64.7608 1 74.0964C1 83.432 28.0498 91 61.4174 91Z" stroke="white" stroke-width="1.4" stroke-miterlimit="10"/>
<path d="M61.4174 74.0964C94.7849 74.0964 121.835 66.5284 121.835 57.1927C121.835 47.8571 94.7849 40.2891 61.4174 40.2891C28.0498 40.2891 1 47.8571 1 57.1927C1 66.5284 28.0498 74.0964 61.4174 74.0964Z" stroke="white" stroke-width="1.4" stroke-miterlimit="10"/>
<path d="M61.4174 57.1927C94.7849 57.1927 121.835 49.6247 121.835 40.2891C121.835 30.9535 94.7849 23.3855 61.4174 23.3855C28.0498 23.3855 1 30.9535 1 40.2891C1 49.6247 28.0498 57.1927 61.4174 57.1927Z" stroke="white" stroke-width="1.4" stroke-miterlimit="10"/>
<path d="M61.4174 34.8072C94.7849 34.8072 121.835 27.2392 121.835 17.9036C121.835 8.56801 94.7849 1 61.4174 1C28.0498 1 1 8.56801 1 17.9036C1 27.2392 28.0498 34.8072 61.4174 34.8072Z" stroke="white" stroke-width="1.4" stroke-miterlimit="10"/>
</svg>
