<svg width="600" height="433" viewBox="0 0 600 433" fill="none" xmlns="http://www.w3.org/2000/svg">
<path d="M1.94001 428.83C1.24001 425.68 285.65 345.05 204.94 360.54L186.73 364C173.01 366.63 161.23 370.19 154.67 370.49C133.01 371.49 102.98 393.13 106.43 386.24C109.88 379.35 45.87 277 58.67 251.87C71.47 226.74 150.74 221.87 144.83 227.25C138.92 232.63 93.13 228.25 90.18 256.79C87.23 285.33 120.18 377.9 125.13 376.92C130.08 375.94 134.49 365.59 134.49 363.62C134.49 361.65 140.4 319.31 134 301.62C127.6 283.93 73.93 225.77 64.58 209C55.23 192.23 31.58 140.08 32.09 136.14C32.6 132.2 47.84 134.66 53.75 129.25C59.66 123.84 60.64 120.88 60.64 120.88L51.78 103.65C51.78 103.65 25.68 112.02 25.68 113.99C25.68 115.96 27.68 128.76 29.62 123.83C31.56 118.9 24.7 107.09 22.73 101.19C20.76 95.29 9.93001 81 11.9 73.64C13.87 66.28 35 56.91 40 61.83C45 66.75 44.43 76.11 44.43 76.11C44.43 76.11 25.23 80.54 30.16 74.63C35.09 68.72 45.91 65.77 48.37 75.63C50.83 85.49 48.37 91.39 48.37 94.34C48.37 97.29 50.37 104.68 52.8 112.56C55.23 120.44 58.22 126.34 65.6 138.65C72.98 150.96 93.67 182.96 94.65 187.39C95.2527 190.303 95.4178 193.289 95.14 196.25C95.14 198.25 100.07 188.38 101.05 193.79C101.808 197.352 103.318 200.71 105.48 203.64C105.48 203.64 106.48 192.32 109.91 198.72C113.34 205.12 125.63 214 135 217.41C144.37 220.82 150.26 253.84 145.83 248.41C141.4 242.98 134.02 218.41 149.28 218.41C164.54 218.41 171.92 214.47 171.92 214.47C171.92 214.47 167.99 220.38 174.39 237.61C180.79 254.84 185.2 253.34 196 277C206.8 300.66 207.32 353.32 207.32 350.85C207.32 348.38 203.38 307.53 193.04 293.25C182.7 278.97 158.58 268.64 159.57 265.68C160.56 262.72 168.43 255.83 165.97 252.39C163.51 248.95 153.17 246.97 155.14 240.08C157.11 233.19 168.46 211 169.94 211.5C171.42 212 171.94 229.22 185.69 240.05C199.44 250.88 206.37 250.88 206.37 250.88C206.37 250.88 195.54 265.16 197.51 264.67C199.48 264.18 202.92 255.31 204.89 259.25C206.86 263.19 203.89 269.1 206.37 271.07C208.85 273.04 213.26 272.54 213.26 275.5C213.26 278.46 213.75 282.88 215.26 298.64C216.77 314.4 212.26 351.32 215.26 350.33C218.26 349.34 231.01 347.87 231.51 343.93C232.01 339.99 220.68 271.56 221.17 268.61C221.66 265.66 224.61 266.14 223.63 262.7C222.65 259.26 214.77 252.85 216.74 252.36C218.71 251.87 225.11 253.84 225.11 253.84C225.11 253.84 236.43 276.48 238.89 295.19C241.35 313.9 244.31 344.42 244.8 340.49C245.29 336.56 244.31 284.85 244.31 272.05C244.309 264.401 243.3 256.786 241.31 249.4C241.31 249.4 229.99 249.9 232.45 248.91C234.91 247.92 239.84 248.42 238.36 244.48C236.88 240.54 226.05 230.7 226.05 230.7C226.05 230.7 215.23 246 210.8 248.42C206.37 250.84 188.64 237.1 182.24 226.76C175.84 216.42 171.9 212.48 174.86 208.05C177.339 204.599 178.713 200.478 178.8 196.23C178.8 192.79 167.97 178.02 172.4 162.76C176.83 147.5 181.75 146 181.75 146C181.75 146 185.2 139.1 196.52 136.15C207.84 133.2 238.86 142.55 245.26 148.95C251.66 155.35 254.62 167.66 245.26 168.64C235.9 169.62 222.12 163.72 222.12 163.72C222.12 163.72 228.03 170.61 219.12 172.09C210.21 173.57 207.3 171.6 204.84 175.04C202.38 178.48 198.44 196.21 197.46 192.77C196.48 189.33 193.52 174.55 188.59 180.46C183.66 186.37 195.49 198.68 189.09 199.17C182.69 199.66 170.38 187.35 178.26 170.12C186.14 152.89 218.63 143.04 233.4 158.8C248.17 174.56 247.67 177.01 240.78 200.65C233.89 224.29 229.95 233.14 215.18 231.17C200.41 229.2 190.56 208.52 190.56 208.52C190.56 208.52 195.98 232.65 214.69 235.11C233.4 237.57 227 224.77 234.87 230.68C242.74 236.59 251.61 273.51 247.67 273.51C243.73 273.51 273.77 236.58 286.57 213.94C299.37 191.3 323 117.44 323 115.47C323 113.5 294.44 112.03 294.44 108.09C294.44 104.15 298.87 93.81 298.87 93.81C298.87 93.81 326 95.31 324 101.71C322 108.11 317.6 108.6 319.08 105.65C320.56 102.7 331.39 91.37 332.86 81.52C334.33 71.67 334.86 69.71 333.36 65.77C331.86 61.83 318.59 57.4 310.22 56.91C301.85 56.42 301.36 64.78 302.34 68.72C303.32 72.66 315.14 80.54 317.6 75.61C320.06 70.68 307.76 63.31 305.29 65.28C302.82 67.25 299.39 68.72 301.85 76.6C304.31 84.48 303.85 92.85 301.85 98.26C299.85 103.67 297.42 109.59 293.97 118.94C290.52 128.29 277.23 159.31 274.28 161.77C271.33 164.23 270.34 162.26 270.34 166.69C270.34 171.12 266.4 171.13 266.4 173.09C266.4 175.05 267.4 174.57 265.91 178.02C264.42 181.47 263.91 181.96 259.02 189.83C254.13 197.7 234.89 214.94 240.31 218.39C245.73 221.84 254.09 233.16 252.61 233.65C251.13 234.14 240.8 225.77 244.74 231.19C248.68 236.61 252.64 246 252.64 246C252.64 246 241.81 267.17 248.71 287.85C255.61 308.53 273.32 339.05 267.91 340.53C262.5 342.01 252.64 342.53 262 339.05C271.36 335.57 377.7 295.72 382.62 294.74C388.56 294.89 440.69 307.65 433.94 299.09C431.32 295.34 430.4 301.87 430.37 305.49C430.3 315.24 442.82 294.19 439.73 291.78C435.3 288.34 360.47 308.52 357.51 312.95C354.55 317.38 327.68 398.82 327.68 398.82L325.36 398.45C311.76 396.27 243.15 385.09 244.48 381.09C245.96 376.66 336.55 349.09 336.55 352.09C336.55 355.09 337.55 363.41 335.07 363.9C332.59 364.39 276.48 378.67 281.9 381.63C287.32 384.59 324.24 388.03 324.73 390.98C325.22 393.93 337.53 401.81 325.73 402.3C313.93 402.79 235.13 385 245 385C254.87 385 326.23 402.23 334.1 400.26C341.97 398.29 409.92 370.72 413.37 366.26C416.82 361.8 438.37 310.48 438.37 310.48C438.37 310.48 438.57 304.76 444.96 305.25C451.35 305.74 598.57 346.53 598.57 346.53" stroke="#00B3FF" stroke-width="2.02" stroke-linecap="round" stroke-linejoin="round"/>
</svg>
