<svg width="100" height="100" viewBox="0 0 100 100" fill="none" xmlns="http://www.w3.org/2000/svg">
<path d="M94.2969 84.6383H89.9922V42.6016C89.9909 41.5659 89.579 40.5731 88.8467 39.8408C88.1144 39.1085 87.1216 38.6966 86.0859 38.6953H66.2891L60.9766 35.1375C59.825 22.9375 56.9531 15.2 50.6688 5.28594C50.5983 5.17478 50.5008 5.08323 50.3855 5.01979C50.2701 4.95636 50.1406 4.9231 50.009 4.9231C49.8773 4.9231 49.7478 4.95636 49.6325 5.01979C49.5172 5.08323 49.4197 5.17478 49.3492 5.28594C42.9305 15.3695 40.1562 23.1836 39.0242 35.1367L33.7117 38.6953H13.9141C12.8784 38.6966 11.8856 39.1085 11.1533 39.8408C10.421 40.5731 10.0091 41.5659 10.0078 42.6016V84.6383H5.70312C5.49592 84.6383 5.29721 84.7206 5.1507 84.8671C5.00418 85.0136 4.92188 85.2123 4.92188 85.4195V88.8281C4.92374 90.4852 5.58281 92.0738 6.75451 93.2455C7.92621 94.4172 9.51484 95.0763 11.1719 95.0781H88.8281C90.4852 95.0763 92.0738 94.4172 93.2455 93.2455C94.4172 92.0738 95.0763 90.4852 95.0781 88.8281V85.4203C95.0782 85.3176 95.0581 85.216 95.0189 85.1211C94.9797 85.0262 94.9221 84.94 94.8496 84.8674C94.777 84.7948 94.6909 84.7371 94.596 84.6978C94.5012 84.6585 94.3995 84.6383 94.2969 84.6383ZM65.6156 40.1227L65.8617 40.2898C66.4002 40.6519 66.8597 41.1193 67.2125 41.664C67.5653 42.2086 67.8039 42.8191 67.9141 43.4586L69.7539 53.8766C69.7806 54.0223 69.7653 54.1725 69.7099 54.3099C69.6544 54.4472 69.5611 54.566 69.4407 54.6523C69.3203 54.7386 69.1779 54.7889 69.03 54.7974C68.8821 54.8058 68.7349 54.772 68.6055 54.7L61.5969 50.8141C61.5906 45.6188 61.45 41.1266 61.1461 37.1313L65.6156 40.1227ZM50.0078 7.17422C51.2953 9.25469 52.6492 11.6273 53.7914 13.9758H46.2203C47.3555 11.6555 48.6719 9.33438 50.0078 7.17422ZM45.4766 15.5383H54.5313C58.5266 24.3773 59.9906 33.6555 60.0336 50.4258H55.743V47.3438C55.743 47.1366 55.6607 46.9378 55.5141 46.7913C55.3676 46.6448 55.1689 46.5625 54.9617 46.5625C54.7545 46.5625 54.5558 46.6448 54.4093 46.7913C54.2628 46.9378 54.1805 47.1366 54.1805 47.3438V50.4273H50.7812V43.3813C50.7812 43.1741 50.6989 42.9753 50.5524 42.8288C50.4059 42.6823 50.2072 42.6 50 42.6C49.7928 42.6 49.5941 42.6823 49.4476 42.8288C49.3011 42.9753 49.2188 43.1741 49.2188 43.3813V50.4258H45.8195V47.3438C45.8195 47.1366 45.7372 46.9378 45.5907 46.7913C45.4442 46.6448 45.2455 46.5625 45.0383 46.5625C44.8311 46.5625 44.6324 46.6448 44.4859 46.7913C44.3393 46.9378 44.257 47.1366 44.257 47.3438V50.4273H39.9656C40.0086 33.6516 41.4758 24.375 45.4766 15.5383ZM39.5078 51.9883H44.2578V60.0891C44.2578 60.2963 44.3401 60.495 44.4866 60.6415C44.6331 60.788 44.8319 60.8703 45.0391 60.8703C45.2463 60.8703 45.445 60.788 45.5915 60.6415C45.738 60.495 45.8203 60.2963 45.8203 60.0891V51.9883H49.2188V56.1289C49.2188 56.3361 49.3011 56.5348 49.4476 56.6813C49.5941 56.8279 49.7928 56.9102 50 56.9102C50.2072 56.9102 50.4059 56.8279 50.5524 56.6813C50.6989 56.5348 50.7812 56.3361 50.7812 56.1289V51.9883H54.1805V60.0891C54.1805 60.2963 54.2628 60.495 54.4093 60.6415C54.5558 60.788 54.7545 60.8703 54.9617 60.8703C55.1689 60.8703 55.3676 60.788 55.5141 60.6415C55.6607 60.495 55.743 60.2963 55.743 60.0891V51.9883H60.4922L67.8492 56.0672C68.2367 56.282 68.6771 56.3826 69.1194 56.3573C69.5617 56.332 69.9878 56.1818 70.3482 55.9242C70.7087 55.6666 70.9887 55.3122 71.156 54.9019C71.3232 54.4917 71.3707 54.0424 71.293 53.6063L69.6266 44.1641H84.5234V80.7344H65.5469C66.0966 79.5189 66.3231 78.182 66.2046 76.8533C66.086 75.5245 65.6263 74.2489 64.8701 73.1499C64.1139 72.0509 63.0867 71.1658 61.888 70.5803C60.6894 69.9948 59.3598 69.7287 58.0281 69.8078C57.6353 67.9692 56.6235 66.3211 55.1618 65.1387C53.7001 63.9563 51.877 63.3112 49.9969 63.3112C48.1168 63.3112 46.2936 63.9563 44.8319 65.1387C43.3702 66.3211 42.3584 67.9692 41.9656 69.8078C40.6349 69.7312 39.3069 69.999 38.1098 70.5854C36.9128 71.1717 35.8871 72.0568 35.1319 73.1552C34.3768 74.2536 33.9175 75.5282 33.7986 76.8558C33.6797 78.1834 33.9051 79.5193 34.4531 80.7344H15.4766V44.1641H30.375L28.707 53.6078C28.6296 54.044 28.6775 54.4932 28.8449 54.9033C29.0124 55.3135 29.2927 55.6677 29.6533 55.9251C30.0139 56.1824 30.4401 56.3322 30.8824 56.3573C31.3247 56.3823 31.765 56.2814 32.1523 56.0664L39.5078 51.9883ZM64.6719 77.5523C64.6758 78.6734 64.37 79.7738 63.7883 80.732H36.2055C35.6434 79.7917 35.3407 78.7191 35.3282 77.6236C35.3158 76.5281 35.594 75.4489 36.1346 74.496C36.6751 73.5431 37.4586 72.7505 38.4053 72.1991C39.3519 71.6477 40.4279 71.3571 41.5234 71.357C41.8502 71.3582 42.1764 71.3843 42.4992 71.4352C42.6031 71.451 42.709 71.4457 42.8108 71.4196C42.9125 71.3935 43.008 71.3472 43.0914 71.2834C43.1748 71.2195 43.2445 71.1395 43.2964 71.0482C43.3482 70.9568 43.381 70.8559 43.393 70.7516C43.5843 69.1351 44.3621 67.645 45.5789 66.5638C46.7956 65.4826 48.3668 64.8854 49.9945 64.8854C51.6223 64.8854 53.1934 65.4826 54.4102 66.5638C55.627 67.645 56.4047 69.1351 56.5961 70.7516C56.608 70.856 56.6409 70.957 56.6928 71.0484C56.7446 71.1398 56.8144 71.2198 56.8979 71.2837C56.9814 71.3475 57.077 71.3938 57.1788 71.4198C57.2807 71.4459 57.3867 71.4511 57.4906 71.4352C57.8161 71.3845 58.1449 71.3584 58.4742 71.357C60.1172 71.3581 61.6927 72.0111 62.8547 73.1726C64.0166 74.3342 64.6702 75.9093 64.6719 77.5523ZM32.0898 43.4375C32.2015 42.8013 32.4408 42.1942 32.7932 41.6529C33.1457 41.1115 33.604 40.6471 34.1406 40.2875L38.8531 37.1313C38.5484 41.1242 38.4078 45.6188 38.4016 50.8141L31.3945 54.6984C31.2653 54.7706 31.1183 54.8046 30.9705 54.7965C30.8227 54.7884 30.6803 54.7384 30.5598 54.6525C30.4393 54.5665 30.3457 54.4481 30.2899 54.311C30.234 54.1739 30.2183 54.0238 30.2445 53.8781L32.0703 43.5367L32.0898 43.4375ZM11.5703 42.6016C11.5703 41.98 11.8172 41.3838 12.2568 40.9443C12.6963 40.5047 13.2925 40.2578 13.9141 40.2578H31.8828C31.3211 40.9457 30.9109 41.7443 30.6789 42.6016H14.6953C14.4881 42.6016 14.2894 42.6839 14.1429 42.8304C13.9964 42.9769 13.9141 43.1756 13.9141 43.3828V81.5156C13.9141 81.7228 13.9964 81.9215 14.1429 82.0681C14.2894 82.2146 14.4881 82.2969 14.6953 82.2969H85.3047C85.5119 82.2969 85.7106 82.2146 85.8571 82.0681C86.0036 81.9215 86.0859 81.7228 86.0859 81.5156V43.3828C86.0859 43.1756 86.0036 42.9769 85.8571 42.8304C85.7106 42.6839 85.5119 42.6016 85.3047 42.6016H69.3203C69.088 41.7446 68.6781 40.9461 68.1172 40.2578H86.0859C86.7075 40.2578 87.3037 40.5047 87.7432 40.9443C88.1828 41.3838 88.4297 41.98 88.4297 42.6016V84.6383H11.5703V42.6016ZM65.4117 86.2031C65.2359 86.895 64.8347 87.5087 64.2713 87.9472C63.708 88.3858 63.0147 88.6243 62.3008 88.625H37.6992C36.9853 88.6243 36.292 88.3858 35.7287 87.9472C35.1653 87.5087 34.7641 86.895 34.5883 86.2031H65.4117ZM93.5156 88.8281C93.5142 90.0709 93.0199 91.2623 92.1411 92.1411C91.2623 93.0199 90.0709 93.5142 88.8281 93.5156H11.1719C9.92912 93.5142 8.73767 93.0199 7.85891 92.1411C6.98015 91.2623 6.48582 90.0709 6.48438 88.8281V86.2016H10.7812H10.7922H32.9992C33.1857 87.3139 33.7599 88.3243 34.6203 89.0536C35.4806 89.783 36.5714 90.1841 37.6992 90.1859H62.3008C63.4286 90.1841 64.5194 89.783 65.3797 89.0536C66.2401 88.3243 66.8143 87.3139 67.0008 86.2016H89.2109H89.2219H93.5156V88.8281Z" fill="url(#paint0_linear_620_4634)"/>
<path d="M50.0055 33.4227C50.9151 33.4227 51.8043 33.1529 52.5607 32.6476C53.317 32.1422 53.9065 31.4239 54.2546 30.5835C54.6027 29.7431 54.6938 28.8184 54.5163 27.9262C54.3389 27.034 53.9008 26.2145 53.2576 25.5713C52.6144 24.9281 51.7949 24.4901 50.9027 24.3126C50.0106 24.1352 49.0858 24.2262 48.2454 24.5743C47.405 24.9224 46.6867 25.5119 46.1814 26.2683C45.676 27.0246 45.4062 27.9138 45.4062 28.8235C45.4077 30.0428 45.8927 31.2118 46.7549 32.074C47.6171 32.9362 48.7861 33.4212 50.0055 33.4227ZM50.0055 25.7867C50.6061 25.7867 51.1932 25.9648 51.6926 26.2985C52.192 26.6322 52.5812 27.1065 52.811 27.6614C53.0409 28.2162 53.101 28.8268 52.9838 29.4159C52.8667 30.005 52.5774 30.5461 52.1528 30.9707C51.7281 31.3954 51.187 31.6847 50.5979 31.8018C50.0088 31.919 49.3983 31.8589 48.8434 31.629C48.2885 31.3992 47.8142 31.01 47.4805 30.5106C47.1469 30.0112 46.9688 29.4241 46.9688 28.8235C46.9698 28.0184 47.2901 27.2466 47.8593 26.6773C48.4286 26.1081 49.2004 25.7878 50.0055 25.7867Z" fill="url(#paint1_linear_620_4634)"/>
<path d="M72.4219 21.6406C72.4219 22.5722 72.6981 23.4829 73.2157 24.2575C73.7332 25.032 74.4689 25.6358 75.3295 25.9923C76.1902 26.3488 77.1373 26.442 78.0509 26.2603C78.9646 26.0785 79.8039 25.6299 80.4626 24.9712C81.1213 24.3125 81.5699 23.4732 81.7517 22.5595C81.9334 21.6459 81.8402 20.6988 81.4837 19.8381C81.1272 18.9775 80.5234 18.2418 79.7489 17.7243C78.9743 17.2067 78.0636 16.9305 77.132 16.9305C75.8832 16.9317 74.6859 17.4284 73.8028 18.3114C72.9198 19.1945 72.4231 20.3918 72.4219 21.6406ZM80.2789 21.6406C80.2789 22.2632 80.0943 22.8718 79.7484 23.3895C79.4025 23.9071 78.9108 24.3106 78.3356 24.5488C77.7604 24.787 77.1275 24.8493 76.5169 24.7278C75.9063 24.6062 75.3454 24.3064 74.9052 23.8661C74.4651 23.4258 74.1653 22.8649 74.044 22.2542C73.9226 21.6436 73.9851 21.0107 74.2234 20.4355C74.4618 19.8604 74.8653 19.3689 75.3831 19.0231C75.9008 18.6773 76.5094 18.4928 77.132 18.493C77.9658 18.495 78.7647 18.8275 79.3538 19.4175C79.9429 20.0075 80.2742 20.8069 80.275 21.6406H80.2789Z" fill="url(#paint2_linear_620_4634)"/>
<path d="M77.1273 7.8844C76.9201 7.8844 76.7214 7.96671 76.5749 8.11322C76.4284 8.25974 76.3461 8.45845 76.3461 8.66565V10.8149C73.7449 11.0054 71.2989 12.1247 69.4544 13.9687C67.6099 15.8126 66.4898 18.2583 66.2984 20.8594H64.1484C63.9412 20.8594 63.7425 20.9417 63.596 21.0882C63.4495 21.2347 63.3672 21.4335 63.3672 21.6407C63.3672 21.8479 63.4495 22.0466 63.596 22.1931C63.7425 22.3396 63.9412 22.4219 64.1484 22.4219H66.2984C66.4889 25.0235 67.6087 27.4699 69.4533 29.3144C71.298 31.1589 73.7444 32.2785 76.3461 32.4688V34.618C76.3461 34.8252 76.4284 35.0239 76.5749 35.1704C76.7214 35.3169 76.9201 35.3992 77.1273 35.3992C77.3345 35.3992 77.5333 35.3169 77.6798 35.1704C77.8263 35.0239 77.9086 34.8252 77.9086 34.618V32.4719C80.5102 32.2816 82.9565 31.162 84.801 29.3175C86.6456 27.473 87.7652 25.0266 87.9555 22.425H90.1047C90.3119 22.425 90.5106 22.3427 90.6571 22.1962C90.8036 22.0497 90.8859 21.851 90.8859 21.6438C90.8859 21.4366 90.8036 21.2379 90.6571 21.0913C90.5106 20.9448 90.3119 20.8625 90.1047 20.8625H87.9555C87.765 18.2609 86.6454 15.8145 84.8009 13.9699C82.9565 12.1253 80.5102 11.0055 77.9086 10.8149V8.66565C77.9086 8.45845 77.8263 8.25974 77.6798 8.11322C77.5333 7.96671 77.3345 7.8844 77.1273 7.8844ZM86.393 20.8594H84.3227C84.1155 20.8594 83.9167 20.9417 83.7702 21.0882C83.6237 21.2347 83.5414 21.4335 83.5414 21.6407C83.5414 21.8479 83.6237 22.0466 83.7702 22.1931C83.9167 22.3396 84.1155 22.4219 84.3227 22.4219H86.393C86.2059 24.6094 85.2519 26.6604 83.6995 28.2128C82.1471 29.7652 80.0961 30.7192 77.9086 30.9063V28.836C77.9086 28.6288 77.8263 28.43 77.6798 28.2835C77.5333 28.137 77.3345 28.0547 77.1273 28.0547C76.9201 28.0547 76.7214 28.137 76.5749 28.2835C76.4284 28.43 76.3461 28.6288 76.3461 28.836V30.9063C74.1584 30.7195 72.1071 29.7657 70.5545 28.2132C69.0019 26.6607 68.0479 24.6095 67.8609 22.4219H69.932C70.1392 22.4219 70.3379 22.3396 70.4845 22.1931C70.631 22.0466 70.7133 21.8479 70.7133 21.6407C70.7133 21.4335 70.631 21.2347 70.4845 21.0882C70.3379 20.9417 70.1392 20.8594 69.932 20.8594H67.8609C68.0486 18.6722 69.0029 16.6217 70.5554 15.0697C72.1079 13.5178 74.1589 12.5642 76.3461 12.3774V14.4485C76.3461 14.6557 76.4284 14.8544 76.5749 15.0009C76.7214 15.1474 76.9201 15.2297 77.1273 15.2297C77.3345 15.2297 77.5333 15.1474 77.6798 15.0009C77.8263 14.8544 77.9086 14.6557 77.9086 14.4485V12.3774C80.0956 12.5645 82.1463 13.5182 83.6986 15.0701C85.251 16.622 86.2052 18.6724 86.393 20.8594Z" fill="url(#paint3_linear_620_4634)"/>
<path d="M77.1289 22.425C77.5604 22.425 77.9102 22.0752 77.9102 21.6437C77.9102 21.2123 77.5604 20.8625 77.1289 20.8625C76.6974 20.8625 76.3477 21.2123 76.3477 21.6437C76.3477 22.0752 76.6974 22.425 77.1289 22.425Z" fill="url(#paint4_linear_620_4634)"/>
<path d="M21.4922 15.1719C20.2128 15.1719 18.9621 15.5513 17.8983 16.2621C16.8346 16.9729 16.0054 17.9831 15.5158 19.1651C15.0262 20.3472 14.8981 21.6478 15.1477 22.9026C15.3973 24.1574 16.0134 25.3101 16.9181 26.2147C17.8228 27.1194 18.9754 27.7355 20.2302 27.9851C21.485 28.2347 22.7857 28.1066 23.9677 27.617C25.1497 27.1274 26.16 26.2983 26.8708 25.2345C27.5816 24.1707 27.9609 22.92 27.9609 21.6406C27.9591 19.9256 27.277 18.2813 26.0642 17.0686C24.8515 15.8559 23.2072 15.1737 21.4922 15.1719ZM21.4922 26.5469C20.5218 26.5469 19.5733 26.2591 18.7664 25.72C17.9596 25.1809 17.3307 24.4147 16.9594 23.5182C16.5881 22.6217 16.4909 21.6352 16.6802 20.6835C16.8695 19.7317 17.3368 18.8575 18.0229 18.1714C18.7091 17.4852 19.5833 17.018 20.535 16.8286C21.4867 16.6393 22.4732 16.7365 23.3697 17.1078C24.2662 17.4792 25.0325 18.108 25.5716 18.9149C26.1107 19.7217 26.3984 20.6703 26.3984 21.6406C26.397 22.9414 25.8796 24.1885 24.9598 25.1083C24.04 26.0281 22.793 26.5454 21.4922 26.5469Z" fill="url(#paint5_linear_620_4634)"/>
<path d="M33.1172 25C33.3244 25 33.5231 24.9177 33.6696 24.7712C33.8161 24.6247 33.8984 24.426 33.8984 24.2188V19.0703C33.8984 18.8631 33.8161 18.6644 33.6696 18.5179C33.5231 18.3714 33.3244 18.2891 33.1172 18.2891H31.5664C31.4077 17.8107 31.2153 17.3441 30.9906 16.893L32.0844 15.793C32.2304 15.6465 32.3123 15.4482 32.3123 15.2414C32.3123 15.0346 32.2304 14.8363 32.0844 14.6898L28.4438 11.0492C28.2972 10.9028 28.0986 10.8205 27.8914 10.8205C27.6842 10.8205 27.4856 10.9028 27.3391 11.0492L26.2414 12.143C25.7929 11.9188 25.3286 11.7277 24.8523 11.5711V10.0156C24.8523 9.80842 24.77 9.60971 24.6235 9.4632C24.477 9.31669 24.2783 9.23438 24.0711 9.23438H18.9219C18.7147 9.23438 18.516 9.31669 18.3694 9.4632C18.2229 9.60971 18.1406 9.80842 18.1406 10.0156V11.5734C17.6616 11.7298 17.1947 11.9212 16.7437 12.1461L15.65 11.0523C15.5035 10.9059 15.3048 10.8236 15.0977 10.8236C14.8905 10.8236 14.6918 10.9059 14.5453 11.0523L10.9047 14.693C10.7582 14.8395 10.6759 15.0382 10.6759 15.2453C10.6759 15.4525 10.7582 15.6512 10.9047 15.7977L12.0023 16.8953C11.7777 17.3469 11.585 17.8136 11.4258 18.2922H9.86719C9.65999 18.2922 9.46127 18.3745 9.31476 18.521C9.16825 18.6675 9.08594 18.8662 9.08594 19.0734V24.2188C9.08594 24.426 9.16825 24.6247 9.31476 24.7712C9.46127 24.9177 9.65999 25 9.86719 25H11.4219C11.5813 25.4765 11.7739 25.9412 11.9984 26.3906L10.8992 27.5C10.7532 27.6464 10.6713 27.8448 10.6713 28.0516C10.6713 28.2583 10.7532 28.4567 10.8992 28.6031L14.5398 32.2437C14.6863 32.3902 14.885 32.4725 15.0922 32.4725C15.2993 32.4725 15.498 32.3902 15.6445 32.2437L16.7383 31.1461C17.1894 31.3711 17.6562 31.563 18.1352 31.7203V33.2734C18.1352 33.4806 18.2175 33.6794 18.364 33.8259C18.5105 33.9724 18.7092 34.0547 18.9164 34.0547H24.0648C24.272 34.0547 24.4708 33.9724 24.6173 33.8259C24.7638 33.6794 24.8461 33.4806 24.8461 33.2734V31.7109C25.3225 31.5542 25.7867 31.3628 26.2352 31.1383L27.3328 32.2359C27.4821 32.3771 27.6797 32.4557 27.8852 32.4557C28.0906 32.4557 28.2882 32.3771 28.4375 32.2359L32.0781 28.5953C32.2239 28.4489 32.3057 28.2507 32.3057 28.0441C32.3057 27.8376 32.2239 27.6394 32.0781 27.493L30.9844 26.3859C31.2093 25.9381 31.4025 25.475 31.5625 25H33.1172ZM30.9844 23.4375C30.8123 23.4375 30.6451 23.4944 30.5086 23.5992C30.3721 23.704 30.2741 23.8509 30.2297 24.0172C30.028 24.7614 29.7326 25.477 29.3508 26.1469C29.2663 26.2953 29.2327 26.4674 29.2553 26.6367C29.2779 26.806 29.3553 26.9633 29.4758 27.0844L30.4289 28.0469L27.8906 30.5828L26.9352 29.6273C26.8136 29.5057 26.6552 29.4277 26.4848 29.4052C26.3143 29.3827 26.1411 29.4172 25.9922 29.5031C25.3257 29.8864 24.6118 30.1806 23.8688 30.3781C23.7025 30.4225 23.5556 30.5206 23.4507 30.657C23.3459 30.7935 23.2891 30.9607 23.2891 31.1328V32.4922H19.7031V31.1328C19.7032 30.9604 19.6462 30.7928 19.5411 30.6562C19.4359 30.5195 19.2885 30.4215 19.1219 30.3773C18.3764 30.1808 17.6601 29.8869 16.9914 29.5031C16.8426 29.4174 16.6696 29.383 16.4993 29.4055C16.3289 29.428 16.1708 29.5059 16.0492 29.6273L15.0937 30.5828L12.5563 28.0469L13.5156 27.082C13.6358 26.9607 13.713 26.8034 13.7353 26.6341C13.7576 26.4648 13.7238 26.2928 13.6391 26.1445C13.2552 25.4746 12.9578 24.7588 12.7539 24.0141C12.709 23.8485 12.6108 23.7024 12.4745 23.5982C12.3383 23.494 12.1715 23.4375 12 23.4375H10.6484V19.8516H12C12.171 19.8516 12.3373 19.7955 12.4733 19.6919C12.6093 19.5883 12.7076 19.443 12.7531 19.2781C12.9565 18.5308 13.2539 17.8123 13.6383 17.1398C13.724 16.9909 13.7581 16.8179 13.7355 16.6476C13.7129 16.4772 13.6348 16.3191 13.5133 16.1977L12.5578 15.2422L15.0937 12.7063L16.0492 13.6617C16.1708 13.7831 16.3289 13.8611 16.4993 13.8836C16.6696 13.906 16.8426 13.8717 16.9914 13.7859C17.6598 13.4022 18.3759 13.1083 19.1211 12.9117C19.2879 12.8677 19.4355 12.7698 19.5408 12.6331C19.646 12.4964 19.7031 12.3288 19.7031 12.1563V10.7969H23.2891V12.1563C23.2891 12.3284 23.3461 12.4958 23.451 12.6322C23.556 12.7687 23.7031 12.8667 23.8695 12.9109C24.6124 13.1088 25.3263 13.403 25.993 13.7859C26.1418 13.8717 26.3148 13.906 26.4851 13.8836C26.6554 13.8611 26.8136 13.7831 26.9352 13.6617L27.8906 12.7063L30.4281 15.2437L29.4773 16.1992C29.3566 16.3201 29.2789 16.4773 29.256 16.6466C29.2332 16.816 29.2665 16.9881 29.3508 17.1367C29.7328 17.8093 30.0281 18.5275 30.2297 19.2742C30.2741 19.4405 30.3721 19.5874 30.5086 19.6922C30.6451 19.797 30.8123 19.8539 30.9844 19.8539H32.3359V23.4375H30.9844Z" fill="url(#paint6_linear_620_4634)"/>
<defs>
<linearGradient id="paint0_linear_620_4634" x1="50" y1="4.9231" x2="50" y2="95.0781" gradientUnits="userSpaceOnUse">
<stop stop-color="white"/>
<stop offset="1" stop-color="#00C1FF"/>
</linearGradient>
<linearGradient id="paint1_linear_620_4634" x1="50.0055" y1="24.2242" x2="50.0055" y2="33.4227" gradientUnits="userSpaceOnUse">
<stop stop-color="white"/>
<stop offset="1" stop-color="#00C1FF"/>
</linearGradient>
<linearGradient id="paint2_linear_620_4634" x1="77.132" y1="16.9305" x2="77.132" y2="26.3508" gradientUnits="userSpaceOnUse">
<stop stop-color="white"/>
<stop offset="1" stop-color="#00C1FF"/>
</linearGradient>
<linearGradient id="paint3_linear_620_4634" x1="77.1266" y1="7.8844" x2="77.1266" y2="35.3992" gradientUnits="userSpaceOnUse">
<stop stop-color="white"/>
<stop offset="1" stop-color="#00C1FF"/>
</linearGradient>
<linearGradient id="paint4_linear_620_4634" x1="77.1289" y1="20.8625" x2="77.1289" y2="22.425" gradientUnits="userSpaceOnUse">
<stop stop-color="white"/>
<stop offset="1" stop-color="#00C1FF"/>
</linearGradient>
<linearGradient id="paint5_linear_620_4634" x1="21.4922" y1="15.1719" x2="21.4922" y2="28.1094" gradientUnits="userSpaceOnUse">
<stop stop-color="white"/>
<stop offset="1" stop-color="#00C1FF"/>
</linearGradient>
<linearGradient id="paint6_linear_620_4634" x1="21.4922" y1="9.23437" x2="21.4922" y2="34.0547" gradientUnits="userSpaceOnUse">
<stop stop-color="white"/>
<stop offset="1" stop-color="#00C1FF"/>
</linearGradient>
</defs>
</svg>
