<svg width="50" height="50" viewBox="0 0 50 50" fill="none" xmlns="http://www.w3.org/2000/svg">
<path d="M45.7651 42.6366H45.1667V18.5684C45.1667 17.0305 43.9167 15.7881 42.3864 15.7881H33.4167C33.4167 14.3714 33.1818 12.9775 32.7121 11.6744C31.25 7.54566 28.7727 4.09869 25.3636 1.42445C25.3106 1.37899 25.2424 1.33354 25.1894 1.31081C24.9394 1.1896 24.6364 1.22748 24.4167 1.40172C24.4091 1.40929 24.3939 1.41687 24.3864 1.42445C20.9848 4.09869 18.5151 7.53808 17.0379 11.6669C16.5682 12.9775 16.3409 14.379 16.3409 15.7957H7.6212C6.08333 15.7957 4.8409 17.0457 4.8409 18.576V42.6441H4.23484C3.83333 42.6441 3.50757 42.9699 3.50757 43.3714V46.1214C3.50757 47.576 4.68939 48.7654 6.15151 48.7654H43.8485C45.303 48.7654 46.4924 47.5835 46.4924 46.1214V43.3714C46.4924 42.9623 46.1667 42.6366 45.7651 42.6366ZM22.5454 39.7426C22.7879 39.6138 22.9394 39.3714 22.9394 39.0987V36.576H27.2121V38.8411C27.2121 39.0911 27.3409 39.3184 27.5454 39.4548C27.7576 39.5911 28.0151 39.6063 28.2424 39.5002C28.5 39.3866 28.7879 39.3184 29.0758 39.3184C30.1364 39.3184 31.0227 40.1138 31.1288 41.1744C31.1515 41.4244 31.303 41.6366 31.5303 41.7502C31.75 41.8563 32.0151 41.8487 32.2348 41.7199C32.553 41.5305 32.9167 41.432 33.2954 41.432C34.1212 41.432 34.8409 41.9244 35.1667 42.6366H14.6061C14.9318 41.9244 15.6439 41.432 16.4773 41.432C16.8333 41.432 17.1818 41.5229 17.4924 41.6972C17.7045 41.8108 17.9621 41.8184 18.1818 41.7047C18.4015 41.5911 18.5454 41.379 18.5682 41.1441C18.6894 40.1063 19.5682 39.326 20.6212 39.326C21.0454 39.326 21.447 39.4548 21.7879 39.6972C22.0076 39.8487 22.303 39.8714 22.5454 39.7426ZM43.7121 18.5684V42.6366H36.7045C36.3182 41.0987 34.9394 39.9699 33.2954 39.9699C32.9773 39.9699 32.6667 40.0154 32.3636 40.0987C31.8485 38.7729 30.5682 37.8638 29.0833 37.8638C28.947 37.8638 28.8106 37.8714 28.6742 37.8866V36.5684H28.9697C29.8561 36.5684 30.6212 35.9017 30.75 35.0305L31.0833 32.7426C32.6591 33.9093 34.0454 35.4472 35.2121 37.326C35.4167 37.6517 35.7651 37.8411 36.1364 37.8411C36.197 37.8411 36.2651 37.8335 36.3257 37.826C36.7727 37.7502 37.1288 37.4093 37.2197 36.9699C37.7045 34.7275 37.6288 32.3032 36.9848 29.7578C36.9773 29.7275 36.9697 29.7047 36.9621 29.6744C35.9621 27.0381 34.4242 25.0608 32.4015 23.7578L33.2954 17.6744C33.3182 17.5305 33.3333 17.3866 33.3485 17.2426H42.3939C43.1136 17.2426 43.7121 17.8411 43.7121 18.5684ZM32.1591 25.3714C33.6364 26.4926 34.7879 28.0911 35.5833 30.1593C36.0757 32.1366 36.197 34.0305 35.947 35.8032C34.6288 33.879 33.0757 32.3108 31.3182 31.1366L32.1591 25.3714ZM24.8788 2.90172C26.4318 4.17445 27.7576 5.63657 28.8561 7.25778C26.2348 6.86384 23.5758 6.85626 20.9091 7.2502C20.9167 7.24263 20.9015 7.24263 20.9015 7.24263C22.0151 5.62142 23.3409 4.17445 24.8788 2.90172ZM18.4167 12.1517C18.8258 11.0154 19.3182 9.9396 19.8864 8.90929C23.2424 8.2502 26.5909 8.2502 29.8636 8.90929C30.4318 9.9396 30.9318 11.0154 31.3333 12.1593C31.9318 13.826 32.1061 15.6593 31.8409 17.4623L29.2954 34.8184C29.2727 34.9851 29.1212 35.1138 28.9545 35.1138H20.803C20.6288 35.1138 20.4848 34.9926 20.4621 34.8184L19.9621 31.3941C19.9621 31.379 19.9621 31.3714 19.9545 31.3563L18.8864 24.0381L17.9242 17.4699C17.6515 15.6517 17.8258 13.8184 18.4167 12.1517ZM18.447 31.1366C16.6894 32.3108 15.1288 33.8714 13.8182 35.8032C13.5682 34.0305 13.6894 32.1366 14.1818 30.1593C14.9773 28.0835 16.1288 26.4851 17.5985 25.3714L18.447 31.1366ZM6.29545 18.5684C6.29545 17.8335 6.88636 17.2426 7.6212 17.2426H16.4318C16.447 17.3866 16.4621 17.5305 16.4848 17.6744L17.3712 23.7578C15.3561 25.0457 13.8182 27.0305 12.8106 29.6744C12.803 29.6972 12.7954 29.7275 12.7879 29.7578C12.1439 32.2957 12.0682 34.7275 12.553 36.9699C12.6515 37.4169 13 37.7502 13.447 37.826C13.5076 37.8335 13.5758 37.8411 13.6364 37.8411C14.0076 37.8411 14.3561 37.6517 14.5606 37.326C15.7273 35.4472 17.1136 33.9169 18.6818 32.7426L19.0151 35.0229C19.1439 35.9017 19.9091 36.5608 20.803 36.5608H21.4848V37.9623C21.2045 37.8941 20.9167 37.8563 20.6212 37.8563C19.1439 37.8563 17.8636 38.7654 17.3485 40.076C17.0682 40.0078 16.7727 39.9699 16.4773 39.9699C14.8333 39.9699 13.4545 41.0911 13.0682 42.6366H6.29545V18.5684ZM45.0379 46.1214C45.0379 46.7729 44.5076 47.3032 43.8485 47.3032H6.15151C5.49999 47.3032 4.96969 46.7729 4.96969 46.1214V44.0987H45.0379V46.1214Z" fill="#28B4FF"/>
<path d="M28.6893 44.9697H21.303C20.9014 44.9697 20.5757 45.2955 20.5757 45.697C20.5757 46.0985 20.9014 46.4243 21.303 46.4243H28.6893C29.0908 46.4243 29.4166 46.0985 29.4166 45.697C29.4166 45.2955 29.0984 44.9697 28.6893 44.9697Z" fill="#28B4FF"/>
<path d="M24.7804 20.5915C27.3183 20.5915 29.3789 18.5309 29.3789 15.993C29.3789 13.4551 27.3183 11.3945 24.7804 11.3945C22.2425 11.3945 20.1819 13.4551 20.1819 15.993C20.1743 18.5233 22.2425 20.5915 24.7804 20.5915ZM24.7804 12.8415C26.5152 12.8415 27.9243 14.2506 27.9243 15.9854C27.9243 17.7203 26.5152 19.1294 24.7804 19.1294C23.0455 19.1294 21.6365 17.7203 21.6365 15.9854C21.6365 14.2506 23.0455 12.8415 24.7804 12.8415Z" fill="#28B4FF"/>
<path d="M34.8863 5.69691L35.1667 5.41661V10.4696C35.1667 10.8712 35.4924 11.1969 35.8939 11.1969C36.2954 11.1969 36.6212 10.8712 36.6212 10.4696V5.42418L36.9015 5.70449C37.0454 5.84843 37.2273 5.91661 37.4167 5.91661C37.606 5.91661 37.7879 5.84843 37.9318 5.70449C38.2197 5.41661 38.2197 4.96206 37.9318 4.67418L36.4091 3.15146C36.1212 2.86358 35.6667 2.86358 35.3788 3.15146L33.856 4.67418C33.5682 4.96206 33.5682 5.41661 33.856 5.70449C34.1363 5.98479 34.5985 5.98479 34.8863 5.69691Z" fill="#28B4FF"/>
<path d="M13.0909 8.06812L13.3712 7.78782V12.8409C13.3712 13.2424 13.697 13.5681 14.0985 13.5681C14.5 13.5681 14.8258 13.2424 14.8258 12.8409V7.78782L15.1061 8.06812C15.25 8.21206 15.4318 8.28024 15.6212 8.28024C15.8106 8.28024 15.9925 8.21206 16.1364 8.06812C16.4243 7.78024 16.4243 7.3257 16.1364 7.03782L14.6137 5.51509C14.3409 5.24237 13.8561 5.24237 13.5834 5.51509L12.0606 7.03782C11.7728 7.3257 11.7728 7.78024 12.0606 8.06812C12.3485 8.34843 12.8031 8.34843 13.0909 8.06812Z" fill="#28B4FF"/>
</svg>
