<svg width="162" height="152" viewBox="0 0 162 152" fill="none" xmlns="http://www.w3.org/2000/svg">
<path d="M29.8801 149.142C59.8365 137.935 89.5537 126.129 118.374 113.304C132.485 113.364 146.596 113.903 160.708 114.802C144.683 122.233 128.36 128.946 112.813 135.718C86.9826 140.752 60.9726 144.707 35.1419 149.741C34.4842 149.861 33.7069 149.981 33.109 149.622C32.511 149.262 32.2718 148.543 32.0327 147.884C21.5091 115.401 11.1051 83.9379 1 51.3357C1 51.3357 38.1316 62.2431 56.4881 69.1351C61.9891 87.7135 70.5395 106.891 75.024 126.848C61.8097 131.942 48.5954 136.976 35.3811 142.07C34.3646 142.43 33.3481 142.849 32.6904 143.688C32.0327 144.528 31.9729 145.906 32.8698 146.565C33.6471 147.105 34.7234 146.805 35.6203 146.445C46.3232 142.37 57.0262 138.355 67.789 134.279C69.7024 133.56 71.7354 132.721 72.8116 131.043C73.5292 129.964 73.7085 128.586 74.4261 127.507C75.3827 125.949 77.1168 125.17 78.791 124.391C91.7063 118.578 104.921 113.484 118.434 109.468C131.349 109.648 144.205 110.307 157.06 111.386C158.017 111.446 159.033 111.566 159.871 112.105C160.708 112.645 161.246 113.663 160.887 114.562C148.031 114.023 135.236 113.424 122.38 112.884C120.646 112.824 118.434 112.225 118.374 110.547C121.722 110.247 125.609 111.146 127.164 109.169C128.12 107.91 126.087 107.131 124.533 106.951C121.782 106.652 119.032 105.693 116.281 105.393C109.405 104.614 109.943 111.146 111.079 111.626C112.215 112.105 113.65 111.566 114.248 110.487C111.677 109.648 111.438 106.112 111.737 103.415C112.574 95.1449 110.422 89.9309 111.259 82.7393C104.622 88.8522 101.273 86.0954 93.1413 89.9908C88.597 92.1483 83.2754 93.9463 77.7745 91.3693C73.29 98.501 68.6859 111.086 66.4736 119.177C67.9684 119.836 69.5828 120.316 72.6323 121.514C75.323 121.095 78.0136 120.615 80.7043 120.196C81.3023 120.076 81.9002 120.016 82.4383 120.256C83.395 120.735 83.5146 122.173 82.9765 123.072C82.3786 123.971 81.3621 124.511 80.4054 124.93C77.9539 126.129 75.5023 127.268 72.991 128.466C71.7354 129.065 70.4797 129.665 69.1045 129.665C67.4303 129.665 65.8158 128.646 65.0385 127.208C64.2612 125.709 64.3808 123.852 65.3375 122.473C65.756 121.874 66.2942 121.394 66.9519 121.215C67.9086 120.975 68.9251 121.454 69.822 121.275C70.7787 121.035 71.4364 120.196 72.0343 119.357C78.193 110.427 83.8734 101.138 89.6135 92.2083C98.7021 89.2118 107.492 85.2563 115.803 80.402C118.434 78.8438 122.918 79.9225 122.859 76.8661C122.799 74.4689 119.331 69.2549 117.537 67.6368C112.753 63.2619 107.91 59.0068 102.828 54.9316C101.453 54.2124 100.317 53.0737 99.4794 51.6953C93.7393 54.6918 87.5208 56.7295 81.1229 57.6284C80.1662 57.7483 79.2095 57.8681 78.4322 58.4674C77.8343 58.9469 77.4755 59.6061 77.1168 60.2654C75.1436 64.2208 74.1869 68.5957 72.6323 72.7309C72.5127 73.1504 72.2735 73.5699 71.8549 73.6898C71.556 73.8096 71.1972 73.6298 70.8983 73.51C69.6426 72.9706 68.4467 72.3713 67.1911 71.8319C66.7127 71.5922 66.2344 71.3525 65.9354 70.933C65.3375 70.0939 65.8158 68.9553 66.2942 67.9964C68.4467 63.981 71.0776 60.2654 72.991 56.1302C74.9642 52.0549 76.2198 47.4403 75.5621 43.1852C77.1167 42.6458 78.6116 42.1064 80.1662 41.5071C79.6879 40.2486 79.4487 38.8702 79.3291 37.9113C81.2425 37.3719 82.8569 36.0535 84.7703 35.574C86.6837 35.0946 89.6135 36.1733 88.597 38.8702C88.1785 39.949 86.0857 35.8737 86.8032 36.7726C87.9991 38.2709 87.7001 37.9712 88.1187 39.2298C88.6568 40.8479 85.4878 41.4472 84.5311 41.0876C83.7538 40.788 86.1455 38.2709 86.4445 39.1099C86.5641 39.5894 85.6672 40.6082 82.9765 40.4284C82.0198 40.3685 81.4219 41.7469 80.4652 41.5071C79.5085 41.2674 78.7312 40.4284 78.6714 39.4096C78.6116 38.6305 78.791 37.6716 78.0734 37.3719C77.8941 37.312 77.7147 37.312 77.5353 37.312C73.6487 37.4319 69.822 37.5517 65.9354 37.6117C64.2612 37.6716 62.4674 37.7315 61.0324 38.6904C59.6571 39.6493 58.9396 41.8068 60.0757 43.0653C60.7334 43.7845 61.7499 43.9643 62.6468 44.0841C66.4736 44.5636 70.3601 44.2639 74.0075 43.1852C74.8446 42.9455 75.6817 42.6458 76.2796 42.1064C76.9374 41.5071 77.2961 40.6082 76.9972 39.8291C76.5188 38.4507 74.6652 38.3308 73.1704 38.4507C70.1807 38.6904 67.1313 38.9301 64.1416 39.1699C63.5437 39.2298 62.7664 39.1699 62.6468 38.5706C62.5272 38.151 62.886 37.7915 63.1251 37.4918C66.8323 33.7162 74.725 27.9629 79.2095 25.5057C79.8672 25.266 79.927 27.1238 80.1064 27.9029C80.4652 29.6409 82.5579 30.3601 84.3517 30.7197C84.1126 29.9406 84.0528 29.1015 84.1126 28.3225C84.6507 30.4799 87.4012 31.7984 89.4341 30.8395C88.1187 28.8618 87.2218 26.5845 86.8032 24.1873C86.3249 21.1907 86.6837 18.1942 86.2651 15.1977C84.2919 15.5573 82.1394 11.482 84.6507 10.5831C85.7868 10.1635 88.4775 13.6994 87.3414 13.3399C85.7868 12.9203 88.5372 10.5231 90.331 9.14472C91.5269 8.18584 92.7826 4.82973 94.0382 4.05064C94.4568 3.81092 94.9351 3.51126 95.4733 3.63112C95.832 3.69106 96.131 3.93078 96.43 4.1705C98.5227 6.08827 98.7619 9.26458 98.4031 12.0813C98.2237 13.7594 97.865 15.3775 97.3269 16.9357C97.0279 17.7747 96.6093 18.6137 96.131 19.3329C93.5001 23.1085 90.9888 20.6514 89.4341 19.8123C89.0156 19.3329 88.597 18.8534 88.2383 18.3141C89.1352 19.9921 90.9888 21.1907 92.9022 21.1907C93.2011 21.1907 93.5001 21.1907 93.7393 21.3106C94.6362 21.6702 94.3372 22.9886 94.2176 23.9475C93.9186 26.2249 95.7124 28.5022 97.9846 28.742C97.6258 28.0228 97.4464 27.2437 97.3866 26.4047C97.9248 28.0827 100.077 29.0416 101.632 28.2625C100.137 27.004 99.4196 25.0263 99.2402 23.0486C99.0609 21.0709 99.3598 19.1531 99.5392 17.1754C99.7784 14.8381 99.898 12.4409 99.898 10.1036C99.898 7.40674 99.5392 4.35029 97.3866 2.7921C96.7289 2.31266 95.9516 2.013 95.1743 1.77328C92.7826 1.05412 89.3744 0.394883 87.461 1.95307C88.6568 2.13286 89.8527 2.25273 91.0486 2.43252C89.7929 1.53356 87.9991 1.65342 86.6239 2.37259C85.2486 3.09175 84.2321 4.29036 83.2755 5.5489C81.7208 7.64646 81.0631 9.98375 80.5848 12.5608C80.0466 15.5573 81.2425 17.4151 80.5848 22.2695C80.2858 23.6479 80.1662 25.0263 80.2858 26.4047C82.3188 27.5434 84.9497 27.6033 86.9826 26.4646C87.9991 29.4012 89.9723 32.0381 92.5434 33.836C92.8424 34.0758 93.2609 34.2556 93.5599 34.0158C93.7393 33.896 93.7991 33.6563 93.8588 33.4165C94.5166 30.7197 95.2341 27.9629 95.8918 25.266C96.6093 25.3259 96.8485 26.2848 96.9083 27.004C97.0877 28.8618 97.2671 30.7796 97.4464 32.6374C96.3104 32.5176 95.1743 32.0981 94.2176 31.5587C93.2011 32.4577 92.1248 33.2367 90.9888 33.896C90.5702 34.1357 90.1517 34.3155 89.6733 34.1956C89.3744 34.0758 89.1352 33.7761 88.9558 33.5364C88.0589 32.2179 87.162 30.42 85.5476 30.42C85.2486 32.3977 85.2486 34.4354 85.4878 36.4131C85.9661 36.3531 86.4445 36.473 86.863 36.7127C85.727 37.312 86.8032 39.4096 85.8466 40.3085C85.6672 40.4883 85.428 40.5483 85.1888 40.728C84.4115 41.2674 84.2321 42.2862 83.993 43.1852C83.395 46.0019 82.1394 48.6389 80.8837 50.9761C79.1497 53.2535 75.2632 59.9058 77.5951 58.5274C78.791 57.8681 95.7124 37.312 94.2774 43.3051C94.098 44.0842 90.331 50.197 90.331 53.9727C90.331 56.7894 93.9784 49.2382 96.7887 49.2382C97.6856 49.2382 98.4031 52.7741 99.1207 52.2347C99.9578 51.5755 99.5392 50.3169 99.1207 49.358C97.865 46.5413 96.7289 43.2451 98.164 40.5483C98.5825 39.7692 99.1207 39.1099 99.4196 38.3308C100.077 36.5928 99.2402 34.6151 98.7021 33.3566C98.164 31.5587 97.566 29.7009 97.9248 27.9029C98.2835 26.105 97.7454 24.1873 99.599 24.3071C101.034 24.427 115.265 35.5141 113.77 35.9935C113.591 36.0535 109.704 37.9113 110.84 37.4918C112.395 36.8925 115.265 35.0946 116.042 35.574C116.76 35.9935 114.966 38.211 115.265 37.4918C115.863 35.9935 118.972 35.3942 121.722 35.2744C124.413 35.1545 128.001 34.7949 130.632 34.1357C129.436 35.3343 128.778 36.9524 129.316 38.6904C131.887 38.5106 133.023 39.2897 134.877 39.4096C134.997 39.4096 136.312 38.8103 132.844 36.8326C133.741 32.7573 138.166 33.7761 137.986 32.9371C137.926 32.4577 137.508 32.6374 137.03 32.6374C135.595 32.5176 132.067 33.4165 132.425 33.836C133.502 35.0946 138.166 32.3378 137.627 34.8549C137.388 35.8138 134.817 36.6528 133.681 37.0723C133.562 37.1322 133.023 37.3719 132.904 37.312C132.605 37.1922 132.904 35.9935 133.382 34.7949C133.562 34.3155 132.425 33.5963 131.887 33.6563C131.409 33.7162 130.931 33.896 130.452 34.1357C130.213 34.2556 129.914 34.3754 129.795 34.6151C129.675 34.7949 129.675 35.0347 129.675 35.2744C129.615 36.2333 129.436 37.2521 129.197 38.151C129.137 38.3308 129.137 38.4507 129.017 38.5706C128.898 38.6904 128.658 38.7503 128.479 38.8103C124.054 39.889 119.63 40.8479 115.145 41.8068C114.248 41.9866 113.351 42.1664 112.455 42.0465C111.737 41.9267 111.019 41.5671 110.362 41.2674C108.209 40.2486 105.937 39.05 104.681 37.3719C103.366 35.6939 102.349 33.836 101.572 31.8583C102.29 34.6751 102.23 37.6716 101.333 40.4883C100.914 41.8068 100.257 43.1253 100.436 44.5037C100.556 45.7023 101.273 46.781 101.871 47.7998C103.665 50.9162 104.741 54.3922 104.921 58.1678C102.29 56.4897 100.556 53.0737 97.4464 52.834C95.832 52.7141 94.3372 53.5532 92.8424 54.2124C89.9125 55.5309 86.7435 56.1901 83.694 57.3887C80.6445 58.5873 77.7745 60.3253 76.1601 63.142C73.4694 67.8166 75.1436 73.6298 75.8611 78.9636C76.3394 82.2598 76.3992 85.6159 76.0405 88.9121C75.9807 89.5114 75.9209 90.1107 76.1601 90.6501C76.5786 91.609 77.7745 92.0285 78.791 91.7888C79.8074 91.549 80.6445 90.8299 81.3621 90.1107C85.4878 85.9156 87.8795 80.342 90.8094 75.248C93.7393 70.0939 100.436 60.0256 103.007 62.9622C104.382 64.5204 103.366 66.9776 102.589 68.8953C100.317 74.4089 91.1084 89.032 95.832 85.3762C103.785 79.2633 102.29 74.4089 107.85 73.9295C109.584 73.8096 108.747 77.1657 108.209 78.7839C107.671 80.402 107.133 82.4396 108.269 83.6982C110.721 83.3386 111.139 84.1776 112.694 82.1999C114.189 80.2821 117.477 74.5887 119.63 75.188C121.184 75.6675 121.722 77.765 121.842 79.3832C121.962 81.0013 121.663 82.6793 121.304 84.2975C119.869 91.4891 118.793 98.7407 117.836 106.771C116.52 108.389 115.325 111.086 116.999 112.285C117.477 112.645 118.135 112.764 118.733 112.884C121.364 113.304 124.114 114.023 125.788 116.061C127.343 117.978 127.642 120.735 126.865 123.072C126.087 125.41 124.473 127.387 122.619 129.006C117.597 133.261 111.019 135.178 104.622 136.617C85.9661 140.752 66.7127 142.07 48.117 146.565C45.7253 147.164 42.7357 148.543 43.0346 151" stroke="#00B3FF" stroke-miterlimit="10" stroke-linecap="round" stroke-linejoin="round"/>
</svg>
