<svg width="100" height="90" viewBox="0 0 100 90" fill="none" xmlns="http://www.w3.org/2000/svg">
<path d="M95.6891 71.9872H95.2448V23.2745C95.2448 18.3253 91.2186 14.2985 86.2692 14.2985H85.3551V10.8256C85.3551 8.5382 83.4948 6.67789 81.2078 6.67789H78.2053V3.62301C78.2053 2.6523 77.8257 1.74004 77.1371 1.0557C76.4475 0.370342 75.4899 0.0121926 74.5613 0.000867746C64.2417 0.0639634 56.3532 1.58999 49.8122 4.7832C43.2709 1.58999 35.3817 0.0639634 25.0617 0.000867746C24.0455 -0.0209731 23.1765 0.370544 22.4873 1.05489C21.7988 1.74025 21.4192 2.6523 21.4192 3.62301V6.67809H18.4881C16.201 6.67809 14.3407 8.5384 14.3407 10.8258V14.2987H13.4262C8.47707 14.2987 4.45067 18.3255 4.45067 23.2747V71.9876H4.00739C1.79782 71.9876 0 73.7854 0 75.9944V81.5988C0 86.2315 3.76916 90 8.40184 90H91.2948C95.9275 90 99.6961 86.2312 99.6961 81.5988V75.9944C99.6965 73.785 97.8986 71.9872 95.6891 71.9872ZM81.208 9.58171C81.8938 9.58171 82.4515 10.1395 82.4515 10.8256V45.0745C82.4515 45.7606 81.8938 46.3184 81.208 46.3184H59.1678C63.887 45.2077 69.034 44.5491 74.7243 44.34C76.6766 44.2682 78.2057 42.6811 78.2057 40.7253V9.58171H81.208ZM74.5787 2.90448C74.875 2.88365 75.0107 3.03593 75.0895 3.1144C75.169 3.19286 75.3017 3.36395 75.3017 3.62301V40.7255C75.3017 41.1112 75.0016 41.424 74.6177 41.4382C65.715 41.7652 58.0491 43.1444 51.2642 45.6453V7.29894C57.3673 4.36398 64.8092 2.96414 74.5787 2.90448ZM24.3232 3.62301C24.3232 3.36395 24.4561 3.19286 24.5353 3.1144C24.6142 3.03593 24.7845 2.90448 25.0405 2.90448H25.0447C34.8153 2.96394 42.2571 4.36398 48.3604 7.29894V45.6453C41.5754 43.1442 33.9097 41.7652 25.0059 41.4382C24.6231 41.424 24.323 41.1112 24.323 40.7255L24.3232 3.62301ZM17.2447 10.8256C17.2447 10.1395 17.8025 9.58171 18.4883 9.58171H21.4194V40.7253C21.4194 42.6811 22.9482 44.268 24.8997 44.34C30.5907 44.5491 35.7376 45.2077 40.4571 46.3184H18.4883C17.8025 46.3184 17.2447 45.7606 17.2447 45.0745V10.8256ZM7.3549 23.2745C7.3549 19.9264 10.0785 17.2023 13.4266 17.2023H14.3411V45.0745C14.3411 47.3619 16.2014 49.2222 18.4885 49.2222H81.2082C83.4952 49.2222 85.3555 47.3619 85.3555 45.0745V17.2023H86.2696C89.6177 17.2023 92.3414 19.9266 92.3414 23.2745V71.9874H71.8488C68.9866 71.9874 66.4604 73.8135 65.5635 76.5311C65.0598 78.0577 63.6419 79.0822 62.035 79.0822H37.6619C36.0554 79.0822 34.6375 78.0567 34.1334 76.5311C33.2363 73.8135 30.7102 71.9874 27.8481 71.9874H7.3549V23.2745ZM96.7926 81.5984C96.7926 84.6298 94.3264 87.0958 91.2952 87.0958H8.40204C5.37062 87.0958 2.90402 84.6296 2.90402 81.5984V75.994C2.90402 75.3863 3.39888 74.8908 4.00759 74.8908H27.8479C29.4544 74.8908 30.8726 75.9163 31.3764 77.4419C32.2735 80.1595 34.7995 81.9856 37.6617 81.9856H62.0346C64.8972 81.9856 67.4234 80.1595 68.3205 77.4419C68.8243 75.9153 70.2421 74.8908 71.8486 74.8908H95.6889C96.2976 74.8908 96.7924 75.3861 96.7924 75.994L96.7926 81.5984ZM93.309 80.536C93.309 81.3377 92.6593 81.9879 91.8572 81.9879H90.8576C90.0556 81.9879 89.4058 81.3375 89.4058 80.536C89.4058 79.7346 90.0556 79.0842 90.8576 79.0842H91.8572C92.6593 79.084 93.309 79.7344 93.309 80.536ZM86.3549 80.536C86.3549 81.3377 85.7052 81.9879 84.9031 81.9879H83.9035C83.1015 81.9879 82.4517 81.3375 82.4517 80.536C82.4517 79.7346 83.1015 79.0842 83.9035 79.0842H84.9031C85.705 79.084 86.3549 79.7344 86.3549 80.536ZM79.4009 80.536C79.4009 81.3377 78.7511 81.9879 77.9491 81.9879H76.9494C76.1474 81.9879 75.4976 81.3375 75.4976 80.536C75.4976 79.7346 76.1474 79.0842 76.9494 79.0842H77.9491C78.7509 79.084 79.4009 79.7344 79.4009 80.536Z" fill="white"/>
<path d="M91.8572 81.9879C92.6593 81.9879 93.309 81.3377 93.309 80.536C93.309 79.7344 92.6593 79.084 91.8572 79.0842H90.8576C90.0556 79.0842 89.4058 79.7346 89.4058 80.536C89.4058 81.3375 90.0556 81.9879 90.8576 81.9879H91.8572Z" fill="#03153B"/>
<path d="M84.9031 81.9879C85.7052 81.9879 86.3549 81.3377 86.3549 80.536C86.3549 79.7344 85.705 79.084 84.9031 79.0842H83.9035C83.1015 79.0842 82.4517 79.7346 82.4517 80.536C82.4517 81.3375 83.1015 81.9879 83.9035 81.9879H84.9031Z" fill="#03153B"/>
<path d="M77.9491 81.9879C78.7511 81.9879 79.4009 81.3377 79.4009 80.536C79.4009 79.7344 78.7509 79.084 77.9491 79.0842H76.9494C76.1474 79.0842 75.4976 79.7346 75.4976 80.536C75.4976 81.3375 76.1474 81.9879 76.9494 81.9879H77.9491Z" fill="#03153B"/>
<path d="M28.2865 8.86682C27.4657 8.80555 26.8068 9.45107 26.7704 10.2517C26.7346 11.0523 27.3546 11.731 28.1551 11.7668C34.2919 12.0447 39.453 13.0305 43.9338 14.7831C44.1078 14.8502 44.2865 14.8823 44.4623 14.8823C45.0427 14.8823 45.5909 14.5325 45.815 13.9588C46.107 13.2121 45.7385 12.3698 44.9917 12.0778C40.2098 10.209 34.7453 9.15803 28.2865 8.86682Z" fill="#03153B"/>
<path d="M28.5176 19.004C27.6967 18.9428 27.0379 19.5883 27.0015 20.3889C26.9657 21.1895 27.5857 21.8682 28.3861 21.904C34.523 22.1819 39.6841 23.1677 44.1649 24.9203C44.3388 24.9874 44.5176 25.0196 44.6933 25.0196C45.2737 25.0196 45.822 24.6697 46.0461 24.096C46.3381 23.3493 45.9696 22.5071 45.2228 22.215C40.4409 20.3462 34.9764 19.2952 28.5176 19.004Z" fill="#03153B"/>
<path d="M28.5176 30C27.6967 29.9387 27.0379 30.5842 27.0015 31.3849C26.9657 32.1855 27.5857 32.8642 28.3861 32.9C34.523 33.1778 39.6841 34.1637 44.1649 35.9162C44.3388 35.9834 44.5176 36.0155 44.6933 36.0155C45.2737 36.0155 45.822 35.6657 46.0461 35.0919C46.3381 34.3453 45.9696 33.503 45.2228 33.211C40.4409 31.3422 34.9764 30.2912 28.5176 30Z" fill="#03153B"/>
<path d="M54.6331 12.0783C53.8865 12.3703 53.5178 13.2124 53.8098 13.9592C54.0339 14.533 54.5822 14.8826 55.1624 14.883C55.3383 14.883 55.5169 14.8509 55.6908 14.7837C60.1712 13.0312 65.3321 12.0453 71.4696 11.7675C72.2702 11.7315 72.8904 11.0528 72.8544 10.2522C72.818 9.45153 72.1764 8.83695 71.3383 8.86729C64.8791 9.1585 59.4146 10.2095 54.6331 12.0783Z" fill="#03153B"/>
<path d="M71.4696 22.0931C72.2702 22.0571 72.8904 21.3784 72.8544 20.5778C72.818 19.7772 72.1764 19.1353 71.3381 19.1931C64.8864 19.4844 59.4229 20.5315 54.6353 22.3946C53.8883 22.6848 53.5182 23.5261 53.8088 24.2738C54.0323 24.8485 54.581 25.1992 55.1624 25.1992C55.3373 25.1992 55.5155 25.168 55.6884 25.0999C60.1762 23.354 65.3388 22.3702 71.4696 22.0931Z" fill="#03153B"/>
<path d="M54.6331 32.7146C53.8865 33.0066 53.5178 33.8487 53.8098 34.5956C54.0994 35.3373 54.9353 35.7115 55.6908 35.4201C60.1712 33.6675 65.3321 32.6817 71.4696 32.4038C72.2702 32.3678 72.8904 31.6891 72.8544 30.8885C72.818 30.0879 72.1764 29.4686 71.3383 29.5036C64.8791 29.7948 59.4146 30.8458 54.6331 32.7146Z" fill="#03153B"/>
</svg>
