<svg width="600" height="433" viewBox="0 0 600 433" fill="none" xmlns="http://www.w3.org/2000/svg">
<g clip-path="url(#clip0_845_4598)">
<path d="M13.28 379.19C13.28 379.19 254.4 372.53 241.28 379.42C228.16 386.31 35.82 392.52 28.92 372.53C22.02 352.54 8.26003 212.58 24.81 204.3C41.36 196.02 89.61 188.44 84.1 197.41C78.59 206.38 72.38 216 73.76 234.64C75.14 253.28 133.05 329.78 155.11 332.54C177.17 335.3 208.2 257.39 202.69 255.32C197.18 253.25 166.14 240.84 169.59 234.64C171.06 231.99 173.16 227.7 175.25 223.64C178.05 218.22 180.82 213.24 182 213.24C184.07 213.24 206.82 231.86 199.24 233.24C191.66 234.62 215.1 213.24 220.61 205.66C226.12 198.08 220.61 184.98 217.85 183.6C215.09 182.22 206.85 185.67 210.27 179.46C213.69 173.25 225.44 162.92 217.16 164.29C208.88 165.66 195.79 179.46 195.79 179.46C195.79 179.46 194.41 171.88 190.97 178.08C187.53 184.28 166.14 238.08 161.97 247.72C157.8 257.36 142.66 297.36 148.87 288.4C155.08 279.44 161.97 267.71 144.73 249.79C127.49 231.87 100 194.65 95.13 196C90.26 197.35 106.85 198.76 120.64 191.17C134.43 183.58 139.26 176.01 135.81 177.38C132.36 178.75 159.25 233.92 156.49 238.75C153.73 243.58 116.49 222.89 122.02 214.62C127.55 206.35 137.19 204.27 133.02 201.51C128.85 198.75 118.54 200.83 120.61 196.69C122.68 192.55 142 175.35 142 175.35C142 175.35 161.05 214.98 166 220.35C170.95 225.72 141.46 197.6 140 183.02C138.54 168.44 146 167.02 154.22 154.21C162.44 141.4 172.36 99.81 184.09 92.34C195.82 84.87 207.56 85.2301 210.76 79.5401C213.96 73.8501 209.42 61 209.42 72C209.42 83 220.42 90.8501 222.22 107.91C224.02 124.97 220.44 174.41 205.51 175.84C190.58 177.27 163.51 167.66 160.7 155.21C157.89 142.76 146.48 174.41 125.14 182.21C103.8 190.01 73.94 189.32 83.14 185.76C92.34 182.2 115.86 155.54 121.9 125.31C127.94 95.08 132.9 69.84 162.8 57.75C192.7 45.66 205.8 59.88 208.31 60.95C210.82 62.02 220.05 65.5701 224.31 81.2201C228.57 96.8701 227.51 136.33 226.8 150.56C226.09 164.79 223.95 190.03 228.93 193.56C233.91 197.09 224.66 192.14 226.09 194.27C227.52 196.4 254.53 201.74 263.09 223.79C271.65 245.84 294.38 347.54 264.51 351.09C252.84 352.48 234.99 353.76 217.61 354.38C190.49 355.38 164.51 354.72 164.94 350.38C165.65 343.27 175.61 322.65 172.05 329.05C168.49 335.45 171.34 343.98 157.12 341.14C142.9 338.3 133.65 339 133.65 334.74C133.65 330.48 133.65 321.94 132.94 326.2C132.23 330.46 140.05 337.58 123.69 334.74C107.33 331.9 113.02 325.49 100.93 325.49C88.84 325.49 66.8 325.49 76.75 321.22C86.7 316.95 110.92 317 101 317C91.08 317 64 322 74 314.86C84 307.72 103.87 302.77 98.18 305.62C92.49 308.47 66.18 312.73 76.13 305.62C86.08 298.51 100.31 292.82 97.47 294.95C94.63 297.08 75.47 299.95 81.82 294.24C88.17 288.53 98.12 285 98.12 285C98.12 285 81.05 258.69 81.05 261.53C81.05 264.37 98.12 317 92.43 334.82C86.74 352.64 70.38 372.51 75.36 371.09C80.34 369.67 145.06 376.09 150.04 370.38C155.02 364.67 157.86 340.51 157.86 350.46C157.86 360.41 150.75 371.8 170 373.22C189.25 374.64 218.36 376.78 220.49 367.53C222.62 358.28 170 351.88 172.79 342.64C175.58 333.4 177.79 312.06 189.15 310.64C200.51 309.22 242.49 302.1 240.36 307.79C238.23 313.48 231.82 302.1 237.51 289.3C243.2 276.5 251.03 216.05 242.51 219.6C233.99 223.15 251.76 243.78 255.31 274.36C258.86 304.94 241.09 351.88 244.64 364.69C248.19 377.5 250.34 379.62 263.85 381.04C277.36 382.46 344.21 375.35 337.85 383.18C331.49 391.01 326.47 390.29 322.21 390.29C317.95 390.29 188.5 396.69 187.08 398.82C186.313 399.955 185.79 401.238 185.546 402.586C185.301 403.934 185.34 405.318 185.66 406.65C186.37 409.49 320.78 432.96 323.66 432.96C326.54 432.96 384 268.68 389.71 267.25C395.42 265.82 580.71 248.97 578.53 257.5C576.35 266.03 528.39 408.78 520.53 412.34C512.67 415.9 328.53 432.96 329.22 430.83C329.91 428.7 324.22 422.29 317.13 421.58C310.04 420.87 217.56 408.78 224.67 408.78C231.78 408.78 329.93 399.54 329.22 401.67C328.51 403.8 322.82 415.18 325.66 412.34C328.5 409.5 379.71 260.85 385.4 260.14C391.09 259.43 585.96 247.34 586.67 251.61C587.38 255.88 538.31 387.45 538.31 387.45" stroke="#00B3FF" stroke-width="2.01" stroke-linecap="round" stroke-linejoin="round"/>
</g>
<defs>
<clipPath id="clip0_845_4598">
<rect width="600" height="432.96" fill="white"/>
</clipPath>
</defs>
</svg>
