<svg width="28" height="30" viewBox="0 0 28 30" fill="none" xmlns="http://www.w3.org/2000/svg">
<path d="M27.7525 11.5539L24.2608 9.00006V1.95652C24.2608 0.877821 23.383 0 22.3043 0H5.60867C4.52997 0 3.65215 0.877821 3.65215 1.95652V9.00006L0.160434 11.5539C0.0600005 11.6283 0 11.7444 0 11.8696V26.4782C0 28.4204 1.57957 30 3.52177 30H24.3912C26.3334 30 27.913 28.4204 27.913 26.4782V11.8696C27.913 11.7444 27.8529 11.627 27.7525 11.5539ZM18.4357 18.9965L27.1304 12.6405V25.6838L18.4357 18.9952V18.9965ZM26.8593 11.8708L24.261 13.77V9.97037L26.8593 11.8708ZM5.6088 0.782622H22.3044C22.9513 0.782622 23.4783 1.30957 23.4783 1.95652V14.34L17.7901 18.4982L16.1036 17.2017C14.841 16.2299 13.0749 16.2286 11.8098 17.2017L10.1233 18.4982L4.43511 14.34V1.95652C4.43511 1.30957 4.96185 0.782622 5.6088 0.782622ZM9.4775 18.9952L0.782779 25.6824V12.6392L9.4775 18.9938V18.9952ZM3.65242 13.7688L1.05418 11.8697L3.65242 9.96924V13.7688ZM24.3913 29.2175H3.52186C2.07275 29.2175 0.894907 28.0828 0.801011 26.6571L12.2869 17.8215C13.2704 17.065 14.6439 17.065 15.6274 17.8215L27.1133 26.6571C27.0193 28.0827 25.8415 29.2175 24.3924 29.2175H24.3913ZM7.30441 10.3044C7.30441 10.0879 7.47919 9.91314 7.69572 9.91314H20.2174C20.4339 9.91314 20.6087 10.0879 20.6087 10.3044C20.6087 10.521 20.4339 10.6958 20.2174 10.6958H7.69572C7.4792 10.6958 7.30441 10.521 7.30441 10.3044ZM7.30441 13.4349C7.30441 13.2183 7.47919 13.0436 7.69572 13.0436H20.2174C20.4339 13.0436 20.6087 13.2183 20.6087 13.4349C20.6087 13.6514 20.4339 13.8262 20.2174 13.8262H7.69572C7.4792 13.8262 7.30441 13.6514 7.30441 13.4349ZM7.30441 7.17403C7.30441 6.9575 7.47919 6.78272 7.69572 6.78272H20.2174C20.4339 6.78272 20.6087 6.9575 20.6087 7.17403C20.6087 7.39055 20.4339 7.56534 20.2174 7.56534H7.69572C7.4792 7.56534 7.30441 7.39055 7.30441 7.17403ZM7.30441 4.0436C7.30441 3.82708 7.47919 3.65229 7.69572 3.65229H20.2174C20.4339 3.65229 20.6087 3.82708 20.6087 4.0436C20.6087 4.26013 20.4339 4.43492 20.2174 4.43492H7.69572C7.4792 4.43492 7.30441 4.26013 7.30441 4.0436Z" fill="white"/>
</svg>
