<svg width="58" height="58" viewBox="0 0 58 58" fill="none" xmlns="http://www.w3.org/2000/svg">
<circle cx="29" cy="29" r="29" fill="#00B3FF"/>
<path d="M23.3741 14.2814L28.5081 10.1727C28.8047 9.93626 29.2193 9.94715 29.5019 10.1774L34.6295 14.2817H42.0104C42.4499 14.2817 42.8055 14.6379 42.8055 15.0782V20.8238L45.2949 22.8167C45.8462 23.2586 46.2732 23.7906 46.5605 24.3911C46.8509 24.9932 47 25.6575 47 26.3638V44.3035C47 45.3194 46.5838 46.2451 45.916 46.9141C45.2483 47.583 44.3243 48 43.3102 48H14.6882C13.6757 48 12.7548 47.583 12.084 46.9125C11.4146 46.2451 11 45.3194 11 44.3035V26.3638C11 25.6575 11.1491 24.9932 11.4395 24.3896L11.4612 24.3476C11.7501 23.7642 12.1678 23.2461 12.7067 22.8167L15.196 20.8237V15.0782C15.196 14.6379 15.5516 14.2816 15.9911 14.2816L23.3741 14.2814ZM35.7105 24.8732C35.7105 25.5095 35.4511 26.0882 35.0349 26.5052L34.9837 26.5519C34.5706 26.9408 34.0162 27.1819 33.4059 27.1819C32.9431 27.1819 32.5099 27.0435 32.148 26.8054C31.9958 27.0544 31.8157 27.2831 31.6107 27.4869C30.9429 28.1558 30.0189 28.5697 29.0018 28.5697C27.983 28.5697 27.0606 28.1558 26.3928 27.4869C25.7251 26.8179 25.312 25.8937 25.312 24.8732C25.312 23.8526 25.7251 22.9284 26.3928 22.2595C27.0606 21.5905 27.983 21.1766 29.0018 21.1766C30.0205 21.1766 30.9429 21.5905 31.6107 22.2595C32.2785 22.9284 32.6915 23.8541 32.6915 24.8872C32.6962 25.0816 32.7754 25.2543 32.8996 25.3788C33.027 25.5079 33.2056 25.5873 33.4043 25.5873C33.5891 25.5873 33.7584 25.5188 33.8966 25.3913C34.0333 25.2544 34.1125 25.0817 34.1171 24.8778C34.1171 23.4574 33.5441 22.1754 32.6186 21.2482C31.693 20.321 30.4134 19.7469 29.0002 19.7469C27.6026 19.7469 26.337 20.3054 25.4161 21.2109L25.3804 21.2482C24.4548 22.1755 23.8818 23.4574 23.8818 24.8732C23.8818 26.289 24.4548 27.5724 25.3804 28.4997C26.3059 29.4269 27.5855 30.001 29.0002 30.001C29.71 30.001 30.3824 29.8594 30.988 29.6043C31.6216 29.3383 32.1915 28.9431 32.6652 28.4561C32.9711 28.1419 33.4727 28.1341 33.7864 28.4406C34.1001 28.7471 34.1078 29.2496 33.8019 29.5639C33.1823 30.2002 32.4353 30.7151 31.603 31.0667C30.797 31.4074 29.9181 31.5957 29.0003 31.5957C27.1492 31.5957 25.4705 30.8427 24.2575 29.6276C23.0431 28.411 22.2931 26.7308 22.2931 24.8762C22.2931 23.0215 23.0447 21.3399 24.2591 20.1247L24.3041 20.0827C25.5154 18.891 27.1755 18.1551 29.0015 18.1551C30.8526 18.1551 32.5313 18.9081 33.7443 20.1247C34.9587 21.3413 35.7103 23.0216 35.7103 24.8762L35.7105 24.8732ZM30.4863 23.3858C30.1073 23.0062 29.5809 22.7697 29.0016 22.7697C28.4209 22.7697 27.896 23.0047 27.517 23.3858C27.1381 23.7654 26.9021 24.2928 26.9021 24.8732C26.9021 25.455 27.1366 25.9809 27.517 26.3605C27.896 26.7401 28.4224 26.9766 29.0016 26.9766C29.5809 26.9766 30.1073 26.7417 30.4863 26.3605C30.859 25.9871 31.0934 25.4721 31.1012 24.8856C31.1012 24.2913 30.8667 23.7639 30.4863 23.3843V23.3858ZM42.5666 30.4971C42.5402 30.522 42.5138 30.5453 42.4843 30.5671L35.33 36.6392L42.7423 41.2286C43.115 41.4588 43.2299 41.9474 43.0001 42.3207C42.7703 42.6941 42.2826 42.8093 41.9099 42.579L33.6079 37.4388C33.58 37.4248 33.5536 37.4077 33.5271 37.389L29.0002 34.5871L24.4734 37.389C24.447 37.4077 24.4206 37.4233 24.3926 37.4388L16.0906 42.579C15.7179 42.8093 15.2302 42.6926 15.0004 42.3207C14.7706 41.9474 14.887 41.4588 15.2582 41.2286L22.6705 36.6392L15.5162 30.5655C15.4883 30.5437 15.4603 30.5219 15.4355 30.497L12.5905 28.0825V44.3059C12.5905 44.8831 12.8266 45.409 13.207 45.7901C13.5859 46.1729 14.1108 46.4078 14.6885 46.4078H43.3105C43.8867 46.4078 44.4115 46.1713 44.792 45.7901C45.1725 45.409 45.4086 44.8832 45.4086 44.3059V28.0825L42.5636 30.497L42.5666 30.4971ZM41.2156 29.5605V15.8777H16.7881V29.5605L24.0931 35.7601L28.5858 32.9784C28.8545 32.8119 29.1837 32.8259 29.4322 32.9861L33.911 35.7585L41.2159 29.5589L41.2156 29.5605Z" fill="white"/>
</svg>
