<svg width="190" height="202" viewBox="0 0 190 202" fill="none" xmlns="http://www.w3.org/2000/svg">
<path d="M84.4362 24.75C85.1873 24.75 85.7962 24.1411 85.7962 23.39C85.7962 22.6389 85.1873 22.03 84.4362 22.03C83.6851 22.03 83.0762 22.6389 83.0762 23.39C83.0762 24.1411 83.6851 24.75 84.4362 24.75Z" stroke="white" stroke-linejoin="round"/>
<path d="M102.096 38.3401C102.847 38.3401 103.456 37.7312 103.456 36.9801C103.456 36.229 102.847 35.6201 102.096 35.6201C101.345 35.6201 100.736 36.229 100.736 36.9801C100.736 37.7312 101.345 38.3401 102.096 38.3401Z" stroke="white" stroke-linejoin="round"/>
<path d="M77.9479 37.4301C78.699 37.4301 79.3079 36.8212 79.3079 36.0701C79.3079 35.319 78.699 34.7101 77.9479 34.7101C77.1968 34.7101 76.5879 35.319 76.5879 36.0701C76.5879 36.8212 77.1968 37.4301 77.9479 37.4301Z" stroke="white" stroke-miterlimit="10"/>
<path d="M85.9475 36.5201C87.1957 36.5201 88.2075 35.5083 88.2075 34.2601C88.2075 33.012 87.1957 32.0001 85.9475 32.0001C84.6993 32.0001 83.6875 33.012 83.6875 34.2601C83.6875 35.5083 84.6993 36.5201 85.9475 36.5201Z" stroke="white" stroke-linejoin="round"/>
<path d="M83.2272 45.74C83.9783 45.74 84.5872 45.1311 84.5872 44.38C84.5872 43.6289 83.9783 43.02 83.2272 43.02C82.4761 43.02 81.8672 43.6289 81.8672 44.38C81.8672 45.1311 82.4761 45.74 83.2272 45.74Z" stroke="white" stroke-linejoin="round"/>
<path d="M111.907 48.1501C112.658 48.1501 113.267 47.5412 113.267 46.7901C113.267 46.0389 112.658 45.4301 111.907 45.4301C111.156 45.4301 110.547 46.0389 110.547 46.7901C110.547 47.5412 111.156 48.1501 111.907 48.1501Z" stroke="white" stroke-linejoin="round"/>
<path d="M113.266 25.0601C114.017 25.0601 114.626 24.4512 114.626 23.7001C114.626 22.949 114.017 22.3401 113.266 22.3401C112.515 22.3401 111.906 22.949 111.906 23.7001C111.906 24.4512 112.515 25.0601 113.266 25.0601Z" stroke="white" stroke-linejoin="round"/>
<path d="M102.247 21.5801C102.998 21.5801 103.607 20.9712 103.607 20.2201C103.607 19.469 102.998 18.8601 102.247 18.8601C101.496 18.8601 100.887 19.469 100.887 20.2201C100.887 20.9712 101.496 21.5801 102.247 21.5801Z" stroke="white" stroke-linejoin="round"/>
<path d="M106.778 28.82C108.026 28.82 109.038 27.8082 109.038 26.5601C109.038 25.3119 108.026 24.3 106.778 24.3C105.529 24.3 104.518 25.3119 104.518 26.5601C104.518 27.8082 105.529 28.82 106.778 28.82Z" stroke="white" stroke-linejoin="round"/>
<path d="M85.4961 24.0001L101.036 36.0701" stroke="white" stroke-linejoin="round"/>
<path d="M102.697 35.9201L106.017 28.8301" stroke="white" stroke-linejoin="round"/>
<path d="M107.527 28.8301L111.907 45.4301L113.267 25.0601" stroke="white" stroke-linejoin="round"/>
<path d="M100.738 37.7301L84.5879 44.3801" stroke="white" stroke-linejoin="round"/>
<path d="M88.207 34.2601L104.667 27.3201" stroke="white" stroke-linejoin="round"/>
<path d="M85.3375 32.0001L84.4375 24.7501" stroke="white" stroke-linejoin="round"/>
<path d="M109.037 25.8101L112.057 24.4501" stroke="white" stroke-linejoin="round"/>
<path d="M78.6973 37.28L82.3273 43.17" stroke="white" stroke-linejoin="round"/>
<path d="M77.9473 34.7201L83.5273 24.4501" stroke="white" stroke-linejoin="round"/>
<path d="M87.6074 35.92L110.547 46.79" stroke="white" stroke-linejoin="round"/>
<path d="M102.098 38.3401L111.158 45.8901" stroke="white" stroke-linejoin="round"/>
<path d="M85.7969 23.39L104.507 26.56" stroke="white" stroke-linejoin="round"/>
<path d="M111.906 23.7L85.4961 22.79" stroke="white" stroke-linejoin="round"/>
<path d="M112.057 23.0901L103.607 20.9801" stroke="white" stroke-linejoin="round"/>
<path d="M100.887 20.8301L84.1367 43.3201" stroke="white" stroke-linejoin="round"/>
<path d="M83.6766 35.02L79.3066 36.07" stroke="white" stroke-linejoin="round"/>
<path d="M92.7855 24.469C92.7914 24.488 92.7931 24.508 92.7906 24.5277C92.7864 24.5615 92.7699 24.5927 92.7443 24.6152C92.7188 24.6378 92.6858 24.6502 92.6517 24.6502C92.6176 24.6502 92.5847 24.6378 92.5591 24.6152C92.5335 24.5927 92.5171 24.5615 92.5128 24.5277C92.5103 24.508 92.5121 24.488 92.5179 24.469C92.5238 24.45 92.5336 24.4325 92.5467 24.4176C92.5599 24.4027 92.576 24.3908 92.5941 24.3826C92.6122 24.3745 92.6319 24.3702 92.6517 24.3702C92.6716 24.3702 92.6912 24.3745 92.7093 24.3826C92.7274 24.3908 92.7436 24.4027 92.7567 24.4176C92.7698 24.4325 92.7797 24.45 92.7855 24.469Z" fill="#263238" stroke="white"/>
<path d="M86.407 40.2311C86.4332 40.2573 86.448 40.2929 86.448 40.3301C86.448 40.3672 86.4332 40.4028 86.407 40.4291C86.3807 40.4553 86.3451 40.4701 86.308 40.4701C86.2708 40.4701 86.2352 40.4553 86.209 40.4291C86.1827 40.4028 86.168 40.3672 86.168 40.3301C86.168 40.2929 86.1827 40.2573 86.209 40.2311C86.2352 40.2048 86.2708 40.1901 86.308 40.1901C86.3451 40.1901 86.3807 40.2048 86.407 40.2311Z" fill="#263238" stroke="white"/>
<path d="M103.977 32.8901V32.8901C103.977 32.8533 103.991 32.818 104.017 32.7918C104.042 32.7666 104.075 32.7517 104.11 32.7502C104.146 32.7512 104.18 32.7658 104.206 32.7911C104.231 32.8165 104.246 32.8505 104.247 32.8862C104.245 32.9215 104.23 32.955 104.205 32.9799C104.179 33.0057 104.143 33.0201 104.107 33.0201H104.107C104.072 33.0201 104.039 33.0064 104.015 32.982C103.99 32.9577 103.977 32.9246 103.977 32.8901Z" fill="#263238" stroke="white"/>
<path d="M104.077 43.469C104.082 43.488 104.084 43.508 104.082 43.5277C104.077 43.5615 104.061 43.5927 104.035 43.6152C104.01 43.6378 103.977 43.6502 103.943 43.6502C103.909 43.6502 103.876 43.6378 103.85 43.6152C103.825 43.5927 103.808 43.5615 103.804 43.5277C103.801 43.508 103.803 43.488 103.809 43.469C103.815 43.45 103.825 43.4325 103.838 43.4176C103.851 43.4027 103.867 43.3908 103.885 43.3826C103.903 43.3745 103.923 43.3702 103.943 43.3702C103.963 43.3702 103.982 43.3745 104 43.3826C104.018 43.3908 104.035 43.4027 104.048 43.4176C104.061 43.4325 104.071 43.4501 104.077 43.469Z" fill="#263238" stroke="white"/>
<path d="M81.3146 28.8249C81.3402 28.8475 81.3567 28.8786 81.3609 28.9124C81.3634 28.9321 81.3617 28.9522 81.3558 28.9711C81.35 28.9901 81.3402 29.0076 81.327 29.0225L81.702 29.3533L81.327 29.0225C81.3139 29.0374 81.2977 29.0493 81.2796 29.0575C81.2615 29.0657 81.2419 29.0699 81.222 29.0699C81.2022 29.0699 81.1825 29.0657 81.1644 29.0575C81.1463 29.0493 81.1302 29.0374 81.117 29.0225L80.7421 29.3533L81.117 29.0225C81.1039 29.0076 81.0941 28.9901 81.0882 28.9711C81.0824 28.9522 81.0806 28.9321 81.0831 28.9124C81.0874 28.8786 81.1038 28.8475 81.1294 28.8249C81.155 28.8024 81.1879 28.7899 81.222 28.7899C81.2561 28.7899 81.2891 28.8024 81.3146 28.8249L81.6454 28.45L81.3146 28.8249Z" fill="#263238" stroke="white"/>
<path d="M113.087 27.8301C113.087 27.9074 113.024 27.9701 112.947 27.9701C112.869 27.9701 112.807 27.9074 112.807 27.8301C112.807 27.7527 112.869 27.6901 112.947 27.6901C113.024 27.6901 113.087 27.7527 113.087 27.8301Z" fill="#263238" stroke="white"/>
<path d="M144.707 141.25V124.85C144.707 124.741 144.728 124.633 144.77 124.532C144.812 124.432 144.873 124.34 144.95 124.263C145.027 124.186 145.119 124.125 145.219 124.083C145.32 124.041 145.428 124.02 145.537 124.02H162.757C162.866 124.02 162.974 124.041 163.075 124.083C163.175 124.125 163.267 124.186 163.344 124.263C163.421 124.34 163.482 124.432 163.524 124.532C163.566 124.633 163.587 124.741 163.587 124.85V125.47" stroke="white" stroke-width="0.75" stroke-miterlimit="10"/>
<path d="M146.138 143.22H145.508C145.288 143.22 145.076 143.133 144.921 142.977C144.765 142.821 144.678 142.61 144.678 142.39" stroke="white" stroke-width="0.75" stroke-miterlimit="10"/>
<path d="M163.587 126.59V142.39C163.587 142.499 163.566 142.607 163.524 142.708C163.483 142.808 163.421 142.9 163.344 142.977C163.267 143.054 163.176 143.115 163.075 143.157C162.974 143.199 162.866 143.22 162.757 143.22H147.357" stroke="white" stroke-width="0.75" stroke-miterlimit="10"/>
<path d="M150.057 131.27V129.46H158.237V137.78H155.707" stroke="white" stroke-width="0.75" stroke-miterlimit="10"/>
<path d="M150.057 133.64V132.4" stroke="white" stroke-width="0.75" stroke-miterlimit="10"/>
<path d="M154.717 137.78H150.057V134.77" stroke="white" stroke-width="0.75" stroke-miterlimit="10"/>
<path d="M148.588 124.17V118.98" stroke="white" stroke-width="0.75" stroke-miterlimit="10"/>
<path d="M152.297 124.17V118.98" stroke="white" stroke-width="0.75" stroke-miterlimit="10"/>
<path d="M156.008 124.17V118.98" stroke="white" stroke-width="0.75" stroke-miterlimit="10"/>
<path d="M159.717 124.17V118.98" stroke="white" stroke-width="0.75" stroke-miterlimit="10"/>
<path d="M148.588 148.46V143.27" stroke="white" stroke-width="0.75" stroke-miterlimit="10"/>
<path d="M152.297 148.46V143.27" stroke="white" stroke-width="0.75" stroke-miterlimit="10"/>
<path d="M156.008 148.46V143.27" stroke="white" stroke-width="0.75" stroke-miterlimit="10"/>
<path d="M159.717 148.46V143.27" stroke="white" stroke-width="0.75" stroke-miterlimit="10"/>
<path d="M163.697 128.16H168.897" stroke="white" stroke-width="0.75" stroke-miterlimit="10"/>
<path d="M163.697 131.87H168.897" stroke="white" stroke-width="0.75" stroke-miterlimit="10"/>
<path d="M163.697 135.57H168.897" stroke="white" stroke-width="0.75" stroke-miterlimit="10"/>
<path d="M163.697 139.28H168.897" stroke="white" stroke-width="0.75" stroke-miterlimit="10"/>
<path d="M139.406 128.16H144.596" stroke="white" stroke-width="0.75" stroke-miterlimit="10"/>
<path d="M139.406 131.87H144.596" stroke="white" stroke-width="0.75" stroke-miterlimit="10"/>
<path d="M139.406 135.57H144.596" stroke="white" stroke-width="0.75" stroke-miterlimit="10"/>
<path d="M139.406 139.28H144.596" stroke="white" stroke-width="0.75" stroke-miterlimit="10"/>
<path d="M169.067 135.59H169.067L169.067 135.598C169.067 135.62 169.063 135.642 169.055 135.663C169.046 135.684 169.034 135.703 169.018 135.719C169.002 135.735 168.984 135.748 168.963 135.757C168.942 135.766 168.92 135.77 168.897 135.77V135.77L168.89 135.77C168.854 135.771 168.819 135.761 168.789 135.741C168.759 135.722 168.736 135.694 168.722 135.661C168.707 135.628 168.704 135.592 168.71 135.557C168.717 135.522 168.734 135.489 168.759 135.464C168.784 135.438 168.816 135.421 168.851 135.414C168.886 135.407 168.922 135.41 168.955 135.424C168.988 135.437 169.017 135.46 169.037 135.49C169.056 135.52 169.067 135.554 169.067 135.59Z" fill="#263238" stroke="white"/>
<path d="M146.637 124.163L146.637 124.163V124.17C146.637 124.215 146.619 124.258 146.587 124.29C146.556 124.322 146.512 124.34 146.467 124.34V124.34L146.46 124.34C146.424 124.341 146.389 124.33 146.359 124.311C146.329 124.291 146.306 124.263 146.292 124.23C146.278 124.197 146.274 124.161 146.281 124.126C146.288 124.09 146.305 124.058 146.33 124.033C146.355 124.008 146.388 123.99 146.423 123.983C146.458 123.977 146.494 123.98 146.527 123.994C146.56 124.008 146.589 124.032 146.608 124.062C146.628 124.092 146.638 124.127 146.637 124.163Z" fill="#263238" stroke="white"/>
<path d="M141.961 139.078C141.994 139.107 142.015 139.147 142.021 139.191C142.024 139.216 142.022 139.242 142.014 139.266C142.006 139.29 141.994 139.313 141.977 139.332C141.96 139.351 141.939 139.366 141.916 139.376C141.893 139.387 141.868 139.392 141.842 139.392C141.817 139.392 141.791 139.387 141.768 139.376C141.745 139.366 141.724 139.351 141.707 139.332C141.69 139.313 141.678 139.29 141.67 139.266C141.663 139.242 141.66 139.216 141.663 139.191C141.669 139.147 141.69 139.107 141.723 139.078C141.756 139.048 141.798 139.032 141.842 139.032C141.886 139.032 141.929 139.048 141.961 139.078Z" fill="#263238" stroke="white"/>
<path d="M156.178 120.65C156.178 120.744 156.102 120.82 156.008 120.82C155.914 120.82 155.838 120.744 155.838 120.65C155.838 120.556 155.914 120.48 156.008 120.48C156.102 120.48 156.178 120.556 156.178 120.65Z" fill="#263238" stroke="white"/>
<path d="M154.148 143.13C154.18 143.162 154.197 143.205 154.197 143.25C154.197 143.295 154.18 143.338 154.148 143.37C154.116 143.402 154.072 143.42 154.027 143.42C153.982 143.42 153.939 143.402 153.907 143.37C153.875 143.338 153.857 143.295 153.857 143.25C153.857 143.205 153.875 143.162 153.907 143.13C153.939 143.098 153.982 143.08 154.027 143.08C154.073 143.08 154.116 143.098 154.148 143.13Z" fill="#263238" stroke="white"/>
<path d="M159.844 146.743C159.878 146.777 159.897 146.822 159.897 146.87C159.897 146.906 159.887 146.94 159.867 146.97C159.847 147 159.819 147.023 159.786 147.036C159.753 147.05 159.717 147.054 159.682 147.047C159.647 147.04 159.615 147.022 159.59 146.997C159.565 146.972 159.548 146.94 159.541 146.905C159.534 146.87 159.537 146.834 159.551 146.801C159.564 146.768 159.588 146.74 159.617 146.72C159.647 146.701 159.681 146.69 159.717 146.69C159.765 146.69 159.811 146.709 159.844 146.743Z" fill="#263238" stroke="white"/>
<path d="M50.7862 35.4H45.3262" stroke="white" stroke-miterlimit="10"/>
<path d="M26.3262 98.0501H50.7862C51.8531 98.0554 52.9028 97.7813 53.8309 97.255C54.759 96.7287 55.5331 95.9685 56.0762 95.0501L70.6362 69.7801C71.1715 68.8509 71.4532 67.7974 71.4532 66.7251C71.4532 65.6527 71.1715 64.5992 70.6362 63.6701L56.0762 38.4501" stroke="white" stroke-miterlimit="10"/>
<path d="M40.237 35.4001H21.667C20.6001 35.3947 19.5504 35.6689 18.6223 36.1952C17.6942 36.7215 16.9201 37.4817 16.377 38.4001L1.81704 63.6701C1.28175 64.5993 1 65.6528 1 66.7251C1 67.7974 1.28175 68.8509 1.81704 69.7801L16.377 95.0001C16.9201 95.9185 17.6942 96.6787 18.6223 97.205C19.5504 97.7313 20.6001 98.0055 21.667 98.0001" stroke="white" stroke-miterlimit="10"/>
<path d="M70.418 121.29L74.588 128.52C75.131 129.438 75.9051 130.199 76.8332 130.725C77.7613 131.251 78.811 131.525 79.878 131.52H109.008C110.074 131.526 111.122 131.252 112.049 130.725C112.975 130.199 113.747 129.438 114.288 128.52L128.858 103.3C129.393 102.371 129.675 101.317 129.675 100.245C129.675 99.1727 129.393 98.1192 128.858 97.19L120.258 82.3" stroke="white" stroke-miterlimit="10"/>
<path d="M66.6777 114.8L68.8177 118.52" stroke="white" stroke-miterlimit="10"/>
<path d="M117.588 77.67L114.288 71.97C113.754 71.0413 112.985 70.2695 112.058 69.7323C111.131 69.1951 110.079 68.9115 109.008 68.91H79.878C78.8054 68.9118 77.7521 69.1954 76.8237 69.7325C75.8953 70.2695 75.1243 71.0412 74.588 71.97L60.028 97.19C59.4927 98.1192 59.2109 99.1727 59.2109 100.245C59.2109 101.317 59.4927 102.371 60.028 103.3L64.338 110.76" stroke="white" stroke-miterlimit="10"/>
<path d="M69.598 12.7101L60.028 29.2701C59.4927 30.1993 59.2109 31.2528 59.2109 32.3251C59.2109 33.3974 59.4927 34.4509 60.028 35.3801L74.588 60.5901C75.131 61.5085 75.9051 62.2687 76.8332 62.795C77.7613 63.3213 78.811 63.5954 79.878 63.5901H109.008C110.074 63.5957 111.122 63.3216 112.049 62.7952C112.975 62.2687 113.747 61.5084 114.288 60.5901L128.858 35.3701C129.393 34.4409 129.675 33.3874 129.675 32.3151C129.675 31.2428 129.393 30.1892 128.858 29.2601L127.858 27.5701" stroke="white" stroke-miterlimit="10"/>
<path d="M74.5866 4.05005L72.3066 8.01005" stroke="white" stroke-miterlimit="10"/>
<path d="M126.277 24.8101L114.277 4.05007C113.743 3.12248 112.973 2.35213 112.046 1.81666C111.119 1.2812 110.068 0.99954 108.997 1.00007H79.877C79.3991 0.997771 78.9225 1.05147 78.457 1.16007" stroke="white" stroke-miterlimit="10"/>
<path d="M167.217 34.51H138.137C137.055 34.5068 135.993 34.7901 135.056 35.3311C134.12 35.8721 133.344 36.6516 132.807 37.59L118.247 62.79C117.711 63.7192 117.43 64.7727 117.43 65.845C117.43 66.9174 117.711 67.9709 118.247 68.9L132.807 94.12C133.35 95.0384 134.124 95.7986 135.052 96.3249C135.98 96.8513 137.03 97.1254 138.097 97.12H167.217C168.284 97.1254 169.333 96.8513 170.261 96.3249C171.19 95.7986 171.964 95.0384 172.507 94.12L187.067 68.9C187.602 67.9709 187.884 66.9174 187.884 65.845C187.884 64.7727 187.602 63.7192 187.067 62.79L172.507 37.59C171.973 36.6574 171.203 35.8818 170.274 35.3411C169.346 34.8005 168.291 34.5138 167.217 34.51Z" stroke="white" stroke-miterlimit="10"/>
<path d="M108.646 138.34H79.5264C78.4546 138.34 77.4016 138.622 76.4731 139.157C75.5446 139.692 74.7732 140.462 74.2364 141.39L59.6764 166.59C59.1411 167.519 58.8594 168.573 58.8594 169.645C58.8594 170.717 59.1411 171.771 59.6764 172.7L74.2364 197.94C74.7727 198.869 75.5437 199.641 76.4721 200.178C77.4006 200.715 78.4538 200.998 79.5264 201H108.646C109.719 200.998 110.772 200.715 111.701 200.178C112.629 199.641 113.4 198.869 113.936 197.94L128.496 172.72C129.032 171.791 129.313 170.737 129.313 169.665C129.313 168.593 129.032 167.539 128.496 166.61L113.936 141.39C113.4 140.462 112.628 139.692 111.7 139.157C110.771 138.622 109.718 138.34 108.646 138.34Z" stroke="white" stroke-miterlimit="10"/>
<path d="M177.267 156.49L188.387 137.24C188.923 136.311 189.204 135.257 189.204 134.185C189.204 133.113 188.923 132.059 188.387 131.13L173.827 105.91C173.283 104.992 172.509 104.233 171.581 103.707C170.653 103.18 169.604 102.906 168.537 102.91H139.407C138.341 102.906 137.291 103.18 136.363 103.707C135.435 104.233 134.661 104.992 134.117 105.91L119.557 131.13C119.022 132.059 118.74 133.113 118.74 134.185C118.74 135.257 119.022 136.311 119.557 137.24L134.137 162.46C134.681 163.378 135.455 164.137 136.383 164.664C137.311 165.19 138.361 165.464 139.427 165.46H162.747" stroke="white" stroke-miterlimit="10"/>
<path d="M168.537 165.51C169.604 165.514 170.653 165.24 171.581 164.714C172.509 164.187 173.283 163.428 173.827 162.51L174.697 160.99" stroke="white" stroke-miterlimit="10"/>
<path d="M108.958 109.65L112.508 110.46L113.328 106.86L109.918 106.08C109.918 105.98 109.918 105.88 109.918 105.78C109.92 104.684 109.699 103.598 109.268 102.59L112.038 100.39L109.738 97.5001L107.138 99.5901C106.212 98.7848 105.114 98.2031 103.928 97.8901V94.4501H100.238V97.7501C99.0191 97.9867 97.8722 98.5036 96.8878 99.2601L94.2178 97.1301L91.9178 100.01L94.5278 102.09C93.9731 103.185 93.6755 104.393 93.6578 105.62L90.2578 106.39L91.0778 109.99L94.4278 109.23C94.9399 110.307 95.6764 111.261 96.5878 112.03L95.0278 115.27L98.3578 116.87L99.8978 113.68C100.523 113.833 101.164 113.911 101.808 113.91C102.328 113.911 102.847 113.861 103.358 113.76L104.948 117.07L108.268 115.47L106.728 112.25C107.647 111.551 108.407 110.665 108.958 109.65ZM98.1378 105.78C98.1378 105.064 98.3501 104.364 98.7479 103.769C99.1457 103.174 99.711 102.71 100.372 102.436C101.034 102.162 101.762 102.09 102.464 102.23C103.166 102.369 103.811 102.714 104.318 103.22C104.824 103.727 105.169 104.372 105.308 105.074C105.448 105.776 105.376 106.504 105.102 107.165C104.828 107.827 104.364 108.392 103.769 108.79C103.174 109.188 102.474 109.4 101.758 109.4C100.799 109.397 99.8793 109.015 99.201 108.337C98.5227 107.659 98.1404 106.739 98.1378 105.78Z" stroke="white" stroke-miterlimit="10"/>
<path d="M91.6472 95.09L95.1872 95.9L96.0072 92.3L92.6072 91.53C92.6072 91.42 92.6072 91.32 92.6072 91.22C92.6075 90.128 92.3899 89.0469 91.9672 88.04L94.7272 85.84L92.4272 82.95L89.7872 85.06C88.8568 84.2597 87.7605 83.6757 86.5772 83.35V79.91H82.8872V83.22C81.6711 83.4591 80.5254 83.9721 79.5372 84.72L76.8772 82.59L74.5672 85.48L77.1372 87.59C76.5859 88.6829 76.2885 89.8862 76.2672 91.11L72.8672 91.89L73.6972 95.49L77.0472 94.72C77.5533 95.8004 78.2907 96.7563 79.2072 97.52L77.6472 100.76L80.9672 102.36L82.5072 99.17C83.132 99.3261 83.7732 99.4066 84.4172 99.41C84.9373 99.4061 85.456 99.3559 85.9672 99.26L87.5572 102.56L90.8872 100.96L89.3372 97.75C90.2906 97.041 91.0787 96.1334 91.6472 95.09ZM80.8372 91.22C80.8352 90.5012 81.0467 89.798 81.4448 89.1996C81.8429 88.6011 82.4097 88.1343 83.0734 87.8583C83.7371 87.5823 84.4678 87.5096 85.1729 87.6493C85.878 87.7891 86.5257 88.135 87.034 88.6432C87.5422 89.1515 87.8882 89.7992 88.0279 90.5043C88.1677 91.2094 88.0949 91.9401 87.8189 92.6038C87.543 93.2675 87.0761 93.8343 86.4777 94.2324C85.8792 94.6305 85.176 94.842 84.4572 94.84C83.9818 94.84 83.5111 94.7464 83.0719 94.5645C82.6327 94.3826 82.2336 94.1159 81.8975 93.7798C81.5613 93.4436 81.2947 93.0445 81.1127 92.6053C80.9308 92.1661 80.8372 91.6954 80.8372 91.22Z" stroke="white" stroke-miterlimit="10"/>
<path d="M159.88 67.9254C162.413 61.849 159.541 54.8696 153.464 52.3365C147.388 49.8035 140.409 52.6759 137.876 58.7523C135.343 64.8286 138.215 71.808 144.291 74.3411C150.368 76.8742 157.347 74.0018 159.88 67.9254Z" stroke="white" stroke-miterlimit="10"/>
<path d="M148.878 73.4401C154.461 73.4401 158.988 68.9137 158.988 63.3301C158.988 57.7465 154.461 53.2201 148.878 53.2201C143.294 53.2201 138.768 57.7465 138.768 63.3301C138.768 68.9137 143.294 73.4401 148.878 73.4401Z" stroke="white" stroke-miterlimit="10"/>
<path d="M162.287 75.92L170.187 82.47" stroke="white" stroke-width="3" stroke-miterlimit="10"/>
<path d="M157.547 72.0001L162.287 75.9201" stroke="white" stroke-width="2" stroke-miterlimit="10"/>
<path d="M18.127 58.7501H53.5169" stroke="white" stroke-miterlimit="10"/>
<path d="M22.5273 59.9601V57.3H25.1873V59.9601H22.5273Z" fill="#00AAFF" stroke="white"/>
<path d="M18.127 67.05H53.5169" stroke="white" stroke-miterlimit="10"/>
<path d="M41.4473 68.2601V65.6001H44.1073V68.2601H41.4473Z" fill="#00AAFF" stroke="white"/>
<path d="M18.127 75.3501H53.5169" stroke="white" stroke-miterlimit="10"/>
<path d="M33.0273 76.56V73.9H35.6873V76.56H33.0273Z" fill="#00AAFF" stroke="white"/>
<path d="M155.426 165.31C155.426 166.58 154.396 167.61 153.126 167.61C151.856 167.61 150.826 166.58 150.826 165.31C150.826 164.04 151.856 163.01 153.126 163.01C154.396 163.01 155.426 164.04 155.426 165.31Z" fill="#00AAFF" stroke="white"/>
<path d="M177.237 107.86C177.237 109.13 176.207 110.16 174.937 110.16C173.666 110.16 172.637 109.13 172.637 107.86C172.637 106.59 173.666 105.56 174.937 105.56C176.207 105.56 177.237 106.59 177.237 107.86Z" fill="#00AAFF" stroke="white"/>
<path d="M92.0288 68.2423C92.2815 68.6205 92.4164 69.0652 92.4164 69.5201C92.4164 70.1301 92.1741 70.7151 91.7428 71.1464C91.3114 71.5778 90.7264 71.8201 90.1164 71.8201C89.6615 71.8201 89.2168 71.6852 88.8386 71.4325C88.4604 71.1798 88.1656 70.8205 87.9915 70.4003C87.8174 69.98 87.7719 69.5175 87.8606 69.0714C87.9493 68.6252 88.1684 68.2154 88.4901 67.8938C88.8117 67.5721 89.2215 67.353 89.6677 67.2643C90.1139 67.1755 90.5763 67.2211 90.9966 67.3952C91.4168 67.5693 91.7761 67.8641 92.0288 68.2423Z" fill="#00AAFF" stroke="white"/>
<path d="M121.89 12.9322C122.143 13.3105 122.278 13.7551 122.278 14.21C122.278 14.82 122.035 15.405 121.604 15.8364C121.173 16.2677 120.588 16.51 119.978 16.51C119.523 16.51 119.078 16.3751 118.7 16.1224C118.322 15.8697 118.027 15.5105 117.853 15.0902C117.679 14.6699 117.633 14.2075 117.722 13.7613C117.811 13.3152 118.03 12.9054 118.351 12.5837C118.673 12.262 119.083 12.043 119.529 11.9542C119.975 11.8655 120.438 11.911 120.858 12.0851C121.278 12.2592 121.637 12.554 121.89 12.9322Z" fill="#00AAFF" stroke="white"/>
<path d="M14.3296 87.2423C14.5823 87.6205 14.7172 88.0652 14.7172 88.5201C14.7172 89.1301 14.4749 89.7151 14.0435 90.1464C13.6122 90.5778 13.0272 90.8201 12.4172 90.8201C11.9623 90.8201 11.5176 90.6852 11.1394 90.4325C10.7611 90.1798 10.4663 89.8205 10.2923 89.4003C10.1182 88.98 10.0726 88.5175 10.1614 88.0714C10.2501 87.6252 10.4692 87.2154 10.7908 86.8938C11.1125 86.5721 11.5223 86.353 11.9685 86.2643C12.4146 86.1755 12.8771 86.2211 13.2974 86.3952C13.7176 86.5693 14.0768 86.8641 14.3296 87.2423Z" fill="#00AAFF" stroke="white"/>
<path d="M101.189 129.992C101.442 130.371 101.577 130.815 101.577 131.27C101.577 131.572 101.517 131.871 101.401 132.15C101.286 132.429 101.116 132.683 100.903 132.896C100.689 133.11 100.436 133.279 100.157 133.395C99.8777 133.511 99.5786 133.57 99.2766 133.57C98.8217 133.57 98.377 133.435 97.9988 133.182C97.6205 132.93 97.3257 132.571 97.1516 132.15C96.9776 131.73 96.932 131.268 97.0208 130.821C97.1095 130.375 97.3286 129.965 97.6502 129.644C97.9719 129.322 98.3817 129.103 98.8279 129.014C99.274 128.926 99.7365 128.971 100.157 129.145C100.577 129.319 100.936 129.614 101.189 129.992Z" fill="#00AAFF" stroke="white"/>
<path d="M64.8011 176.503C65.0539 176.884 65.188 177.331 65.1864 177.788C65.1842 178.4 64.9399 178.985 64.5069 179.416C64.0739 179.848 63.4876 180.09 62.8764 180.09C62.4192 180.09 61.9722 179.954 61.5922 179.7C61.2121 179.446 60.916 179.085 60.7415 178.662C60.5669 178.24 60.5216 177.775 60.6114 177.326C60.7012 176.878 60.922 176.466 61.2459 176.144C61.5698 175.821 61.9822 175.602 62.4308 175.513C62.8794 175.425 63.3442 175.472 63.7661 175.648C64.1881 175.824 64.5483 176.122 64.8011 176.503Z" fill="#00AAFF" stroke="white"/>
<path d="M124.618 156.02C124.618 157.29 123.588 158.32 122.318 158.32C121.047 158.32 120.018 157.29 120.018 156.02C120.018 154.75 121.047 153.72 122.318 153.72C123.588 153.72 124.618 154.75 124.618 156.02Z" fill="#00AAFF" stroke="white"/>
<path d="M181.307 49.5001C181.307 50.7703 180.277 51.8001 179.007 51.8001C177.737 51.8001 176.707 50.7703 176.707 49.5001C176.707 48.2298 177.737 47.2001 179.007 47.2001C180.277 47.2001 181.307 48.2298 181.307 49.5001Z" fill="#00AAFF" stroke="white"/>
<path d="M143.599 95.7223C143.852 96.1005 143.987 96.5452 143.987 97.0001C143.987 97.3021 143.927 97.6012 143.812 97.8802C143.696 98.1593 143.527 98.4128 143.313 98.6264C143.099 98.84 142.846 99.0094 142.567 99.125C142.288 99.2406 141.989 99.3001 141.687 99.3001C141.232 99.3001 140.787 99.1652 140.409 98.9125C140.031 98.6597 139.736 98.3005 139.562 97.8802C139.388 97.46 139.342 96.9975 139.431 96.5514C139.52 96.1052 139.739 95.6954 140.06 95.3737C140.382 95.0521 140.792 94.833 141.238 94.7443C141.684 94.6555 142.147 94.7011 142.567 94.8751C142.987 95.0492 143.346 95.344 143.599 95.7223Z" fill="#00AAFF" stroke="white"/>
<path d="M66.9194 43.1323C67.1721 43.5105 67.307 43.9552 67.307 44.4101C67.307 45.0201 67.0647 45.6051 66.6334 46.0365C66.202 46.4678 65.617 46.7101 65.007 46.7101C64.5521 46.7101 64.1074 46.5752 63.7292 46.3225C63.351 46.0698 63.0562 45.7105 62.8821 45.2903C62.708 44.87 62.6625 44.4076 62.7512 43.9614C62.84 43.5152 63.059 43.1054 63.3807 42.7838C63.7023 42.4621 64.1122 42.243 64.5583 42.1543C65.0045 42.0656 65.4669 42.1111 65.8872 42.2852C66.3075 42.4593 66.6667 42.7541 66.9194 43.1323Z" fill="#00AAFF" stroke="white"/>
<path d="M76.6367 179.04V157.81C76.6367 157.332 76.826 156.873 77.1633 156.534C77.5006 156.195 77.9584 156.003 78.4367 156H111.137C111.374 156 111.609 156.047 111.828 156.138C112.047 156.229 112.246 156.363 112.413 156.531C112.58 156.699 112.713 156.899 112.803 157.118C112.892 157.338 112.938 157.573 112.937 157.81V179.13" stroke="white" stroke-width="0.75" stroke-miterlimit="10"/>
<path d="M90.2176 181.46H88.5176" stroke="white" stroke-width="0.75" stroke-miterlimit="10"/>
<path d="M86.3661 181.46H75.1361C74.9204 181.461 74.7065 181.42 74.507 181.338C74.3074 181.256 74.1261 181.135 73.9735 180.983C73.821 180.83 73.7002 180.649 73.6183 180.449C73.5363 180.25 73.4948 180.036 73.4961 179.82V179.06H116.006V179.82C116.006 180.036 115.963 180.25 115.88 180.45C115.797 180.65 115.676 180.831 115.522 180.983C115.369 181.136 115.187 181.256 114.987 181.338C114.787 181.42 114.572 181.461 114.356 181.46H91.8261" stroke="white" stroke-width="0.75" stroke-miterlimit="10"/>
<path d="M92.1875 157.34H93.9775" stroke="white" stroke-width="0.75" stroke-miterlimit="10"/>
<path d="M95.3277 157.34H111.728V178.77H77.8477V157.34H89.7677" stroke="white" stroke-width="0.75" stroke-miterlimit="10"/>
<path d="M83.1752 155.708C83.2092 155.759 83.2274 155.819 83.2274 155.88C83.2274 155.962 83.1948 156.041 83.1366 156.099C83.0785 156.157 82.9996 156.19 82.9174 156.19C82.8561 156.19 82.7962 156.172 82.7452 156.138C82.6942 156.104 82.6545 156.055 82.631 155.999C82.6076 155.942 82.6014 155.88 82.6134 155.82C82.6253 155.759 82.6549 155.704 82.6982 155.661C82.7416 155.618 82.7968 155.588 82.8569 155.576C82.9171 155.564 82.9794 155.57 83.0361 155.594C83.0927 155.617 83.1411 155.657 83.1752 155.708Z" fill="#263238" stroke="white"/>
<path d="M115.175 178.928C115.209 178.979 115.227 179.039 115.227 179.1C115.227 179.182 115.195 179.261 115.137 179.319C115.078 179.377 115 179.41 114.917 179.41C114.856 179.41 114.796 179.392 114.745 179.358C114.694 179.324 114.654 179.275 114.631 179.219C114.608 179.162 114.601 179.1 114.613 179.04C114.625 178.979 114.655 178.924 114.698 178.881C114.742 178.837 114.797 178.808 114.857 178.796C114.917 178.784 114.979 178.79 115.036 178.814C115.093 178.837 115.141 178.877 115.175 178.928Z" fill="#263238" stroke="white"/>
<path d="M109.204 157.258C109.239 157.309 109.257 157.369 109.257 157.43C109.257 157.512 109.224 157.591 109.166 157.649C109.108 157.707 109.029 157.74 108.947 157.74C108.885 157.74 108.825 157.722 108.774 157.688C108.724 157.654 108.684 157.605 108.66 157.549C108.637 157.492 108.631 157.43 108.643 157.37C108.655 157.309 108.684 157.254 108.728 157.211C108.771 157.167 108.826 157.138 108.886 157.126C108.946 157.114 109.009 157.12 109.065 157.144C109.122 157.167 109.17 157.207 109.204 157.258Z" fill="#263238" stroke="white"/>
<path d="M79.8939 181.198C79.928 181.249 79.9462 181.309 79.9462 181.37C79.9462 181.452 79.9135 181.531 79.8554 181.589C79.7972 181.647 79.7184 181.68 79.6362 181.68C79.5748 181.68 79.5149 181.662 79.4639 181.628C79.413 181.594 79.3732 181.545 79.3498 181.489C79.3263 181.432 79.3202 181.37 79.3321 181.31C79.3441 181.249 79.3736 181.194 79.417 181.151C79.4603 181.108 79.5156 181.078 79.5757 181.066C79.6358 181.054 79.6982 181.06 79.7548 181.084C79.8115 181.107 79.8599 181.147 79.8939 181.198Z" fill="#263238" stroke="white"/>
</svg>
