<svg width="67" height="65" viewBox="0 0 67 65" fill="none" xmlns="http://www.w3.org/2000/svg">
<path d="M42.8608 30.7741L42.4143 34.3641C42.3331 34.9579 41.8325 35.4168 41.2235 35.4168H35.4051V50.3977C34.7962 50.4517 34.1737 50.4787 33.5378 50.4787C32.1305 50.4787 30.7503 50.3438 29.4243 50.0738V35.4033H24.9454C24.5395 35.4033 24.2012 35.0659 24.2012 34.661V30.1667C24.2012 29.7618 24.5395 29.4244 24.9454 29.4244H29.4243V22.6897C29.4243 18.5599 32.7665 15.2128 36.8935 15.2128H42.1166C42.5226 15.2128 42.8608 15.5502 42.8608 15.9551V20.4493C42.8608 20.8542 42.5226 21.1916 42.1166 21.1916H38.382C36.7312 21.1916 35.3916 22.5278 35.3916 24.1878V29.4244H41.6701C42.4008 29.4244 42.9556 30.0587 42.8608 30.7741Z" fill="white"/>
<rect x="1" y="1" width="64.383" height="63" rx="9" stroke="white" stroke-width="2"/>
</svg>
