<svg width="145" height="77" viewBox="0 0 145 77" fill="none" xmlns="http://www.w3.org/2000/svg">
<mask id="path-1-inside-1_292_4677" fill="white">
<path d="M68.8409 3.65482C68.8409 2.93197 69.0553 2.22535 69.4569 1.62431C69.8585 1.02328 70.4293 0.554834 71.0971 0.278209C71.765 0.00158454 72.4998 -0.0707944 73.2088 0.0702277C73.9178 0.21125 74.569 0.559336 75.0801 1.07047C75.5912 1.58161 75.9393 2.23284 76.0804 2.9418C76.2214 3.65077 76.149 4.38563 75.8724 5.05346C75.5958 5.72129 75.1273 6.2921 74.5263 6.6937C73.9252 7.09529 73.2186 7.30964 72.4958 7.30964C71.5264 7.30964 70.5968 6.92459 69.9114 6.23917C69.226 5.55376 68.8409 4.62414 68.8409 3.65482ZM57.9865 8.94247C58.6887 8.78095 59.3274 8.41497 59.8218 7.89074C60.3162 7.36652 60.6442 6.70755 60.7644 5.99705C60.8846 5.28654 60.7916 4.55635 60.4971 3.89867C60.2026 3.241 59.7198 2.68533 59.1097 2.30183C58.4997 1.91832 57.7896 1.72417 57.0693 1.74389C56.349 1.76362 55.6507 1.99633 55.0625 2.41265C54.4743 2.82897 54.0227 3.41023 53.7646 4.08304C53.5066 4.75584 53.4536 5.49003 53.6125 6.19289C53.8283 7.13731 54.4102 7.9574 55.2304 8.47298C56.0506 8.98855 57.0419 9.15742 57.9865 8.94247ZM44.2047 13.7648C44.8564 13.4506 45.4002 12.9501 45.7672 12.3266C46.1342 11.7032 46.3079 10.9848 46.2663 10.2625C46.2247 9.54024 45.9697 8.84656 45.5336 8.26933C45.0975 7.6921 44.4998 7.2573 43.8164 7.01999C43.1329 6.78269 42.3944 6.75355 41.6944 6.93628C40.9944 7.11901 40.3644 7.50539 39.8841 8.04647C39.4039 8.58755 39.095 9.25899 38.9967 9.97574C38.8983 10.6925 39.0149 11.4223 39.3316 12.0728C39.7549 12.942 40.5054 13.6081 41.4187 13.9252C42.3321 14.2423 43.3338 14.1847 44.2047 13.7648ZM31.8443 21.5313C32.4106 21.081 32.8304 20.4729 33.0508 19.7838C33.2711 19.0947 33.282 18.3558 33.0821 17.6605C32.8821 16.9653 32.4803 16.345 31.9276 15.8783C31.3749 15.4115 30.6961 15.1193 29.9772 15.0386C29.2582 14.958 28.5315 15.0925 27.8891 15.4251C27.2467 15.7577 26.7174 16.2735 26.3684 16.9072C26.0193 17.5408 25.8661 18.2638 25.9283 18.9846C25.9904 19.7053 26.2651 20.3914 26.7174 20.956C27.0162 21.3306 27.3858 21.6427 27.8052 21.8743C28.2246 22.106 28.6855 22.2527 29.1617 22.3062C29.6378 22.3596 30.1198 22.3187 30.5801 22.1857C31.0404 22.0527 31.47 21.8304 31.8443 21.5313ZM16.3959 32.4281C16.9604 32.8766 17.6452 33.1477 18.3638 33.2071C19.0823 33.2665 19.8023 33.1116 20.4328 32.7619C21.0633 32.4122 21.576 31.8834 21.9061 31.2424C22.2361 30.6014 22.3688 29.877 22.2872 29.1606C22.2056 28.4443 21.9135 27.7682 21.4478 27.2178C20.9821 26.6674 20.3637 26.2674 19.6707 26.0684C18.9777 25.8694 18.2413 25.8803 17.5545 26.0997C16.8677 26.3192 16.2614 26.7373 15.8122 27.3012C15.5136 27.676 15.2918 28.1061 15.1595 28.5667C15.0272 29.0273 14.9871 29.5095 15.0413 29.9856C15.0955 30.4618 15.243 30.9226 15.4755 31.3417C15.7079 31.7608 16.0207 32.13 16.3959 32.4281ZM13.7563 44.2132C14.0705 43.5642 14.1853 42.8366 14.086 42.1224C13.9867 41.4081 13.6779 40.7394 13.1986 40.2007C12.7194 39.6619 12.0911 39.2774 11.3933 39.0957C10.6955 38.9139 9.95948 38.9432 9.2783 39.1797C8.59712 39.4162 8.00136 39.8494 7.56633 40.4245C7.1313 40.9995 6.87655 41.6907 6.83426 42.4105C6.79198 43.1304 6.96407 43.8466 7.32878 44.4686C7.69349 45.0906 8.23444 45.5906 8.88325 45.9052C9.7545 46.3228 10.7554 46.3793 11.6681 46.0624C12.5808 45.7455 13.3314 45.0808 13.7563 44.2132ZM6.19289 53.621C5.48807 53.4599 4.75131 53.5115 4.07582 53.7693C3.40032 54.027 2.81645 54.4793 2.39807 55.069C1.97968 55.6586 1.74557 56.3591 1.72536 57.0818C1.70515 57.8045 1.89974 58.517 2.28452 59.1291C2.66931 59.7412 3.22699 60.2254 3.88702 60.5205C4.54705 60.8156 5.27977 60.9083 5.9925 60.7869C6.70523 60.6655 7.36593 60.3354 7.89104 59.8384C8.41614 59.3414 8.78205 58.6999 8.94247 57.9949C9.05006 57.5271 9.06423 57.0427 8.98418 56.5694C8.90412 56.0962 8.73141 55.6434 8.47596 55.237C8.2205 54.8306 7.88732 54.4787 7.49554 54.2014C7.10376 53.924 6.66108 53.7268 6.19289 53.621ZM3.65482 68.8494C2.93197 68.8494 2.22535 69.0638 1.62431 69.4653C1.02328 69.8669 0.554832 70.4378 0.278207 71.1056C0.00158215 71.7734 -0.0707936 72.5083 0.0702285 73.2172C0.211251 73.9262 0.559337 74.5774 1.07047 75.0886C1.58161 75.5997 2.23284 75.9478 2.9418 76.0888C3.65077 76.2298 4.38563 76.1575 5.05346 75.8808C5.72129 75.6042 6.2921 75.1358 6.6937 74.5347C7.09529 73.9337 7.30965 73.2271 7.30965 72.5042C7.31076 72.024 7.21699 71.5482 7.03371 71.1043C6.85044 70.6603 6.58126 70.257 6.24166 69.9174C5.90206 69.5778 5.49871 69.3086 5.05478 69.1253C4.61085 68.9421 4.13509 68.8483 3.65482 68.8494ZM141.345 68.8494C140.622 68.8494 139.916 69.0638 139.315 69.4653C138.714 69.8669 138.245 70.4378 137.969 71.1056C137.692 71.7734 137.62 72.5083 137.761 73.2172C137.902 73.9262 138.25 74.5774 138.761 75.0886C139.272 75.5997 139.923 75.9478 140.632 76.0888C141.341 76.2298 142.076 76.1575 142.744 75.8808C143.412 75.6042 143.982 75.1358 144.384 74.5347C144.786 73.9337 145 73.2271 145 72.5042C145.001 72.0232 144.907 71.5468 144.723 71.1023C144.539 70.6578 144.27 70.2541 143.929 69.9144C143.589 69.5747 143.184 69.3057 142.739 69.1229C142.294 68.9401 141.818 68.8472 141.337 68.8494H141.345ZM140.431 60.7445C141.137 60.5856 141.78 60.2208 142.278 59.6963C142.776 59.1719 143.108 58.5113 143.231 57.7983C143.353 57.0854 143.261 56.3521 142.967 55.6913C142.672 55.0305 142.189 54.472 141.576 54.0864C140.964 53.7009 140.251 53.5057 139.528 53.5255C138.805 53.5453 138.104 53.7794 137.514 54.1979C136.924 54.6164 136.471 55.2006 136.214 55.8766C135.956 56.5525 135.904 57.2898 136.066 57.9949C136.282 58.9357 136.861 59.7528 137.678 60.268C138.494 60.7831 139.481 60.9544 140.423 60.7445H140.431ZM137.817 41.0491C137.503 40.4003 137.003 39.8593 136.381 39.4946C135.759 39.1299 135.042 38.9578 134.323 39.0001C133.603 39.0424 132.912 39.2971 132.336 39.7321C131.761 40.1672 131.328 40.7629 131.092 41.4441C130.855 42.1253 130.826 42.8613 131.008 43.5591C131.189 44.2569 131.574 44.8852 132.113 45.3645C132.651 45.8437 133.32 46.1525 134.034 46.2518C134.749 46.3511 135.476 46.2364 136.125 45.9222C136.993 45.4974 137.657 44.7462 137.973 43.8331C138.288 42.9199 138.229 41.9189 137.809 41.0491H137.817ZM128.604 32.4281C129.167 31.978 129.585 31.371 129.803 30.6839C130.021 29.9967 130.031 29.2602 129.831 28.5675C129.631 27.8748 129.23 27.2569 128.679 26.792C128.128 26.3271 127.451 26.0361 126.735 25.9557C126.018 25.8753 125.294 26.0091 124.653 26.3403C124.013 26.6715 123.485 27.1851 123.136 27.8162C122.788 28.4474 122.634 29.1677 122.695 29.8862C122.755 30.6047 123.028 31.2891 123.477 31.8528C124.08 32.6068 124.958 33.0909 125.917 33.1987C126.877 33.3066 127.84 33.0294 128.596 32.4281H128.604ZM113.139 21.5313C113.703 21.9837 114.389 22.2583 115.11 22.3204C115.831 22.3826 116.554 22.2294 117.188 21.8804C117.821 21.5313 118.337 21.002 118.67 20.3596C119.002 19.7172 119.137 18.9905 119.056 18.2716C118.975 17.5527 118.683 16.8738 118.217 16.3211C117.75 15.7684 117.129 15.3666 116.434 15.1667C115.739 14.9667 115 14.9776 114.311 15.1979C113.622 15.4183 113.014 15.8382 112.563 16.4044C111.962 17.1612 111.684 18.1258 111.792 19.0867C111.9 20.0476 112.384 20.9267 113.139 21.5313ZM100.778 13.7648C101.429 14.0816 102.159 14.1981 102.875 14.0998C103.592 14.0014 104.264 13.6926 104.805 13.2123C105.346 12.7321 105.732 12.102 105.915 11.402C106.098 10.702 106.068 9.96351 105.831 9.28007C105.594 8.59663 105.159 7.99898 104.582 7.56285C104.005 7.12671 103.311 6.8717 102.589 6.83011C101.866 6.78852 101.148 6.96223 100.524 7.32923C99.901 7.69624 99.4005 8.24002 99.0863 8.89171C98.6664 9.76261 98.6087 10.7644 98.9259 11.6777C99.243 12.591 99.9091 13.3415 100.778 13.7648ZM88.6294 1.82741C87.9263 1.66641 87.1913 1.71756 86.5172 1.97439C85.8432 2.23121 85.2605 2.68217 84.8428 3.27023C84.4251 3.85828 84.1912 4.55701 84.1707 5.27802C84.1501 5.99904 84.3439 6.70993 84.7275 7.3208C85.1111 7.93166 85.6672 8.41505 86.3255 8.7098C86.9838 9.00455 87.7148 9.09743 88.4259 8.97669C89.137 8.85595 89.7964 8.52702 90.3205 8.03149C90.8447 7.53597 91.2101 6.89613 91.3705 6.19289C91.5856 5.25053 91.4176 4.26135 90.9036 3.44276C90.3896 2.62417 89.5716 2.04316 88.6294 1.82741ZM72.4958 11.4382C71.8863 11.4366 71.2901 11.6158 70.7826 11.9531C70.275 12.2905 69.879 12.7708 69.6446 13.3334C69.4102 13.896 69.3481 14.5154 69.4659 15.1133C69.5838 15.7113 69.8764 16.2608 70.3068 16.6923C70.7371 17.1238 71.2858 17.418 71.8834 17.5375C72.481 17.657 73.1006 17.5965 73.6638 17.3637C74.227 17.1308 74.7085 16.7361 75.0472 16.2295C75.386 15.7229 75.5668 15.1272 75.5668 14.5178C75.5668 13.7025 75.2435 12.9205 74.6679 12.3432C74.0922 11.7659 73.311 11.4405 72.4958 11.4382ZM58.9086 12.9695C58.3142 13.1037 57.7729 13.4113 57.3533 13.8532C56.9337 14.2952 56.6547 14.8517 56.5515 15.4523C56.4484 16.0529 56.5258 16.6707 56.7739 17.2273C57.022 17.7839 57.4297 18.2544 57.9454 18.5792C58.461 18.904 59.0614 19.0685 59.6706 19.0519C60.2798 19.0353 60.8704 18.8383 61.3675 18.4858C61.8647 18.1334 62.2461 17.6414 62.4636 17.0721C62.681 16.5028 62.7246 15.8818 62.5888 15.2876C62.4052 14.4939 61.9154 13.8049 61.2261 13.3707C60.5368 12.9366 59.7038 12.7923 58.9086 12.9695ZM44.5262 21.5905C44.7907 22.1372 45.2113 22.5932 45.7348 22.9009C46.2584 23.2085 46.8614 23.3541 47.4677 23.3191C48.074 23.2841 48.6563 23.0702 49.141 22.7043C49.6257 22.3385 49.991 21.8371 50.1908 21.2637C50.3907 20.6902 50.416 20.0704 50.2636 19.4825C50.1112 18.8947 49.788 18.3652 49.3347 17.961C48.8815 17.5569 48.3186 17.2961 47.7172 17.2118C47.1158 17.1275 46.5029 17.2234 45.956 17.4873C45.2295 17.8491 44.6757 18.4838 44.4157 19.2527C44.1557 20.0215 44.2107 20.862 44.5685 21.5905H44.5262ZM38.2149 29.5685C38.6884 29.1888 39.0388 28.6773 39.2218 28.0985C39.4048 27.5198 39.4122 26.8998 39.2431 26.3168C39.0739 25.7339 38.7358 25.2142 38.2715 24.8232C37.8071 24.4323 37.2374 24.1878 36.6341 24.1205C36.0309 24.0532 35.4212 24.1662 34.8821 24.4452C34.3431 24.7242 33.8987 25.1566 33.6053 25.688C33.3119 26.2193 33.1825 26.8257 33.2334 27.4305C33.2844 28.0354 33.5135 28.6116 33.8917 29.0863C34.1439 29.4085 34.4579 29.6771 34.8153 29.8762C35.1727 30.0754 35.5663 30.2011 35.973 30.246C36.3797 30.291 36.7912 30.2542 37.1835 30.1378C37.5757 30.0215 37.9408 29.8279 38.2572 29.5685H38.2149ZM25.2453 38.7563C25.7217 39.1363 26.3 39.3664 26.9072 39.4176C27.5144 39.4687 28.1231 39.3386 28.6563 39.0437C29.1895 38.7488 29.6232 38.3023 29.9025 37.7608C30.1819 37.2193 30.2943 36.6071 30.2256 36.0016C30.1569 35.3962 29.9101 34.8248 29.5165 34.3596C29.1229 33.8945 28.6001 33.5566 28.0144 33.3887C27.4287 33.2207 26.8063 33.2304 26.226 33.4163C25.6458 33.6022 25.1337 33.9561 24.7547 34.4332C24.5023 34.7489 24.3148 35.1115 24.2029 35.4999C24.0909 35.8883 24.0568 36.295 24.1024 36.6966C24.148 37.0983 24.2724 37.487 24.4685 37.8404C24.6647 38.1939 24.9287 38.5051 25.2453 38.7563ZM21.5821 44.577C21.0346 44.3145 20.4217 44.2201 19.8207 44.3058C19.2196 44.3915 18.6575 44.6534 18.2052 45.0584C17.753 45.4635 17.431 45.9935 17.2798 46.5815C17.1286 47.1694 17.1551 47.789 17.356 48.362C17.5568 48.9349 17.9229 49.4355 18.4081 49.8004C18.8933 50.1653 19.4757 50.3783 20.0819 50.4123C20.688 50.4464 21.2907 50.3 21.8137 49.9917C22.3367 49.6834 22.7566 49.227 23.0203 48.6802C23.1969 48.3166 23.2998 47.9217 23.323 47.5182C23.3462 47.1146 23.2894 46.7105 23.1557 46.3291C23.022 45.9476 22.8141 45.5965 22.544 45.2957C22.2739 44.995 21.947 44.7507 21.5821 44.577ZM16.6497 56.5905C16.0557 56.4531 15.4343 56.4952 14.8642 56.7113C14.2941 56.9274 13.801 57.3079 13.4474 57.8045C13.0937 58.3012 12.8954 58.8916 12.8776 59.501C12.8598 60.1104 13.0234 60.7114 13.3475 61.2278C13.6715 61.7443 14.1416 62.1528 14.6982 62.4018C15.2547 62.6508 15.8726 62.729 16.4736 62.6265C17.0746 62.524 17.6317 62.2454 18.0742 61.8261C18.5167 61.4067 18.8248 60.8654 18.9594 60.2707C19.0496 59.8774 19.0613 59.4702 18.994 59.0723C18.9267 58.6745 18.7817 58.2938 18.5672 57.952C18.3527 57.6102 18.073 57.3141 17.744 57.0805C17.4149 56.8468 17.0431 56.6804 16.6497 56.5905ZM14.5093 69.4162C13.8999 69.4146 13.3037 69.5938 12.7961 69.9311C12.2886 70.2685 11.8926 70.7488 11.6582 71.3114C11.4238 71.874 11.3616 72.4934 11.4795 73.0913C11.5973 73.6893 11.89 74.2388 12.3203 74.6703C12.7506 75.1018 13.2993 75.396 13.8969 75.5155C14.4945 75.635 15.1142 75.5745 15.6774 75.3417C16.2406 75.1088 16.722 74.7141 17.0608 74.2075C17.3995 73.7009 17.5804 73.1052 17.5804 72.4958C17.5804 71.6813 17.2568 70.9001 16.6809 70.3242C16.1049 69.7483 15.3238 69.4247 14.5093 69.4247V69.4162ZM130.482 69.4162C129.873 69.4146 129.277 69.5938 128.769 69.9311C128.262 70.2685 127.865 70.7488 127.631 71.3114C127.397 71.874 127.335 72.4934 127.452 73.0913C127.57 73.6893 127.863 74.2388 128.293 74.6703C128.724 75.1018 129.272 75.396 129.87 75.5155C130.467 75.635 131.087 75.5745 131.65 75.3417C132.213 75.1088 132.695 74.7141 133.034 74.2075C133.372 73.7009 133.553 73.1052 133.553 72.4958C133.551 71.682 133.227 70.9021 132.651 70.3267C132.076 69.7512 131.296 69.4269 130.482 69.4247V69.4162ZM129.712 62.5973C130.307 62.4631 130.848 62.1556 131.268 61.7136C131.687 61.2716 131.966 60.7151 132.069 60.1145C132.173 59.5139 132.095 58.8962 131.847 58.3395C131.599 57.7829 131.191 57.3124 130.676 56.9876C130.16 56.6628 129.56 56.4983 128.95 56.5149C128.341 56.5316 127.751 56.7286 127.253 57.081C126.756 57.4334 126.375 57.9254 126.157 58.4947C125.94 59.064 125.896 59.6851 126.032 60.2792C126.214 61.0741 126.703 61.7645 127.393 62.199C128.083 62.6336 128.917 62.7768 129.712 62.5973ZM127.504 46.0068C127.24 45.4572 126.819 44.9984 126.294 44.6884C125.769 44.3784 125.164 44.2313 124.555 44.2656C123.946 44.2999 123.362 44.514 122.875 44.881C122.388 45.248 122.021 45.7512 121.82 46.3269C121.62 46.9026 121.595 47.5249 121.748 48.115C121.901 48.7051 122.226 49.2363 122.682 49.6414C123.138 50.0466 123.703 50.3074 124.307 50.3908C124.911 50.4742 125.526 50.3765 126.074 50.11C126.439 49.9355 126.765 49.6906 127.034 49.3896C127.303 49.0885 127.51 48.7372 127.643 48.3558C127.776 47.9745 127.832 47.5706 127.808 47.1674C127.784 46.7643 127.681 46.3698 127.504 46.0068ZM115.914 33.9425C115.435 34.3208 115.08 34.8326 114.893 35.4131C114.706 35.9935 114.696 36.6164 114.863 37.2028C115.03 37.7892 115.368 38.3128 115.833 38.707C116.299 39.1013 116.87 39.3485 117.476 39.4175C118.082 39.4864 118.695 39.3738 119.237 39.0941C119.779 38.8144 120.225 38.38 120.52 37.8462C120.815 37.3123 120.945 36.703 120.893 36.0954C120.841 35.4878 120.61 34.9092 120.228 34.4332C119.72 33.7979 118.981 33.3898 118.172 33.2978C117.364 33.2059 116.552 33.4377 115.914 33.9425ZM106.734 29.5685C107.21 29.9468 107.786 30.1757 108.392 30.2262C108.997 30.2767 109.604 30.1465 110.135 29.8522C110.666 29.5578 111.099 29.1125 111.377 28.5726C111.655 28.0326 111.767 27.4223 111.698 26.8187C111.63 26.2152 111.384 25.6456 110.991 25.1819C110.599 24.7182 110.078 24.3813 109.494 24.2138C108.91 24.0463 108.29 24.0557 107.711 24.2408C107.132 24.4259 106.622 24.7784 106.244 25.2538C105.737 25.8911 105.504 26.7036 105.596 27.5128C105.688 28.3219 106.097 29.0614 106.734 29.5685ZM96.3198 23.0288C96.8672 23.2913 97.4802 23.3856 98.0812 23.3C98.6822 23.2143 99.2444 22.9524 99.6966 22.5473C100.149 22.1423 100.471 21.6123 100.622 21.0243C100.773 20.4363 100.747 19.8167 100.546 19.2438C100.345 18.6708 99.9789 18.1703 99.4938 17.8053C99.0086 17.4404 98.4261 17.2275 97.82 17.1934C97.2138 17.1594 96.6112 17.3057 96.0882 17.614C95.5652 17.9223 95.1453 18.3787 94.8816 18.9256C94.7061 19.2893 94.6041 19.6841 94.5815 20.0874C94.5588 20.4906 94.6159 20.8944 94.7495 21.2755C94.8831 21.6566 95.0906 22.0077 95.36 22.3085C95.6295 22.6094 95.9556 22.8541 96.3198 23.0288ZM84.7123 18.9678C85.3063 19.1052 85.9278 19.0632 86.4979 18.8471C87.068 18.631 87.5611 18.2505 87.9147 17.7538C88.2684 17.2572 88.4667 16.6668 88.4845 16.0574C88.5022 15.4479 88.3387 14.8469 88.0146 14.3305C87.6905 13.8141 87.2205 13.4055 86.6639 13.1565C86.1074 12.9075 85.4895 12.8293 84.8885 12.9318C84.2875 13.0343 83.7304 13.3129 83.2879 13.7323C82.8454 14.1517 82.5373 14.693 82.4027 15.2876C82.3125 15.681 82.3008 16.0882 82.3681 16.486C82.4353 16.8839 82.5804 17.2646 82.7949 17.6064C83.0094 17.9481 83.2891 18.2443 83.6181 18.4779C83.9471 18.7115 84.319 18.878 84.7123 18.9678ZM72.4958 22.8765C71.9903 22.8681 71.4938 23.0109 71.07 23.2866C70.6462 23.5622 70.3144 23.9581 70.117 24.4236C69.9197 24.889 69.8659 25.4028 69.9625 25.8991C70.0591 26.3953 70.3016 26.8514 70.6591 27.2089C71.0166 27.5664 71.4727 27.8089 71.969 27.9055C72.4652 28.0021 72.979 27.9483 73.4444 27.751C73.9099 27.5536 74.3058 27.2218 74.5815 26.798C74.8571 26.3742 74.9999 25.8777 74.9915 25.3722C74.9806 24.7137 74.7142 24.0852 74.2485 23.6195C73.7828 23.1538 73.1543 22.8874 72.4958 22.8765ZM61.4552 24.1201C60.9603 24.2241 60.5078 24.4735 60.1556 24.8363C59.8034 25.1992 59.5677 25.6589 59.4785 26.1567C59.3894 26.6544 59.451 27.1674 59.6554 27.6299C59.8598 28.0924 60.1977 28.4833 60.6257 28.7525C61.0537 29.0217 61.5524 29.1569 62.0578 29.1408C62.5632 29.1247 63.0523 28.9579 63.4623 28.662C63.8723 28.3661 64.1846 27.9544 64.359 27.4798C64.5335 27.0052 64.5623 26.4893 64.4416 25.9983C64.2845 25.3591 63.8853 24.8059 63.3281 24.4555C62.7709 24.1051 62.0993 23.9848 61.4552 24.1201ZM50.9645 27.8257C50.5056 28.0376 50.1205 28.3817 49.8584 28.8138C49.5963 29.246 49.4692 29.7465 49.4934 30.2514C49.5175 30.7562 49.6919 31.2423 49.9941 31.6475C50.2963 32.0526 50.7125 32.3583 51.1895 32.5254C51.6665 32.6924 52.1826 32.7133 52.6715 32.5853C53.1604 32.4572 53.6 32.1861 53.9339 31.8067C54.2678 31.4273 54.4808 30.9568 54.5456 30.4556C54.6105 29.9543 54.5242 29.4451 54.2978 28.9932C54.1558 28.6975 53.9568 28.4328 53.7124 28.214C53.4679 27.9953 53.1827 27.8269 52.8732 27.7185C52.5636 27.61 52.2356 27.5637 51.9081 27.5821C51.5806 27.6005 51.26 27.6833 50.9645 27.8257ZM41.5567 33.7479C41.1566 34.0566 40.8578 34.4777 40.6985 34.9572C40.5392 35.4368 40.5266 35.953 40.6625 36.4397C40.7983 36.9264 41.0764 37.3615 41.461 37.6892C41.8457 38.017 42.3194 38.2224 42.8215 38.2793C43.3236 38.3362 43.8313 38.2418 44.2795 38.0084C44.7277 37.775 45.096 37.4131 45.3372 36.9691C45.5785 36.5251 45.6817 36.0192 45.6337 35.5162C45.5857 35.0131 45.3886 34.5359 45.0677 34.1455C44.8635 33.8886 44.6106 33.6744 44.3235 33.5153C44.0364 33.3562 43.7208 33.2553 43.3947 33.2184C43.0685 33.1815 42.7383 33.2092 42.4229 33.3001C42.1076 33.3909 41.8132 33.5431 41.5567 33.7479ZM37.6058 44.7462C37.9267 44.3558 38.1238 43.8786 38.1718 43.3756C38.2198 42.8725 38.1166 42.3666 37.8753 41.9226C37.634 41.4786 37.2657 41.1167 36.8175 40.8833C36.3694 40.6499 35.8617 40.5555 35.3596 40.6124C34.8575 40.6693 34.3837 40.8747 33.9991 41.2025C33.6145 41.5302 33.3364 41.9653 33.2006 42.452C33.0647 42.9387 33.0772 43.4549 33.2365 43.9345C33.3958 44.414 33.6947 44.8351 34.0948 45.1438C34.6252 45.5391 35.289 45.7117 35.9448 45.6248C36.6006 45.5379 37.1966 45.1983 37.6058 44.6785V44.7462ZM31.1168 49.8223C30.6649 49.596 30.1557 49.5097 29.6544 49.5745C29.1532 49.6393 28.6827 49.8524 28.3033 50.1862C27.9239 50.5201 27.6528 50.9597 27.5247 51.4486C27.3967 51.9376 27.4175 52.4536 27.5846 52.9306C27.7517 53.4076 28.0574 53.8239 28.4625 54.1261C28.8676 54.4282 29.3538 54.6026 29.8586 54.6268C30.3634 54.6509 30.864 54.5239 31.2962 54.2618C31.7283 53.9997 32.0724 53.6145 32.2843 53.1557C32.4267 52.8602 32.5095 52.5395 32.5279 52.212C32.5463 51.8845 32.4999 51.5566 32.3915 51.247C32.2831 50.9374 32.1147 50.6522 31.8959 50.4078C31.6772 50.1633 31.4124 49.9644 31.1168 49.8223ZM27.1066 59.5939C26.6159 59.4737 26.1005 59.5026 25.6263 59.6771C25.1521 59.8515 24.7408 60.1635 24.445 60.5731C24.1492 60.9826 23.9824 61.4712 23.9659 61.9761C23.9494 62.4811 24.084 62.9795 24.3524 63.4075C24.6208 63.8355 25.0109 64.1737 25.4726 64.3787C25.9344 64.5838 26.4468 64.6463 26.9443 64.5584C27.4418 64.4705 27.9018 64.2361 28.2653 63.8852C28.6288 63.5343 28.8793 63.0829 28.9848 62.5888C29.1274 61.9409 29.0108 61.2629 28.6597 60.7C28.3087 60.1371 27.7512 59.7339 27.1066 59.577V59.5939ZM25.4146 70.0169C24.9126 70.0169 24.4219 70.1658 24.0045 70.4447C23.5871 70.7235 23.2618 71.1199 23.0697 71.5837C22.8776 72.0475 22.8273 72.5578 22.9252 73.0501C23.0232 73.5425 23.2649 73.9947 23.6199 74.3497C23.9748 74.7046 24.4271 74.9464 24.9194 75.0443C25.4117 75.1422 25.9221 75.092 26.3858 74.8999C26.8496 74.7078 27.246 74.3824 27.5249 73.9651C27.8038 73.5477 27.9526 73.057 27.9526 72.555C27.9549 72.2167 27.8896 71.8813 27.7604 71.5686C27.6312 71.2559 27.4408 70.9722 27.2004 70.7342C26.96 70.4961 26.6744 70.3086 26.3605 70.1825C26.0465 70.0564 25.7105 69.9944 25.3722 70L25.4146 70.0169ZM119.662 70.0169C119.16 70.0169 118.669 70.1658 118.252 70.4447C117.834 70.7235 117.509 71.1199 117.317 71.5837C117.125 72.0475 117.074 72.5578 117.172 73.0501C117.27 73.5425 117.512 73.9947 117.867 74.3497C118.222 74.7046 118.674 74.9464 119.166 75.0443C119.659 75.1422 120.169 75.092 120.633 74.8999C121.097 74.7078 121.493 74.3824 121.772 73.9651C122.051 73.5477 122.2 73.057 122.2 72.555C122.202 72.2167 122.137 71.8813 122.007 71.5686C121.878 71.2559 121.688 70.9722 121.447 70.7342C121.207 70.4961 120.921 70.3086 120.607 70.1825C120.294 70.0564 119.958 69.9944 119.619 70L119.662 70.0169ZM119.036 64.467C119.53 64.3615 119.981 64.111 120.332 63.7475C120.683 63.384 120.917 62.9241 121.005 62.4265C121.093 61.929 121.03 61.4166 120.825 60.9548C120.62 60.4931 120.282 60.103 119.854 59.8346C119.426 59.5662 118.928 59.4316 118.423 59.4481C117.918 59.4646 117.429 59.6315 117.02 59.9273C116.61 60.2231 116.298 60.6344 116.124 61.1085C115.949 61.5827 115.92 62.0981 116.041 62.5888C116.19 63.2245 116.583 63.7761 117.136 64.1243C117.688 64.4725 118.355 64.5895 118.993 64.4501L119.036 64.467ZM117.25 50.9898C117.039 50.531 116.694 50.1458 116.262 49.8838C115.83 49.6217 115.33 49.4946 114.825 49.5187C114.32 49.5429 113.834 49.7173 113.429 50.0194C113.024 50.3216 112.718 50.7379 112.551 51.2149C112.384 51.6919 112.363 52.2079 112.491 52.6969C112.619 53.1858 112.89 53.6254 113.269 53.9593C113.649 54.2932 114.119 54.5062 114.621 54.571C115.122 54.6358 115.631 54.5495 116.083 54.3232C116.669 54.0205 117.114 53.5015 117.324 52.8761C117.534 52.2507 117.493 51.5681 117.208 50.9729L117.25 50.9898ZM107.826 41.1844C107.426 41.4931 107.127 41.9142 106.967 42.3938C106.808 42.8733 106.796 43.3895 106.932 43.8762C107.067 44.363 107.345 44.7981 107.73 45.1258C108.115 45.4535 108.588 45.659 109.091 45.7158C109.593 45.7727 110.1 45.6784 110.548 45.445C110.997 45.2116 111.365 44.8497 111.606 44.4057C111.848 43.9617 111.951 43.4557 111.903 42.9527C111.855 42.4497 111.658 41.9724 111.337 41.5821C111.133 41.3177 110.879 41.0968 110.589 40.9324C110.299 40.7679 109.979 40.6633 109.648 40.6246C109.316 40.586 108.981 40.6141 108.661 40.7074C108.34 40.8006 108.042 40.9571 107.783 41.1675L107.826 41.1844ZM99.9661 34.1201C99.6452 34.5105 99.4481 34.9877 99.4001 35.4908C99.3521 35.9938 99.4553 36.4997 99.6966 36.9437C99.9379 37.3878 100.306 37.7496 100.754 37.9831C101.203 38.2165 101.71 38.3108 102.212 38.2539C102.714 38.1971 103.188 37.9916 103.573 37.6639C103.957 37.3361 104.235 36.901 104.371 36.4143C104.507 35.9276 104.495 35.4114 104.335 34.9318C104.176 34.4523 103.877 34.0312 103.477 33.7225C103.221 33.5102 102.924 33.3514 102.605 33.2555C102.286 33.1595 101.951 33.1283 101.62 33.1638C101.289 33.1993 100.968 33.3007 100.677 33.462C100.386 33.6234 100.13 33.8414 99.9238 34.1032L99.9661 34.1201ZM91.9035 32.3096C92.3554 32.536 92.8646 32.6223 93.3659 32.5575C93.8671 32.4926 94.3376 32.2796 94.717 31.9457C95.0964 31.6118 95.3675 31.1723 95.4956 30.6833C95.6236 30.1944 95.6028 29.6784 95.4357 29.2014C95.2686 28.7244 94.9629 28.3081 94.5578 28.0059C94.1527 27.7037 93.6665 27.5294 93.1617 27.5052C92.6569 27.481 92.1563 27.6081 91.7241 27.8702C91.292 28.1323 90.9479 28.5175 90.736 28.9763C90.4617 29.5678 90.4255 30.2422 90.635 30.8597C90.8445 31.4771 91.2836 31.9903 91.8612 32.2927L91.9035 32.3096ZM82.4704 29.0102C82.9612 29.1287 83.4763 29.0982 83.9497 28.9224C84.4231 28.7467 84.8333 28.4337 85.1278 28.0236C85.4224 27.6134 85.5879 27.1248 85.6032 26.62C85.6186 26.1153 85.483 25.6175 85.2138 25.1902C84.9447 24.763 84.5542 24.4257 84.0923 24.2216C83.6305 24.0175 83.1182 23.9557 82.6211 24.0443C82.124 24.1329 81.6646 24.3678 81.3016 24.7188C80.9387 25.0699 80.6888 25.5213 80.5837 26.0152C80.4386 26.6544 80.5506 27.3249 80.8957 27.8821C81.2408 28.4393 81.7912 28.8384 82.4281 28.9932L82.4704 29.0102ZM72.5381 34.3316C72.1582 34.3316 71.7869 34.4443 71.4711 34.6553C71.1553 34.8663 70.9091 35.1663 70.7638 35.5172C70.6184 35.8681 70.5804 36.2542 70.6545 36.6268C70.7286 36.9993 70.9115 37.3415 71.1801 37.6101C71.4487 37.8787 71.7909 38.0616 72.1634 38.1357C72.5359 38.2098 72.9221 38.1718 73.273 38.0264C73.6239 37.881 73.9239 37.6349 74.1349 37.3191C74.3459 37.0033 74.4585 36.6319 74.4585 36.2521C74.4621 35.9946 74.4135 35.739 74.3158 35.5007C74.2181 35.2623 74.0732 35.0462 73.8899 34.8653C73.7066 34.6843 73.4886 34.5423 73.249 34.4477C73.0095 34.3531 72.7532 34.3079 72.4958 34.3147L72.5381 34.3316ZM66.3452 36.7343C66.2616 36.3615 66.0691 36.0219 65.7922 35.7586C65.5153 35.4953 65.1665 35.3201 64.7899 35.2554C64.4134 35.1906 64.0261 35.2391 63.6771 35.3948C63.3282 35.5505 63.0333 35.8063 62.83 36.1298C62.6266 36.4532 62.5239 36.8298 62.5348 37.2118C62.5458 37.5937 62.67 37.9638 62.8915 38.275C63.1131 38.5863 63.4222 38.8248 63.7795 38.9602C64.1368 39.0956 64.5262 39.1218 64.8985 39.0355C65.3904 38.9114 65.8136 38.5986 66.0764 38.1647C66.3393 37.7308 66.4206 37.2109 66.3029 36.7174L66.3452 36.7343ZM57.6396 41.5736C57.985 41.4123 58.2747 41.1517 58.4716 40.8252C58.6684 40.4987 58.7637 40.121 58.7451 39.7402C58.7266 39.3593 58.5951 38.9926 58.3675 38.6868C58.1398 38.381 57.8262 38.1498 57.4668 38.0228C57.1073 37.8957 56.7181 37.8786 56.3488 37.9735C55.9795 38.0685 55.6469 38.2712 55.3932 38.5558C55.1395 38.8405 54.9763 39.1942 54.9244 39.5719C54.8724 39.9496 54.9341 40.3343 55.1015 40.6768C55.3253 41.1155 55.7092 41.4515 56.1737 41.6152C56.6382 41.779 57.1478 41.758 57.5973 41.5567L57.6396 41.5736ZM51.4298 42.9695C51.193 42.6725 50.8735 42.4524 50.5116 42.337C50.1497 42.2216 49.7618 42.2161 49.3968 42.3212C49.0317 42.4262 48.7061 42.6372 48.461 42.9274C48.2159 43.2175 48.0623 43.5739 48.0197 43.9513C47.9771 44.3287 48.0474 44.7103 48.2217 45.0478C48.396 45.3853 48.6664 45.6635 48.9988 45.8473C49.3312 46.0311 49.7107 46.1122 50.0892 46.0804C50.4677 46.0485 50.8282 45.9051 51.1252 45.6684C51.3227 45.5086 51.4864 45.3111 51.6067 45.0875C51.727 44.8638 51.8016 44.6183 51.826 44.3655C51.8504 44.1127 51.8242 43.8575 51.7489 43.6149C51.6736 43.3723 51.5508 43.1472 51.3875 42.9526L51.4298 42.9695ZM45.3807 48.401C45.0834 48.1654 44.7231 48.023 44.345 47.992C43.967 47.9609 43.5882 48.0425 43.2564 48.2264C42.9247 48.4104 42.6548 48.6884 42.4809 49.0256C42.307 49.3627 42.2369 49.7437 42.2793 50.1207C42.3217 50.4976 42.4748 50.8536 42.7192 51.1436C42.9637 51.4337 43.2886 51.6449 43.6529 51.7505C44.0172 51.8561 44.4046 51.8515 44.7663 51.7372C45.128 51.6229 45.4478 51.4041 45.6853 51.1083C45.8441 50.9078 45.9613 50.6775 46.03 50.4311C46.0986 50.1846 46.1173 49.927 46.085 49.6732C46.0527 49.4194 45.97 49.1747 45.8418 48.9533C45.7136 48.7319 45.5424 48.5384 45.3384 48.3841L45.3807 48.401ZM40.6937 55.0508C40.3512 54.8833 39.9665 54.8217 39.5888 54.8736C39.2111 54.9256 38.8574 55.0888 38.5727 55.3424C38.2881 55.5961 38.0854 55.9288 37.9905 56.298C37.8955 56.6673 37.9127 57.0565 38.0397 57.416C38.1667 57.7755 38.3979 58.089 38.7037 58.3167C39.0096 58.5444 39.3763 58.6758 39.7571 58.6944C40.1379 58.7129 40.5156 58.6177 40.8422 58.4208C41.1687 58.2239 41.4292 57.9343 41.5905 57.5888C41.6972 57.3595 41.7576 57.1113 41.7681 56.8586C41.7786 56.6059 41.7391 56.3536 41.6518 56.1162C41.5646 55.8788 41.4313 55.661 41.2596 55.4752C41.0879 55.2895 40.8813 55.1395 40.6514 55.0338L40.6937 55.0508ZM37.6058 62.5719C37.2355 62.4878 36.8486 62.5153 36.494 62.6511C36.1393 62.7868 35.8329 63.0246 35.6134 63.3344C35.3939 63.6442 35.2711 64.0121 35.2606 64.3917C35.2502 64.7712 35.3524 65.1454 35.5545 65.4668C35.7566 65.7883 36.0494 66.0426 36.396 66.1977C36.7426 66.3528 37.1274 66.4016 37.5018 66.3381C37.8761 66.2745 38.2232 66.1014 38.4992 65.8407C38.7752 65.5799 38.9677 65.2432 39.0525 64.8731C39.1096 64.623 39.1162 64.364 39.072 64.1112C39.0277 63.8585 38.9335 63.6171 38.7949 63.4013C38.6562 63.1854 38.4759 62.9994 38.2644 62.8541C38.053 62.7087 37.8147 62.6071 37.5635 62.555L37.6058 62.5719ZM36.269 70.5922C35.8872 70.5905 35.5134 70.7022 35.1951 70.9132C34.8768 71.1241 34.6282 71.4248 34.4809 71.7771C34.3336 72.1294 34.2942 72.5175 34.3677 72.8922C34.4411 73.267 34.6242 73.6115 34.8936 73.8821C35.163 74.1527 35.5067 74.3373 35.8811 74.4124C36.2555 74.4875 36.6438 74.4498 36.9968 74.304C37.3497 74.1583 37.6515 73.9111 37.8638 73.5937C38.0762 73.2763 38.1895 72.903 38.1895 72.5211C38.1918 72.2635 38.1425 72.0081 38.0444 71.7699C37.9464 71.5316 37.8016 71.3154 37.6187 71.1341C37.4358 70.9527 37.2183 70.8098 36.9793 70.7138C36.7402 70.6179 36.4843 70.5708 36.2267 70.5753L36.269 70.5922ZM108.807 70.5922C108.425 70.5905 108.051 70.7022 107.733 70.9132C107.415 71.1241 107.166 71.4248 107.019 71.7771C106.872 72.1294 106.832 72.5175 106.906 72.8922C106.979 73.267 107.162 73.6115 107.432 73.8821C107.701 74.1527 108.045 74.3373 108.419 74.4124C108.794 74.4875 109.182 74.4498 109.535 74.304C109.888 74.1583 110.19 73.9111 110.402 73.5937C110.614 73.2763 110.728 72.903 110.728 72.5211C110.73 72.2635 110.681 72.0081 110.583 71.7699C110.484 71.5316 110.34 71.3154 110.157 71.1341C109.974 70.9527 109.756 70.8098 109.517 70.7138C109.278 70.6179 109.022 70.5708 108.765 70.5753L108.807 70.5922ZM108.325 66.3198C108.694 66.2336 109.03 66.04 109.289 65.7633C109.549 65.4867 109.72 65.1394 109.783 64.7653C109.845 64.3912 109.795 64.007 109.64 63.6612C109.484 63.3153 109.229 63.0233 108.908 62.822C108.586 62.6207 108.213 62.519 107.833 62.5299C107.454 62.5407 107.087 62.6636 106.778 62.883C106.468 63.1023 106.231 63.4084 106.095 63.7626C105.959 64.1167 105.932 64.5032 106.015 64.8731C106.132 65.3599 106.435 65.7819 106.858 66.049C107.282 66.316 107.793 66.4072 108.283 66.3029L108.325 66.3198ZM106.87 55.9306C106.708 55.5852 106.448 55.2955 106.121 55.0987C105.795 54.9018 105.417 54.8065 105.036 54.8251C104.655 54.8436 104.289 54.9751 103.983 55.2027C103.677 55.4304 103.446 55.744 103.319 56.1035C103.192 56.463 103.175 56.8521 103.27 57.2214C103.365 57.5907 103.567 57.9233 103.852 58.177C104.137 58.4307 104.49 58.5939 104.868 58.6458C105.246 58.6978 105.63 58.6361 105.973 58.4687C106.422 58.2443 106.767 57.8543 106.934 57.3808C107.101 56.9074 107.078 56.3874 106.87 55.9306ZM99.6193 48.3841C99.3223 48.6209 99.1021 48.9404 98.9867 49.3023C98.8713 49.6641 98.8658 50.0521 98.9709 50.4171C99.076 50.7821 99.2869 51.1078 99.5771 51.3529C99.8673 51.598 100.224 51.7516 100.601 51.7942C100.978 51.8368 101.36 51.7665 101.698 51.5922C102.035 51.4179 102.313 51.1475 102.497 50.8151C102.681 50.4826 102.762 50.1032 102.73 49.7247C102.698 49.3462 102.555 48.9857 102.318 48.6887C102.001 48.3002 101.546 48.0509 101.048 47.994C100.55 47.9371 100.049 48.0771 99.6531 48.3841H99.6193ZM96.5736 45.3469C96.8104 45.0499 96.9538 44.6893 96.9856 44.3108C97.0175 43.9323 96.9364 43.5529 96.7526 43.2205C96.5688 42.8881 96.2906 42.6176 95.9531 42.4433C95.6156 42.2691 95.234 42.1988 94.8565 42.2414C94.4791 42.284 94.1228 42.4375 93.8326 42.6826C93.5424 42.9277 93.3315 43.2534 93.2264 43.6184C93.1213 43.9834 93.1268 44.3714 93.2422 44.7333C93.3576 45.0951 93.5778 45.4147 93.8748 45.6514C94.0729 45.8139 94.3015 45.9351 94.5472 46.0079C94.7929 46.0806 95.0506 46.1035 95.3053 46.0751C95.5599 46.0467 95.8063 45.9677 96.03 45.8426C96.2536 45.7175 96.4499 45.549 96.6074 45.3469H96.5736ZM89.1032 38.0964C88.7601 37.9305 88.3754 37.8703 87.9981 37.9236C87.6207 37.977 87.2678 38.1414 86.9841 38.3959C86.7005 38.6505 86.499 38.9837 86.4053 39.3531C86.3116 39.7225 86.3299 40.1114 86.458 40.4704C86.586 40.8293 86.8179 41.1421 87.1243 41.3688C87.4306 41.5956 87.7974 41.726 88.1781 41.7436C88.5588 41.7612 88.9362 41.6652 89.2621 41.4677C89.588 41.2702 89.8479 40.9801 90.0085 40.6345C90.2232 40.1776 90.2485 39.6544 90.0789 39.1789C89.9093 38.7034 89.5586 38.3143 89.1032 38.0964ZM82.4788 37.5719C82.5629 37.2016 82.5354 36.8147 82.3997 36.4601C82.264 36.1055 82.0262 35.7991 81.7164 35.5795C81.4066 35.36 81.0386 35.2373 80.6591 35.2268C80.2795 35.2163 79.9054 35.3186 79.5839 35.5207C79.2625 35.7228 79.0081 36.0156 78.8531 36.3622C78.698 36.7088 78.6491 37.0936 78.7127 37.4679C78.7762 37.8423 78.9493 38.1894 79.2101 38.4654C79.4708 38.7414 79.8075 38.9339 80.1777 39.0186C80.6685 39.1199 81.1795 39.0253 81.6015 38.755C82.0236 38.4847 82.3232 38.0601 82.4365 37.5719H82.4788ZM72.5381 45.7445C72.27 45.7428 72.0074 45.8208 71.7837 45.9685C71.56 46.1162 71.3852 46.327 71.2815 46.5742C71.1777 46.8214 71.1497 47.0939 71.201 47.357C71.2522 47.6201 71.3805 47.8621 71.5694 48.0523C71.7584 48.2424 71.9996 48.3722 72.2624 48.4251C72.5252 48.478 72.7978 48.4517 73.0456 48.3495C73.2935 48.2473 73.5054 48.0738 73.6545 47.851C73.8036 47.6283 73.8832 47.3662 73.8832 47.0981C73.8833 46.9175 73.8472 46.7387 73.7771 46.5722C73.7069 46.4057 73.6042 46.2549 73.4749 46.1288C73.3456 46.0027 73.1923 45.9037 73.0242 45.8377C72.856 45.7717 72.6764 45.74 72.4958 45.7445H72.5381ZM66.6159 46.4213C66.3569 46.4817 66.1216 46.6175 65.9397 46.8116C65.7579 47.0056 65.6376 47.2492 65.5942 47.5116C65.5507 47.774 65.586 48.0434 65.6956 48.2857C65.8052 48.5281 65.9842 48.7324 66.2099 48.8731C66.4357 49.0137 66.698 49.0843 66.9638 49.0759C67.2297 49.0675 67.487 48.9804 67.7034 48.8258C67.9198 48.6711 68.0855 48.4558 68.1795 48.207C68.2736 47.9583 68.2918 47.6872 68.2318 47.4281C68.1908 47.2491 68.1136 47.0803 68.0049 46.9323C67.8962 46.7842 67.7583 46.66 67.5998 46.5673C67.4413 46.4746 67.2655 46.4153 67.0831 46.3931C66.9008 46.3709 66.7159 46.3862 66.5398 46.4382L66.6159 46.4213ZM62.758 49.0271C62.6427 48.7871 62.4587 48.5868 62.2295 48.4515C62.0002 48.3162 61.736 48.2519 61.4702 48.2669C61.2044 48.2818 60.949 48.3753 60.7364 48.5355C60.5237 48.6956 60.3634 48.9153 60.2757 49.1666C60.1879 49.418 60.1768 49.6897 60.2435 49.9474C60.3103 50.2051 60.4521 50.4372 60.6508 50.6143C60.8496 50.7914 61.0964 50.9055 61.3601 50.9423C61.6237 50.979 61.8924 50.9367 62.132 50.8206C62.4408 50.6537 62.6715 50.3721 62.7744 50.0365C62.8773 49.7009 62.8441 49.3384 62.6819 49.0271H62.758ZM57.7834 51.7936C57.617 51.5863 57.3929 51.4331 57.1395 51.3531C56.886 51.2731 56.6145 51.2699 56.3593 51.3441C56.1041 51.4182 55.8765 51.5663 55.7054 51.7697C55.5343 51.973 55.4272 52.2225 55.3977 52.4867C55.3682 52.7508 55.4177 53.0178 55.5397 53.2538C55.6618 53.4899 55.8511 53.6845 56.0837 53.8131C56.3163 53.9417 56.5818 53.9985 56.8467 53.9764C57.1115 53.9542 57.3639 53.8541 57.5719 53.6887C57.8388 53.4538 58.0026 53.1234 58.0279 52.7689C58.0532 52.4143 57.9381 52.0639 57.7073 51.7936H57.7834ZM53.5533 55.6091C53.3453 55.4437 53.0929 55.3436 52.8281 55.3214C52.5632 55.2993 52.2977 55.3561 52.0651 55.4847C51.8325 55.6133 51.6432 55.8079 51.5211 56.044C51.399 56.28 51.3496 56.547 51.3791 56.8111C51.4086 57.0753 51.5156 57.3248 51.6868 57.5281C51.8579 57.7315 52.0855 57.8796 52.3407 57.9537C52.5959 58.0279 52.8674 58.0247 53.1209 57.9447C53.3743 57.8647 53.5984 57.7115 53.7648 57.5042C53.8712 57.3609 53.9481 57.1978 53.9908 57.0245C54.0336 56.8511 54.0414 56.671 54.0139 56.4946C53.9863 56.3182 53.9239 56.1491 53.8303 55.9971C53.7367 55.8451 53.6138 55.7132 53.4687 55.6091H53.5533ZM50.1861 60.2623C49.8641 60.1074 49.4938 60.0869 49.1567 60.2051C48.8195 60.3233 48.5431 60.5706 48.3883 60.8926C48.2335 61.2145 48.2129 61.5848 48.3311 61.922C48.4493 62.2591 48.6966 62.5355 49.0186 62.6904C49.178 62.767 49.351 62.8115 49.5276 62.8213C49.7043 62.8311 49.8811 62.8061 50.048 62.7475C50.215 62.689 50.3688 62.5982 50.5006 62.4802C50.6324 62.3623 50.7398 62.2195 50.8164 62.0601C50.8931 61.9006 50.9376 61.7277 50.9474 61.551C50.9572 61.3744 50.9321 61.1976 50.8736 61.0306C50.8151 60.8637 50.7242 60.7099 50.6063 60.5781C50.4883 60.4462 50.3456 60.3389 50.1861 60.2623ZM48.0203 65.533C47.7611 65.4747 47.4904 65.4944 47.2424 65.5897C46.9944 65.6851 46.7802 65.8517 46.6268 66.0686C46.4734 66.2855 46.3876 66.543 46.3804 66.8086C46.3731 67.0742 46.4447 67.336 46.586 67.561C46.7274 67.786 46.9322 67.964 47.1746 68.0728C47.417 68.1815 47.6862 68.216 47.9482 68.1719C48.2102 68.1278 48.4533 68.0071 48.6468 67.8251C48.8403 67.643 48.9756 67.4077 49.0355 67.1489C49.0756 66.9761 49.081 66.7971 49.0516 66.6222C49.0222 66.4473 48.9584 66.2799 48.8641 66.1297C48.7697 65.9796 48.6466 65.8495 48.5018 65.7471C48.357 65.6447 48.1933 65.5719 48.0203 65.533ZM47.0897 71.1506C46.9035 71.1358 46.7163 71.1598 46.5398 71.2209C46.3633 71.282 46.2014 71.379 46.0642 71.5057C45.927 71.6325 45.8175 71.7862 45.7426 71.9574C45.6678 72.1285 45.6291 72.3132 45.6291 72.5C45.6291 72.6868 45.6678 72.8715 45.7426 73.0426C45.8175 73.2137 45.927 73.3675 46.0642 73.4942C46.2014 73.621 46.3633 73.718 46.5398 73.7791C46.7163 73.8402 46.9035 73.8642 47.0897 73.8494C47.4291 73.8225 47.7459 73.6687 47.977 73.4186C48.2081 73.1685 48.3364 72.8405 48.3364 72.5C48.3364 72.1595 48.2081 71.8315 47.977 71.5814C47.7459 71.3313 47.4291 71.1775 47.0897 71.1506ZM97.9018 71.1506C97.6338 71.1489 97.3712 71.2269 97.1475 71.3746C96.9238 71.5223 96.749 71.7331 96.6452 71.9803C96.5415 72.2275 96.5135 72.4999 96.5647 72.7631C96.616 73.0262 96.7443 73.2682 96.9332 73.4584C97.1222 73.6485 97.3634 73.7783 97.6262 73.8312C97.889 73.8841 98.1616 73.8578 98.4094 73.7556C98.6573 73.6534 98.8692 73.4799 99.0183 73.2571C99.1674 73.0343 99.247 72.7723 99.247 72.5042C99.247 72.1467 99.1056 71.8036 98.8536 71.55C98.6015 71.2964 98.2594 71.1528 97.9018 71.1506ZM97.5634 68.1641C97.825 68.1053 98.0632 67.9701 98.2478 67.7757C98.4324 67.5813 98.5551 67.3365 98.6004 67.0723C98.6458 66.808 98.6116 66.5363 98.5023 66.2915C98.3929 66.0467 98.2134 65.8399 97.9864 65.6973C97.7594 65.5547 97.4952 65.4827 97.2272 65.4904C96.9592 65.4982 96.6996 65.5853 96.4812 65.7408C96.2628 65.8963 96.0955 66.1131 96.0005 66.3638C95.9055 66.6145 95.8871 66.8877 95.9475 67.1489C96.0282 67.4972 96.2434 67.7995 96.5462 67.9897C96.8489 68.1799 97.2146 68.2426 97.5634 68.1641ZM96.599 60.8968C96.4836 60.6569 96.2997 60.4566 96.0704 60.3212C95.8412 60.1859 95.5769 60.1217 95.3111 60.1366C95.0453 60.1515 94.79 60.245 94.5773 60.4052C94.3647 60.5653 94.2043 60.785 94.1166 61.0363C94.0289 61.2877 94.0177 61.5594 94.0845 61.8171C94.1513 62.0748 94.293 62.3069 94.4918 62.484C94.6905 62.6611 94.9374 62.7752 95.201 62.812C95.4647 62.8487 95.7333 62.8064 95.9729 62.6904C96.2934 62.5351 96.5393 62.2592 96.6567 61.923C96.774 61.5867 96.7533 61.2177 96.599 60.8968ZM91.5228 55.6091C91.3156 55.7755 91.1623 55.9996 91.0823 56.2531C91.0023 56.5065 90.9992 56.778 91.0734 57.0332C91.1475 57.2885 91.2956 57.516 91.4989 57.6872C91.7023 57.8583 91.9518 57.9654 92.2159 57.9948C92.4801 58.0243 92.747 57.9749 92.9831 57.8528C93.2192 57.7307 93.4138 57.5414 93.5424 57.3088C93.671 57.0762 93.7278 56.8107 93.7056 56.5459C93.6835 56.281 93.5834 56.0286 93.4179 55.8206C93.3069 55.6817 93.1695 55.566 93.0137 55.4802C92.858 55.3943 92.6868 55.34 92.51 55.3204C92.3332 55.3007 92.1543 55.3161 91.9834 55.3657C91.8126 55.4152 91.6532 55.4979 91.5144 55.6091H91.5228ZM89.1878 51.5821C88.9798 51.4166 88.7274 51.3165 88.4626 51.2944C88.1977 51.2722 87.9322 51.329 87.6996 51.4576C87.467 51.5862 87.2777 51.7808 87.1556 52.0169C87.0335 52.253 86.9841 52.5199 87.0136 52.7841C87.0431 53.0482 87.1502 53.2977 87.3213 53.501C87.4924 53.7044 87.72 53.8525 87.9752 53.9266C88.2304 54.0008 88.5019 53.9977 88.7554 53.9177C89.0088 53.8377 89.2329 53.6844 89.3993 53.4772C89.6203 53.1962 89.7211 52.8393 89.6799 52.4843C89.6387 52.1292 89.4588 51.8049 89.1793 51.5821H89.1878ZM84.1117 48.401C83.8721 48.285 83.6034 48.2427 83.3398 48.2794C83.0761 48.3161 82.8293 48.4303 82.6305 48.6074C82.4318 48.7845 82.29 49.0166 82.2232 49.2743C82.1564 49.532 82.1676 49.8037 82.2554 50.055C82.3431 50.3064 82.5034 50.526 82.7161 50.6862C82.9287 50.8463 83.1841 50.9398 83.4499 50.9548C83.7157 50.9697 83.9799 50.9055 84.2092 50.7701C84.4384 50.6348 84.6224 50.4345 84.7377 50.1946C84.8138 50.0352 84.8578 49.8623 84.8671 49.6859C84.8764 49.5094 84.8509 49.3329 84.792 49.1664C84.733 48.9998 84.6419 48.8465 84.5237 48.7152C84.4055 48.5839 84.2626 48.4771 84.1032 48.401H84.1117ZM79.467 48.0288C79.5258 47.7692 79.5062 47.4981 79.4109 47.2496C79.3155 47.0012 79.1486 46.7866 78.9312 46.633C78.7139 46.4795 78.4559 46.3938 78.1899 46.3869C77.9238 46.3801 77.6617 46.4522 77.4367 46.5943C77.2117 46.7364 77.0339 46.9421 76.9258 47.1853C76.8177 47.4284 76.7842 47.6982 76.8295 47.9605C76.8747 48.2227 76.9968 48.4656 77.1801 48.6585C77.3635 48.8514 77.5999 48.9855 77.8596 49.044C78.0312 49.0827 78.2088 49.0871 78.3822 49.057C78.5556 49.0268 78.7213 48.9628 78.8699 48.8684C79.0184 48.7741 79.1469 48.6514 79.2479 48.5073C79.349 48.3632 79.4205 48.2006 79.4585 48.0288H79.467ZM72.5042 57.1827C72.352 57.1827 72.2031 57.2279 72.0765 57.3125C71.9499 57.3971 71.8512 57.5173 71.7929 57.658C71.7347 57.7987 71.7194 57.9535 71.7491 58.1028C71.7788 58.2522 71.8522 58.3893 71.9598 58.497C72.0675 58.6047 72.2047 58.678 72.354 58.7077C72.5034 58.7374 72.6582 58.7222 72.7988 58.6639C72.9395 58.6056 73.0598 58.5069 73.1444 58.3803C73.229 58.2537 73.2741 58.1049 73.2741 57.9526C73.2741 57.8508 73.2539 57.75 73.2147 57.656C73.1755 57.5621 73.118 57.4768 73.0456 57.4052C72.9732 57.3336 72.8874 57.2771 72.793 57.2389C72.6986 57.2007 72.5976 57.1816 72.4958 57.1827H72.5042ZM69.1201 57.5634C68.9195 57.6098 68.7455 57.7338 68.6361 57.9082C68.5266 58.0826 68.4908 58.2933 68.5364 58.4941C68.5716 58.6416 68.6496 58.7755 68.7606 58.8788C68.8716 58.9822 69.0106 59.0505 69.1603 59.0751C69.31 59.0997 69.4636 59.0796 69.6018 59.0172C69.7401 58.9548 69.8568 58.853 69.9374 58.7245C70.018 58.596 70.0589 58.4466 70.0549 58.295C70.0508 58.1433 70.0021 57.9963 69.9148 57.8723C69.8275 57.7482 69.7055 57.6528 69.5641 57.5978C69.4227 57.5429 69.2683 57.5309 69.1201 57.5634ZM65.8799 58.6971C65.7432 58.7634 65.6292 58.8687 65.5522 58.9997C65.4752 59.1307 65.4387 59.2815 65.4473 59.4332C65.4558 59.5849 65.5091 59.7306 65.6003 59.8521C65.6916 59.9736 65.8167 60.0654 65.96 60.1159C66.1033 60.1664 66.2583 60.1734 66.4056 60.1359C66.5528 60.0985 66.6857 60.0184 66.7875 59.9056C66.8893 59.7928 66.9554 59.6524 66.9776 59.5021C66.9997 59.3518 66.9769 59.1983 66.912 59.0609C66.8678 58.9653 66.8047 58.8797 66.7265 58.8092C66.6482 58.7387 66.5565 58.6849 66.4569 58.6509C66.3572 58.6168 66.2517 58.6034 66.1467 58.6114C66.0417 58.6193 65.9394 58.6485 65.846 58.6971H65.8799ZM62.978 60.5245C62.8984 60.5872 62.832 60.665 62.7826 60.7534C62.7331 60.8418 62.7016 60.939 62.6898 61.0396C62.678 61.1402 62.6862 61.2422 62.7139 61.3396C62.7416 61.437 62.7882 61.5281 62.8511 61.6074C62.9456 61.7267 63.0734 61.8153 63.2182 61.862C63.363 61.9087 63.5184 61.9114 63.6648 61.8698C63.8112 61.8283 63.942 61.7442 64.0406 61.6284C64.1393 61.5125 64.2014 61.37 64.2191 61.2189C64.2368 61.0677 64.2094 60.9147 64.1402 60.7792C64.071 60.6437 63.9632 60.5317 63.8303 60.4574C63.6975 60.3831 63.5457 60.3498 63.394 60.3618C63.2423 60.3737 63.0975 60.4303 62.978 60.5245ZM60.5499 62.9526C60.4557 63.0722 60.3991 63.2169 60.3871 63.3686C60.3752 63.5203 60.4085 63.6722 60.4827 63.805C60.557 63.9378 60.669 64.0456 60.8046 64.1148C60.9401 64.184 61.0931 64.2114 61.2442 64.1937C61.3954 64.176 61.5379 64.1139 61.6538 64.0153C61.7696 63.9166 61.8536 63.7858 61.8952 63.6394C61.9368 63.4931 61.9341 63.3376 61.8874 63.1928C61.8407 63.048 61.7521 62.9202 61.6328 62.8257C61.5526 62.7574 61.4592 62.7063 61.3584 62.6756C61.2576 62.6449 61.1516 62.6352 61.0469 62.6471C60.9422 62.659 60.8411 62.6922 60.7498 62.7448C60.6585 62.7973 60.5789 62.8681 60.5161 62.9526H60.5499ZM59.7546 65.4907C59.5695 65.4021 59.3568 65.3906 59.1632 65.4588C58.9697 65.527 58.8111 65.6694 58.7225 65.8545C58.6339 66.0396 58.6224 66.2523 58.6906 66.4459C58.7589 66.6395 58.9012 66.798 59.0863 66.8866C59.1779 66.9305 59.2774 66.9559 59.3788 66.9614C59.4803 66.9669 59.5819 66.9523 59.6777 66.9185C59.7736 66.8847 59.8618 66.8324 59.9374 66.7645C60.013 66.6966 60.0746 66.6145 60.1184 66.5228C60.1623 66.4312 60.1877 66.3318 60.1932 66.2303C60.1987 66.1288 60.1841 66.0273 60.1503 65.9314C60.1165 65.8356 60.0642 65.7473 59.9963 65.6717C59.9284 65.5961 59.8463 65.5346 59.7546 65.4907ZM58.5195 68.511C58.3188 68.4677 58.1093 68.5045 57.9354 68.6136C57.7615 68.7226 57.6372 68.8953 57.5888 69.0947C57.5563 69.2429 57.5683 69.3973 57.6232 69.5387C57.6781 69.6801 57.7736 69.8021 57.8976 69.8894C58.0217 69.9767 58.1687 70.0254 58.3204 70.0295C58.472 70.0335 58.6214 69.9926 58.7499 69.912C58.8784 69.8314 58.9802 69.7147 59.0426 69.5764C59.1049 69.4382 59.1251 69.2846 59.1005 69.1349C59.0759 68.9852 59.0076 68.8462 58.9042 68.7352C58.8008 68.6242 58.667 68.5462 58.5195 68.511ZM57.978 71.7343C57.8257 71.7343 57.6769 71.7795 57.5503 71.8641C57.4237 71.9487 57.325 72.0689 57.2667 72.2096C57.2085 72.3503 57.1932 72.5051 57.2229 72.6544C57.2526 72.8038 57.3259 72.9409 57.4336 73.0486C57.5413 73.1563 57.6785 73.2296 57.8278 73.2593C57.9771 73.289 58.1319 73.2738 58.2726 73.2155C58.4133 73.1572 58.5335 73.0586 58.6181 72.9319C58.7027 72.8053 58.7479 72.6565 58.7479 72.5042C58.748 72.4002 58.727 72.2973 58.6862 72.2016C58.6454 72.1059 58.5857 72.0195 58.5106 71.9475C58.4354 71.8756 58.3465 71.8196 58.2492 71.7829C58.1518 71.7463 58.0481 71.7298 57.9442 71.7343H57.978ZM87.0728 71.7343C86.9209 71.736 86.7728 71.7826 86.6474 71.8682C86.5219 71.9538 86.4245 72.0746 86.3675 72.2154C86.3106 72.3562 86.2965 72.5108 86.3272 72.6595C86.3578 72.8083 86.4318 72.9447 86.5398 73.0515C86.6478 73.1584 86.785 73.2308 86.9341 73.2599C87.0832 73.2889 87.2376 73.2732 87.3778 73.2147C87.5179 73.1561 87.6377 73.0575 87.7219 72.9311C87.8061 72.8046 87.8511 72.6561 87.8511 72.5042C87.8513 72.3995 87.83 72.2958 87.7887 72.1995C87.7474 72.1032 87.6869 72.0164 87.6109 71.9443C87.5348 71.8722 87.4449 71.8165 87.3465 71.7803C87.2482 71.7442 87.1435 71.7286 87.0389 71.7343H87.0728ZM86.8866 70.0423C87.0342 70.0071 87.168 69.9291 87.2714 69.8181C87.3747 69.7071 87.443 69.568 87.4676 69.4184C87.4923 69.2687 87.4721 69.1151 87.4098 68.9768C87.3474 68.8386 87.2456 68.7218 87.1171 68.6412C86.9886 68.5606 86.8391 68.5198 86.6875 68.5238C86.5359 68.5278 86.3888 68.5766 86.2648 68.6639C86.1408 68.7512 86.0453 68.8732 85.9904 69.0146C85.9354 69.1559 85.9235 69.3104 85.956 69.4585C86.0078 69.6474 86.1289 69.8097 86.2952 69.9132C86.4614 70.0166 86.6605 70.0537 86.8528 70.0169L86.8866 70.0423ZM86.3283 65.8799C86.2612 65.7433 86.1552 65.6297 86.0237 65.5534C85.8922 65.477 85.7409 65.4413 85.5891 65.4508C85.4373 65.4603 85.2917 65.5145 85.1707 65.6067C85.0497 65.6988 84.9587 65.8248 84.9092 65.9686C84.8597 66.1124 84.8539 66.2677 84.8926 66.4148C84.9312 66.5619 85.0125 66.6942 85.1263 66.7952C85.2401 66.8961 85.3813 66.961 85.5319 66.9818C85.6826 67.0026 85.836 66.9783 85.9729 66.912C86.1455 66.8153 86.2747 66.6565 86.3345 66.468C86.3942 66.2794 86.3798 66.0752 86.2944 65.8968L86.3283 65.8799ZM83.4179 62.8511C83.2999 62.9463 83.2126 63.0743 83.167 63.219C83.1214 63.3636 83.1196 63.5185 83.1617 63.6642C83.2039 63.8099 83.2881 63.9399 83.4039 64.0379C83.5196 64.1359 83.6617 64.1975 83.8124 64.215C83.963 64.2326 84.1155 64.2052 84.2507 64.1364C84.3858 64.0675 84.4976 63.9603 84.5721 63.8282C84.6465 63.6961 84.6803 63.5449 84.6691 63.3936C84.6579 63.2424 84.6023 63.0978 84.5093 62.978C84.4476 62.8913 84.3687 62.8182 84.2776 62.7632C84.1865 62.7082 84.0851 62.6724 83.9797 62.6582C83.8742 62.6439 83.767 62.6514 83.6645 62.6802C83.5621 62.709 83.4666 62.7586 83.3841 62.8257L83.4179 62.8511ZM80.9983 60.6684C80.8698 60.829 80.8102 61.034 80.8324 61.2385C80.8545 61.443 80.9568 61.6304 81.1167 61.7597C81.2358 61.8538 81.3799 61.9107 81.5311 61.9231C81.6824 61.9355 81.8339 61.903 81.9667 61.8296C82.0995 61.7562 82.2076 61.6452 82.2775 61.5105C82.3474 61.3759 82.376 61.2236 82.3596 61.0727C82.3432 60.9219 82.2827 60.7793 82.1855 60.6627C82.0883 60.5462 81.9589 60.461 81.8134 60.4178C81.668 60.3746 81.513 60.3753 81.368 60.4199C81.223 60.4645 81.0944 60.5509 80.9983 60.6684ZM79.1709 58.7225C79.0799 58.6782 78.9811 58.6526 78.8801 58.6469C78.7791 58.6413 78.678 58.6558 78.5827 58.6897C78.4874 58.7236 78.3998 58.7761 78.3251 58.8442C78.2503 58.9123 78.1898 58.9946 78.1472 59.0863C78.0592 59.2705 78.0471 59.482 78.1136 59.6751C78.1801 59.8682 78.3198 60.0274 78.5025 60.1184C78.6881 60.2036 78.8996 60.2133 79.0922 60.1454C79.2848 60.0775 79.4435 59.9374 79.5347 59.7547C79.5822 59.6598 79.6096 59.5561 79.6151 59.4502C79.6206 59.3443 79.6042 59.2383 79.5669 59.139C79.5296 59.0397 79.4721 58.9492 79.3981 58.8732C79.3242 58.7971 79.2353 58.7372 79.1371 58.6971L79.1709 58.7225ZM75.9391 57.5888C75.8402 57.5663 75.7378 57.5636 75.6379 57.5808C75.5379 57.598 75.4424 57.6348 75.3567 57.6891C75.271 57.7433 75.1969 57.814 75.1386 57.8969C75.0802 57.9799 75.0389 58.0736 75.0169 58.1726C74.9873 58.2732 74.9785 58.3788 74.9912 58.483C75.0039 58.5871 75.0377 58.6876 75.0906 58.7782C75.1435 58.8688 75.2143 58.9476 75.2988 59.0098C75.3832 59.0721 75.4795 59.1164 75.5817 59.14C75.6839 59.1637 75.7899 59.1663 75.8931 59.1475C75.9963 59.1287 76.0946 59.0891 76.1819 59.031C76.2693 58.9729 76.3438 58.8975 76.401 58.8095C76.4582 58.7216 76.4967 58.6229 76.5144 58.5195C76.5418 58.4165 76.5475 58.309 76.5312 58.2037C76.5149 58.0984 76.4769 57.9976 76.4197 57.9077C76.3624 57.8179 76.2871 57.7409 76.1986 57.6816C76.11 57.6223 76.0101 57.5821 75.9052 57.5634L75.9391 57.5888Z"/>
</mask>
<path d="M68.8409 3.65482C68.8409 2.93197 69.0553 2.22535 69.4569 1.62431C69.8585 1.02328 70.4293 0.554834 71.0971 0.278209C71.765 0.00158454 72.4998 -0.0707944 73.2088 0.0702277C73.9178 0.21125 74.569 0.559336 75.0801 1.07047C75.5912 1.58161 75.9393 2.23284 76.0804 2.9418C76.2214 3.65077 76.149 4.38563 75.8724 5.05346C75.5958 5.72129 75.1273 6.2921 74.5263 6.6937C73.9252 7.09529 73.2186 7.30964 72.4958 7.30964C71.5264 7.30964 70.5968 6.92459 69.9114 6.23917C69.226 5.55376 68.8409 4.62414 68.8409 3.65482ZM57.9865 8.94247C58.6887 8.78095 59.3274 8.41497 59.8218 7.89074C60.3162 7.36652 60.6442 6.70755 60.7644 5.99705C60.8846 5.28654 60.7916 4.55635 60.4971 3.89867C60.2026 3.241 59.7198 2.68533 59.1097 2.30183C58.4997 1.91832 57.7896 1.72417 57.0693 1.74389C56.349 1.76362 55.6507 1.99633 55.0625 2.41265C54.4743 2.82897 54.0227 3.41023 53.7646 4.08304C53.5066 4.75584 53.4536 5.49003 53.6125 6.19289C53.8283 7.13731 54.4102 7.9574 55.2304 8.47298C56.0506 8.98855 57.0419 9.15742 57.9865 8.94247ZM44.2047 13.7648C44.8564 13.4506 45.4002 12.9501 45.7672 12.3266C46.1342 11.7032 46.3079 10.9848 46.2663 10.2625C46.2247 9.54024 45.9697 8.84656 45.5336 8.26933C45.0975 7.6921 44.4998 7.2573 43.8164 7.01999C43.1329 6.78269 42.3944 6.75355 41.6944 6.93628C40.9944 7.11901 40.3644 7.50539 39.8841 8.04647C39.4039 8.58755 39.095 9.25899 38.9967 9.97574C38.8983 10.6925 39.0149 11.4223 39.3316 12.0728C39.7549 12.942 40.5054 13.6081 41.4187 13.9252C42.3321 14.2423 43.3338 14.1847 44.2047 13.7648ZM31.8443 21.5313C32.4106 21.081 32.8304 20.4729 33.0508 19.7838C33.2711 19.0947 33.282 18.3558 33.0821 17.6605C32.8821 16.9653 32.4803 16.345 31.9276 15.8783C31.3749 15.4115 30.6961 15.1193 29.9772 15.0386C29.2582 14.958 28.5315 15.0925 27.8891 15.4251C27.2467 15.7577 26.7174 16.2735 26.3684 16.9072C26.0193 17.5408 25.8661 18.2638 25.9283 18.9846C25.9904 19.7053 26.2651 20.3914 26.7174 20.956C27.0162 21.3306 27.3858 21.6427 27.8052 21.8743C28.2246 22.106 28.6855 22.2527 29.1617 22.3062C29.6378 22.3596 30.1198 22.3187 30.5801 22.1857C31.0404 22.0527 31.47 21.8304 31.8443 21.5313ZM16.3959 32.4281C16.9604 32.8766 17.6452 33.1477 18.3638 33.2071C19.0823 33.2665 19.8023 33.1116 20.4328 32.7619C21.0633 32.4122 21.576 31.8834 21.9061 31.2424C22.2361 30.6014 22.3688 29.877 22.2872 29.1606C22.2056 28.4443 21.9135 27.7682 21.4478 27.2178C20.9821 26.6674 20.3637 26.2674 19.6707 26.0684C18.9777 25.8694 18.2413 25.8803 17.5545 26.0997C16.8677 26.3192 16.2614 26.7373 15.8122 27.3012C15.5136 27.676 15.2918 28.1061 15.1595 28.5667C15.0272 29.0273 14.9871 29.5095 15.0413 29.9856C15.0955 30.4618 15.243 30.9226 15.4755 31.3417C15.7079 31.7608 16.0207 32.13 16.3959 32.4281ZM13.7563 44.2132C14.0705 43.5642 14.1853 42.8366 14.086 42.1224C13.9867 41.4081 13.6779 40.7394 13.1986 40.2007C12.7194 39.6619 12.0911 39.2774 11.3933 39.0957C10.6955 38.9139 9.95948 38.9432 9.2783 39.1797C8.59712 39.4162 8.00136 39.8494 7.56633 40.4245C7.1313 40.9995 6.87655 41.6907 6.83426 42.4105C6.79198 43.1304 6.96407 43.8466 7.32878 44.4686C7.69349 45.0906 8.23444 45.5906 8.88325 45.9052C9.7545 46.3228 10.7554 46.3793 11.6681 46.0624C12.5808 45.7455 13.3314 45.0808 13.7563 44.2132ZM6.19289 53.621C5.48807 53.4599 4.75131 53.5115 4.07582 53.7693C3.40032 54.027 2.81645 54.4793 2.39807 55.069C1.97968 55.6586 1.74557 56.3591 1.72536 57.0818C1.70515 57.8045 1.89974 58.517 2.28452 59.1291C2.66931 59.7412 3.22699 60.2254 3.88702 60.5205C4.54705 60.8156 5.27977 60.9083 5.9925 60.7869C6.70523 60.6655 7.36593 60.3354 7.89104 59.8384C8.41614 59.3414 8.78205 58.6999 8.94247 57.9949C9.05006 57.5271 9.06423 57.0427 8.98418 56.5694C8.90412 56.0962 8.73141 55.6434 8.47596 55.237C8.2205 54.8306 7.88732 54.4787 7.49554 54.2014C7.10376 53.924 6.66108 53.7268 6.19289 53.621ZM3.65482 68.8494C2.93197 68.8494 2.22535 69.0638 1.62431 69.4653C1.02328 69.8669 0.554832 70.4378 0.278207 71.1056C0.00158215 71.7734 -0.0707936 72.5083 0.0702285 73.2172C0.211251 73.9262 0.559337 74.5774 1.07047 75.0886C1.58161 75.5997 2.23284 75.9478 2.9418 76.0888C3.65077 76.2298 4.38563 76.1575 5.05346 75.8808C5.72129 75.6042 6.2921 75.1358 6.6937 74.5347C7.09529 73.9337 7.30965 73.2271 7.30965 72.5042C7.31076 72.024 7.21699 71.5482 7.03371 71.1043C6.85044 70.6603 6.58126 70.257 6.24166 69.9174C5.90206 69.5778 5.49871 69.3086 5.05478 69.1253C4.61085 68.9421 4.13509 68.8483 3.65482 68.8494ZM141.345 68.8494C140.622 68.8494 139.916 69.0638 139.315 69.4653C138.714 69.8669 138.245 70.4378 137.969 71.1056C137.692 71.7734 137.62 72.5083 137.761 73.2172C137.902 73.9262 138.25 74.5774 138.761 75.0886C139.272 75.5997 139.923 75.9478 140.632 76.0888C141.341 76.2298 142.076 76.1575 142.744 75.8808C143.412 75.6042 143.982 75.1358 144.384 74.5347C144.786 73.9337 145 73.2271 145 72.5042C145.001 72.0232 144.907 71.5468 144.723 71.1023C144.539 70.6578 144.27 70.2541 143.929 69.9144C143.589 69.5747 143.184 69.3057 142.739 69.1229C142.294 68.9401 141.818 68.8472 141.337 68.8494H141.345ZM140.431 60.7445C141.137 60.5856 141.78 60.2208 142.278 59.6963C142.776 59.1719 143.108 58.5113 143.231 57.7983C143.353 57.0854 143.261 56.3521 142.967 55.6913C142.672 55.0305 142.189 54.472 141.576 54.0864C140.964 53.7009 140.251 53.5057 139.528 53.5255C138.805 53.5453 138.104 53.7794 137.514 54.1979C136.924 54.6164 136.471 55.2006 136.214 55.8766C135.956 56.5525 135.904 57.2898 136.066 57.9949C136.282 58.9357 136.861 59.7528 137.678 60.268C138.494 60.7831 139.481 60.9544 140.423 60.7445H140.431ZM137.817 41.0491C137.503 40.4003 137.003 39.8593 136.381 39.4946C135.759 39.1299 135.042 38.9578 134.323 39.0001C133.603 39.0424 132.912 39.2971 132.336 39.7321C131.761 40.1672 131.328 40.7629 131.092 41.4441C130.855 42.1253 130.826 42.8613 131.008 43.5591C131.189 44.2569 131.574 44.8852 132.113 45.3645C132.651 45.8437 133.32 46.1525 134.034 46.2518C134.749 46.3511 135.476 46.2364 136.125 45.9222C136.993 45.4974 137.657 44.7462 137.973 43.8331C138.288 42.9199 138.229 41.9189 137.809 41.0491H137.817ZM128.604 32.4281C129.167 31.978 129.585 31.371 129.803 30.6839C130.021 29.9967 130.031 29.2602 129.831 28.5675C129.631 27.8748 129.23 27.2569 128.679 26.792C128.128 26.3271 127.451 26.0361 126.735 25.9557C126.018 25.8753 125.294 26.0091 124.653 26.3403C124.013 26.6715 123.485 27.1851 123.136 27.8162C122.788 28.4474 122.634 29.1677 122.695 29.8862C122.755 30.6047 123.028 31.2891 123.477 31.8528C124.08 32.6068 124.958 33.0909 125.917 33.1987C126.877 33.3066 127.84 33.0294 128.596 32.4281H128.604ZM113.139 21.5313C113.703 21.9837 114.389 22.2583 115.11 22.3204C115.831 22.3826 116.554 22.2294 117.188 21.8804C117.821 21.5313 118.337 21.002 118.67 20.3596C119.002 19.7172 119.137 18.9905 119.056 18.2716C118.975 17.5527 118.683 16.8738 118.217 16.3211C117.75 15.7684 117.129 15.3666 116.434 15.1667C115.739 14.9667 115 14.9776 114.311 15.1979C113.622 15.4183 113.014 15.8382 112.563 16.4044C111.962 17.1612 111.684 18.1258 111.792 19.0867C111.9 20.0476 112.384 20.9267 113.139 21.5313ZM100.778 13.7648C101.429 14.0816 102.159 14.1981 102.875 14.0998C103.592 14.0014 104.264 13.6926 104.805 13.2123C105.346 12.7321 105.732 12.102 105.915 11.402C106.098 10.702 106.068 9.96351 105.831 9.28007C105.594 8.59663 105.159 7.99898 104.582 7.56285C104.005 7.12671 103.311 6.8717 102.589 6.83011C101.866 6.78852 101.148 6.96223 100.524 7.32923C99.901 7.69624 99.4005 8.24002 99.0863 8.89171C98.6664 9.76261 98.6087 10.7644 98.9259 11.6777C99.243 12.591 99.9091 13.3415 100.778 13.7648ZM88.6294 1.82741C87.9263 1.66641 87.1913 1.71756 86.5172 1.97439C85.8432 2.23121 85.2605 2.68217 84.8428 3.27023C84.4251 3.85828 84.1912 4.55701 84.1707 5.27802C84.1501 5.99904 84.3439 6.70993 84.7275 7.3208C85.1111 7.93166 85.6672 8.41505 86.3255 8.7098C86.9838 9.00455 87.7148 9.09743 88.4259 8.97669C89.137 8.85595 89.7964 8.52702 90.3205 8.03149C90.8447 7.53597 91.2101 6.89613 91.3705 6.19289C91.5856 5.25053 91.4176 4.26135 90.9036 3.44276C90.3896 2.62417 89.5716 2.04316 88.6294 1.82741ZM72.4958 11.4382C71.8863 11.4366 71.2901 11.6158 70.7826 11.9531C70.275 12.2905 69.879 12.7708 69.6446 13.3334C69.4102 13.896 69.3481 14.5154 69.4659 15.1133C69.5838 15.7113 69.8764 16.2608 70.3068 16.6923C70.7371 17.1238 71.2858 17.418 71.8834 17.5375C72.481 17.657 73.1006 17.5965 73.6638 17.3637C74.227 17.1308 74.7085 16.7361 75.0472 16.2295C75.386 15.7229 75.5668 15.1272 75.5668 14.5178C75.5668 13.7025 75.2435 12.9205 74.6679 12.3432C74.0922 11.7659 73.311 11.4405 72.4958 11.4382ZM58.9086 12.9695C58.3142 13.1037 57.7729 13.4113 57.3533 13.8532C56.9337 14.2952 56.6547 14.8517 56.5515 15.4523C56.4484 16.0529 56.5258 16.6707 56.7739 17.2273C57.022 17.7839 57.4297 18.2544 57.9454 18.5792C58.461 18.904 59.0614 19.0685 59.6706 19.0519C60.2798 19.0353 60.8704 18.8383 61.3675 18.4858C61.8647 18.1334 62.2461 17.6414 62.4636 17.0721C62.681 16.5028 62.7246 15.8818 62.5888 15.2876C62.4052 14.4939 61.9154 13.8049 61.2261 13.3707C60.5368 12.9366 59.7038 12.7923 58.9086 12.9695ZM44.5262 21.5905C44.7907 22.1372 45.2113 22.5932 45.7348 22.9009C46.2584 23.2085 46.8614 23.3541 47.4677 23.3191C48.074 23.2841 48.6563 23.0702 49.141 22.7043C49.6257 22.3385 49.991 21.8371 50.1908 21.2637C50.3907 20.6902 50.416 20.0704 50.2636 19.4825C50.1112 18.8947 49.788 18.3652 49.3347 17.961C48.8815 17.5569 48.3186 17.2961 47.7172 17.2118C47.1158 17.1275 46.5029 17.2234 45.956 17.4873C45.2295 17.8491 44.6757 18.4838 44.4157 19.2527C44.1557 20.0215 44.2107 20.862 44.5685 21.5905H44.5262ZM38.2149 29.5685C38.6884 29.1888 39.0388 28.6773 39.2218 28.0985C39.4048 27.5198 39.4122 26.8998 39.2431 26.3168C39.0739 25.7339 38.7358 25.2142 38.2715 24.8232C37.8071 24.4323 37.2374 24.1878 36.6341 24.1205C36.0309 24.0532 35.4212 24.1662 34.8821 24.4452C34.3431 24.7242 33.8987 25.1566 33.6053 25.688C33.3119 26.2193 33.1825 26.8257 33.2334 27.4305C33.2844 28.0354 33.5135 28.6116 33.8917 29.0863C34.1439 29.4085 34.4579 29.6771 34.8153 29.8762C35.1727 30.0754 35.5663 30.2011 35.973 30.246C36.3797 30.291 36.7912 30.2542 37.1835 30.1378C37.5757 30.0215 37.9408 29.8279 38.2572 29.5685H38.2149ZM25.2453 38.7563C25.7217 39.1363 26.3 39.3664 26.9072 39.4176C27.5144 39.4687 28.1231 39.3386 28.6563 39.0437C29.1895 38.7488 29.6232 38.3023 29.9025 37.7608C30.1819 37.2193 30.2943 36.6071 30.2256 36.0016C30.1569 35.3962 29.9101 34.8248 29.5165 34.3596C29.1229 33.8945 28.6001 33.5566 28.0144 33.3887C27.4287 33.2207 26.8063 33.2304 26.226 33.4163C25.6458 33.6022 25.1337 33.9561 24.7547 34.4332C24.5023 34.7489 24.3148 35.1115 24.2029 35.4999C24.0909 35.8883 24.0568 36.295 24.1024 36.6966C24.148 37.0983 24.2724 37.487 24.4685 37.8404C24.6647 38.1939 24.9287 38.5051 25.2453 38.7563ZM21.5821 44.577C21.0346 44.3145 20.4217 44.2201 19.8207 44.3058C19.2196 44.3915 18.6575 44.6534 18.2052 45.0584C17.753 45.4635 17.431 45.9935 17.2798 46.5815C17.1286 47.1694 17.1551 47.789 17.356 48.362C17.5568 48.9349 17.9229 49.4355 18.4081 49.8004C18.8933 50.1653 19.4757 50.3783 20.0819 50.4123C20.688 50.4464 21.2907 50.3 21.8137 49.9917C22.3367 49.6834 22.7566 49.227 23.0203 48.6802C23.1969 48.3166 23.2998 47.9217 23.323 47.5182C23.3462 47.1146 23.2894 46.7105 23.1557 46.3291C23.022 45.9476 22.8141 45.5965 22.544 45.2957C22.2739 44.995 21.947 44.7507 21.5821 44.577ZM16.6497 56.5905C16.0557 56.4531 15.4343 56.4952 14.8642 56.7113C14.2941 56.9274 13.801 57.3079 13.4474 57.8045C13.0937 58.3012 12.8954 58.8916 12.8776 59.501C12.8598 60.1104 13.0234 60.7114 13.3475 61.2278C13.6715 61.7443 14.1416 62.1528 14.6982 62.4018C15.2547 62.6508 15.8726 62.729 16.4736 62.6265C17.0746 62.524 17.6317 62.2454 18.0742 61.8261C18.5167 61.4067 18.8248 60.8654 18.9594 60.2707C19.0496 59.8774 19.0613 59.4702 18.994 59.0723C18.9267 58.6745 18.7817 58.2938 18.5672 57.952C18.3527 57.6102 18.073 57.3141 17.744 57.0805C17.4149 56.8468 17.0431 56.6804 16.6497 56.5905ZM14.5093 69.4162C13.8999 69.4146 13.3037 69.5938 12.7961 69.9311C12.2886 70.2685 11.8926 70.7488 11.6582 71.3114C11.4238 71.874 11.3616 72.4934 11.4795 73.0913C11.5973 73.6893 11.89 74.2388 12.3203 74.6703C12.7506 75.1018 13.2993 75.396 13.8969 75.5155C14.4945 75.635 15.1142 75.5745 15.6774 75.3417C16.2406 75.1088 16.722 74.7141 17.0608 74.2075C17.3995 73.7009 17.5804 73.1052 17.5804 72.4958C17.5804 71.6813 17.2568 70.9001 16.6809 70.3242C16.1049 69.7483 15.3238 69.4247 14.5093 69.4247V69.4162ZM130.482 69.4162C129.873 69.4146 129.277 69.5938 128.769 69.9311C128.262 70.2685 127.865 70.7488 127.631 71.3114C127.397 71.874 127.335 72.4934 127.452 73.0913C127.57 73.6893 127.863 74.2388 128.293 74.6703C128.724 75.1018 129.272 75.396 129.87 75.5155C130.467 75.635 131.087 75.5745 131.65 75.3417C132.213 75.1088 132.695 74.7141 133.034 74.2075C133.372 73.7009 133.553 73.1052 133.553 72.4958C133.551 71.682 133.227 70.9021 132.651 70.3267C132.076 69.7512 131.296 69.4269 130.482 69.4247V69.4162ZM129.712 62.5973C130.307 62.4631 130.848 62.1556 131.268 61.7136C131.687 61.2716 131.966 60.7151 132.069 60.1145C132.173 59.5139 132.095 58.8962 131.847 58.3395C131.599 57.7829 131.191 57.3124 130.676 56.9876C130.16 56.6628 129.56 56.4983 128.95 56.5149C128.341 56.5316 127.751 56.7286 127.253 57.081C126.756 57.4334 126.375 57.9254 126.157 58.4947C125.94 59.064 125.896 59.6851 126.032 60.2792C126.214 61.0741 126.703 61.7645 127.393 62.199C128.083 62.6336 128.917 62.7768 129.712 62.5973ZM127.504 46.0068C127.24 45.4572 126.819 44.9984 126.294 44.6884C125.769 44.3784 125.164 44.2313 124.555 44.2656C123.946 44.2999 123.362 44.514 122.875 44.881C122.388 45.248 122.021 45.7512 121.82 46.3269C121.62 46.9026 121.595 47.5249 121.748 48.115C121.901 48.7051 122.226 49.2363 122.682 49.6414C123.138 50.0466 123.703 50.3074 124.307 50.3908C124.911 50.4742 125.526 50.3765 126.074 50.11C126.439 49.9355 126.765 49.6906 127.034 49.3896C127.303 49.0885 127.51 48.7372 127.643 48.3558C127.776 47.9745 127.832 47.5706 127.808 47.1674C127.784 46.7643 127.681 46.3698 127.504 46.0068ZM115.914 33.9425C115.435 34.3208 115.08 34.8326 114.893 35.4131C114.706 35.9935 114.696 36.6164 114.863 37.2028C115.03 37.7892 115.368 38.3128 115.833 38.707C116.299 39.1013 116.87 39.3485 117.476 39.4175C118.082 39.4864 118.695 39.3738 119.237 39.0941C119.779 38.8144 120.225 38.38 120.52 37.8462C120.815 37.3123 120.945 36.703 120.893 36.0954C120.841 35.4878 120.61 34.9092 120.228 34.4332C119.72 33.7979 118.981 33.3898 118.172 33.2978C117.364 33.2059 116.552 33.4377 115.914 33.9425ZM106.734 29.5685C107.21 29.9468 107.786 30.1757 108.392 30.2262C108.997 30.2767 109.604 30.1465 110.135 29.8522C110.666 29.5578 111.099 29.1125 111.377 28.5726C111.655 28.0326 111.767 27.4223 111.698 26.8187C111.63 26.2152 111.384 25.6456 110.991 25.1819C110.599 24.7182 110.078 24.3813 109.494 24.2138C108.91 24.0463 108.29 24.0557 107.711 24.2408C107.132 24.4259 106.622 24.7784 106.244 25.2538C105.737 25.8911 105.504 26.7036 105.596 27.5128C105.688 28.3219 106.097 29.0614 106.734 29.5685ZM96.3198 23.0288C96.8672 23.2913 97.4802 23.3856 98.0812 23.3C98.6822 23.2143 99.2444 22.9524 99.6966 22.5473C100.149 22.1423 100.471 21.6123 100.622 21.0243C100.773 20.4363 100.747 19.8167 100.546 19.2438C100.345 18.6708 99.9789 18.1703 99.4938 17.8053C99.0086 17.4404 98.4261 17.2275 97.82 17.1934C97.2138 17.1594 96.6112 17.3057 96.0882 17.614C95.5652 17.9223 95.1453 18.3787 94.8816 18.9256C94.7061 19.2893 94.6041 19.6841 94.5815 20.0874C94.5588 20.4906 94.6159 20.8944 94.7495 21.2755C94.8831 21.6566 95.0906 22.0077 95.36 22.3085C95.6295 22.6094 95.9556 22.8541 96.3198 23.0288ZM84.7123 18.9678C85.3063 19.1052 85.9278 19.0632 86.4979 18.8471C87.068 18.631 87.5611 18.2505 87.9147 17.7538C88.2684 17.2572 88.4667 16.6668 88.4845 16.0574C88.5022 15.4479 88.3387 14.8469 88.0146 14.3305C87.6905 13.8141 87.2205 13.4055 86.6639 13.1565C86.1074 12.9075 85.4895 12.8293 84.8885 12.9318C84.2875 13.0343 83.7304 13.3129 83.2879 13.7323C82.8454 14.1517 82.5373 14.693 82.4027 15.2876C82.3125 15.681 82.3008 16.0882 82.3681 16.486C82.4353 16.8839 82.5804 17.2646 82.7949 17.6064C83.0094 17.9481 83.2891 18.2443 83.6181 18.4779C83.9471 18.7115 84.319 18.878 84.7123 18.9678ZM72.4958 22.8765C71.9903 22.8681 71.4938 23.0109 71.07 23.2866C70.6462 23.5622 70.3144 23.9581 70.117 24.4236C69.9197 24.889 69.8659 25.4028 69.9625 25.8991C70.0591 26.3953 70.3016 26.8514 70.6591 27.2089C71.0166 27.5664 71.4727 27.8089 71.969 27.9055C72.4652 28.0021 72.979 27.9483 73.4444 27.751C73.9099 27.5536 74.3058 27.2218 74.5815 26.798C74.8571 26.3742 74.9999 25.8777 74.9915 25.3722C74.9806 24.7137 74.7142 24.0852 74.2485 23.6195C73.7828 23.1538 73.1543 22.8874 72.4958 22.8765ZM61.4552 24.1201C60.9603 24.2241 60.5078 24.4735 60.1556 24.8363C59.8034 25.1992 59.5677 25.6589 59.4785 26.1567C59.3894 26.6544 59.451 27.1674 59.6554 27.6299C59.8598 28.0924 60.1977 28.4833 60.6257 28.7525C61.0537 29.0217 61.5524 29.1569 62.0578 29.1408C62.5632 29.1247 63.0523 28.9579 63.4623 28.662C63.8723 28.3661 64.1846 27.9544 64.359 27.4798C64.5335 27.0052 64.5623 26.4893 64.4416 25.9983C64.2845 25.3591 63.8853 24.8059 63.3281 24.4555C62.7709 24.1051 62.0993 23.9848 61.4552 24.1201ZM50.9645 27.8257C50.5056 28.0376 50.1205 28.3817 49.8584 28.8138C49.5963 29.246 49.4692 29.7465 49.4934 30.2514C49.5175 30.7562 49.6919 31.2423 49.9941 31.6475C50.2963 32.0526 50.7125 32.3583 51.1895 32.5254C51.6665 32.6924 52.1826 32.7133 52.6715 32.5853C53.1604 32.4572 53.6 32.1861 53.9339 31.8067C54.2678 31.4273 54.4808 30.9568 54.5456 30.4556C54.6105 29.9543 54.5242 29.4451 54.2978 28.9932C54.1558 28.6975 53.9568 28.4328 53.7124 28.214C53.4679 27.9953 53.1827 27.8269 52.8732 27.7185C52.5636 27.61 52.2356 27.5637 51.9081 27.5821C51.5806 27.6005 51.26 27.6833 50.9645 27.8257ZM41.5567 33.7479C41.1566 34.0566 40.8578 34.4777 40.6985 34.9572C40.5392 35.4368 40.5266 35.953 40.6625 36.4397C40.7983 36.9264 41.0764 37.3615 41.461 37.6892C41.8457 38.017 42.3194 38.2224 42.8215 38.2793C43.3236 38.3362 43.8313 38.2418 44.2795 38.0084C44.7277 37.775 45.096 37.4131 45.3372 36.9691C45.5785 36.5251 45.6817 36.0192 45.6337 35.5162C45.5857 35.0131 45.3886 34.5359 45.0677 34.1455C44.8635 33.8886 44.6106 33.6744 44.3235 33.5153C44.0364 33.3562 43.7208 33.2553 43.3947 33.2184C43.0685 33.1815 42.7383 33.2092 42.4229 33.3001C42.1076 33.3909 41.8132 33.5431 41.5567 33.7479ZM37.6058 44.7462C37.9267 44.3558 38.1238 43.8786 38.1718 43.3756C38.2198 42.8725 38.1166 42.3666 37.8753 41.9226C37.634 41.4786 37.2657 41.1167 36.8175 40.8833C36.3694 40.6499 35.8617 40.5555 35.3596 40.6124C34.8575 40.6693 34.3837 40.8747 33.9991 41.2025C33.6145 41.5302 33.3364 41.9653 33.2006 42.452C33.0647 42.9387 33.0772 43.4549 33.2365 43.9345C33.3958 44.414 33.6947 44.8351 34.0948 45.1438C34.6252 45.5391 35.289 45.7117 35.9448 45.6248C36.6006 45.5379 37.1966 45.1983 37.6058 44.6785V44.7462ZM31.1168 49.8223C30.6649 49.596 30.1557 49.5097 29.6544 49.5745C29.1532 49.6393 28.6827 49.8524 28.3033 50.1862C27.9239 50.5201 27.6528 50.9597 27.5247 51.4486C27.3967 51.9376 27.4175 52.4536 27.5846 52.9306C27.7517 53.4076 28.0574 53.8239 28.4625 54.1261C28.8676 54.4282 29.3538 54.6026 29.8586 54.6268C30.3634 54.6509 30.864 54.5239 31.2962 54.2618C31.7283 53.9997 32.0724 53.6145 32.2843 53.1557C32.4267 52.8602 32.5095 52.5395 32.5279 52.212C32.5463 51.8845 32.4999 51.5566 32.3915 51.247C32.2831 50.9374 32.1147 50.6522 31.8959 50.4078C31.6772 50.1633 31.4124 49.9644 31.1168 49.8223ZM27.1066 59.5939C26.6159 59.4737 26.1005 59.5026 25.6263 59.6771C25.1521 59.8515 24.7408 60.1635 24.445 60.5731C24.1492 60.9826 23.9824 61.4712 23.9659 61.9761C23.9494 62.4811 24.084 62.9795 24.3524 63.4075C24.6208 63.8355 25.0109 64.1737 25.4726 64.3787C25.9344 64.5838 26.4468 64.6463 26.9443 64.5584C27.4418 64.4705 27.9018 64.2361 28.2653 63.8852C28.6288 63.5343 28.8793 63.0829 28.9848 62.5888C29.1274 61.9409 29.0108 61.2629 28.6597 60.7C28.3087 60.1371 27.7512 59.7339 27.1066 59.577V59.5939ZM25.4146 70.0169C24.9126 70.0169 24.4219 70.1658 24.0045 70.4447C23.5871 70.7235 23.2618 71.1199 23.0697 71.5837C22.8776 72.0475 22.8273 72.5578 22.9252 73.0501C23.0232 73.5425 23.2649 73.9947 23.6199 74.3497C23.9748 74.7046 24.4271 74.9464 24.9194 75.0443C25.4117 75.1422 25.9221 75.092 26.3858 74.8999C26.8496 74.7078 27.246 74.3824 27.5249 73.9651C27.8038 73.5477 27.9526 73.057 27.9526 72.555C27.9549 72.2167 27.8896 71.8813 27.7604 71.5686C27.6312 71.2559 27.4408 70.9722 27.2004 70.7342C26.96 70.4961 26.6744 70.3086 26.3605 70.1825C26.0465 70.0564 25.7105 69.9944 25.3722 70L25.4146 70.0169ZM119.662 70.0169C119.16 70.0169 118.669 70.1658 118.252 70.4447C117.834 70.7235 117.509 71.1199 117.317 71.5837C117.125 72.0475 117.074 72.5578 117.172 73.0501C117.27 73.5425 117.512 73.9947 117.867 74.3497C118.222 74.7046 118.674 74.9464 119.166 75.0443C119.659 75.1422 120.169 75.092 120.633 74.8999C121.097 74.7078 121.493 74.3824 121.772 73.9651C122.051 73.5477 122.2 73.057 122.2 72.555C122.202 72.2167 122.137 71.8813 122.007 71.5686C121.878 71.2559 121.688 70.9722 121.447 70.7342C121.207 70.4961 120.921 70.3086 120.607 70.1825C120.294 70.0564 119.958 69.9944 119.619 70L119.662 70.0169ZM119.036 64.467C119.53 64.3615 119.981 64.111 120.332 63.7475C120.683 63.384 120.917 62.9241 121.005 62.4265C121.093 61.929 121.03 61.4166 120.825 60.9548C120.62 60.4931 120.282 60.103 119.854 59.8346C119.426 59.5662 118.928 59.4316 118.423 59.4481C117.918 59.4646 117.429 59.6315 117.02 59.9273C116.61 60.2231 116.298 60.6344 116.124 61.1085C115.949 61.5827 115.92 62.0981 116.041 62.5888C116.19 63.2245 116.583 63.7761 117.136 64.1243C117.688 64.4725 118.355 64.5895 118.993 64.4501L119.036 64.467ZM117.25 50.9898C117.039 50.531 116.694 50.1458 116.262 49.8838C115.83 49.6217 115.33 49.4946 114.825 49.5187C114.32 49.5429 113.834 49.7173 113.429 50.0194C113.024 50.3216 112.718 50.7379 112.551 51.2149C112.384 51.6919 112.363 52.2079 112.491 52.6969C112.619 53.1858 112.89 53.6254 113.269 53.9593C113.649 54.2932 114.119 54.5062 114.621 54.571C115.122 54.6358 115.631 54.5495 116.083 54.3232C116.669 54.0205 117.114 53.5015 117.324 52.8761C117.534 52.2507 117.493 51.5681 117.208 50.9729L117.25 50.9898ZM107.826 41.1844C107.426 41.4931 107.127 41.9142 106.967 42.3938C106.808 42.8733 106.796 43.3895 106.932 43.8762C107.067 44.363 107.345 44.7981 107.73 45.1258C108.115 45.4535 108.588 45.659 109.091 45.7158C109.593 45.7727 110.1 45.6784 110.548 45.445C110.997 45.2116 111.365 44.8497 111.606 44.4057C111.848 43.9617 111.951 43.4557 111.903 42.9527C111.855 42.4497 111.658 41.9724 111.337 41.5821C111.133 41.3177 110.879 41.0968 110.589 40.9324C110.299 40.7679 109.979 40.6633 109.648 40.6246C109.316 40.586 108.981 40.6141 108.661 40.7074C108.34 40.8006 108.042 40.9571 107.783 41.1675L107.826 41.1844ZM99.9661 34.1201C99.6452 34.5105 99.4481 34.9877 99.4001 35.4908C99.3521 35.9938 99.4553 36.4997 99.6966 36.9437C99.9379 37.3878 100.306 37.7496 100.754 37.9831C101.203 38.2165 101.71 38.3108 102.212 38.2539C102.714 38.1971 103.188 37.9916 103.573 37.6639C103.957 37.3361 104.235 36.901 104.371 36.4143C104.507 35.9276 104.495 35.4114 104.335 34.9318C104.176 34.4523 103.877 34.0312 103.477 33.7225C103.221 33.5102 102.924 33.3514 102.605 33.2555C102.286 33.1595 101.951 33.1283 101.62 33.1638C101.289 33.1993 100.968 33.3007 100.677 33.462C100.386 33.6234 100.13 33.8414 99.9238 34.1032L99.9661 34.1201ZM91.9035 32.3096C92.3554 32.536 92.8646 32.6223 93.3659 32.5575C93.8671 32.4926 94.3376 32.2796 94.717 31.9457C95.0964 31.6118 95.3675 31.1723 95.4956 30.6833C95.6236 30.1944 95.6028 29.6784 95.4357 29.2014C95.2686 28.7244 94.9629 28.3081 94.5578 28.0059C94.1527 27.7037 93.6665 27.5294 93.1617 27.5052C92.6569 27.481 92.1563 27.6081 91.7241 27.8702C91.292 28.1323 90.9479 28.5175 90.736 28.9763C90.4617 29.5678 90.4255 30.2422 90.635 30.8597C90.8445 31.4771 91.2836 31.9903 91.8612 32.2927L91.9035 32.3096ZM82.4704 29.0102C82.9612 29.1287 83.4763 29.0982 83.9497 28.9224C84.4231 28.7467 84.8333 28.4337 85.1278 28.0236C85.4224 27.6134 85.5879 27.1248 85.6032 26.62C85.6186 26.1153 85.483 25.6175 85.2138 25.1902C84.9447 24.763 84.5542 24.4257 84.0923 24.2216C83.6305 24.0175 83.1182 23.9557 82.6211 24.0443C82.124 24.1329 81.6646 24.3678 81.3016 24.7188C80.9387 25.0699 80.6888 25.5213 80.5837 26.0152C80.4386 26.6544 80.5506 27.3249 80.8957 27.8821C81.2408 28.4393 81.7912 28.8384 82.4281 28.9932L82.4704 29.0102ZM72.5381 34.3316C72.1582 34.3316 71.7869 34.4443 71.4711 34.6553C71.1553 34.8663 70.9091 35.1663 70.7638 35.5172C70.6184 35.8681 70.5804 36.2542 70.6545 36.6268C70.7286 36.9993 70.9115 37.3415 71.1801 37.6101C71.4487 37.8787 71.7909 38.0616 72.1634 38.1357C72.5359 38.2098 72.9221 38.1718 73.273 38.0264C73.6239 37.881 73.9239 37.6349 74.1349 37.3191C74.3459 37.0033 74.4585 36.6319 74.4585 36.2521C74.4621 35.9946 74.4135 35.739 74.3158 35.5007C74.2181 35.2623 74.0732 35.0462 73.8899 34.8653C73.7066 34.6843 73.4886 34.5423 73.249 34.4477C73.0095 34.3531 72.7532 34.3079 72.4958 34.3147L72.5381 34.3316ZM66.3452 36.7343C66.2616 36.3615 66.0691 36.0219 65.7922 35.7586C65.5153 35.4953 65.1665 35.3201 64.7899 35.2554C64.4134 35.1906 64.0261 35.2391 63.6771 35.3948C63.3282 35.5505 63.0333 35.8063 62.83 36.1298C62.6266 36.4532 62.5239 36.8298 62.5348 37.2118C62.5458 37.5937 62.67 37.9638 62.8915 38.275C63.1131 38.5863 63.4222 38.8248 63.7795 38.9602C64.1368 39.0956 64.5262 39.1218 64.8985 39.0355C65.3904 38.9114 65.8136 38.5986 66.0764 38.1647C66.3393 37.7308 66.4206 37.2109 66.3029 36.7174L66.3452 36.7343ZM57.6396 41.5736C57.985 41.4123 58.2747 41.1517 58.4716 40.8252C58.6684 40.4987 58.7637 40.121 58.7451 39.7402C58.7266 39.3593 58.5951 38.9926 58.3675 38.6868C58.1398 38.381 57.8262 38.1498 57.4668 38.0228C57.1073 37.8957 56.7181 37.8786 56.3488 37.9735C55.9795 38.0685 55.6469 38.2712 55.3932 38.5558C55.1395 38.8405 54.9763 39.1942 54.9244 39.5719C54.8724 39.9496 54.9341 40.3343 55.1015 40.6768C55.3253 41.1155 55.7092 41.4515 56.1737 41.6152C56.6382 41.779 57.1478 41.758 57.5973 41.5567L57.6396 41.5736ZM51.4298 42.9695C51.193 42.6725 50.8735 42.4524 50.5116 42.337C50.1497 42.2216 49.7618 42.2161 49.3968 42.3212C49.0317 42.4262 48.7061 42.6372 48.461 42.9274C48.2159 43.2175 48.0623 43.5739 48.0197 43.9513C47.9771 44.3287 48.0474 44.7103 48.2217 45.0478C48.396 45.3853 48.6664 45.6635 48.9988 45.8473C49.3312 46.0311 49.7107 46.1122 50.0892 46.0804C50.4677 46.0485 50.8282 45.9051 51.1252 45.6684C51.3227 45.5086 51.4864 45.3111 51.6067 45.0875C51.727 44.8638 51.8016 44.6183 51.826 44.3655C51.8504 44.1127 51.8242 43.8575 51.7489 43.6149C51.6736 43.3723 51.5508 43.1472 51.3875 42.9526L51.4298 42.9695ZM45.3807 48.401C45.0834 48.1654 44.7231 48.023 44.345 47.992C43.967 47.9609 43.5882 48.0425 43.2564 48.2264C42.9247 48.4104 42.6548 48.6884 42.4809 49.0256C42.307 49.3627 42.2369 49.7437 42.2793 50.1207C42.3217 50.4976 42.4748 50.8536 42.7192 51.1436C42.9637 51.4337 43.2886 51.6449 43.6529 51.7505C44.0172 51.8561 44.4046 51.8515 44.7663 51.7372C45.128 51.6229 45.4478 51.4041 45.6853 51.1083C45.8441 50.9078 45.9613 50.6775 46.03 50.4311C46.0986 50.1846 46.1173 49.927 46.085 49.6732C46.0527 49.4194 45.97 49.1747 45.8418 48.9533C45.7136 48.7319 45.5424 48.5384 45.3384 48.3841L45.3807 48.401ZM40.6937 55.0508C40.3512 54.8833 39.9665 54.8217 39.5888 54.8736C39.2111 54.9256 38.8574 55.0888 38.5727 55.3424C38.2881 55.5961 38.0854 55.9288 37.9905 56.298C37.8955 56.6673 37.9127 57.0565 38.0397 57.416C38.1667 57.7755 38.3979 58.089 38.7037 58.3167C39.0096 58.5444 39.3763 58.6758 39.7571 58.6944C40.1379 58.7129 40.5156 58.6177 40.8422 58.4208C41.1687 58.2239 41.4292 57.9343 41.5905 57.5888C41.6972 57.3595 41.7576 57.1113 41.7681 56.8586C41.7786 56.6059 41.7391 56.3536 41.6518 56.1162C41.5646 55.8788 41.4313 55.661 41.2596 55.4752C41.0879 55.2895 40.8813 55.1395 40.6514 55.0338L40.6937 55.0508ZM37.6058 62.5719C37.2355 62.4878 36.8486 62.5153 36.494 62.6511C36.1393 62.7868 35.8329 63.0246 35.6134 63.3344C35.3939 63.6442 35.2711 64.0121 35.2606 64.3917C35.2502 64.7712 35.3524 65.1454 35.5545 65.4668C35.7566 65.7883 36.0494 66.0426 36.396 66.1977C36.7426 66.3528 37.1274 66.4016 37.5018 66.3381C37.8761 66.2745 38.2232 66.1014 38.4992 65.8407C38.7752 65.5799 38.9677 65.2432 39.0525 64.8731C39.1096 64.623 39.1162 64.364 39.072 64.1112C39.0277 63.8585 38.9335 63.6171 38.7949 63.4013C38.6562 63.1854 38.4759 62.9994 38.2644 62.8541C38.053 62.7087 37.8147 62.6071 37.5635 62.555L37.6058 62.5719ZM36.269 70.5922C35.8872 70.5905 35.5134 70.7022 35.1951 70.9132C34.8768 71.1241 34.6282 71.4248 34.4809 71.7771C34.3336 72.1294 34.2942 72.5175 34.3677 72.8922C34.4411 73.267 34.6242 73.6115 34.8936 73.8821C35.163 74.1527 35.5067 74.3373 35.8811 74.4124C36.2555 74.4875 36.6438 74.4498 36.9968 74.304C37.3497 74.1583 37.6515 73.9111 37.8638 73.5937C38.0762 73.2763 38.1895 72.903 38.1895 72.5211C38.1918 72.2635 38.1425 72.0081 38.0444 71.7699C37.9464 71.5316 37.8016 71.3154 37.6187 71.1341C37.4358 70.9527 37.2183 70.8098 36.9793 70.7138C36.7402 70.6179 36.4843 70.5708 36.2267 70.5753L36.269 70.5922ZM108.807 70.5922C108.425 70.5905 108.051 70.7022 107.733 70.9132C107.415 71.1241 107.166 71.4248 107.019 71.7771C106.872 72.1294 106.832 72.5175 106.906 72.8922C106.979 73.267 107.162 73.6115 107.432 73.8821C107.701 74.1527 108.045 74.3373 108.419 74.4124C108.794 74.4875 109.182 74.4498 109.535 74.304C109.888 74.1583 110.19 73.9111 110.402 73.5937C110.614 73.2763 110.728 72.903 110.728 72.5211C110.73 72.2635 110.681 72.0081 110.583 71.7699C110.484 71.5316 110.34 71.3154 110.157 71.1341C109.974 70.9527 109.756 70.8098 109.517 70.7138C109.278 70.6179 109.022 70.5708 108.765 70.5753L108.807 70.5922ZM108.325 66.3198C108.694 66.2336 109.03 66.04 109.289 65.7633C109.549 65.4867 109.72 65.1394 109.783 64.7653C109.845 64.3912 109.795 64.007 109.64 63.6612C109.484 63.3153 109.229 63.0233 108.908 62.822C108.586 62.6207 108.213 62.519 107.833 62.5299C107.454 62.5407 107.087 62.6636 106.778 62.883C106.468 63.1023 106.231 63.4084 106.095 63.7626C105.959 64.1167 105.932 64.5032 106.015 64.8731C106.132 65.3599 106.435 65.7819 106.858 66.049C107.282 66.316 107.793 66.4072 108.283 66.3029L108.325 66.3198ZM106.87 55.9306C106.708 55.5852 106.448 55.2955 106.121 55.0987C105.795 54.9018 105.417 54.8065 105.036 54.8251C104.655 54.8436 104.289 54.9751 103.983 55.2027C103.677 55.4304 103.446 55.744 103.319 56.1035C103.192 56.463 103.175 56.8521 103.27 57.2214C103.365 57.5907 103.567 57.9233 103.852 58.177C104.137 58.4307 104.49 58.5939 104.868 58.6458C105.246 58.6978 105.63 58.6361 105.973 58.4687C106.422 58.2443 106.767 57.8543 106.934 57.3808C107.101 56.9074 107.078 56.3874 106.87 55.9306ZM99.6193 48.3841C99.3223 48.6209 99.1021 48.9404 98.9867 49.3023C98.8713 49.6641 98.8658 50.0521 98.9709 50.4171C99.076 50.7821 99.2869 51.1078 99.5771 51.3529C99.8673 51.598 100.224 51.7516 100.601 51.7942C100.978 51.8368 101.36 51.7665 101.698 51.5922C102.035 51.4179 102.313 51.1475 102.497 50.8151C102.681 50.4826 102.762 50.1032 102.73 49.7247C102.698 49.3462 102.555 48.9857 102.318 48.6887C102.001 48.3002 101.546 48.0509 101.048 47.994C100.55 47.9371 100.049 48.0771 99.6531 48.3841H99.6193ZM96.5736 45.3469C96.8104 45.0499 96.9538 44.6893 96.9856 44.3108C97.0175 43.9323 96.9364 43.5529 96.7526 43.2205C96.5688 42.8881 96.2906 42.6176 95.9531 42.4433C95.6156 42.2691 95.234 42.1988 94.8565 42.2414C94.4791 42.284 94.1228 42.4375 93.8326 42.6826C93.5424 42.9277 93.3315 43.2534 93.2264 43.6184C93.1213 43.9834 93.1268 44.3714 93.2422 44.7333C93.3576 45.0951 93.5778 45.4147 93.8748 45.6514C94.0729 45.8139 94.3015 45.9351 94.5472 46.0079C94.7929 46.0806 95.0506 46.1035 95.3053 46.0751C95.5599 46.0467 95.8063 45.9677 96.03 45.8426C96.2536 45.7175 96.4499 45.549 96.6074 45.3469H96.5736ZM89.1032 38.0964C88.7601 37.9305 88.3754 37.8703 87.9981 37.9236C87.6207 37.977 87.2678 38.1414 86.9841 38.3959C86.7005 38.6505 86.499 38.9837 86.4053 39.3531C86.3116 39.7225 86.3299 40.1114 86.458 40.4704C86.586 40.8293 86.8179 41.1421 87.1243 41.3688C87.4306 41.5956 87.7974 41.726 88.1781 41.7436C88.5588 41.7612 88.9362 41.6652 89.2621 41.4677C89.588 41.2702 89.8479 40.9801 90.0085 40.6345C90.2232 40.1776 90.2485 39.6544 90.0789 39.1789C89.9093 38.7034 89.5586 38.3143 89.1032 38.0964ZM82.4788 37.5719C82.5629 37.2016 82.5354 36.8147 82.3997 36.4601C82.264 36.1055 82.0262 35.7991 81.7164 35.5795C81.4066 35.36 81.0386 35.2373 80.6591 35.2268C80.2795 35.2163 79.9054 35.3186 79.5839 35.5207C79.2625 35.7228 79.0081 36.0156 78.8531 36.3622C78.698 36.7088 78.6491 37.0936 78.7127 37.4679C78.7762 37.8423 78.9493 38.1894 79.2101 38.4654C79.4708 38.7414 79.8075 38.9339 80.1777 39.0186C80.6685 39.1199 81.1795 39.0253 81.6015 38.755C82.0236 38.4847 82.3232 38.0601 82.4365 37.5719H82.4788ZM72.5381 45.7445C72.27 45.7428 72.0074 45.8208 71.7837 45.9685C71.56 46.1162 71.3852 46.327 71.2815 46.5742C71.1777 46.8214 71.1497 47.0939 71.201 47.357C71.2522 47.6201 71.3805 47.8621 71.5694 48.0523C71.7584 48.2424 71.9996 48.3722 72.2624 48.4251C72.5252 48.478 72.7978 48.4517 73.0456 48.3495C73.2935 48.2473 73.5054 48.0738 73.6545 47.851C73.8036 47.6283 73.8832 47.3662 73.8832 47.0981C73.8833 46.9175 73.8472 46.7387 73.7771 46.5722C73.7069 46.4057 73.6042 46.2549 73.4749 46.1288C73.3456 46.0027 73.1923 45.9037 73.0242 45.8377C72.856 45.7717 72.6764 45.74 72.4958 45.7445H72.5381ZM66.6159 46.4213C66.3569 46.4817 66.1216 46.6175 65.9397 46.8116C65.7579 47.0056 65.6376 47.2492 65.5942 47.5116C65.5507 47.774 65.586 48.0434 65.6956 48.2857C65.8052 48.5281 65.9842 48.7324 66.2099 48.8731C66.4357 49.0137 66.698 49.0843 66.9638 49.0759C67.2297 49.0675 67.487 48.9804 67.7034 48.8258C67.9198 48.6711 68.0855 48.4558 68.1795 48.207C68.2736 47.9583 68.2918 47.6872 68.2318 47.4281C68.1908 47.2491 68.1136 47.0803 68.0049 46.9323C67.8962 46.7842 67.7583 46.66 67.5998 46.5673C67.4413 46.4746 67.2655 46.4153 67.0831 46.3931C66.9008 46.3709 66.7159 46.3862 66.5398 46.4382L66.6159 46.4213ZM62.758 49.0271C62.6427 48.7871 62.4587 48.5868 62.2295 48.4515C62.0002 48.3162 61.736 48.2519 61.4702 48.2669C61.2044 48.2818 60.949 48.3753 60.7364 48.5355C60.5237 48.6956 60.3634 48.9153 60.2757 49.1666C60.1879 49.418 60.1768 49.6897 60.2435 49.9474C60.3103 50.2051 60.4521 50.4372 60.6508 50.6143C60.8496 50.7914 61.0964 50.9055 61.3601 50.9423C61.6237 50.979 61.8924 50.9367 62.132 50.8206C62.4408 50.6537 62.6715 50.3721 62.7744 50.0365C62.8773 49.7009 62.8441 49.3384 62.6819 49.0271H62.758ZM57.7834 51.7936C57.617 51.5863 57.3929 51.4331 57.1395 51.3531C56.886 51.2731 56.6145 51.2699 56.3593 51.3441C56.1041 51.4182 55.8765 51.5663 55.7054 51.7697C55.5343 51.973 55.4272 52.2225 55.3977 52.4867C55.3682 52.7508 55.4177 53.0178 55.5397 53.2538C55.6618 53.4899 55.8511 53.6845 56.0837 53.8131C56.3163 53.9417 56.5818 53.9985 56.8467 53.9764C57.1115 53.9542 57.3639 53.8541 57.5719 53.6887C57.8388 53.4538 58.0026 53.1234 58.0279 52.7689C58.0532 52.4143 57.9381 52.0639 57.7073 51.7936H57.7834ZM53.5533 55.6091C53.3453 55.4437 53.0929 55.3436 52.8281 55.3214C52.5632 55.2993 52.2977 55.3561 52.0651 55.4847C51.8325 55.6133 51.6432 55.8079 51.5211 56.044C51.399 56.28 51.3496 56.547 51.3791 56.8111C51.4086 57.0753 51.5156 57.3248 51.6868 57.5281C51.8579 57.7315 52.0855 57.8796 52.3407 57.9537C52.5959 58.0279 52.8674 58.0247 53.1209 57.9447C53.3743 57.8647 53.5984 57.7115 53.7648 57.5042C53.8712 57.3609 53.9481 57.1978 53.9908 57.0245C54.0336 56.8511 54.0414 56.671 54.0139 56.4946C53.9863 56.3182 53.9239 56.1491 53.8303 55.9971C53.7367 55.8451 53.6138 55.7132 53.4687 55.6091H53.5533ZM50.1861 60.2623C49.8641 60.1074 49.4938 60.0869 49.1567 60.2051C48.8195 60.3233 48.5431 60.5706 48.3883 60.8926C48.2335 61.2145 48.2129 61.5848 48.3311 61.922C48.4493 62.2591 48.6966 62.5355 49.0186 62.6904C49.178 62.767 49.351 62.8115 49.5276 62.8213C49.7043 62.8311 49.8811 62.8061 50.048 62.7475C50.215 62.689 50.3688 62.5982 50.5006 62.4802C50.6324 62.3623 50.7398 62.2195 50.8164 62.0601C50.8931 61.9006 50.9376 61.7277 50.9474 61.551C50.9572 61.3744 50.9321 61.1976 50.8736 61.0306C50.8151 60.8637 50.7242 60.7099 50.6063 60.5781C50.4883 60.4462 50.3456 60.3389 50.1861 60.2623ZM48.0203 65.533C47.7611 65.4747 47.4904 65.4944 47.2424 65.5897C46.9944 65.6851 46.7802 65.8517 46.6268 66.0686C46.4734 66.2855 46.3876 66.543 46.3804 66.8086C46.3731 67.0742 46.4447 67.336 46.586 67.561C46.7274 67.786 46.9322 67.964 47.1746 68.0728C47.417 68.1815 47.6862 68.216 47.9482 68.1719C48.2102 68.1278 48.4533 68.0071 48.6468 67.8251C48.8403 67.643 48.9756 67.4077 49.0355 67.1489C49.0756 66.9761 49.081 66.7971 49.0516 66.6222C49.0222 66.4473 48.9584 66.2799 48.8641 66.1297C48.7697 65.9796 48.6466 65.8495 48.5018 65.7471C48.357 65.6447 48.1933 65.5719 48.0203 65.533ZM47.0897 71.1506C46.9035 71.1358 46.7163 71.1598 46.5398 71.2209C46.3633 71.282 46.2014 71.379 46.0642 71.5057C45.927 71.6325 45.8175 71.7862 45.7426 71.9574C45.6678 72.1285 45.6291 72.3132 45.6291 72.5C45.6291 72.6868 45.6678 72.8715 45.7426 73.0426C45.8175 73.2137 45.927 73.3675 46.0642 73.4942C46.2014 73.621 46.3633 73.718 46.5398 73.7791C46.7163 73.8402 46.9035 73.8642 47.0897 73.8494C47.4291 73.8225 47.7459 73.6687 47.977 73.4186C48.2081 73.1685 48.3364 72.8405 48.3364 72.5C48.3364 72.1595 48.2081 71.8315 47.977 71.5814C47.7459 71.3313 47.4291 71.1775 47.0897 71.1506ZM97.9018 71.1506C97.6338 71.1489 97.3712 71.2269 97.1475 71.3746C96.9238 71.5223 96.749 71.7331 96.6452 71.9803C96.5415 72.2275 96.5135 72.4999 96.5647 72.7631C96.616 73.0262 96.7443 73.2682 96.9332 73.4584C97.1222 73.6485 97.3634 73.7783 97.6262 73.8312C97.889 73.8841 98.1616 73.8578 98.4094 73.7556C98.6573 73.6534 98.8692 73.4799 99.0183 73.2571C99.1674 73.0343 99.247 72.7723 99.247 72.5042C99.247 72.1467 99.1056 71.8036 98.8536 71.55C98.6015 71.2964 98.2594 71.1528 97.9018 71.1506ZM97.5634 68.1641C97.825 68.1053 98.0632 67.9701 98.2478 67.7757C98.4324 67.5813 98.5551 67.3365 98.6004 67.0723C98.6458 66.808 98.6116 66.5363 98.5023 66.2915C98.3929 66.0467 98.2134 65.8399 97.9864 65.6973C97.7594 65.5547 97.4952 65.4827 97.2272 65.4904C96.9592 65.4982 96.6996 65.5853 96.4812 65.7408C96.2628 65.8963 96.0955 66.1131 96.0005 66.3638C95.9055 66.6145 95.8871 66.8877 95.9475 67.1489C96.0282 67.4972 96.2434 67.7995 96.5462 67.9897C96.8489 68.1799 97.2146 68.2426 97.5634 68.1641ZM96.599 60.8968C96.4836 60.6569 96.2997 60.4566 96.0704 60.3212C95.8412 60.1859 95.5769 60.1217 95.3111 60.1366C95.0453 60.1515 94.79 60.245 94.5773 60.4052C94.3647 60.5653 94.2043 60.785 94.1166 61.0363C94.0289 61.2877 94.0177 61.5594 94.0845 61.8171C94.1513 62.0748 94.293 62.3069 94.4918 62.484C94.6905 62.6611 94.9374 62.7752 95.201 62.812C95.4647 62.8487 95.7333 62.8064 95.9729 62.6904C96.2934 62.5351 96.5393 62.2592 96.6567 61.923C96.774 61.5867 96.7533 61.2177 96.599 60.8968ZM91.5228 55.6091C91.3156 55.7755 91.1623 55.9996 91.0823 56.2531C91.0023 56.5065 90.9992 56.778 91.0734 57.0332C91.1475 57.2885 91.2956 57.516 91.4989 57.6872C91.7023 57.8583 91.9518 57.9654 92.2159 57.9948C92.4801 58.0243 92.747 57.9749 92.9831 57.8528C93.2192 57.7307 93.4138 57.5414 93.5424 57.3088C93.671 57.0762 93.7278 56.8107 93.7056 56.5459C93.6835 56.281 93.5834 56.0286 93.4179 55.8206C93.3069 55.6817 93.1695 55.566 93.0137 55.4802C92.858 55.3943 92.6868 55.34 92.51 55.3204C92.3332 55.3007 92.1543 55.3161 91.9834 55.3657C91.8126 55.4152 91.6532 55.4979 91.5144 55.6091H91.5228ZM89.1878 51.5821C88.9798 51.4166 88.7274 51.3165 88.4626 51.2944C88.1977 51.2722 87.9322 51.329 87.6996 51.4576C87.467 51.5862 87.2777 51.7808 87.1556 52.0169C87.0335 52.253 86.9841 52.5199 87.0136 52.7841C87.0431 53.0482 87.1502 53.2977 87.3213 53.501C87.4924 53.7044 87.72 53.8525 87.9752 53.9266C88.2304 54.0008 88.5019 53.9977 88.7554 53.9177C89.0088 53.8377 89.2329 53.6844 89.3993 53.4772C89.6203 53.1962 89.7211 52.8393 89.6799 52.4843C89.6387 52.1292 89.4588 51.8049 89.1793 51.5821H89.1878ZM84.1117 48.401C83.8721 48.285 83.6034 48.2427 83.3398 48.2794C83.0761 48.3161 82.8293 48.4303 82.6305 48.6074C82.4318 48.7845 82.29 49.0166 82.2232 49.2743C82.1564 49.532 82.1676 49.8037 82.2554 50.055C82.3431 50.3064 82.5034 50.526 82.7161 50.6862C82.9287 50.8463 83.1841 50.9398 83.4499 50.9548C83.7157 50.9697 83.9799 50.9055 84.2092 50.7701C84.4384 50.6348 84.6224 50.4345 84.7377 50.1946C84.8138 50.0352 84.8578 49.8623 84.8671 49.6859C84.8764 49.5094 84.8509 49.3329 84.792 49.1664C84.733 48.9998 84.6419 48.8465 84.5237 48.7152C84.4055 48.5839 84.2626 48.4771 84.1032 48.401H84.1117ZM79.467 48.0288C79.5258 47.7692 79.5062 47.4981 79.4109 47.2496C79.3155 47.0012 79.1486 46.7866 78.9312 46.633C78.7139 46.4795 78.4559 46.3938 78.1899 46.3869C77.9238 46.3801 77.6617 46.4522 77.4367 46.5943C77.2117 46.7364 77.0339 46.9421 76.9258 47.1853C76.8177 47.4284 76.7842 47.6982 76.8295 47.9605C76.8747 48.2227 76.9968 48.4656 77.1801 48.6585C77.3635 48.8514 77.5999 48.9855 77.8596 49.044C78.0312 49.0827 78.2088 49.0871 78.3822 49.057C78.5556 49.0268 78.7213 48.9628 78.8699 48.8684C79.0184 48.7741 79.1469 48.6514 79.2479 48.5073C79.349 48.3632 79.4205 48.2006 79.4585 48.0288H79.467ZM72.5042 57.1827C72.352 57.1827 72.2031 57.2279 72.0765 57.3125C71.9499 57.3971 71.8512 57.5173 71.7929 57.658C71.7347 57.7987 71.7194 57.9535 71.7491 58.1028C71.7788 58.2522 71.8522 58.3893 71.9598 58.497C72.0675 58.6047 72.2047 58.678 72.354 58.7077C72.5034 58.7374 72.6582 58.7222 72.7988 58.6639C72.9395 58.6056 73.0598 58.5069 73.1444 58.3803C73.229 58.2537 73.2741 58.1049 73.2741 57.9526C73.2741 57.8508 73.2539 57.75 73.2147 57.656C73.1755 57.5621 73.118 57.4768 73.0456 57.4052C72.9732 57.3336 72.8874 57.2771 72.793 57.2389C72.6986 57.2007 72.5976 57.1816 72.4958 57.1827H72.5042ZM69.1201 57.5634C68.9195 57.6098 68.7455 57.7338 68.6361 57.9082C68.5266 58.0826 68.4908 58.2933 68.5364 58.4941C68.5716 58.6416 68.6496 58.7755 68.7606 58.8788C68.8716 58.9822 69.0106 59.0505 69.1603 59.0751C69.31 59.0997 69.4636 59.0796 69.6018 59.0172C69.7401 58.9548 69.8568 58.853 69.9374 58.7245C70.018 58.596 70.0589 58.4466 70.0549 58.295C70.0508 58.1433 70.0021 57.9963 69.9148 57.8723C69.8275 57.7482 69.7055 57.6528 69.5641 57.5978C69.4227 57.5429 69.2683 57.5309 69.1201 57.5634ZM65.8799 58.6971C65.7432 58.7634 65.6292 58.8687 65.5522 58.9997C65.4752 59.1307 65.4387 59.2815 65.4473 59.4332C65.4558 59.5849 65.5091 59.7306 65.6003 59.8521C65.6916 59.9736 65.8167 60.0654 65.96 60.1159C66.1033 60.1664 66.2583 60.1734 66.4056 60.1359C66.5528 60.0985 66.6857 60.0184 66.7875 59.9056C66.8893 59.7928 66.9554 59.6524 66.9776 59.5021C66.9997 59.3518 66.9769 59.1983 66.912 59.0609C66.8678 58.9653 66.8047 58.8797 66.7265 58.8092C66.6482 58.7387 66.5565 58.6849 66.4569 58.6509C66.3572 58.6168 66.2517 58.6034 66.1467 58.6114C66.0417 58.6193 65.9394 58.6485 65.846 58.6971H65.8799ZM62.978 60.5245C62.8984 60.5872 62.832 60.665 62.7826 60.7534C62.7331 60.8418 62.7016 60.939 62.6898 61.0396C62.678 61.1402 62.6862 61.2422 62.7139 61.3396C62.7416 61.437 62.7882 61.5281 62.8511 61.6074C62.9456 61.7267 63.0734 61.8153 63.2182 61.862C63.363 61.9087 63.5184 61.9114 63.6648 61.8698C63.8112 61.8283 63.942 61.7442 64.0406 61.6284C64.1393 61.5125 64.2014 61.37 64.2191 61.2189C64.2368 61.0677 64.2094 60.9147 64.1402 60.7792C64.071 60.6437 63.9632 60.5317 63.8303 60.4574C63.6975 60.3831 63.5457 60.3498 63.394 60.3618C63.2423 60.3737 63.0975 60.4303 62.978 60.5245ZM60.5499 62.9526C60.4557 63.0722 60.3991 63.2169 60.3871 63.3686C60.3752 63.5203 60.4085 63.6722 60.4827 63.805C60.557 63.9378 60.669 64.0456 60.8046 64.1148C60.9401 64.184 61.0931 64.2114 61.2442 64.1937C61.3954 64.176 61.5379 64.1139 61.6538 64.0153C61.7696 63.9166 61.8536 63.7858 61.8952 63.6394C61.9368 63.4931 61.9341 63.3376 61.8874 63.1928C61.8407 63.048 61.7521 62.9202 61.6328 62.8257C61.5526 62.7574 61.4592 62.7063 61.3584 62.6756C61.2576 62.6449 61.1516 62.6352 61.0469 62.6471C60.9422 62.659 60.8411 62.6922 60.7498 62.7448C60.6585 62.7973 60.5789 62.8681 60.5161 62.9526H60.5499ZM59.7546 65.4907C59.5695 65.4021 59.3568 65.3906 59.1632 65.4588C58.9697 65.527 58.8111 65.6694 58.7225 65.8545C58.6339 66.0396 58.6224 66.2523 58.6906 66.4459C58.7589 66.6395 58.9012 66.798 59.0863 66.8866C59.1779 66.9305 59.2774 66.9559 59.3788 66.9614C59.4803 66.9669 59.5819 66.9523 59.6777 66.9185C59.7736 66.8847 59.8618 66.8324 59.9374 66.7645C60.013 66.6966 60.0746 66.6145 60.1184 66.5228C60.1623 66.4312 60.1877 66.3318 60.1932 66.2303C60.1987 66.1288 60.1841 66.0273 60.1503 65.9314C60.1165 65.8356 60.0642 65.7473 59.9963 65.6717C59.9284 65.5961 59.8463 65.5346 59.7546 65.4907ZM58.5195 68.511C58.3188 68.4677 58.1093 68.5045 57.9354 68.6136C57.7615 68.7226 57.6372 68.8953 57.5888 69.0947C57.5563 69.2429 57.5683 69.3973 57.6232 69.5387C57.6781 69.6801 57.7736 69.8021 57.8976 69.8894C58.0217 69.9767 58.1687 70.0254 58.3204 70.0295C58.472 70.0335 58.6214 69.9926 58.7499 69.912C58.8784 69.8314 58.9802 69.7147 59.0426 69.5764C59.1049 69.4382 59.1251 69.2846 59.1005 69.1349C59.0759 68.9852 59.0076 68.8462 58.9042 68.7352C58.8008 68.6242 58.667 68.5462 58.5195 68.511ZM57.978 71.7343C57.8257 71.7343 57.6769 71.7795 57.5503 71.8641C57.4237 71.9487 57.325 72.0689 57.2667 72.2096C57.2085 72.3503 57.1932 72.5051 57.2229 72.6544C57.2526 72.8038 57.3259 72.9409 57.4336 73.0486C57.5413 73.1563 57.6785 73.2296 57.8278 73.2593C57.9771 73.289 58.1319 73.2738 58.2726 73.2155C58.4133 73.1572 58.5335 73.0586 58.6181 72.9319C58.7027 72.8053 58.7479 72.6565 58.7479 72.5042C58.748 72.4002 58.727 72.2973 58.6862 72.2016C58.6454 72.1059 58.5857 72.0195 58.5106 71.9475C58.4354 71.8756 58.3465 71.8196 58.2492 71.7829C58.1518 71.7463 58.0481 71.7298 57.9442 71.7343H57.978ZM87.0728 71.7343C86.9209 71.736 86.7728 71.7826 86.6474 71.8682C86.5219 71.9538 86.4245 72.0746 86.3675 72.2154C86.3106 72.3562 86.2965 72.5108 86.3272 72.6595C86.3578 72.8083 86.4318 72.9447 86.5398 73.0515C86.6478 73.1584 86.785 73.2308 86.9341 73.2599C87.0832 73.2889 87.2376 73.2732 87.3778 73.2147C87.5179 73.1561 87.6377 73.0575 87.7219 72.9311C87.8061 72.8046 87.8511 72.6561 87.8511 72.5042C87.8513 72.3995 87.83 72.2958 87.7887 72.1995C87.7474 72.1032 87.6869 72.0164 87.6109 71.9443C87.5348 71.8722 87.4449 71.8165 87.3465 71.7803C87.2482 71.7442 87.1435 71.7286 87.0389 71.7343H87.0728ZM86.8866 70.0423C87.0342 70.0071 87.168 69.9291 87.2714 69.8181C87.3747 69.7071 87.443 69.568 87.4676 69.4184C87.4923 69.2687 87.4721 69.1151 87.4098 68.9768C87.3474 68.8386 87.2456 68.7218 87.1171 68.6412C86.9886 68.5606 86.8391 68.5198 86.6875 68.5238C86.5359 68.5278 86.3888 68.5766 86.2648 68.6639C86.1408 68.7512 86.0453 68.8732 85.9904 69.0146C85.9354 69.1559 85.9235 69.3104 85.956 69.4585C86.0078 69.6474 86.1289 69.8097 86.2952 69.9132C86.4614 70.0166 86.6605 70.0537 86.8528 70.0169L86.8866 70.0423ZM86.3283 65.8799C86.2612 65.7433 86.1552 65.6297 86.0237 65.5534C85.8922 65.477 85.7409 65.4413 85.5891 65.4508C85.4373 65.4603 85.2917 65.5145 85.1707 65.6067C85.0497 65.6988 84.9587 65.8248 84.9092 65.9686C84.8597 66.1124 84.8539 66.2677 84.8926 66.4148C84.9312 66.5619 85.0125 66.6942 85.1263 66.7952C85.2401 66.8961 85.3813 66.961 85.5319 66.9818C85.6826 67.0026 85.836 66.9783 85.9729 66.912C86.1455 66.8153 86.2747 66.6565 86.3345 66.468C86.3942 66.2794 86.3798 66.0752 86.2944 65.8968L86.3283 65.8799ZM83.4179 62.8511C83.2999 62.9463 83.2126 63.0743 83.167 63.219C83.1214 63.3636 83.1196 63.5185 83.1617 63.6642C83.2039 63.8099 83.2881 63.9399 83.4039 64.0379C83.5196 64.1359 83.6617 64.1975 83.8124 64.215C83.963 64.2326 84.1155 64.2052 84.2507 64.1364C84.3858 64.0675 84.4976 63.9603 84.5721 63.8282C84.6465 63.6961 84.6803 63.5449 84.6691 63.3936C84.6579 63.2424 84.6023 63.0978 84.5093 62.978C84.4476 62.8913 84.3687 62.8182 84.2776 62.7632C84.1865 62.7082 84.0851 62.6724 83.9797 62.6582C83.8742 62.6439 83.767 62.6514 83.6645 62.6802C83.5621 62.709 83.4666 62.7586 83.3841 62.8257L83.4179 62.8511ZM80.9983 60.6684C80.8698 60.829 80.8102 61.034 80.8324 61.2385C80.8545 61.443 80.9568 61.6304 81.1167 61.7597C81.2358 61.8538 81.3799 61.9107 81.5311 61.9231C81.6824 61.9355 81.8339 61.903 81.9667 61.8296C82.0995 61.7562 82.2076 61.6452 82.2775 61.5105C82.3474 61.3759 82.376 61.2236 82.3596 61.0727C82.3432 60.9219 82.2827 60.7793 82.1855 60.6627C82.0883 60.5462 81.9589 60.461 81.8134 60.4178C81.668 60.3746 81.513 60.3753 81.368 60.4199C81.223 60.4645 81.0944 60.5509 80.9983 60.6684ZM79.1709 58.7225C79.0799 58.6782 78.9811 58.6526 78.8801 58.6469C78.7791 58.6413 78.678 58.6558 78.5827 58.6897C78.4874 58.7236 78.3998 58.7761 78.3251 58.8442C78.2503 58.9123 78.1898 58.9946 78.1472 59.0863C78.0592 59.2705 78.0471 59.482 78.1136 59.6751C78.1801 59.8682 78.3198 60.0274 78.5025 60.1184C78.6881 60.2036 78.8996 60.2133 79.0922 60.1454C79.2848 60.0775 79.4435 59.9374 79.5347 59.7547C79.5822 59.6598 79.6096 59.5561 79.6151 59.4502C79.6206 59.3443 79.6042 59.2383 79.5669 59.139C79.5296 59.0397 79.4721 58.9492 79.3981 58.8732C79.3242 58.7971 79.2353 58.7372 79.1371 58.6971L79.1709 58.7225ZM75.9391 57.5888C75.8402 57.5663 75.7378 57.5636 75.6379 57.5808C75.5379 57.598 75.4424 57.6348 75.3567 57.6891C75.271 57.7433 75.1969 57.814 75.1386 57.8969C75.0802 57.9799 75.0389 58.0736 75.0169 58.1726C74.9873 58.2732 74.9785 58.3788 74.9912 58.483C75.0039 58.5871 75.0377 58.6876 75.0906 58.7782C75.1435 58.8688 75.2143 58.9476 75.2988 59.0098C75.3832 59.0721 75.4795 59.1164 75.5817 59.14C75.6839 59.1637 75.7899 59.1663 75.8931 59.1475C75.9963 59.1287 76.0946 59.0891 76.1819 59.031C76.2693 58.9729 76.3438 58.8975 76.401 58.8095C76.4582 58.7216 76.4967 58.6229 76.5144 58.5195C76.5418 58.4165 76.5475 58.309 76.5312 58.2037C76.5149 58.0984 76.4769 57.9976 76.4197 57.9077C76.3624 57.8179 76.2871 57.7409 76.1986 57.6816C76.11 57.6223 76.0101 57.5821 75.9052 57.5634L75.9391 57.5888Z" stroke="white" stroke-width="2" mask="url(#path-1-inside-1_292_4677)"/>
</svg>
