<svg width="558" height="300" viewBox="0 0 558 300" fill="none" xmlns="http://www.w3.org/2000/svg">
<g clip-path="url(#clip0_732_10265)">
<path d="M97.4498 117.673H60.0736L41.3853 85.2744L60.0736 52.8755H97.4498L116.138 85.2744L97.4498 117.673Z" stroke="white" stroke-width="0.5"/>
<path d="M494.165 110.633H456.788L438.1 78.2343L456.788 45.8354H494.165L512.853 78.2343L494.165 110.633Z" stroke="white" stroke-width="0.5"/>
<path d="M539.133 69.2718H517.686L507.006 50.6896L517.686 32.1948H539.134L549.814 50.6896L539.133 69.2718Z" stroke="white" stroke-width="0.5"/>
<path d="M100.266 285.758H78.906L68.1385 267.175L78.906 248.593H100.266L111.034 267.175L100.266 285.758Z" stroke="white" stroke-width="0.5"/>
<path d="M33.1769 240.422L0 182.957L33.1769 125.491H99.4426L132.62 182.957L99.4426 240.422H33.1769Z" fill="#0098E8"/>
<path d="M204.725 176.987H138.748L105.715 119.771L138.748 62.6436H204.725L237.758 119.771L204.725 176.987Z" stroke="white" stroke-width="0.5"/>
<path d="M245.791 237.958L212.702 180.493L245.791 123.027H312.145L345.322 180.493L312.145 237.958H245.791Z" fill="#0098E8"/>
<path d="M351.393 174.333L318.216 116.867L351.393 59.4897H417.659L450.836 116.867L417.659 174.333H351.393Z" fill="#0098E8"/>
<path d="M458.492 233.734L425.315 176.269L458.492 118.803H524.846L557.935 176.269L524.846 233.734H458.492Z" fill="#0098E8"/>
<path d="M310.152 114.593H244.175L211.142 57.4654L244.175 0.25H310.152L343.184 57.4654L310.152 114.593Z" stroke="white" stroke-width="0.5"/>
<path d="M419.627 297.198H353.562L320.529 239.983L353.562 182.767H419.627L452.572 239.983L419.627 297.198Z" stroke="white" stroke-width="0.5"/>
<path d="M205.605 299.75H139.628L106.595 242.622L139.628 185.407H205.605L238.637 242.622L205.605 299.75Z" stroke="white" stroke-width="0.5"/>
<path d="M385.156 139.28C385.66 139.28 386.108 139.388 386.5 139.604C386.9 139.82 387.212 140.14 387.436 140.564C387.668 140.988 387.784 141.5 387.784 142.1V146H386.428V142.304C386.428 141.712 386.28 141.26 385.984 140.948C385.688 140.628 385.284 140.468 384.772 140.468C384.26 140.468 383.852 140.628 383.548 140.948C383.252 141.26 383.104 141.712 383.104 142.304V146H381.736V137.12H383.104V140.156C383.336 139.876 383.628 139.66 383.98 139.508C384.34 139.356 384.732 139.28 385.156 139.28Z" fill="white"/>
<path d="M374.085 142.688C374.085 142.008 374.221 141.412 374.493 140.9C374.773 140.38 375.157 139.98 375.645 139.7C376.133 139.42 376.693 139.28 377.325 139.28C378.125 139.28 378.785 139.472 379.305 139.856C379.833 140.232 380.189 140.772 380.373 141.476H378.897C378.777 141.148 378.585 140.892 378.321 140.708C378.057 140.524 377.725 140.432 377.325 140.432C376.765 140.432 376.317 140.632 375.981 141.032C375.653 141.424 375.489 141.976 375.489 142.688C375.489 143.4 375.653 143.956 375.981 144.356C376.317 144.756 376.765 144.956 377.325 144.956C378.117 144.956 378.641 144.608 378.897 143.912H380.373C380.181 144.584 379.821 145.12 379.293 145.52C378.765 145.912 378.109 146.108 377.325 146.108C376.693 146.108 376.133 145.968 375.645 145.688C375.157 145.4 374.773 145 374.493 144.488C374.221 143.968 374.085 143.368 374.085 142.688Z" fill="white"/>
<path d="M371.672 140.504V144.164C371.672 144.412 371.728 144.592 371.84 144.704C371.96 144.808 372.16 144.86 372.44 144.86H373.28V146H372.2C371.584 146 371.112 145.856 370.784 145.568C370.456 145.28 370.292 144.812 370.292 144.164V140.504H369.512V139.388H370.292V137.744H371.672V139.388H373.28V140.504H371.672Z" fill="white"/>
<path d="M361.487 142.664C361.487 142 361.623 141.412 361.895 140.9C362.175 140.388 362.551 139.992 363.023 139.712C363.503 139.424 364.031 139.28 364.607 139.28C365.127 139.28 365.579 139.384 365.963 139.592C366.355 139.792 366.667 140.044 366.899 140.348V139.388H368.279V146H366.899V145.016C366.667 145.328 366.351 145.588 365.951 145.796C365.551 146.004 365.095 146.108 364.583 146.108C364.015 146.108 363.495 145.964 363.023 145.676C362.551 145.38 362.175 144.972 361.895 144.452C361.623 143.924 361.487 143.328 361.487 142.664ZM366.899 142.688C366.899 142.232 366.803 141.836 366.611 141.5C366.427 141.164 366.183 140.908 365.879 140.732C365.575 140.556 365.247 140.468 364.895 140.468C364.543 140.468 364.215 140.556 363.911 140.732C363.607 140.9 363.359 141.152 363.167 141.488C362.983 141.816 362.891 142.208 362.891 142.664C362.891 143.12 362.983 143.52 363.167 143.864C363.359 144.208 363.607 144.472 363.911 144.656C364.223 144.832 364.551 144.92 364.895 144.92C365.247 144.92 365.575 144.832 365.879 144.656C366.183 144.48 366.427 144.224 366.611 143.888C366.803 143.544 366.899 143.144 366.899 142.688Z" fill="white"/>
<path d="M358.706 140.348C358.906 140.012 359.17 139.752 359.498 139.568C359.834 139.376 360.23 139.28 360.686 139.28V140.696H360.338C359.802 140.696 359.394 140.832 359.114 141.104C358.842 141.376 358.706 141.848 358.706 142.52V146H357.338V139.388H358.706V140.348Z" fill="white"/>
<path d="M349.687 142.688C349.687 142.008 349.823 141.412 350.095 140.9C350.375 140.38 350.759 139.98 351.247 139.7C351.735 139.42 352.295 139.28 352.927 139.28C353.727 139.28 354.387 139.472 354.907 139.856C355.435 140.232 355.791 140.772 355.975 141.476H354.499C354.379 141.148 354.187 140.892 353.923 140.708C353.659 140.524 353.327 140.432 352.927 140.432C352.367 140.432 351.919 140.632 351.583 141.032C351.255 141.424 351.091 141.976 351.091 142.688C351.091 143.4 351.255 143.956 351.583 144.356C351.919 144.756 352.367 144.956 352.927 144.956C353.719 144.956 354.243 144.608 354.499 143.912H355.975C355.783 144.584 355.423 145.12 354.895 145.52C354.367 145.912 353.711 146.108 352.927 146.108C352.295 146.108 351.735 145.968 351.247 145.688C350.759 145.4 350.375 145 350.095 144.488C349.823 143.968 349.687 143.368 349.687 142.688Z" fill="white"/>
<path d="M345.648 146.084C345.088 146.084 344.584 145.988 344.136 145.796C343.688 145.596 343.336 145.316 343.08 144.956C342.824 144.596 342.696 144.176 342.696 143.696H344.16C344.192 144.056 344.332 144.352 344.58 144.584C344.836 144.816 345.192 144.932 345.648 144.932C346.12 144.932 346.488 144.82 346.752 144.596C347.016 144.364 347.148 144.068 347.148 143.708C347.148 143.428 347.064 143.2 346.896 143.024C346.736 142.848 346.532 142.712 346.284 142.616C346.044 142.52 345.708 142.416 345.276 142.304C344.732 142.16 344.288 142.016 343.944 141.872C343.608 141.72 343.32 141.488 343.08 141.176C342.84 140.864 342.72 140.448 342.72 139.928C342.72 139.448 342.84 139.028 343.08 138.668C343.32 138.308 343.656 138.032 344.088 137.84C344.52 137.648 345.02 137.552 345.588 137.552C346.396 137.552 347.056 137.756 347.568 138.164C348.088 138.564 348.376 139.116 348.432 139.82H346.92C346.896 139.516 346.752 139.256 346.488 139.04C346.224 138.824 345.876 138.716 345.444 138.716C345.052 138.716 344.732 138.816 344.484 139.016C344.236 139.216 344.112 139.504 344.112 139.88C344.112 140.136 344.188 140.348 344.34 140.516C344.5 140.676 344.7 140.804 344.94 140.9C345.18 140.996 345.508 141.1 345.924 141.212C346.476 141.364 346.924 141.516 347.268 141.668C347.62 141.82 347.916 142.056 348.156 142.376C348.404 142.688 348.528 143.108 348.528 143.636C348.528 144.06 348.412 144.46 348.18 144.836C347.956 145.212 347.624 145.516 347.184 145.748C346.752 145.972 346.24 146.084 345.648 146.084Z" fill="white"/>
<path d="M407.201 124.28C407.721 124.28 408.185 124.388 408.593 124.604C409.009 124.82 409.333 125.14 409.565 125.564C409.805 125.988 409.925 126.5 409.925 127.1V131H408.569V127.304C408.569 126.712 408.421 126.26 408.125 125.948C407.829 125.628 407.425 125.468 406.913 125.468C406.401 125.468 405.993 125.628 405.689 125.948C405.393 126.26 405.245 126.712 405.245 127.304V131H403.889V127.304C403.889 126.712 403.741 126.26 403.445 125.948C403.149 125.628 402.745 125.468 402.233 125.468C401.721 125.468 401.313 125.628 401.009 125.948C400.713 126.26 400.565 126.712 400.565 127.304V131H399.197V124.388H400.565V125.144C400.789 124.872 401.073 124.66 401.417 124.508C401.761 124.356 402.129 124.28 402.521 124.28C403.049 124.28 403.521 124.392 403.937 124.616C404.353 124.84 404.673 125.164 404.897 125.588C405.097 125.188 405.409 124.872 405.833 124.64C406.257 124.4 406.713 124.28 407.201 124.28Z" fill="white"/>
<path d="M394.413 131.108C393.789 131.108 393.225 130.968 392.721 130.688C392.217 130.4 391.821 130 391.533 129.488C391.245 128.968 391.101 128.368 391.101 127.688C391.101 127.016 391.249 126.42 391.545 125.9C391.841 125.38 392.245 124.98 392.757 124.7C393.269 124.42 393.841 124.28 394.473 124.28C395.105 124.28 395.677 124.42 396.189 124.7C396.701 124.98 397.105 125.38 397.401 125.9C397.697 126.42 397.845 127.016 397.845 127.688C397.845 128.36 397.693 128.956 397.389 129.476C397.085 129.996 396.669 130.4 396.141 130.688C395.621 130.968 395.045 131.108 394.413 131.108ZM394.413 129.92C394.765 129.92 395.093 129.836 395.397 129.668C395.709 129.5 395.961 129.248 396.153 128.912C396.345 128.576 396.441 128.168 396.441 127.688C396.441 127.208 396.349 126.804 396.165 126.476C395.981 126.14 395.737 125.888 395.433 125.72C395.129 125.552 394.801 125.468 394.449 125.468C394.097 125.468 393.769 125.552 393.465 125.72C393.169 125.888 392.933 126.14 392.757 126.476C392.581 126.804 392.493 127.208 392.493 127.688C392.493 128.4 392.673 128.952 393.033 129.344C393.401 129.728 393.861 129.92 394.413 129.92Z" fill="white"/>
<path d="M388.307 125.348C388.507 125.012 388.771 124.752 389.099 124.568C389.435 124.376 389.831 124.28 390.287 124.28V125.696H389.939C389.403 125.696 388.995 125.832 388.715 126.104C388.443 126.376 388.307 126.848 388.307 127.52V131H386.939V124.388H388.307V125.348Z" fill="white"/>
<path d="M385.727 125.504H384.503V131H383.123V125.504H382.343V124.388H383.123V123.92C383.123 123.16 383.323 122.608 383.723 122.264C384.131 121.912 384.767 121.736 385.631 121.736V122.876C385.215 122.876 384.923 122.956 384.755 123.116C384.587 123.268 384.503 123.536 384.503 123.92V124.388H385.727V125.504Z" fill="white"/>
<path d="M378.042 122.12V131H376.674V122.12H378.042Z" fill="white"/>
<path d="M375.328 127.532C375.328 127.78 375.312 128.004 375.28 128.204H370.228C370.268 128.732 370.464 129.156 370.816 129.476C371.168 129.796 371.6 129.956 372.112 129.956C372.848 129.956 373.368 129.648 373.672 129.032H375.148C374.948 129.64 374.584 130.14 374.056 130.532C373.536 130.916 372.888 131.108 372.112 131.108C371.48 131.108 370.912 130.968 370.408 130.688C369.912 130.4 369.52 130 369.232 129.488C368.952 128.968 368.812 128.368 368.812 127.688C368.812 127.008 368.948 126.412 369.22 125.9C369.5 125.38 369.888 124.98 370.384 124.7C370.888 124.42 371.464 124.28 372.112 124.28C372.736 124.28 373.292 124.416 373.78 124.688C374.268 124.96 374.648 125.344 374.92 125.84C375.192 126.328 375.328 126.892 375.328 127.532ZM373.9 127.1C373.892 126.596 373.712 126.192 373.36 125.888C373.008 125.584 372.572 125.432 372.052 125.432C371.58 125.432 371.176 125.584 370.84 125.888C370.504 126.184 370.304 126.588 370.24 127.1H373.9Z" fill="white"/>
<path d="M360.679 127.664C360.679 127 360.815 126.412 361.087 125.9C361.367 125.388 361.743 124.992 362.215 124.712C362.695 124.424 363.227 124.28 363.811 124.28C364.243 124.28 364.667 124.376 365.083 124.568C365.507 124.752 365.843 125 366.091 125.312V122.12H367.471V131H366.091V130.004C365.867 130.324 365.555 130.588 365.155 130.796C364.763 131.004 364.311 131.108 363.799 131.108C363.223 131.108 362.695 130.964 362.215 130.676C361.743 130.38 361.367 129.972 361.087 129.452C360.815 128.924 360.679 128.328 360.679 127.664ZM366.091 127.688C366.091 127.232 365.995 126.836 365.803 126.5C365.619 126.164 365.375 125.908 365.071 125.732C364.767 125.556 364.439 125.468 364.087 125.468C363.735 125.468 363.407 125.556 363.103 125.732C362.799 125.9 362.551 126.152 362.359 126.488C362.175 126.816 362.083 127.208 362.083 127.664C362.083 128.12 362.175 128.52 362.359 128.864C362.551 129.208 362.799 129.472 363.103 129.656C363.415 129.832 363.743 129.92 364.087 129.92C364.439 129.92 364.767 129.832 365.071 129.656C365.375 129.48 365.619 129.224 365.803 128.888C365.995 128.544 366.091 128.144 366.091 127.688Z" fill="white"/>
<path d="M356.35 131.108C355.726 131.108 355.162 130.968 354.658 130.688C354.154 130.4 353.758 130 353.47 129.488C353.182 128.968 353.038 128.368 353.038 127.688C353.038 127.016 353.186 126.42 353.482 125.9C353.778 125.38 354.182 124.98 354.694 124.7C355.206 124.42 355.778 124.28 356.41 124.28C357.042 124.28 357.614 124.42 358.126 124.7C358.638 124.98 359.042 125.38 359.338 125.9C359.634 126.42 359.782 127.016 359.782 127.688C359.782 128.36 359.63 128.956 359.326 129.476C359.022 129.996 358.606 130.4 358.078 130.688C357.558 130.968 356.982 131.108 356.35 131.108ZM356.35 129.92C356.702 129.92 357.03 129.836 357.334 129.668C357.646 129.5 357.898 129.248 358.09 128.912C358.282 128.576 358.378 128.168 358.378 127.688C358.378 127.208 358.286 126.804 358.102 126.476C357.918 126.14 357.674 125.888 357.37 125.72C357.066 125.552 356.738 125.468 356.386 125.468C356.034 125.468 355.706 125.552 355.402 125.72C355.106 125.888 354.87 126.14 354.694 126.476C354.518 126.804 354.43 127.208 354.43 127.688C354.43 128.4 354.61 128.952 354.97 129.344C355.338 129.728 355.798 129.92 356.35 129.92Z" fill="white"/>
<path d="M351.684 122.66V131H350.316V125.288L347.772 131H346.824L344.268 125.288V131H342.9V122.66H344.376L347.304 129.2L350.22 122.66H351.684Z" fill="white"/>
<path d="M439.136 112.532C439.136 112.78 439.12 113.004 439.088 113.204H434.036C434.076 113.732 434.272 114.156 434.624 114.476C434.976 114.796 435.408 114.956 435.92 114.956C436.656 114.956 437.176 114.648 437.48 114.032H438.956C438.756 114.64 438.392 115.14 437.864 115.532C437.344 115.916 436.696 116.108 435.92 116.108C435.288 116.108 434.72 115.968 434.216 115.688C433.72 115.4 433.328 115 433.04 114.488C432.76 113.968 432.62 113.368 432.62 112.688C432.62 112.008 432.756 111.412 433.028 110.9C433.308 110.38 433.696 109.98 434.192 109.7C434.696 109.42 435.272 109.28 435.92 109.28C436.544 109.28 437.1 109.416 437.588 109.688C438.076 109.96 438.456 110.344 438.728 110.84C439 111.328 439.136 111.892 439.136 112.532ZM437.708 112.1C437.7 111.596 437.52 111.192 437.168 110.888C436.816 110.584 436.38 110.432 435.86 110.432C435.388 110.432 434.984 110.584 434.648 110.888C434.312 111.184 434.112 111.588 434.048 112.1H437.708Z" fill="white"/>
<path d="M427.607 109.28C428.119 109.28 428.571 109.384 428.963 109.592C429.363 109.792 429.675 110.044 429.899 110.348V109.388H431.279V116.108C431.279 116.716 431.151 117.256 430.895 117.728C430.639 118.208 430.267 118.584 429.779 118.856C429.299 119.128 428.723 119.264 428.051 119.264C427.155 119.264 426.411 119.052 425.819 118.628C425.227 118.212 424.891 117.644 424.811 116.924H426.167C426.271 117.268 426.491 117.544 426.827 117.752C427.171 117.968 427.579 118.076 428.051 118.076C428.603 118.076 429.047 117.908 429.383 117.572C429.727 117.236 429.899 116.748 429.899 116.108V115.004C429.667 115.316 429.351 115.58 428.951 115.796C428.559 116.004 428.111 116.108 427.607 116.108C427.031 116.108 426.503 115.964 426.023 115.676C425.551 115.38 425.175 114.972 424.895 114.452C424.623 113.924 424.487 113.328 424.487 112.664C424.487 112 424.623 111.412 424.895 110.9C425.175 110.388 425.551 109.992 426.023 109.712C426.503 109.424 427.031 109.28 427.607 109.28ZM429.899 112.688C429.899 112.232 429.803 111.836 429.611 111.5C429.427 111.164 429.183 110.908 428.879 110.732C428.575 110.556 428.247 110.468 427.895 110.468C427.543 110.468 427.215 110.556 426.911 110.732C426.607 110.9 426.359 111.152 426.167 111.488C425.983 111.816 425.891 112.208 425.891 112.664C425.891 113.12 425.983 113.52 426.167 113.864C426.359 114.208 426.607 114.472 426.911 114.656C427.223 114.832 427.551 114.92 427.895 114.92C428.247 114.92 428.575 114.832 428.879 114.656C429.183 114.48 429.427 114.224 429.611 113.888C429.803 113.544 429.899 113.144 429.899 112.688Z" fill="white"/>
<path d="M416.354 112.664C416.354 112 416.49 111.412 416.762 110.9C417.042 110.388 417.418 109.992 417.89 109.712C418.37 109.424 418.898 109.28 419.474 109.28C419.994 109.28 420.446 109.384 420.83 109.592C421.222 109.792 421.534 110.044 421.766 110.348V109.388H423.146V116H421.766V115.016C421.534 115.328 421.218 115.588 420.818 115.796C420.418 116.004 419.962 116.108 419.45 116.108C418.882 116.108 418.362 115.964 417.89 115.676C417.418 115.38 417.042 114.972 416.762 114.452C416.49 113.924 416.354 113.328 416.354 112.664ZM421.766 112.688C421.766 112.232 421.67 111.836 421.478 111.5C421.294 111.164 421.05 110.908 420.746 110.732C420.442 110.556 420.114 110.468 419.762 110.468C419.41 110.468 419.082 110.556 418.778 110.732C418.474 110.9 418.226 111.152 418.034 111.488C417.85 111.816 417.758 112.208 417.758 112.664C417.758 113.12 417.85 113.52 418.034 113.864C418.226 114.208 418.474 114.472 418.778 114.656C419.09 114.832 419.418 114.92 419.762 114.92C420.114 114.92 420.442 114.832 420.746 114.656C421.05 114.48 421.294 114.224 421.478 113.888C421.67 113.544 421.766 113.144 421.766 112.688Z" fill="white"/>
<path d="M415.006 109.388V116H413.638V115.22C413.422 115.492 413.138 115.708 412.786 115.868C412.442 116.02 412.074 116.096 411.682 116.096C411.162 116.096 410.694 115.988 410.278 115.772C409.87 115.556 409.546 115.236 409.306 114.812C409.074 114.388 408.958 113.876 408.958 113.276V109.388H410.314V113.072C410.314 113.664 410.462 114.12 410.758 114.44C411.054 114.752 411.458 114.908 411.97 114.908C412.482 114.908 412.886 114.752 413.182 114.44C413.486 114.12 413.638 113.664 413.638 113.072V109.388H415.006Z" fill="white"/>
<path d="M403.549 109.28C404.061 109.28 404.513 109.384 404.905 109.592C405.305 109.792 405.617 110.044 405.841 110.348V109.388H407.221V116.108C407.221 116.716 407.093 117.256 406.837 117.728C406.581 118.208 406.209 118.584 405.721 118.856C405.241 119.128 404.665 119.264 403.993 119.264C403.097 119.264 402.353 119.052 401.761 118.628C401.169 118.212 400.833 117.644 400.753 116.924H402.109C402.213 117.268 402.433 117.544 402.769 117.752C403.113 117.968 403.521 118.076 403.993 118.076C404.545 118.076 404.989 117.908 405.325 117.572C405.669 117.236 405.841 116.748 405.841 116.108V115.004C405.609 115.316 405.293 115.58 404.893 115.796C404.501 116.004 404.053 116.108 403.549 116.108C402.973 116.108 402.445 115.964 401.965 115.676C401.493 115.38 401.117 114.972 400.837 114.452C400.565 113.924 400.429 113.328 400.429 112.664C400.429 112 400.565 111.412 400.837 110.9C401.117 110.388 401.493 109.992 401.965 109.712C402.445 109.424 402.973 109.28 403.549 109.28ZM405.841 112.688C405.841 112.232 405.745 111.836 405.553 111.5C405.369 111.164 405.125 110.908 404.821 110.732C404.517 110.556 404.189 110.468 403.837 110.468C403.485 110.468 403.157 110.556 402.853 110.732C402.549 110.9 402.301 111.152 402.109 111.488C401.925 111.816 401.833 112.208 401.833 112.664C401.833 113.12 401.925 113.52 402.109 113.864C402.301 114.208 402.549 114.472 402.853 114.656C403.165 114.832 403.493 114.92 403.837 114.92C404.189 114.92 404.517 114.832 404.821 114.656C405.125 114.48 405.369 114.224 405.553 113.888C405.745 113.544 405.841 113.144 405.841 112.688Z" fill="white"/>
<path d="M396.428 109.28C396.948 109.28 397.412 109.388 397.82 109.604C398.236 109.82 398.56 110.14 398.792 110.564C399.024 110.988 399.14 111.5 399.14 112.1V116H397.784V112.304C397.784 111.712 397.636 111.26 397.34 110.948C397.044 110.628 396.64 110.468 396.128 110.468C395.616 110.468 395.208 110.628 394.904 110.948C394.608 111.26 394.46 111.712 394.46 112.304V116H393.092V109.388H394.46V110.144C394.684 109.872 394.968 109.66 395.312 109.508C395.664 109.356 396.036 109.28 396.428 109.28Z" fill="white"/>
<path d="M384.503 112.664C384.503 112 384.639 111.412 384.911 110.9C385.191 110.388 385.567 109.992 386.039 109.712C386.519 109.424 387.047 109.28 387.623 109.28C388.143 109.28 388.595 109.384 388.979 109.592C389.371 109.792 389.683 110.044 389.915 110.348V109.388H391.295V116H389.915V115.016C389.683 115.328 389.367 115.588 388.967 115.796C388.567 116.004 388.111 116.108 387.599 116.108C387.031 116.108 386.511 115.964 386.039 115.676C385.567 115.38 385.191 114.972 384.911 114.452C384.639 113.924 384.503 113.328 384.503 112.664ZM389.915 112.688C389.915 112.232 389.819 111.836 389.627 111.5C389.443 111.164 389.199 110.908 388.895 110.732C388.591 110.556 388.263 110.468 387.911 110.468C387.559 110.468 387.231 110.556 386.927 110.732C386.623 110.9 386.375 111.152 386.183 111.488C385.999 111.816 385.907 112.208 385.907 112.664C385.907 113.12 385.999 113.52 386.183 113.864C386.375 114.208 386.623 114.472 386.927 114.656C387.239 114.832 387.567 114.92 387.911 114.92C388.263 114.92 388.591 114.832 388.895 114.656C389.199 114.48 389.443 114.224 389.627 113.888C389.819 113.544 389.915 113.144 389.915 112.688Z" fill="white"/>
<path d="M380.995 114.896H383.815V116H379.627V107.66H380.995V114.896Z" fill="white"/>
<path d="M375.163 112.532C375.163 112.78 375.147 113.004 375.115 113.204H370.063C370.103 113.732 370.299 114.156 370.651 114.476C371.003 114.796 371.435 114.956 371.947 114.956C372.683 114.956 373.203 114.648 373.507 114.032H374.983C374.783 114.64 374.419 115.14 373.891 115.532C373.371 115.916 372.723 116.108 371.947 116.108C371.315 116.108 370.747 115.968 370.243 115.688C369.747 115.4 369.355 115 369.067 114.488C368.787 113.968 368.647 113.368 368.647 112.688C368.647 112.008 368.783 111.412 369.055 110.9C369.335 110.38 369.723 109.98 370.219 109.7C370.723 109.42 371.299 109.28 371.947 109.28C372.571 109.28 373.127 109.416 373.615 109.688C374.103 109.96 374.483 110.344 374.755 110.84C375.027 111.328 375.163 111.892 375.163 112.532ZM373.735 112.1C373.727 111.596 373.547 111.192 373.195 110.888C372.843 110.584 372.407 110.432 371.887 110.432C371.415 110.432 371.011 110.584 370.675 110.888C370.339 111.184 370.139 111.588 370.075 112.1H373.735Z" fill="white"/>
<path d="M363.635 109.28C364.147 109.28 364.599 109.384 364.991 109.592C365.391 109.792 365.703 110.044 365.927 110.348V109.388H367.307V116.108C367.307 116.716 367.179 117.256 366.923 117.728C366.667 118.208 366.295 118.584 365.807 118.856C365.327 119.128 364.751 119.264 364.079 119.264C363.183 119.264 362.439 119.052 361.847 118.628C361.255 118.212 360.919 117.644 360.839 116.924H362.195C362.299 117.268 362.519 117.544 362.855 117.752C363.199 117.968 363.607 118.076 364.079 118.076C364.631 118.076 365.075 117.908 365.411 117.572C365.755 117.236 365.927 116.748 365.927 116.108V115.004C365.695 115.316 365.379 115.58 364.979 115.796C364.587 116.004 364.139 116.108 363.635 116.108C363.059 116.108 362.531 115.964 362.051 115.676C361.579 115.38 361.203 114.972 360.923 114.452C360.651 113.924 360.515 113.328 360.515 112.664C360.515 112 360.651 111.412 360.923 110.9C361.203 110.388 361.579 109.992 362.051 109.712C362.531 109.424 363.059 109.28 363.635 109.28ZM365.927 112.688C365.927 112.232 365.831 111.836 365.639 111.5C365.455 111.164 365.211 110.908 364.907 110.732C364.603 110.556 364.275 110.468 363.923 110.468C363.571 110.468 363.243 110.556 362.939 110.732C362.635 110.9 362.387 111.152 362.195 111.488C362.011 111.816 361.919 112.208 361.919 112.664C361.919 113.12 362.011 113.52 362.195 113.864C362.387 114.208 362.635 114.472 362.939 114.656C363.251 114.832 363.579 114.92 363.923 114.92C364.275 114.92 364.603 114.832 364.907 114.656C365.211 114.48 365.455 114.224 365.639 113.888C365.831 113.544 365.927 113.144 365.927 112.688Z" fill="white"/>
<path d="M357.733 110.348C357.933 110.012 358.197 109.752 358.525 109.568C358.861 109.376 359.257 109.28 359.713 109.28V110.696H359.365C358.829 110.696 358.421 110.832 358.141 111.104C357.869 111.376 357.733 111.848 357.733 112.52V116H356.365V109.388H357.733V110.348Z" fill="white"/>
<path d="M347.776 112.664C347.776 112 347.912 111.412 348.184 110.9C348.464 110.388 348.84 109.992 349.312 109.712C349.792 109.424 350.32 109.28 350.896 109.28C351.416 109.28 351.868 109.384 352.252 109.592C352.644 109.792 352.956 110.044 353.188 110.348V109.388H354.568V116H353.188V115.016C352.956 115.328 352.64 115.588 352.24 115.796C351.84 116.004 351.384 116.108 350.872 116.108C350.304 116.108 349.784 115.964 349.312 115.676C348.84 115.38 348.464 114.972 348.184 114.452C347.912 113.924 347.776 113.328 347.776 112.664ZM353.188 112.688C353.188 112.232 353.092 111.836 352.9 111.5C352.716 111.164 352.472 110.908 352.168 110.732C351.864 110.556 351.536 110.468 351.184 110.468C350.832 110.468 350.504 110.556 350.2 110.732C349.896 110.9 349.648 111.152 349.456 111.488C349.272 111.816 349.18 112.208 349.18 112.664C349.18 113.12 349.272 113.52 349.456 113.864C349.648 114.208 349.896 114.472 350.2 114.656C350.512 114.832 350.84 114.92 351.184 114.92C351.536 114.92 351.864 114.832 352.168 114.656C352.472 114.48 352.716 114.224 352.9 113.888C353.092 113.544 353.188 113.144 353.188 112.688Z" fill="white"/>
<path d="M344.268 114.896H347.088V116H342.9V107.66H344.268V114.896Z" fill="white"/>
<path d="M394.464 97.6638C394.464 96.9998 394.6 96.4118 394.872 95.8998C395.152 95.3878 395.528 94.9918 396 94.7118C396.48 94.4238 397.008 94.2798 397.584 94.2798C398.104 94.2798 398.556 94.3838 398.94 94.5918C399.332 94.7918 399.644 95.0438 399.876 95.3478V94.3878H401.256V101H399.876V100.016C399.644 100.328 399.328 100.588 398.928 100.796C398.528 101.004 398.072 101.108 397.56 101.108C396.992 101.108 396.472 100.964 396 100.676C395.528 100.38 395.152 99.9718 394.872 99.4518C394.6 98.9238 394.464 98.3278 394.464 97.6638ZM399.876 97.6878C399.876 97.2318 399.78 96.8358 399.588 96.4998C399.404 96.1638 399.16 95.9078 398.856 95.7318C398.552 95.5558 398.224 95.4678 397.872 95.4678C397.52 95.4678 397.192 95.5558 396.888 95.7318C396.584 95.8998 396.336 96.1518 396.144 96.4878C395.96 96.8158 395.868 97.2078 395.868 97.6638C395.868 98.1198 395.96 98.5198 396.144 98.8638C396.336 99.2078 396.584 99.4718 396.888 99.6558C397.2 99.8318 397.528 99.9198 397.872 99.9198C398.224 99.9198 398.552 99.8318 398.856 99.6558C399.16 99.4798 399.404 99.2238 399.588 98.8878C399.78 98.5438 399.876 98.1438 399.876 97.6878Z" fill="white"/>
<path d="M386.334 94.2798C386.846 94.2798 387.298 94.3838 387.69 94.5918C388.09 94.7918 388.402 95.0438 388.626 95.3478V94.3878H390.006V101.108C390.006 101.716 389.878 102.256 389.622 102.728C389.366 103.208 388.994 103.584 388.506 103.856C388.026 104.128 387.45 104.264 386.778 104.264C385.882 104.264 385.138 104.052 384.546 103.628C383.954 103.212 383.618 102.644 383.538 101.924H384.894C384.998 102.268 385.218 102.544 385.554 102.752C385.898 102.968 386.306 103.076 386.778 103.076C387.33 103.076 387.774 102.908 388.11 102.572C388.454 102.236 388.626 101.748 388.626 101.108V100.004C388.394 100.316 388.078 100.58 387.678 100.796C387.286 101.004 386.838 101.108 386.334 101.108C385.758 101.108 385.23 100.964 384.75 100.676C384.278 100.38 383.902 99.9718 383.622 99.4518C383.35 98.9238 383.214 98.3278 383.214 97.6638C383.214 96.9998 383.35 96.4118 383.622 95.8998C383.902 95.3878 384.278 94.9918 384.75 94.7118C385.23 94.4238 385.758 94.2798 386.334 94.2798ZM388.626 97.6878C388.626 97.2318 388.53 96.8358 388.338 96.4998C388.154 96.1638 387.91 95.9078 387.606 95.7318C387.302 95.5558 386.974 95.4678 386.622 95.4678C386.27 95.4678 385.942 95.5558 385.638 95.7318C385.334 95.8998 385.086 96.1518 384.894 96.4878C384.71 96.8158 384.618 97.2078 384.618 97.6638C384.618 98.1198 384.71 98.5198 384.894 98.8638C385.086 99.2078 385.334 99.4718 385.638 99.6558C385.95 99.8318 386.278 99.9198 386.622 99.9198C386.974 99.9198 387.302 99.8318 387.606 99.6558C387.91 99.4798 388.154 99.2238 388.338 98.8878C388.53 98.5438 388.626 98.1438 388.626 97.6878Z" fill="white"/>
<path d="M379.213 94.2798C379.733 94.2798 380.197 94.3878 380.605 94.6038C381.021 94.8198 381.345 95.1398 381.577 95.5638C381.809 95.9878 381.925 96.4998 381.925 97.0998V101H380.569V97.3038C380.569 96.7118 380.421 96.2598 380.125 95.9478C379.829 95.6278 379.425 95.4678 378.913 95.4678C378.401 95.4678 377.993 95.6278 377.689 95.9478C377.393 96.2598 377.245 96.7118 377.245 97.3038V101H375.877V94.3878H377.245V95.1438C377.469 94.8718 377.753 94.6598 378.097 94.5078C378.449 94.3558 378.821 94.2798 379.213 94.2798Z" fill="white"/>
<path d="M373.409 93.5118C373.161 93.5118 372.953 93.4278 372.785 93.2598C372.617 93.0918 372.533 92.8838 372.533 92.6358C372.533 92.3878 372.617 92.1798 372.785 92.0118C372.953 91.8438 373.161 91.7598 373.409 91.7598C373.649 91.7598 373.853 91.8438 374.021 92.0118C374.189 92.1798 374.273 92.3878 374.273 92.6358C374.273 92.8838 374.189 93.0918 374.021 93.2598C373.853 93.4278 373.649 93.5118 373.409 93.5118ZM374.081 94.3878V101H372.713V94.3878H374.081Z" fill="white"/>
<path d="M364.124 97.6636C364.124 96.9996 364.26 96.4116 364.532 95.8996C364.812 95.3876 365.188 94.9916 365.66 94.7116C366.14 94.4236 366.672 94.2796 367.256 94.2796C367.688 94.2796 368.112 94.3756 368.528 94.5676C368.952 94.7516 369.288 94.9996 369.536 95.3116V92.1196H370.916V101H369.536V100.004C369.312 100.324 369 100.588 368.6 100.796C368.208 101.004 367.756 101.108 367.244 101.108C366.668 101.108 366.14 100.964 365.66 100.676C365.188 100.38 364.812 99.9716 364.532 99.4516C364.26 98.9236 364.124 98.3276 364.124 97.6636ZM369.536 97.6876C369.536 97.2316 369.44 96.8356 369.248 96.4996C369.064 96.1636 368.82 95.9076 368.516 95.7316C368.212 95.5556 367.884 95.4676 367.532 95.4676C367.18 95.4676 366.852 95.5556 366.548 95.7316C366.244 95.8996 365.996 96.1516 365.804 96.4876C365.62 96.8156 365.528 97.2076 365.528 97.6636C365.528 98.1196 365.62 98.5196 365.804 98.8636C365.996 99.2076 366.244 99.4716 366.548 99.6556C366.86 99.8316 367.188 99.9196 367.532 99.9196C367.884 99.9196 368.212 99.8316 368.516 99.6556C368.82 99.4796 369.064 99.2236 369.248 98.8876C369.44 98.5436 369.536 98.1436 369.536 97.6876Z" fill="white"/>
<path d="M362.784 92.1196V101H361.416V92.1196H362.784Z" fill="white"/>
<path d="M358.948 93.5118C358.7 93.5118 358.492 93.4278 358.324 93.2598C358.156 93.0918 358.072 92.8838 358.072 92.6358C358.072 92.3878 358.156 92.1798 358.324 92.0118C358.492 91.8438 358.7 91.7598 358.948 91.7598C359.188 91.7598 359.392 91.8438 359.56 92.0118C359.728 92.1798 359.812 92.3878 359.812 92.6358C359.812 92.8838 359.728 93.0918 359.56 93.2598C359.392 93.4278 359.188 93.5118 358.948 93.5118ZM359.62 94.3878V101H358.252V94.3878H359.62Z" fill="white"/>
<path d="M356.447 94.3877V101H355.079V100.22C354.863 100.492 354.579 100.708 354.227 100.868C353.883 101.02 353.515 101.096 353.123 101.096C352.603 101.096 352.135 100.988 351.719 100.772C351.311 100.556 350.987 100.236 350.747 99.8117C350.515 99.3877 350.399 98.8757 350.399 98.2757V94.3877H351.755V98.0717C351.755 98.6637 351.903 99.1197 352.199 99.4397C352.495 99.7517 352.899 99.9077 353.411 99.9077C353.923 99.9077 354.327 99.7517 354.623 99.4397C354.927 99.1197 355.079 98.6637 355.079 98.0717V94.3877H356.447Z" fill="white"/>
<path d="M347.364 96.7157C347.812 96.7957 348.192 97.0317 348.504 97.4237C348.816 97.8157 348.972 98.2597 348.972 98.7557C348.972 99.1797 348.86 99.5637 348.636 99.9077C348.42 100.244 348.104 100.512 347.688 100.712C347.272 100.904 346.788 101 346.236 101H342.9V92.6597H346.08C346.648 92.6597 347.136 92.7557 347.544 92.9477C347.952 93.1397 348.26 93.3997 348.468 93.7277C348.676 94.0477 348.78 94.4077 348.78 94.8077C348.78 95.2877 348.652 95.6877 348.396 96.0077C348.14 96.3277 347.796 96.5637 347.364 96.7157ZM344.268 96.1637H345.96C346.408 96.1637 346.756 96.0637 347.004 95.8637C347.26 95.6557 347.388 95.3597 347.388 94.9757C347.388 94.5997 347.26 94.3077 347.004 94.0997C346.756 93.8837 346.408 93.7757 345.96 93.7757H344.268V96.1637ZM346.116 99.8837C346.58 99.8837 346.944 99.7717 347.208 99.5477C347.472 99.3237 347.604 99.0117 347.604 98.6117C347.604 98.2037 347.464 97.8797 347.184 97.6397C346.904 97.3997 346.532 97.2797 346.068 97.2797H344.268V99.8837H346.116Z" fill="white"/>
<path d="M40.4075 181.27V191H38.8115V181.27H40.4075Z" fill="white"/>
<path d="M34.9156 189.012H30.8416L30.1416 191H28.4756L31.9616 181.256H33.8096L37.2956 191H35.6156L34.9156 189.012ZM34.4676 187.71L32.8856 183.188L31.2896 187.71H34.4676Z" fill="white"/>
<path d="M74.4004 170.136C74.4004 169.343 74.5591 168.647 74.8764 168.05C75.2031 167.443 75.6511 166.977 76.2204 166.65C76.7897 166.323 77.4431 166.16 78.1804 166.16C79.1137 166.16 79.8837 166.384 80.4904 166.832C81.1064 167.271 81.5217 167.901 81.7364 168.722H80.0144C79.8744 168.339 79.6504 168.041 79.3424 167.826C79.0344 167.611 78.6471 167.504 78.1804 167.504C77.5271 167.504 77.0044 167.737 76.6124 168.204C76.2297 168.661 76.0384 169.305 76.0384 170.136C76.0384 170.967 76.2297 171.615 76.6124 172.082C77.0044 172.549 77.5271 172.782 78.1804 172.782C79.1044 172.782 79.7157 172.376 80.0144 171.564H81.7364C81.5124 172.348 81.0924 172.973 80.4764 173.44C79.8604 173.897 79.0951 174.126 78.1804 174.126C77.4431 174.126 76.7897 173.963 76.2204 173.636C75.6511 173.3 75.2031 172.833 74.8764 172.236C74.5591 171.629 74.4004 170.929 74.4004 170.136Z" fill="white"/>
<path d="M72.0532 165.264C71.7639 165.264 71.5212 165.166 71.3252 164.97C71.1292 164.774 71.0312 164.532 71.0312 164.242C71.0312 163.953 71.1292 163.71 71.3252 163.514C71.5212 163.318 71.7639 163.22 72.0532 163.22C72.3332 163.22 72.5712 163.318 72.7673 163.514C72.9633 163.71 73.0612 163.953 73.0612 164.242C73.0612 164.532 72.9633 164.774 72.7673 164.97C72.5712 165.166 72.3332 165.264 72.0532 165.264ZM72.8372 166.286V174H71.2412V166.286H72.8372Z" fill="white"/>
<path d="M67.894 167.588V171.858C67.894 172.147 67.9594 172.357 68.09 172.488C68.23 172.609 68.4634 172.67 68.79 172.67H69.77V174H68.51C67.7914 174 67.2407 173.832 66.858 173.496C66.4754 173.16 66.284 172.614 66.284 171.858V167.588H65.374V166.286H66.284V164.368H67.894V166.286H69.77V167.588H67.894Z" fill="white"/>
<path d="M60.8324 166.16C61.4391 166.16 61.9804 166.286 62.4564 166.538C62.9418 166.79 63.3198 167.163 63.5904 167.658C63.8611 168.153 63.9964 168.75 63.9964 169.45V174H62.4144V169.688C62.4144 168.997 62.2418 168.47 61.8964 168.106C61.5511 167.733 61.0798 167.546 60.4824 167.546C59.8851 167.546 59.4091 167.733 59.0544 168.106C58.7091 168.47 58.5364 168.997 58.5364 169.688V174H56.9404V166.286H58.5364V167.168C58.7978 166.851 59.1291 166.603 59.5304 166.426C59.9411 166.249 60.3751 166.16 60.8324 166.16Z" fill="white"/>
<path d="M55.3696 169.954C55.3696 170.243 55.3509 170.505 55.3136 170.738H49.4196C49.4662 171.354 49.6949 171.849 50.1056 172.222C50.5162 172.595 51.0202 172.782 51.6176 172.782C52.4762 172.782 53.0829 172.423 53.4376 171.704H55.1596C54.9262 172.413 54.5016 172.997 53.8856 173.454C53.2789 173.902 52.5229 174.126 51.6176 174.126C50.8802 174.126 50.2176 173.963 49.6296 173.636C49.0509 173.3 48.5936 172.833 48.2576 172.236C47.9309 171.629 47.7676 170.929 47.7676 170.136C47.7676 169.343 47.9262 168.647 48.2436 168.05C48.5702 167.443 49.0229 166.977 49.6016 166.65C50.1896 166.323 50.8616 166.16 51.6176 166.16C52.3456 166.16 52.9942 166.319 53.5636 166.636C54.1329 166.953 54.5762 167.401 54.8936 167.98C55.2109 168.549 55.3696 169.207 55.3696 169.954ZM53.7036 169.45C53.6942 168.862 53.4842 168.391 53.0736 168.036C52.6629 167.681 52.1542 167.504 51.5476 167.504C50.9969 167.504 50.5256 167.681 50.1336 168.036C49.7416 168.381 49.5082 168.853 49.4336 169.45H53.7036Z" fill="white"/>
<path d="M41.9193 166.16C42.5166 166.16 43.044 166.281 43.5013 166.524C43.968 166.757 44.332 167.051 44.5933 167.406V166.286H46.2033V174.126C46.2033 174.835 46.054 175.465 45.7553 176.016C45.4566 176.576 45.0226 177.015 44.4533 177.332C43.8933 177.649 43.2213 177.808 42.4373 177.808C41.392 177.808 40.524 177.561 39.8333 177.066C39.1426 176.581 38.7506 175.918 38.6573 175.078H40.2393C40.3606 175.479 40.6173 175.801 41.0093 176.044C41.4106 176.296 41.8866 176.422 42.4373 176.422C43.0813 176.422 43.5993 176.226 43.9913 175.834C44.3926 175.442 44.5933 174.873 44.5933 174.126V172.838C44.3226 173.202 43.954 173.51 43.4873 173.762C43.03 174.005 42.5073 174.126 41.9193 174.126C41.2473 174.126 40.6313 173.958 40.0713 173.622C39.5206 173.277 39.082 172.801 38.7553 172.194C38.438 171.578 38.2793 170.883 38.2793 170.108C38.2793 169.333 38.438 168.647 38.7553 168.05C39.082 167.453 39.5206 166.991 40.0713 166.664C40.6313 166.328 41.2473 166.16 41.9193 166.16ZM44.5933 170.136C44.5933 169.604 44.4813 169.142 44.2573 168.75C44.0426 168.358 43.758 168.059 43.4033 167.854C43.0486 167.649 42.666 167.546 42.2553 167.546C41.8446 167.546 41.462 167.649 41.1073 167.854C40.7526 168.05 40.4633 168.344 40.2393 168.736C40.0246 169.119 39.9173 169.576 39.9173 170.108C39.9173 170.64 40.0246 171.107 40.2393 171.508C40.4633 171.909 40.7526 172.217 41.1073 172.432C41.4713 172.637 41.854 172.74 42.2553 172.74C42.666 172.74 43.0486 172.637 43.4033 172.432C43.758 172.227 44.0426 171.928 44.2573 171.536C44.4813 171.135 44.5933 170.668 44.5933 170.136Z" fill="white"/>
<path d="M34.9156 172.012H30.8416L30.1416 174H28.4756L31.9616 164.256H33.8096L37.2956 174H35.6156L34.9156 172.012ZM34.4676 170.71L32.8856 166.188L31.2896 170.71H34.4676Z" fill="white"/>
</g>
<path d="M203.301 133.16C203.898 133.16 204.426 133.281 204.883 133.524C205.35 133.757 205.714 134.051 205.975 134.406V133.286H207.585V141.126C207.585 141.835 207.436 142.465 207.137 143.016C206.838 143.576 206.404 144.015 205.835 144.332C205.275 144.649 204.603 144.808 203.819 144.808C202.774 144.808 201.906 144.561 201.215 144.066C200.524 143.581 200.132 142.918 200.039 142.078H201.621C201.742 142.479 201.999 142.801 202.391 143.044C202.792 143.296 203.268 143.422 203.819 143.422C204.463 143.422 204.981 143.226 205.373 142.834C205.774 142.442 205.975 141.873 205.975 141.126V139.838C205.704 140.202 205.336 140.51 204.869 140.762C204.412 141.005 203.889 141.126 203.301 141.126C202.629 141.126 202.013 140.958 201.453 140.622C200.902 140.277 200.464 139.801 200.137 139.194C199.82 138.578 199.661 137.883 199.661 137.108C199.661 136.333 199.82 135.647 200.137 135.05C200.464 134.453 200.902 133.991 201.453 133.664C202.013 133.328 202.629 133.16 203.301 133.16ZM205.975 137.136C205.975 136.604 205.863 136.142 205.639 135.75C205.424 135.358 205.14 135.059 204.785 134.854C204.43 134.649 204.048 134.546 203.637 134.546C203.226 134.546 202.844 134.649 202.489 134.854C202.134 135.05 201.845 135.344 201.621 135.736C201.406 136.119 201.299 136.576 201.299 137.108C201.299 137.64 201.406 138.107 201.621 138.508C201.845 138.909 202.134 139.217 202.489 139.432C202.853 139.637 203.236 139.74 203.637 139.74C204.048 139.74 204.43 139.637 204.785 139.432C205.14 139.227 205.424 138.928 205.639 138.536C205.863 138.135 205.975 137.668 205.975 137.136Z" fill="white"/>
<path d="M194.993 133.16C195.599 133.16 196.141 133.286 196.617 133.538C197.102 133.79 197.48 134.163 197.751 134.658C198.021 135.153 198.157 135.75 198.157 136.45V141H196.575V136.688C196.575 135.997 196.402 135.47 196.057 135.106C195.711 134.733 195.24 134.546 194.643 134.546C194.045 134.546 193.569 134.733 193.215 135.106C192.869 135.47 192.697 135.997 192.697 136.688V141H191.101V133.286H192.697V134.168C192.958 133.851 193.289 133.603 193.691 133.426C194.101 133.249 194.535 133.16 194.993 133.16Z" fill="white"/>
<path d="M188.221 132.264C187.932 132.264 187.689 132.166 187.493 131.97C187.297 131.774 187.199 131.532 187.199 131.242C187.199 130.953 187.297 130.71 187.493 130.514C187.689 130.318 187.932 130.22 188.221 130.22C188.501 130.22 188.739 130.318 188.935 130.514C189.131 130.71 189.229 130.953 189.229 131.242C189.229 131.532 189.131 131.774 188.935 131.97C188.739 132.166 188.501 132.264 188.221 132.264ZM189.005 133.286V141H187.409V133.286H189.005Z" fill="white"/>
<path d="M183.632 134.406C183.865 134.014 184.173 133.711 184.556 133.496C184.948 133.272 185.41 133.16 185.942 133.16V134.812H185.536C184.911 134.812 184.435 134.971 184.108 135.288C183.791 135.605 183.632 136.156 183.632 136.94V141H182.036V133.286H183.632V134.406Z" fill="white"/>
<path d="M180.466 136.954C180.466 137.243 180.448 137.505 180.41 137.738H174.516C174.563 138.354 174.792 138.849 175.202 139.222C175.613 139.595 176.117 139.782 176.714 139.782C177.573 139.782 178.18 139.423 178.534 138.704H180.256C180.023 139.413 179.598 139.997 178.982 140.454C178.376 140.902 177.62 141.126 176.714 141.126C175.977 141.126 175.314 140.963 174.726 140.636C174.148 140.3 173.69 139.833 173.354 139.236C173.028 138.629 172.864 137.929 172.864 137.136C172.864 136.343 173.023 135.647 173.34 135.05C173.667 134.443 174.12 133.977 174.698 133.65C175.286 133.323 175.958 133.16 176.714 133.16C177.442 133.16 178.091 133.319 178.66 133.636C179.23 133.953 179.673 134.401 179.99 134.98C180.308 135.549 180.466 136.207 180.466 136.954ZM178.8 136.45C178.791 135.862 178.581 135.391 178.17 135.036C177.76 134.681 177.251 134.504 176.644 134.504C176.094 134.504 175.622 134.681 175.23 135.036C174.838 135.381 174.605 135.853 174.53 136.45H178.8Z" fill="white"/>
<path d="M171.826 136.954C171.826 137.243 171.807 137.505 171.77 137.738H165.876C165.922 138.354 166.151 138.849 166.562 139.222C166.972 139.595 167.476 139.782 168.074 139.782C168.932 139.782 169.539 139.423 169.894 138.704H171.616C171.382 139.413 170.958 139.997 170.342 140.454C169.735 140.902 168.979 141.126 168.074 141.126C167.336 141.126 166.674 140.963 166.086 140.636C165.507 140.3 165.05 139.833 164.714 139.236C164.387 138.629 164.224 137.929 164.224 137.136C164.224 136.343 164.382 135.647 164.7 135.05C165.026 134.443 165.479 133.977 166.058 133.65C166.646 133.323 167.318 133.16 168.074 133.16C168.802 133.16 169.45 133.319 170.02 133.636C170.589 133.953 171.032 134.401 171.35 134.98C171.667 135.549 171.826 136.207 171.826 136.954ZM170.16 136.45C170.15 135.862 169.94 135.391 169.53 135.036C169.119 134.681 168.61 134.504 168.004 134.504C167.453 134.504 166.982 134.681 166.59 135.036C166.198 135.381 165.964 135.853 165.89 136.45H170.16Z" fill="white"/>
<path d="M159.555 133.16C160.162 133.16 160.703 133.286 161.179 133.538C161.664 133.79 162.042 134.163 162.313 134.658C162.584 135.153 162.719 135.75 162.719 136.45V141H161.137V136.688C161.137 135.997 160.964 135.47 160.619 135.106C160.274 134.733 159.802 134.546 159.205 134.546C158.608 134.546 158.132 134.733 157.777 135.106C157.432 135.47 157.259 135.997 157.259 136.688V141H155.663V133.286H157.259V134.168C157.52 133.851 157.852 133.603 158.253 133.426C158.664 133.249 159.098 133.16 159.555 133.16Z" fill="white"/>
<path d="M152.784 132.264C152.494 132.264 152.252 132.166 152.056 131.97C151.86 131.774 151.762 131.532 151.762 131.242C151.762 130.953 151.86 130.71 152.056 130.514C152.252 130.318 152.494 130.22 152.784 130.22C153.064 130.22 153.302 130.318 153.498 130.514C153.694 130.71 153.792 130.953 153.792 131.242C153.792 131.532 153.694 131.774 153.498 131.97C153.302 132.166 153.064 132.264 152.784 132.264ZM153.568 133.286V141H151.972V133.286H153.568Z" fill="white"/>
<path d="M145.592 133.16C146.189 133.16 146.717 133.281 147.174 133.524C147.641 133.757 148.005 134.051 148.266 134.406V133.286H149.876V141.126C149.876 141.835 149.727 142.465 149.428 143.016C149.129 143.576 148.695 144.015 148.126 144.332C147.566 144.649 146.894 144.808 146.11 144.808C145.065 144.808 144.197 144.561 143.506 144.066C142.815 143.581 142.423 142.918 142.33 142.078H143.912C144.033 142.479 144.29 142.801 144.682 143.044C145.083 143.296 145.559 143.422 146.11 143.422C146.754 143.422 147.272 143.226 147.664 142.834C148.065 142.442 148.266 141.873 148.266 141.126V139.838C147.995 140.202 147.627 140.51 147.16 140.762C146.703 141.005 146.18 141.126 145.592 141.126C144.92 141.126 144.304 140.958 143.744 140.622C143.193 140.277 142.755 139.801 142.428 139.194C142.111 138.578 141.952 137.883 141.952 137.108C141.952 136.333 142.111 135.647 142.428 135.05C142.755 134.453 143.193 133.991 143.744 133.664C144.304 133.328 144.92 133.16 145.592 133.16ZM148.266 137.136C148.266 136.604 148.154 136.142 147.93 135.75C147.715 135.358 147.431 135.059 147.076 134.854C146.721 134.649 146.339 134.546 145.928 134.546C145.517 134.546 145.135 134.649 144.78 134.854C144.425 135.05 144.136 135.344 143.912 135.736C143.697 136.119 143.59 136.576 143.59 137.108C143.59 137.64 143.697 138.107 143.912 138.508C144.136 138.909 144.425 139.217 144.78 139.432C145.144 139.637 145.527 139.74 145.928 139.74C146.339 139.74 146.721 139.637 147.076 139.432C147.431 139.227 147.715 138.928 147.93 138.536C148.154 138.135 148.266 137.668 148.266 137.136Z" fill="white"/>
<path d="M137.284 133.16C137.89 133.16 138.432 133.286 138.908 133.538C139.393 133.79 139.771 134.163 140.042 134.658C140.312 135.153 140.448 135.75 140.448 136.45V141H138.866V136.688C138.866 135.997 138.693 135.47 138.348 135.106C138.002 134.733 137.531 134.546 136.934 134.546C136.336 134.546 135.86 134.733 135.506 135.106C135.16 135.47 134.988 135.997 134.988 136.688V141H133.392V133.286H134.988V134.168C135.249 133.851 135.58 133.603 135.982 133.426C136.392 133.249 136.826 133.16 137.284 133.16Z" fill="white"/>
<path d="M127.646 132.558V135.414H131.006V136.716H127.646V139.698H131.426V141H126.05V131.256H131.426V132.558H127.646Z" fill="white"/>
<path d="M188.862 119.588V123.858C188.862 124.147 188.927 124.357 189.058 124.488C189.198 124.609 189.431 124.67 189.758 124.67H190.738V126H189.478C188.759 126 188.208 125.832 187.826 125.496C187.443 125.16 187.252 124.614 187.252 123.858V119.588H186.342V118.286H187.252V116.368H188.862V118.286H190.738V119.588H188.862Z" fill="white"/>
<path d="M179.107 119.42C179.377 119.065 179.746 118.767 180.213 118.524C180.679 118.281 181.207 118.16 181.795 118.16C182.467 118.16 183.078 118.328 183.629 118.664C184.189 118.991 184.627 119.453 184.945 120.05C185.262 120.647 185.421 121.333 185.421 122.108C185.421 122.883 185.262 123.578 184.945 124.194C184.627 124.801 184.189 125.277 183.629 125.622C183.078 125.958 182.467 126.126 181.795 126.126C181.207 126.126 180.684 126.009 180.227 125.776C179.769 125.533 179.396 125.235 179.107 124.88V129.668H177.511V118.286H179.107V119.42ZM183.797 122.108C183.797 121.576 183.685 121.119 183.461 120.736C183.246 120.344 182.957 120.05 182.593 119.854C182.238 119.649 181.855 119.546 181.445 119.546C181.043 119.546 180.661 119.649 180.297 119.854C179.942 120.059 179.653 120.358 179.429 120.75C179.214 121.142 179.107 121.604 179.107 122.136C179.107 122.668 179.214 123.135 179.429 123.536C179.653 123.928 179.942 124.227 180.297 124.432C180.661 124.637 181.043 124.74 181.445 124.74C181.855 124.74 182.238 124.637 182.593 124.432C182.957 124.217 183.246 123.909 183.461 123.508C183.685 123.107 183.797 122.64 183.797 122.108Z" fill="white"/>
<path d="M172.302 118.16C172.909 118.16 173.45 118.286 173.926 118.538C174.411 118.79 174.789 119.163 175.06 119.658C175.34 120.153 175.48 120.75 175.48 121.45V126H173.898V121.688C173.898 120.997 173.725 120.47 173.38 120.106C173.035 119.733 172.563 119.546 171.966 119.546C171.369 119.546 170.893 119.733 170.538 120.106C170.193 120.47 170.02 120.997 170.02 121.688V126H168.438V121.688C168.438 120.997 168.265 120.47 167.92 120.106C167.575 119.733 167.103 119.546 166.506 119.546C165.909 119.546 165.433 119.733 165.078 120.106C164.733 120.47 164.56 120.997 164.56 121.688V126H162.964V118.286H164.56V119.168C164.821 118.851 165.153 118.603 165.554 118.426C165.955 118.249 166.385 118.16 166.842 118.16C167.458 118.16 168.009 118.291 168.494 118.552C168.979 118.813 169.353 119.191 169.614 119.686C169.847 119.219 170.211 118.851 170.706 118.58C171.201 118.3 171.733 118.16 172.302 118.16Z" fill="white"/>
<path d="M157.383 126.126C156.655 126.126 155.997 125.963 155.409 125.636C154.821 125.3 154.359 124.833 154.023 124.236C153.687 123.629 153.519 122.929 153.519 122.136C153.519 121.352 153.691 120.657 154.037 120.05C154.382 119.443 154.853 118.977 155.451 118.65C156.048 118.323 156.715 118.16 157.453 118.16C158.19 118.16 158.857 118.323 159.455 118.65C160.052 118.977 160.523 119.443 160.869 120.05C161.214 120.657 161.387 121.352 161.387 122.136C161.387 122.92 161.209 123.615 160.855 124.222C160.5 124.829 160.015 125.3 159.399 125.636C158.792 125.963 158.12 126.126 157.383 126.126ZM157.383 124.74C157.793 124.74 158.176 124.642 158.531 124.446C158.895 124.25 159.189 123.956 159.413 123.564C159.637 123.172 159.749 122.696 159.749 122.136C159.749 121.576 159.641 121.105 159.427 120.722C159.212 120.33 158.927 120.036 158.573 119.84C158.218 119.644 157.835 119.546 157.425 119.546C157.014 119.546 156.631 119.644 156.277 119.84C155.931 120.036 155.656 120.33 155.451 120.722C155.245 121.105 155.143 121.576 155.143 122.136C155.143 122.967 155.353 123.611 155.773 124.068C156.202 124.516 156.739 124.74 157.383 124.74Z" fill="white"/>
<path d="M150.259 119.406C150.492 119.014 150.8 118.711 151.183 118.496C151.575 118.272 152.037 118.16 152.569 118.16V119.812H152.163C151.538 119.812 151.062 119.971 150.735 120.288C150.418 120.605 150.259 121.156 150.259 121.94V126H148.663V118.286H150.259V119.406Z" fill="white"/>
<path d="M147.141 119.168C147.141 119.663 147.024 120.129 146.791 120.568C146.558 121.007 146.184 121.366 145.671 121.646C145.158 121.917 144.5 122.052 143.697 122.052H141.933V126H140.337V116.27H143.697C144.444 116.27 145.074 116.401 145.587 116.662C146.11 116.914 146.497 117.259 146.749 117.698C147.01 118.137 147.141 118.627 147.141 119.168ZM143.697 120.75C144.304 120.75 144.756 120.615 145.055 120.344C145.354 120.064 145.503 119.672 145.503 119.168C145.503 118.104 144.901 117.572 143.697 117.572H141.933V120.75H143.697Z" fill="white"/>
<path d="M133.568 126L132.364 124.796C131.898 125.263 131.389 125.613 130.838 125.846C130.288 126.07 129.672 126.182 128.99 126.182C128.3 126.182 127.688 126.061 127.156 125.818C126.624 125.576 126.214 125.23 125.924 124.782C125.635 124.325 125.49 123.798 125.49 123.2C125.49 122.528 125.682 121.931 126.064 121.408C126.447 120.876 127.016 120.456 127.772 120.148C127.502 119.822 127.31 119.518 127.198 119.238C127.086 118.949 127.03 118.632 127.03 118.286C127.03 117.857 127.138 117.474 127.352 117.138C127.576 116.802 127.894 116.536 128.304 116.34C128.715 116.144 129.191 116.046 129.732 116.046C130.283 116.046 130.75 116.154 131.132 116.368C131.524 116.574 131.814 116.858 132 117.222C132.196 117.586 132.276 117.992 132.238 118.44H130.642C130.652 118.095 130.568 117.829 130.39 117.642C130.213 117.446 129.97 117.348 129.662 117.348C129.354 117.348 129.102 117.442 128.906 117.628C128.72 117.806 128.626 118.025 128.626 118.286C128.626 118.538 128.696 118.79 128.836 119.042C128.986 119.285 129.242 119.602 129.606 119.994L132.182 122.556L133.176 120.918H134.898L133.638 123.074L133.288 123.648L135.654 126H133.568ZM128.99 124.824C129.868 124.824 130.642 124.465 131.314 123.746L128.738 121.156C127.637 121.595 127.086 122.258 127.086 123.144C127.086 123.62 127.264 124.022 127.618 124.348C127.973 124.666 128.43 124.824 128.99 124.824Z" fill="white"/>
<path d="M218.714 101.27V111H217.118V101.27H218.714Z" fill="white"/>
<path d="M213.223 109.012H209.149L208.449 111H206.783L210.269 101.256H212.117L215.603 111H213.923L213.223 109.012ZM212.775 107.71L211.193 103.188L209.597 107.71H212.775Z" fill="white"/>
<path d="M202.15 106.954C202.15 107.243 202.131 107.505 202.094 107.738H196.2C196.247 108.354 196.475 108.849 196.886 109.222C197.297 109.595 197.801 109.782 198.398 109.782C199.257 109.782 199.863 109.423 200.218 108.704H201.94C201.707 109.413 201.282 109.997 200.666 110.454C200.059 110.902 199.303 111.126 198.398 111.126C197.661 111.126 196.998 110.963 196.41 110.636C195.831 110.3 195.374 109.833 195.038 109.236C194.711 108.629 194.548 107.929 194.548 107.136C194.548 106.343 194.707 105.647 195.024 105.05C195.351 104.443 195.803 103.977 196.382 103.65C196.97 103.323 197.642 103.16 198.398 103.16C199.126 103.16 199.775 103.319 200.344 103.636C200.913 103.953 201.357 104.401 201.674 104.98C201.991 105.549 202.15 106.207 202.15 106.954ZM200.484 106.45C200.475 105.862 200.265 105.391 199.854 105.036C199.443 104.681 198.935 104.504 198.328 104.504C197.777 104.504 197.306 104.681 196.914 105.036C196.522 105.381 196.289 105.853 196.214 106.45H200.484Z" fill="white"/>
<path d="M189.996 109.572L192.18 103.286H193.874L190.934 111H189.03L186.104 103.286H187.812L189.996 109.572Z" fill="white"/>
<path d="M184.133 102.264C183.844 102.264 183.601 102.166 183.405 101.97C183.209 101.774 183.111 101.532 183.111 101.242C183.111 100.953 183.209 100.71 183.405 100.514C183.601 100.318 183.844 100.22 184.133 100.22C184.413 100.22 184.651 100.318 184.847 100.514C185.043 100.71 185.141 100.953 185.141 101.242C185.141 101.532 185.043 101.774 184.847 101.97C184.651 102.166 184.413 102.264 184.133 102.264ZM184.917 103.286V111H183.321V103.286H184.917Z" fill="white"/>
<path d="M179.975 104.588V108.858C179.975 109.147 180.04 109.357 180.171 109.488C180.311 109.609 180.544 109.67 180.871 109.67H181.851V111H180.591C179.872 111 179.322 110.832 178.939 110.496C178.556 110.16 178.365 109.614 178.365 108.858V104.588H177.455V103.286H178.365V101.368H179.975V103.286H181.851V104.588H179.975Z" fill="white"/>
<path d="M168.093 107.108C168.093 106.333 168.251 105.647 168.569 105.05C168.895 104.453 169.334 103.991 169.885 103.664C170.445 103.328 171.061 103.16 171.733 103.16C172.339 103.16 172.867 103.281 173.315 103.524C173.772 103.757 174.136 104.051 174.407 104.406V103.286H176.017V111H174.407V109.852C174.136 110.216 173.767 110.519 173.301 110.762C172.834 111.005 172.302 111.126 171.705 111.126C171.042 111.126 170.435 110.958 169.885 110.622C169.334 110.277 168.895 109.801 168.569 109.194C168.251 108.578 168.093 107.883 168.093 107.108ZM174.407 107.136C174.407 106.604 174.295 106.142 174.071 105.75C173.856 105.358 173.571 105.059 173.217 104.854C172.862 104.649 172.479 104.546 172.069 104.546C171.658 104.546 171.275 104.649 170.921 104.854C170.566 105.05 170.277 105.344 170.053 105.736C169.838 106.119 169.731 106.576 169.731 107.108C169.731 107.64 169.838 108.107 170.053 108.508C170.277 108.909 170.566 109.217 170.921 109.432C171.285 109.637 171.667 109.74 172.069 109.74C172.479 109.74 172.862 109.637 173.217 109.432C173.571 109.227 173.856 108.928 174.071 108.536C174.295 108.135 174.407 107.668 174.407 107.136Z" fill="white"/>
<path d="M164.847 104.406C165.08 104.014 165.388 103.711 165.771 103.496C166.163 103.272 166.625 103.16 167.157 103.16V104.812H166.751C166.126 104.812 165.65 104.971 165.323 105.288C165.006 105.605 164.847 106.156 164.847 106.94V111H163.251V103.286H164.847V104.406Z" fill="white"/>
<path d="M161.681 106.954C161.681 107.243 161.662 107.505 161.625 107.738H155.731C155.778 108.354 156.006 108.849 156.417 109.222C156.828 109.595 157.332 109.782 157.929 109.782C158.788 109.782 159.394 109.423 159.749 108.704H161.471C161.238 109.413 160.813 109.997 160.197 110.454C159.59 110.902 158.834 111.126 157.929 111.126C157.192 111.126 156.529 110.963 155.941 110.636C155.362 110.3 154.905 109.833 154.569 109.236C154.242 108.629 154.079 107.929 154.079 107.136C154.079 106.343 154.238 105.647 154.555 105.05C154.882 104.443 155.334 103.977 155.913 103.65C156.501 103.323 157.173 103.16 157.929 103.16C158.657 103.16 159.306 103.319 159.875 103.636C160.444 103.953 160.888 104.401 161.205 104.98C161.522 105.549 161.681 106.207 161.681 106.954ZM160.015 106.45C160.006 105.862 159.796 105.391 159.385 105.036C158.974 104.681 158.466 104.504 157.859 104.504C157.308 104.504 156.837 104.681 156.445 105.036C156.053 105.381 155.82 105.853 155.745 106.45H160.015Z" fill="white"/>
<path d="M149.411 103.16C150.017 103.16 150.559 103.286 151.035 103.538C151.52 103.79 151.898 104.163 152.169 104.658C152.439 105.153 152.575 105.75 152.575 106.45V111H150.993V106.688C150.993 105.997 150.82 105.47 150.475 105.106C150.129 104.733 149.658 104.546 149.061 104.546C148.463 104.546 147.987 104.733 147.633 105.106C147.287 105.47 147.115 105.997 147.115 106.688V111H145.519V103.286H147.115V104.168C147.376 103.851 147.707 103.603 148.109 103.426C148.519 103.249 148.953 103.16 149.411 103.16Z" fill="white"/>
<path d="M143.949 106.954C143.949 107.243 143.93 107.505 143.893 107.738H137.999C138.045 108.354 138.274 108.849 138.685 109.222C139.095 109.595 139.599 109.782 140.197 109.782C141.055 109.782 141.662 109.423 142.017 108.704H143.739C143.505 109.413 143.081 109.997 142.465 110.454C141.858 110.902 141.102 111.126 140.197 111.126C139.459 111.126 138.797 110.963 138.209 110.636C137.63 110.3 137.173 109.833 136.837 109.236C136.51 108.629 136.347 107.929 136.347 107.136C136.347 106.343 136.505 105.647 136.823 105.05C137.149 104.443 137.602 103.977 138.181 103.65C138.769 103.323 139.441 103.16 140.197 103.16C140.925 103.16 141.573 103.319 142.143 103.636C142.712 103.953 143.155 104.401 143.473 104.98C143.79 105.549 143.949 106.207 143.949 106.954ZM142.283 106.45C142.273 105.862 142.063 105.391 141.653 105.036C141.242 104.681 140.733 104.504 140.127 104.504C139.576 104.504 139.105 104.681 138.713 105.036C138.321 105.381 138.087 105.853 138.013 106.45H142.283Z" fill="white"/>
<path d="M133.093 104.07C132.841 103.585 132.491 103.221 132.043 102.978C131.595 102.726 131.077 102.6 130.489 102.6C129.845 102.6 129.271 102.745 128.767 103.034C128.263 103.323 127.866 103.734 127.577 104.266C127.297 104.798 127.157 105.414 127.157 106.114C127.157 106.814 127.297 107.435 127.577 107.976C127.866 108.508 128.263 108.919 128.767 109.208C129.271 109.497 129.845 109.642 130.489 109.642C131.357 109.642 132.061 109.399 132.603 108.914C133.144 108.429 133.475 107.771 133.597 106.94H129.943V105.666H135.305V106.912C135.202 107.668 134.931 108.363 134.493 108.998C134.063 109.633 133.499 110.141 132.799 110.524C132.108 110.897 131.338 111.084 130.489 111.084C129.574 111.084 128.739 110.874 127.983 110.454C127.227 110.025 126.625 109.432 126.177 108.676C125.738 107.92 125.519 107.066 125.519 106.114C125.519 105.162 125.738 104.308 126.177 103.552C126.625 102.796 127.227 102.208 127.983 101.788C128.748 101.359 129.583 101.144 130.489 101.144C131.525 101.144 132.444 101.401 133.247 101.914C134.059 102.418 134.647 103.137 135.011 104.07H133.093Z" fill="white"/>
<path d="M172.171 257.16C172.769 257.16 173.296 257.281 173.753 257.524C174.22 257.757 174.584 258.051 174.845 258.406V257.286H176.455V265.126C176.455 265.835 176.306 266.465 176.007 267.016C175.709 267.576 175.275 268.015 174.705 268.332C174.145 268.649 173.473 268.808 172.689 268.808C171.644 268.808 170.776 268.561 170.085 268.066C169.395 267.581 169.003 266.918 168.909 266.078H170.491C170.613 266.479 170.869 266.801 171.261 267.044C171.663 267.296 172.139 267.422 172.689 267.422C173.333 267.422 173.851 267.226 174.243 266.834C174.645 266.442 174.845 265.873 174.845 265.126V263.838C174.575 264.202 174.206 264.51 173.739 264.762C173.282 265.005 172.759 265.126 172.171 265.126C171.499 265.126 170.883 264.958 170.323 264.622C169.773 264.277 169.334 263.801 169.007 263.194C168.69 262.578 168.531 261.883 168.531 261.108C168.531 260.333 168.69 259.647 169.007 259.05C169.334 258.453 169.773 257.991 170.323 257.664C170.883 257.328 171.499 257.16 172.171 257.16ZM174.845 261.136C174.845 260.604 174.733 260.142 174.509 259.75C174.295 259.358 174.01 259.059 173.655 258.854C173.301 258.649 172.918 258.546 172.507 258.546C172.097 258.546 171.714 258.649 171.359 258.854C171.005 259.05 170.715 259.344 170.491 259.736C170.277 260.119 170.169 260.576 170.169 261.108C170.169 261.64 170.277 262.107 170.491 262.508C170.715 262.909 171.005 263.217 171.359 263.432C171.723 263.637 172.106 263.74 172.507 263.74C172.918 263.74 173.301 263.637 173.655 263.432C174.01 263.227 174.295 262.928 174.509 262.536C174.733 262.135 174.845 261.668 174.845 261.136Z" fill="white"/>
<path d="M163.864 257.16C164.47 257.16 165.012 257.286 165.488 257.538C165.973 257.79 166.351 258.163 166.622 258.658C166.892 259.153 167.028 259.75 167.028 260.45V265H165.446V260.688C165.446 259.997 165.273 259.47 164.928 259.106C164.582 258.733 164.111 258.546 163.514 258.546C162.916 258.546 162.44 258.733 162.086 259.106C161.74 259.47 161.568 259.997 161.568 260.688V265H159.972V257.286H161.568V258.168C161.829 257.851 162.16 257.603 162.562 257.426C162.972 257.249 163.406 257.16 163.864 257.16Z" fill="white"/>
<path d="M157.092 256.264C156.803 256.264 156.56 256.166 156.364 255.97C156.168 255.774 156.07 255.532 156.07 255.242C156.07 254.953 156.168 254.71 156.364 254.514C156.56 254.318 156.803 254.22 157.092 254.22C157.372 254.22 157.61 254.318 157.806 254.514C158.002 254.71 158.1 254.953 158.1 255.242C158.1 255.532 158.002 255.774 157.806 255.97C157.61 256.166 157.372 256.264 157.092 256.264ZM157.876 257.286V265H156.28V257.286H157.876Z" fill="white"/>
<path d="M152.933 258.588V262.858C152.933 263.147 152.998 263.357 153.129 263.488C153.269 263.609 153.502 263.67 153.829 263.67H154.809V265H153.549C152.83 265 152.28 264.832 151.897 264.496C151.514 264.16 151.323 263.614 151.323 262.858V258.588H150.413V257.286H151.323V255.368H152.933V257.286H154.809V258.588H152.933Z" fill="white"/>
<path d="M146.393 265.126C145.786 265.126 145.24 265.019 144.755 264.804C144.279 264.58 143.901 264.281 143.621 263.908C143.341 263.525 143.192 263.101 143.173 262.634H144.825C144.853 262.961 145.007 263.236 145.287 263.46C145.576 263.675 145.936 263.782 146.365 263.782C146.813 263.782 147.158 263.698 147.401 263.53C147.653 263.353 147.779 263.129 147.779 262.858C147.779 262.569 147.639 262.354 147.359 262.214C147.088 262.074 146.654 261.92 146.057 261.752C145.478 261.593 145.007 261.439 144.643 261.29C144.279 261.141 143.962 260.912 143.691 260.604C143.43 260.296 143.299 259.89 143.299 259.386C143.299 258.975 143.42 258.602 143.663 258.266C143.906 257.921 144.251 257.65 144.699 257.454C145.156 257.258 145.679 257.16 146.267 257.16C147.144 257.16 147.849 257.384 148.381 257.832C148.922 258.271 149.212 258.873 149.249 259.638H147.653C147.625 259.293 147.485 259.017 147.233 258.812C146.981 258.607 146.64 258.504 146.211 258.504C145.791 258.504 145.469 258.583 145.245 258.742C145.021 258.901 144.909 259.111 144.909 259.372C144.909 259.577 144.984 259.75 145.133 259.89C145.282 260.03 145.464 260.142 145.679 260.226C145.894 260.301 146.211 260.399 146.631 260.52C147.191 260.669 147.648 260.823 148.003 260.982C148.367 261.131 148.68 261.355 148.941 261.654C149.202 261.953 149.338 262.349 149.347 262.844C149.347 263.283 149.226 263.675 148.983 264.02C148.74 264.365 148.395 264.636 147.947 264.832C147.508 265.028 146.99 265.126 146.393 265.126Z" fill="white"/>
<path d="M142.022 260.954C142.022 261.243 142.003 261.505 141.966 261.738H136.072C136.119 262.354 136.347 262.849 136.758 263.222C137.169 263.595 137.673 263.782 138.27 263.782C139.129 263.782 139.735 263.423 140.09 262.704H141.812C141.579 263.413 141.154 263.997 140.538 264.454C139.931 264.902 139.175 265.126 138.27 265.126C137.533 265.126 136.87 264.963 136.282 264.636C135.703 264.3 135.246 263.833 134.91 263.236C134.583 262.629 134.42 261.929 134.42 261.136C134.42 260.343 134.579 259.647 134.896 259.05C135.223 258.443 135.675 257.977 136.254 257.65C136.842 257.323 137.514 257.16 138.27 257.16C138.998 257.16 139.647 257.319 140.216 257.636C140.785 257.953 141.229 258.401 141.546 258.98C141.863 259.549 142.022 260.207 142.022 260.954ZM140.356 260.45C140.347 259.862 140.137 259.391 139.726 259.036C139.315 258.681 138.807 258.504 138.2 258.504C137.649 258.504 137.178 258.681 136.786 259.036C136.394 259.381 136.161 259.853 136.086 260.45H140.356Z" fill="white"/>
<path d="M133.336 255.27V256.572H130.746V265H129.15V256.572H126.546V255.27H133.336Z" fill="white"/>
<path d="M204.188 245.954C204.188 246.243 204.169 246.505 204.132 246.738H198.238C198.285 247.354 198.513 247.849 198.924 248.222C199.335 248.595 199.839 248.782 200.436 248.782C201.295 248.782 201.901 248.423 202.256 247.704H203.978C203.745 248.413 203.32 248.997 202.704 249.454C202.097 249.902 201.341 250.126 200.436 250.126C199.699 250.126 199.036 249.963 198.448 249.636C197.869 249.3 197.412 248.833 197.076 248.236C196.749 247.629 196.586 246.929 196.586 246.136C196.586 245.343 196.745 244.647 197.062 244.05C197.389 243.443 197.841 242.977 198.42 242.65C199.008 242.323 199.68 242.16 200.436 242.16C201.164 242.16 201.813 242.319 202.382 242.636C202.951 242.953 203.395 243.401 203.712 243.98C204.029 244.549 204.188 245.207 204.188 245.954ZM202.522 245.45C202.513 244.862 202.303 244.391 201.892 244.036C201.481 243.681 200.973 243.504 200.366 243.504C199.815 243.504 199.344 243.681 198.952 244.036C198.56 244.381 198.327 244.853 198.252 245.45H202.522Z" fill="white"/>
<path d="M193.341 243.406C193.574 243.014 193.882 242.711 194.265 242.496C194.657 242.272 195.119 242.16 195.651 242.16V243.812H195.245C194.62 243.812 194.144 243.971 193.817 244.288C193.5 244.605 193.341 245.156 193.341 245.94V250H191.745V242.286H193.341V243.406Z" fill="white"/>
<path d="M181.725 246.108C181.725 245.333 181.883 244.647 182.201 244.05C182.527 243.453 182.966 242.991 183.517 242.664C184.077 242.328 184.693 242.16 185.365 242.16C185.971 242.16 186.499 242.281 186.947 242.524C187.404 242.757 187.768 243.051 188.039 243.406V242.286H189.649V250H188.039V248.852C187.768 249.216 187.399 249.519 186.933 249.762C186.466 250.005 185.934 250.126 185.337 250.126C184.674 250.126 184.067 249.958 183.517 249.622C182.966 249.277 182.527 248.801 182.201 248.194C181.883 247.578 181.725 246.883 181.725 246.108ZM188.039 246.136C188.039 245.604 187.927 245.142 187.703 244.75C187.488 244.358 187.203 244.059 186.849 243.854C186.494 243.649 186.111 243.546 185.701 243.546C185.29 243.546 184.907 243.649 184.553 243.854C184.198 244.05 183.909 244.344 183.685 244.736C183.47 245.119 183.363 245.576 183.363 246.108C183.363 246.64 183.47 247.107 183.685 247.508C183.909 247.909 184.198 248.217 184.553 248.432C184.917 248.637 185.299 248.74 185.701 248.74C186.111 248.74 186.494 248.637 186.849 248.432C187.203 248.227 187.488 247.928 187.703 247.536C187.927 247.135 188.039 246.668 188.039 246.136Z" fill="white"/>
<path d="M181.064 242.286L178.67 250H176.99L175.436 244.302L173.882 250H172.202L169.794 242.286H171.418L173.028 248.488L174.666 242.286H176.332L177.9 248.46L179.496 242.286H181.064Z" fill="white"/>
<path d="M167.357 243.588V247.858C167.357 248.147 167.422 248.357 167.553 248.488C167.693 248.609 167.926 248.67 168.253 248.67H169.233V250H167.973C167.254 250 166.704 249.832 166.321 249.496C165.938 249.16 165.747 248.614 165.747 247.858V243.588H164.837V242.286H165.747V240.368H167.357V242.286H169.233V243.588H167.357Z" fill="white"/>
<path d="M164.081 243.588H162.653V250H161.043V243.588H160.133V242.286H161.043V241.74C161.043 240.854 161.276 240.21 161.743 239.808C162.219 239.398 162.961 239.192 163.969 239.192V240.522C163.483 240.522 163.143 240.616 162.947 240.802C162.751 240.98 162.653 241.292 162.653 241.74V242.286H164.081V243.588Z" fill="white"/>
<path d="M155.264 250.126C154.536 250.126 153.878 249.963 153.29 249.636C152.702 249.3 152.24 248.833 151.904 248.236C151.568 247.629 151.4 246.929 151.4 246.136C151.4 245.352 151.573 244.657 151.918 244.05C152.264 243.443 152.735 242.977 153.332 242.65C153.93 242.323 154.597 242.16 155.334 242.16C156.072 242.16 156.739 242.323 157.336 242.65C157.934 242.977 158.405 243.443 158.75 244.05C159.096 244.657 159.268 245.352 159.268 246.136C159.268 246.92 159.091 247.615 158.736 248.222C158.382 248.829 157.896 249.3 157.28 249.636C156.674 249.963 156.002 250.126 155.264 250.126ZM155.264 248.74C155.675 248.74 156.058 248.642 156.412 248.446C156.776 248.25 157.07 247.956 157.294 247.564C157.518 247.172 157.63 246.696 157.63 246.136C157.63 245.576 157.523 245.105 157.308 244.722C157.094 244.33 156.809 244.036 156.454 243.84C156.1 243.644 155.717 243.546 155.306 243.546C154.896 243.546 154.513 243.644 154.158 243.84C153.813 244.036 153.538 244.33 153.332 244.722C153.127 245.105 153.024 245.576 153.024 246.136C153.024 246.967 153.234 247.611 153.654 248.068C154.084 248.516 154.62 248.74 155.264 248.74Z" fill="white"/>
<path d="M146.675 250.098C146.022 250.098 145.434 249.986 144.911 249.762C144.389 249.529 143.978 249.202 143.679 248.782C143.381 248.362 143.231 247.872 143.231 247.312H144.939C144.977 247.732 145.14 248.077 145.429 248.348C145.728 248.619 146.143 248.754 146.675 248.754C147.226 248.754 147.655 248.623 147.963 248.362C148.271 248.091 148.425 247.746 148.425 247.326C148.425 246.999 148.327 246.733 148.131 246.528C147.945 246.323 147.707 246.164 147.417 246.052C147.137 245.94 146.745 245.819 146.241 245.688C145.607 245.52 145.089 245.352 144.687 245.184C144.295 245.007 143.959 244.736 143.679 244.372C143.399 244.008 143.259 243.523 143.259 242.916C143.259 242.356 143.399 241.866 143.679 241.446C143.959 241.026 144.351 240.704 144.855 240.48C145.359 240.256 145.943 240.144 146.605 240.144C147.548 240.144 148.318 240.382 148.915 240.858C149.522 241.325 149.858 241.969 149.923 242.79H148.159C148.131 242.435 147.963 242.132 147.655 241.88C147.347 241.628 146.941 241.502 146.437 241.502C145.98 241.502 145.607 241.619 145.317 241.852C145.028 242.085 144.883 242.421 144.883 242.86C144.883 243.159 144.972 243.406 145.149 243.602C145.336 243.789 145.569 243.938 145.849 244.05C146.129 244.162 146.512 244.283 146.997 244.414C147.641 244.591 148.164 244.769 148.565 244.946C148.976 245.123 149.321 245.399 149.601 245.772C149.891 246.136 150.035 246.626 150.035 247.242C150.035 247.737 149.9 248.203 149.629 248.642C149.368 249.081 148.981 249.435 148.467 249.706C147.963 249.967 147.366 250.098 146.675 250.098Z" fill="white"/>
<path d="M134.633 242.16C135.24 242.16 135.781 242.286 136.257 242.538C136.743 242.79 137.121 243.163 137.391 243.658C137.662 244.153 137.797 244.75 137.797 245.45V250H136.215V245.688C136.215 244.997 136.043 244.47 135.697 244.106C135.352 243.733 134.881 243.546 134.283 243.546C133.686 243.546 133.21 243.733 132.855 244.106C132.51 244.47 132.337 244.997 132.337 245.688V250H130.741V242.286H132.337V243.168C132.599 242.851 132.93 242.603 133.331 242.426C133.742 242.249 134.176 242.16 134.633 242.16Z" fill="white"/>
<path d="M128.646 240.27V250H127.05V240.27H128.646Z" fill="white"/>
<path d="M219.714 225.27V235H218.118V225.27H219.714Z" fill="white"/>
<path d="M214.222 233.012H210.148L209.448 235H207.782L211.268 225.256H213.116L216.602 235H214.922L214.222 233.012ZM213.774 231.71L212.192 227.188L210.596 231.71H213.774Z" fill="white"/>
<path d="M203.149 230.954C203.149 231.243 203.13 231.505 203.093 231.738H197.199C197.246 232.354 197.474 232.849 197.885 233.222C198.296 233.595 198.8 233.782 199.397 233.782C200.256 233.782 200.862 233.423 201.217 232.704H202.939C202.706 233.413 202.281 233.997 201.665 234.454C201.058 234.902 200.302 235.126 199.397 235.126C198.66 235.126 197.997 234.963 197.409 234.636C196.83 234.3 196.373 233.833 196.037 233.236C195.71 232.629 195.547 231.929 195.547 231.136C195.547 230.343 195.706 229.647 196.023 229.05C196.35 228.443 196.802 227.977 197.381 227.65C197.969 227.323 198.641 227.16 199.397 227.16C200.125 227.16 200.774 227.319 201.343 227.636C201.912 227.953 202.356 228.401 202.673 228.98C202.99 229.549 203.149 230.207 203.149 230.954ZM201.483 230.45C201.474 229.862 201.264 229.391 200.853 229.036C200.442 228.681 199.934 228.504 199.327 228.504C198.776 228.504 198.305 228.681 197.913 229.036C197.521 229.381 197.288 229.853 197.213 230.45H201.483Z" fill="white"/>
<path d="M190.995 233.572L193.179 227.286H194.873L191.933 235H190.029L187.103 227.286H188.811L190.995 233.572Z" fill="white"/>
<path d="M185.133 226.264C184.844 226.264 184.601 226.166 184.405 225.97C184.209 225.774 184.111 225.532 184.111 225.242C184.111 224.953 184.209 224.71 184.405 224.514C184.601 224.318 184.844 224.22 185.133 224.22C185.413 224.22 185.651 224.318 185.847 224.514C186.043 224.71 186.141 224.953 186.141 225.242C186.141 225.532 186.043 225.774 185.847 225.97C185.651 226.166 185.413 226.264 185.133 226.264ZM185.917 227.286V235H184.321V227.286H185.917Z" fill="white"/>
<path d="M180.974 228.588V232.858C180.974 233.147 181.039 233.357 181.17 233.488C181.31 233.609 181.543 233.67 181.87 233.67H182.85V235H181.59C180.871 235 180.321 234.832 179.938 234.496C179.555 234.16 179.364 233.614 179.364 232.858V228.588H178.454V227.286H179.364V225.368H180.974V227.286H182.85V228.588H180.974Z" fill="white"/>
<path d="M169.092 231.108C169.092 230.333 169.25 229.647 169.568 229.05C169.894 228.453 170.333 227.991 170.884 227.664C171.444 227.328 172.06 227.16 172.732 227.16C173.338 227.16 173.866 227.281 174.314 227.524C174.771 227.757 175.135 228.051 175.406 228.406V227.286H177.016V235H175.406V233.852C175.135 234.216 174.766 234.519 174.3 234.762C173.833 235.005 173.301 235.126 172.704 235.126C172.041 235.126 171.434 234.958 170.884 234.622C170.333 234.277 169.894 233.801 169.568 233.194C169.25 232.578 169.092 231.883 169.092 231.108ZM175.406 231.136C175.406 230.604 175.294 230.142 175.07 229.75C174.855 229.358 174.57 229.059 174.216 228.854C173.861 228.649 173.478 228.546 173.068 228.546C172.657 228.546 172.274 228.649 171.92 228.854C171.565 229.05 171.276 229.344 171.052 229.736C170.837 230.119 170.73 230.576 170.73 231.108C170.73 231.64 170.837 232.107 171.052 232.508C171.276 232.909 171.565 233.217 171.92 233.432C172.284 233.637 172.666 233.74 173.068 233.74C173.478 233.74 173.861 233.637 174.216 233.432C174.57 233.227 174.855 232.928 175.07 232.536C175.294 232.135 175.406 231.668 175.406 231.136Z" fill="white"/>
<path d="M165.847 228.406C166.08 228.014 166.388 227.711 166.771 227.496C167.163 227.272 167.625 227.16 168.157 227.16V228.812H167.751C167.126 228.812 166.65 228.971 166.323 229.288C166.006 229.605 165.847 230.156 165.847 230.94V235H164.251V227.286H165.847V228.406Z" fill="white"/>
<path d="M162.68 230.954C162.68 231.243 162.661 231.505 162.624 231.738H156.73C156.777 232.354 157.005 232.849 157.416 233.222C157.827 233.595 158.331 233.782 158.928 233.782C159.787 233.782 160.393 233.423 160.748 232.704H162.47C162.237 233.413 161.812 233.997 161.196 234.454C160.589 234.902 159.833 235.126 158.928 235.126C158.191 235.126 157.528 234.963 156.94 234.636C156.361 234.3 155.904 233.833 155.568 233.236C155.241 232.629 155.078 231.929 155.078 231.136C155.078 230.343 155.237 229.647 155.554 229.05C155.881 228.443 156.333 227.977 156.912 227.65C157.5 227.323 158.172 227.16 158.928 227.16C159.656 227.16 160.305 227.319 160.874 227.636C161.443 227.953 161.887 228.401 162.204 228.98C162.521 229.549 162.68 230.207 162.68 230.954ZM161.014 230.45C161.005 229.862 160.795 229.391 160.384 229.036C159.973 228.681 159.465 228.504 158.858 228.504C158.307 228.504 157.836 228.681 157.444 229.036C157.052 229.381 156.819 229.853 156.744 230.45H161.014Z" fill="white"/>
<path d="M150.411 227.16C151.017 227.16 151.559 227.286 152.035 227.538C152.52 227.79 152.898 228.163 153.169 228.658C153.439 229.153 153.575 229.75 153.575 230.45V235H151.993V230.688C151.993 229.997 151.82 229.47 151.475 229.106C151.129 228.733 150.658 228.546 150.061 228.546C149.463 228.546 148.987 228.733 148.633 229.106C148.287 229.47 148.115 229.997 148.115 230.688V235H146.519V227.286H148.115V228.168C148.376 227.851 148.707 227.603 149.109 227.426C149.519 227.249 149.953 227.16 150.411 227.16Z" fill="white"/>
<path d="M144.948 230.954C144.948 231.243 144.929 231.505 144.892 231.738H138.998C139.044 232.354 139.273 232.849 139.684 233.222C140.094 233.595 140.598 233.782 141.196 233.782C142.054 233.782 142.661 233.423 143.016 232.704H144.738C144.504 233.413 144.08 233.997 143.464 234.454C142.857 234.902 142.101 235.126 141.196 235.126C140.458 235.126 139.796 234.963 139.208 234.636C138.629 234.3 138.172 233.833 137.836 233.236C137.509 232.629 137.346 231.929 137.346 231.136C137.346 230.343 137.504 229.647 137.822 229.05C138.148 228.443 138.601 227.977 139.18 227.65C139.768 227.323 140.44 227.16 141.196 227.16C141.924 227.16 142.572 227.319 143.142 227.636C143.711 227.953 144.154 228.401 144.472 228.98C144.789 229.549 144.948 230.207 144.948 230.954ZM143.282 230.45C143.272 229.862 143.062 229.391 142.652 229.036C142.241 228.681 141.732 228.504 141.126 228.504C140.575 228.504 140.104 228.681 139.712 229.036C139.32 229.381 139.086 229.853 139.012 230.45H143.282Z" fill="white"/>
<path d="M134.092 228.07C133.84 227.585 133.49 227.221 133.042 226.978C132.594 226.726 132.076 226.6 131.488 226.6C130.844 226.6 130.27 226.745 129.766 227.034C129.262 227.323 128.865 227.734 128.576 228.266C128.296 228.798 128.156 229.414 128.156 230.114C128.156 230.814 128.296 231.435 128.576 231.976C128.865 232.508 129.262 232.919 129.766 233.208C130.27 233.497 130.844 233.642 131.488 233.642C132.356 233.642 133.06 233.399 133.602 232.914C134.143 232.429 134.474 231.771 134.596 230.94H130.942V229.666H136.304V230.912C136.201 231.668 135.93 232.363 135.492 232.998C135.062 233.633 134.498 234.141 133.798 234.524C133.107 234.897 132.337 235.084 131.488 235.084C130.573 235.084 129.738 234.874 128.982 234.454C128.226 234.025 127.624 233.432 127.176 232.676C126.737 231.92 126.518 231.066 126.518 230.114C126.518 229.162 126.737 228.308 127.176 227.552C127.624 226.796 128.226 226.208 128.982 225.788C129.747 225.359 130.582 225.144 131.488 225.144C132.524 225.144 133.443 225.401 134.246 225.914C135.058 226.418 135.646 227.137 136.01 228.07H134.092Z" fill="white"/>
<defs>
<clipPath id="clip0_732_10265">
<rect width="557.935" height="300" fill="white"/>
</clipPath>
</defs>
</svg>
