<svg width="107" height="92" viewBox="0 0 107 92" fill="none" xmlns="http://www.w3.org/2000/svg">
<path d="M54.9755 49.3359C55.5438 49.3359 56.0048 49.7969 56.0048 50.3652C56.0047 50.9335 55.5437 51.3945 54.9755 51.3945H52.4637C51.8955 51.3945 51.4345 50.9335 51.4344 50.3652C51.4344 49.7969 51.8954 49.3359 52.4637 49.3359H54.9755Z" fill="#03153B" stroke="#03153B" stroke-width="0.5"/>
<path d="M43.6642 8.88672C44.0659 8.48497 44.7193 8.48403 45.1202 8.88672L51.4288 15.1934L51.4991 15.2715C51.8282 15.6757 51.8049 16.2716 51.4288 16.6484H51.4279C51.227 16.8489 50.9634 16.9502 50.7003 16.9502C50.4702 16.9502 50.2397 16.8726 50.0509 16.7188L49.9728 16.6484L43.6652 10.3418C43.2634 9.94044 43.2623 9.28893 43.6642 8.88672Z" fill="#03153B" stroke="#03153B" stroke-width="0.5"/>
<path d="M55.8037 8.87988C56.3563 8.74923 56.91 9.0948 57.04 9.64746H57.041L58.0752 14.0732C58.2035 14.6265 57.8599 15.1804 57.3066 15.3096V15.3086C57.2287 15.3269 57.1502 15.3359 57.0723 15.3359C56.6049 15.3359 56.1814 15.0161 56.0703 14.541L55.0361 10.1162C54.9067 9.56292 55.2505 9.01027 55.8037 8.88086V8.87988Z" fill="#03153B" stroke="#03153B" stroke-width="0.5"/>
<path d="M44.7924 20.2373L44.8959 20.2559L49.3207 21.29L49.4222 21.3193C49.8825 21.4777 50.1704 21.9398 50.1078 22.4229L50.0892 22.5264C49.9786 23.0017 49.5544 23.3213 49.0873 23.3213C49.0092 23.3213 48.9301 23.3132 48.8519 23.2949V23.2939L44.4281 22.2607H44.4271C43.874 22.131 43.5299 21.5781 43.6595 21.0244C43.7812 20.5048 44.2768 20.1714 44.7924 20.2373Z" fill="#03153B" stroke="#03153B" stroke-width="0.5"/>
<path d="M82.9707 0.75C88.2404 0.75 92.5273 5.037 92.5273 10.3066V47.9678C92.5272 53.2375 88.2405 57.5244 82.9707 57.5244H60.4199C60.6091 63.7499 61.2125 70.6168 64.4766 76.2627H76.0176C76.5042 71.1724 80.5483 67.1621 85.4912 67.1621C90.4338 67.1622 94.4792 71.1724 94.9658 76.2627H102.429C104.785 76.2627 106.7 78.1787 106.7 80.5342V86.9775C106.7 89.3333 104.785 91.25 102.429 91.25H5.02148C2.66565 91.2498 0.75 89.3334 0.75 86.9775V80.5342L0.755859 80.3145C0.870565 78.0607 2.73935 76.2629 5.02148 76.2627H8.69727V72.6123C8.69727 69.8838 10.9171 67.6642 13.6455 67.6641H32.0283C34.7562 67.6641 36.9756 69.8837 36.9756 72.6123V76.2627H42.9736C46.2316 70.6151 46.8333 63.7489 47.0225 57.5244H24.4688C19.1992 57.5242 14.9122 53.2374 14.9121 47.9678V10.3066C14.9121 5.03691 19.1991 0.750241 24.4688 0.75H82.9707ZM5.02148 78.3203C3.80144 78.3205 2.80859 79.3141 2.80859 80.5342V86.9775C2.80859 88.1979 3.80145 89.1912 5.02148 89.1914H102.429C103.649 89.1914 104.643 88.198 104.643 86.9775V80.5342C104.643 79.314 103.649 78.3203 102.429 78.3203H5.02148ZM86.5195 71.7119C86.5193 72.2799 86.0592 72.741 85.4912 72.7412C84.923 72.7412 84.4621 72.2801 84.4619 71.7119V69.2988C81.1476 69.7939 78.5045 72.6495 78.0771 76.2627H92.9053C92.4777 72.6495 89.834 69.7941 86.5195 69.2988V71.7119ZM49.084 57.5244C48.9022 63.6023 48.3449 70.399 45.3271 76.2627H62.1221C59.0998 70.4003 58.5411 63.6029 58.3594 57.5244H49.084ZM13.6455 69.7227C12.0522 69.7228 10.7559 71.0192 10.7559 72.6123V76.2617H34.917V72.6123C34.917 71.0193 33.6211 69.7227 32.0283 69.7227H13.6455ZM16.9707 47.9678C16.9708 52.1018 20.3345 55.4656 24.4688 55.4658C43.3561 55.4636 52.5312 55.4623 56.6504 55.4619H59.6367C59.6373 55.4621 59.6374 55.4639 59.6387 55.4648C63.0497 55.4654 69.9403 55.4658 82.9717 55.4658C87.1053 55.4657 90.4696 52.1019 90.4697 47.9678V45.2646H80.2559L76.6797 48.8398C75.3538 50.165 73.1444 49.902 72.1641 48.3096L70.291 45.2646H16.9707V47.9678ZM60.3105 23.3291C58.9443 23.0231 57.7266 24.2424 58.0332 25.6064L60.7021 37.4893C61.0327 38.9588 62.8485 39.4803 63.9092 38.4199L65.8281 36.501C66.2997 36.0302 67.0863 36.1246 67.4326 36.6895L73.915 47.2305H73.916C74.1998 47.6909 74.8407 47.77 75.2227 47.3857L75.2236 47.3848L82.0918 40.5176C82.4753 40.1341 82.4001 39.4935 81.9375 39.209L71.3916 32.7305C70.8258 32.3821 70.7328 31.5958 71.2021 31.126L73.125 29.2041C74.1892 28.1407 73.6623 26.3257 72.1953 25.9961L60.3105 23.3291ZM24.4688 2.80859C20.3342 2.80883 16.9707 6.17249 16.9707 10.3066V43.2061H69.0244L66.3613 38.877L65.3652 39.875C63.1538 42.0869 59.3794 40.9915 58.6934 37.9404L56.0244 26.0576C55.3873 23.2227 57.9212 20.6814 60.7607 21.3203L72.6455 23.9873C75.698 24.6726 76.7924 28.4484 74.5801 30.6592L73.5801 31.6592L83.0156 37.4551C84.6128 38.4355 84.8702 40.6496 83.5479 41.9727L82.3145 43.2061H90.4697V10.3066C90.4697 6.17242 87.1054 2.80875 82.9717 2.80859H24.4688Z" fill="white" stroke="white" stroke-width="0.5"/>
</svg>
