<svg width="86" height="90" viewBox="0 0 86 90" fill="none" xmlns="http://www.w3.org/2000/svg">
<path d="M4.43939 66.3916H26.5098" stroke="white" stroke-width="2" stroke-miterlimit="10" stroke-linecap="round" stroke-linejoin="round"/>
<path d="M4.43939 73.4229H26.5098" stroke="white" stroke-width="2" stroke-miterlimit="10" stroke-linecap="round" stroke-linejoin="round"/>
<path d="M4.43939 80.4541H26.5098" stroke="white" stroke-width="2" stroke-miterlimit="10" stroke-linecap="round" stroke-linejoin="round"/>
<path d="M64.4232 29.0914V26.4473H78.4577V29.0914" stroke="#03153B" stroke-width="2" stroke-miterlimit="10" stroke-linecap="round" stroke-linejoin="round"/>
<path d="M71.4405 26.4473V40.4816" stroke="#03153B" stroke-width="2" stroke-miterlimit="10" stroke-linecap="round" stroke-linejoin="round"/>
<path d="M68.898 40.4814H73.983" stroke="#03153B" stroke-width="2" stroke-miterlimit="10" stroke-linecap="round" stroke-linejoin="round"/>
<path d="M1.4404 3.95508V12.3671C1.4404 13.8233 2.62095 15.0038 4.07712 15.0038H81.9229C83.3791 15.0038 84.5596 13.8233 84.5596 12.3671V3.95508C84.5596 2.49891 83.3791 1.31836 81.9229 1.31836H4.07712C2.62095 1.31836 1.4404 2.49891 1.4404 3.95508Z" stroke="white" stroke-width="2" stroke-miterlimit="10" stroke-linecap="round" stroke-linejoin="round"/>
<path d="M58.3213 36.54V43.9463C58.3213 45.4025 59.5018 46.5831 60.958 46.5831H81.9229C83.3791 46.5831 84.5596 45.4025 84.5596 43.9463V22.9814C84.5596 21.5253 83.3791 20.3447 81.9229 20.3447H60.958C59.5018 20.3447 58.3213 21.5253 58.3213 22.9814V30.3878" stroke="white" stroke-width="2" stroke-miterlimit="10" stroke-linecap="round" stroke-linejoin="round"/>
<path d="M52.18 43.6759L38.6652 30.1611C37.6223 29.1182 35.9315 29.1182 34.8886 30.1611L19.1639 45.886C18.8206 46.2293 18.2642 46.2293 17.9209 45.886L11.7992 39.7642C10.7695 38.7345 9.10007 38.7345 8.07034 39.7642L1.4404 46.3941" stroke="white" stroke-width="2" stroke-miterlimit="10" stroke-linejoin="round"/>
<path d="M18.5664 33.8779C20.411 33.8779 21.9062 32.3826 21.9062 30.5381C21.9062 28.6935 20.411 27.1982 18.5664 27.1982C16.7219 27.1982 15.2266 28.6935 15.2266 30.5381C15.2266 32.3826 16.7219 33.8779 18.5664 33.8779Z" stroke="#03153B" stroke-width="2" stroke-miterlimit="10" stroke-linecap="round" stroke-linejoin="round"/>
<path d="M66.7582 68.9989L55.9938 62.784C54.8218 62.1074 53.357 62.9531 53.357 64.3063V76.736C53.357 78.0891 54.8218 78.9348 55.9938 78.2582L66.7582 72.0433C67.9302 71.3669 67.9302 69.6755 66.7582 68.9989Z" stroke="#03153B" stroke-width="2" stroke-miterlimit="10" stroke-linecap="round" stroke-linejoin="round"/>
<path d="M33.82 56.665V71.0155" stroke="white" stroke-width="2" stroke-miterlimit="10" stroke-linecap="round" stroke-linejoin="round"/>
<path d="M33.82 77.1679V86.0449C33.82 87.5011 35.0006 88.6816 36.4567 88.6816H81.9229C83.3791 88.6816 84.5596 87.5011 84.5596 86.0449V54.998C84.5596 53.5419 83.3791 52.3613 81.9229 52.3613H52.18" stroke="white" stroke-width="2" stroke-miterlimit="10" stroke-linecap="round" stroke-linejoin="round"/>
<path d="M15.5781 20.3447H4.07712C2.62095 20.3447 1.4404 21.5253 1.4404 22.9814V54.0283C1.4404 55.4845 2.62095 56.665 4.07712 56.665H49.5433C50.9995 56.665 52.18 55.4845 52.18 54.0283V22.9814C52.18 21.5253 50.9995 20.3447 49.5433 20.3447H21.7305" stroke="white" stroke-width="2" stroke-miterlimit="10" stroke-linecap="round" stroke-linejoin="round"/>
<path d="M68.2491 8.16113H68.4292" stroke="white" stroke-width="2" stroke-miterlimit="10" stroke-linecap="round" stroke-linejoin="round"/>
<path d="M73.1126 8.16113H73.2927" stroke="white" stroke-width="2" stroke-miterlimit="10" stroke-linecap="round" stroke-linejoin="round"/>
<path d="M77.9761 8.16113H78.1563" stroke="white" stroke-width="2" stroke-miterlimit="10" stroke-linecap="round" stroke-linejoin="round"/>
<path d="M7.84375 8.16113H11.3594" stroke="white" stroke-width="2" stroke-miterlimit="10" stroke-linecap="round" stroke-linejoin="round"/>
</svg>
