<svg width="90" height="90" viewBox="0 0 90 90" fill="none" xmlns="http://www.w3.org/2000/svg">
<path d="M6.43945 66.3911H28.5098" stroke="white" stroke-width="2" stroke-miterlimit="10" stroke-linecap="round" stroke-linejoin="round"/>
<path d="M6.43945 73.4224H28.5098" stroke="white" stroke-width="2" stroke-miterlimit="10" stroke-linecap="round" stroke-linejoin="round"/>
<path d="M6.43945 80.4536H28.5098" stroke="white" stroke-width="2" stroke-miterlimit="10" stroke-linecap="round" stroke-linejoin="round"/>
<path d="M66.4231 29.0909V26.4468H80.4576V29.0909" stroke="#28B4FF" stroke-width="2" stroke-miterlimit="10" stroke-linecap="round" stroke-linejoin="round"/>
<path d="M73.4407 26.4468V40.4812" stroke="#28B4FF" stroke-width="2" stroke-miterlimit="10" stroke-linecap="round" stroke-linejoin="round"/>
<path d="M70.8979 40.481H75.983" stroke="#28B4FF" stroke-width="2" stroke-miterlimit="10" stroke-linecap="round" stroke-linejoin="round"/>
<path d="M3.44043 3.95508V12.3671C3.44043 13.8233 4.62098 15.0038 6.07715 15.0038H83.9229C85.3791 15.0038 86.5597 13.8233 86.5597 12.3671V3.95508C86.5597 2.49891 85.3791 1.31836 83.9229 1.31836H6.07715C4.62098 1.31836 3.44043 2.49891 3.44043 3.95508Z" stroke="white" stroke-width="2" stroke-miterlimit="10" stroke-linecap="round" stroke-linejoin="round"/>
<path d="M60.3213 36.54V43.9463C60.3213 45.4025 61.5018 46.5831 62.958 46.5831H83.9229C85.3791 46.5831 86.5596 45.4025 86.5596 43.9463V22.9814C86.5596 21.5253 85.3791 20.3447 83.9229 20.3447H62.958C61.5018 20.3447 60.3213 21.5253 60.3213 22.9814V30.3878" stroke="white" stroke-width="2" stroke-miterlimit="10" stroke-linecap="round" stroke-linejoin="round"/>
<path d="M54.18 43.6759L40.6653 30.1611C39.6224 29.1182 37.9315 29.1182 36.8886 30.1611L21.1639 45.886C20.8206 46.2293 20.2643 46.2293 19.921 45.886L13.7992 39.7642C12.7695 38.7345 11.1001 38.7345 10.0704 39.7642L3.44043 46.3941" stroke="white" stroke-width="2" stroke-miterlimit="10" stroke-linejoin="round"/>
<path d="M20.5664 33.8779C22.411 33.8779 23.9062 32.3826 23.9062 30.5381C23.9062 28.6935 22.411 27.1982 20.5664 27.1982C18.7219 27.1982 17.2266 28.6935 17.2266 30.5381C17.2266 32.3826 18.7219 33.8779 20.5664 33.8779Z" stroke="#28B4FF" stroke-width="2" stroke-miterlimit="10" stroke-linecap="round" stroke-linejoin="round"/>
<path d="M68.7584 68.9994L57.9939 62.7845C56.822 62.1079 55.3572 62.9536 55.3572 64.3068V76.7365C55.3572 78.0896 56.822 78.9353 57.9939 78.2587L68.7584 72.0438C69.9303 71.3674 69.9303 69.676 68.7584 68.9994Z" stroke="#28B4FF" stroke-width="2" stroke-miterlimit="10" stroke-linecap="round" stroke-linejoin="round"/>
<path d="M35.8201 56.665V71.0155" stroke="white" stroke-width="2" stroke-miterlimit="10" stroke-linecap="round" stroke-linejoin="round"/>
<path d="M35.8201 77.1679V86.0449C35.8201 87.5011 37.0006 88.6816 38.4568 88.6816H83.923C85.3791 88.6816 86.5597 87.5011 86.5597 86.0449V54.998C86.5597 53.5419 85.3791 52.3613 83.923 52.3613H54.1801" stroke="white" stroke-width="2" stroke-miterlimit="10" stroke-linecap="round" stroke-linejoin="round"/>
<path d="M17.5782 20.3447H6.07715C4.62098 20.3447 3.44043 21.5253 3.44043 22.9814V54.0283C3.44043 55.4845 4.62098 56.665 6.07715 56.665H51.5433C52.9995 56.665 54.18 55.4845 54.18 54.0283V22.9814C54.18 21.5253 52.9995 20.3447 51.5433 20.3447H23.7305" stroke="white" stroke-width="2" stroke-miterlimit="10" stroke-linecap="round" stroke-linejoin="round"/>
<path d="M70.249 8.16113H70.4292" stroke="white" stroke-width="2" stroke-miterlimit="10" stroke-linecap="round" stroke-linejoin="round"/>
<path d="M75.1125 8.16113H75.2927" stroke="white" stroke-width="2" stroke-miterlimit="10" stroke-linecap="round" stroke-linejoin="round"/>
<path d="M79.9761 8.16113H80.1562" stroke="white" stroke-width="2" stroke-miterlimit="10" stroke-linecap="round" stroke-linejoin="round"/>
<path d="M9.84375 8.16113H13.3594" stroke="white" stroke-width="2" stroke-miterlimit="10" stroke-linecap="round" stroke-linejoin="round"/>
</svg>
