<svg width="67" height="65" viewBox="0 0 67 65" fill="none" xmlns="http://www.w3.org/2000/svg">
<rect x="1.10938" y="1" width="64.383" height="63" rx="9" stroke="white" stroke-width="2"/>
<path d="M23.0797 25.8882C25.0729 25.8882 26.6887 24.2724 26.6887 22.2792C26.6887 20.286 25.0729 18.6702 23.0797 18.6702C21.0865 18.6702 19.4707 20.286 19.4707 22.2792C19.4707 24.2724 21.0865 25.8882 23.0797 25.8882Z" fill="white"/>
<path d="M25.8159 46.3298H20.346C20.1909 46.3298 20.0781 46.2029 20.0781 46.0619V28.5667C20.0781 28.4116 20.205 28.2989 20.346 28.2989H25.8159C25.9709 28.2989 26.0837 28.4257 26.0837 28.5667V46.0619C26.0837 46.2029 25.9568 46.3298 25.8159 46.3298Z" fill="white"/>
<path d="M46.5227 34.9106V45.1314C46.5227 45.794 45.987 46.3298 45.3244 46.3298H41.7154C41.0528 46.3298 40.5171 45.794 40.5171 45.1314V36.7151C40.5171 35.0516 39.1637 33.7123 37.5143 33.7123C35.8507 33.7123 34.5115 35.0657 34.5115 36.7151V45.1314C34.5115 45.794 33.9758 46.3298 33.3132 46.3298H29.7042C29.0416 46.3298 28.5059 45.794 28.5059 45.1314V29.4971C28.5059 28.8345 29.0416 28.2988 29.7042 28.2988H33.3132C33.9758 28.2988 34.5115 28.8345 34.5115 29.4971V30.2725C35.7098 28.7218 37.6975 27.6926 39.925 27.6926C43.2238 27.6926 46.5227 30.0892 46.5227 34.9106Z" fill="white"/>
</svg>
