<svg width="37" height="36" viewBox="0 0 37 36" fill="none" xmlns="http://www.w3.org/2000/svg">
<path fill-rule="evenodd" clip-rule="evenodd" d="M0.169922 8.47844V30.3734C0.169922 31.7822 0.745796 33.0617 1.6735 33.9894C2.60121 34.9171 3.88222 35.493 5.28959 35.493H31.0503C32.4591 35.493 33.7386 34.9171 34.6663 33.9894C35.594 33.0617 36.1699 31.7807 36.1699 30.3734V5.11967C36.1699 3.71087 35.594 2.43129 34.6663 1.50358C33.7386 0.575874 32.4576 0 31.0503 0H5.28959C3.88079 0 2.60121 0.575874 1.6735 1.50358C0.745796 2.43129 0.169922 3.7123 0.169922 5.11967V8.47844ZM23.7391 5.34345C24.2044 5.34345 24.5835 4.96577 24.5835 4.49902C24.5835 4.03373 24.2058 3.65458 23.7391 3.65458H22.7927C22.3274 3.65458 21.9482 4.03226 21.9482 4.49902C21.9482 4.9643 22.3259 5.34345 22.7927 5.34345H23.7391ZM26.7937 4.49902C26.7937 4.9643 27.1713 5.34345 27.6381 5.34345H28.5845C29.0498 5.34345 29.4289 4.96577 29.4289 4.49902C29.4289 4.03373 29.0512 3.65458 28.5845 3.65458H27.6381C27.1728 3.65458 26.7937 4.03226 26.7937 4.49902ZM34.4825 7.63401H1.85725V5.11941C1.85725 4.1759 2.24357 3.31856 2.86683 2.69673C3.48866 2.0749 4.34744 1.68714 5.28952 1.68714H31.0502C31.9937 1.68714 32.851 2.07346 33.4729 2.69673C34.0947 3.31856 34.4824 4.17733 34.4824 5.11941L34.4825 7.63401ZM8.01966 23.4841C7.73531 22.9011 7.58882 22.2548 7.58882 21.5655C7.58882 20.8762 7.73531 20.2299 8.01966 19.6454C8.30257 19.0652 8.72046 18.5525 9.26762 18.1246L11.8641 16.0925C12.2303 15.8067 12.7588 15.8714 13.0446 16.2376C13.3303 16.6038 13.2657 17.1323 12.8995 17.418L10.303 19.4501C9.96699 19.7143 9.70849 20.0288 9.53474 20.385C9.36385 20.7369 9.27624 21.1347 9.27624 21.5669C9.27624 21.9977 9.36385 22.397 9.53474 22.7488C9.70851 23.105 9.96558 23.4209 10.303 23.6837L12.8995 25.7158C13.2643 26.0016 13.3303 26.53 13.0446 26.8962C12.7588 27.2624 12.2303 27.3271 11.8641 27.0413L9.26762 25.0092C8.72046 24.5812 8.30113 24.0686 8.01966 23.4884V23.4841ZM19.5974 16.4644C19.7568 16.0278 20.2422 15.8023 20.6788 15.9632C21.1154 16.1226 21.3409 16.608 21.18 17.0446L17.64 26.665C17.4806 27.1016 16.9952 27.3271 16.5587 27.1662C16.1221 27.0068 15.898 26.5214 16.0575 26.0848L19.5989 16.4644H19.5974ZM23.4389 17.4165C23.0742 17.1307 23.0081 16.6023 23.2939 16.2361C23.5797 15.8713 24.1081 15.8052 24.4743 16.091L27.0708 18.1231C27.618 18.551 28.0373 19.0652 28.3188 19.6439C28.6031 20.2284 28.7496 20.8732 28.7496 21.564C28.7496 22.2533 28.6031 22.8995 28.3188 23.4826C28.0359 24.0628 27.618 24.5755 27.0708 25.0035L24.4743 27.0355C24.1081 27.3213 23.5796 27.2567 23.2939 26.8905C23.0081 26.5257 23.0727 25.9958 23.4389 25.71L26.0354 23.6779C26.3714 23.4137 26.6299 23.1006 26.8037 22.743C26.9746 22.3912 27.0622 21.9934 27.0622 21.5611C27.0622 21.1289 26.9746 20.7311 26.8037 20.3792C26.6299 20.0245 26.3729 19.7086 26.0354 19.4443L23.4389 17.4123V17.4165Z" fill="#005E90"/>
</svg>
