<svg width="109" height="90" viewBox="0 0 109 90" fill="none" xmlns="http://www.w3.org/2000/svg">
<path fill-rule="evenodd" clip-rule="evenodd" d="M40.9505 80.3919L41.9334 73.9387H66.7134L67.6963 80.3919H40.9505ZM69.4571 72.2301C69.4038 71.8788 69.2263 71.5583 68.9569 71.3267C68.6875 71.0951 68.344 70.9677 67.9887 70.9677H40.6571C40.302 70.968 39.9587 71.0955 39.6895 71.327C39.4203 71.5586 39.243 71.879 39.1897 72.2301L37.7523 81.6517C37.7198 81.8633 37.7335 82.0795 37.7924 82.2853C37.8513 82.4912 37.954 82.6819 38.0934 82.8444C38.2329 83.0068 38.4058 83.1372 38.6004 83.2266C38.795 83.316 39.0066 83.3622 39.2207 83.3622H69.4261C69.6402 83.3621 69.8516 83.3157 70.0461 83.2263C70.2405 83.1368 70.4133 83.0064 70.5527 82.844C70.692 82.6815 70.7946 82.4909 70.8534 82.2851C70.9123 82.0793 70.9259 81.8632 70.8935 81.6517L69.4571 72.2301ZM42.4183 16.155H45.0368V35.3815C45.0368 35.7755 45.1933 36.1533 45.4719 36.4319C45.7505 36.7104 46.1283 36.8669 46.5222 36.8669H60.6379V39.4831H42.4183V16.155ZM48.0078 10.5655V33.8961H66.227V15.8887L60.1291 10.5655H48.0078ZM40.9329 42.4539H62.1233C62.3184 42.4541 62.5116 42.4158 62.6919 42.3412C62.8722 42.2666 63.036 42.1572 63.174 42.0192C63.312 41.8812 63.4214 41.7174 63.496 41.5371C63.5706 41.3568 63.6089 41.1636 63.6087 40.9685V36.8669H67.7128C68.1067 36.8665 68.4843 36.7099 68.7627 36.4314C69.0412 36.1529 69.1978 35.7754 69.1982 35.3815V15.215C69.1979 15.003 69.1523 14.7935 69.0645 14.6005C68.9767 14.4075 68.8486 14.2356 68.6889 14.0961L61.663 7.96204C61.3926 7.72592 61.0459 7.59547 60.6869 7.59473H46.5229C46.1289 7.59473 45.7511 7.75122 45.4725 8.02979C45.194 8.30835 45.0375 8.68617 45.0375 9.08012V13.184H40.9329C40.539 13.184 40.1612 13.3405 39.8826 13.6191C39.604 13.8977 39.4475 14.2755 39.4475 14.6694V40.9685C39.4475 41.3625 39.604 41.7403 39.8826 42.0188C40.1612 42.2974 40.539 42.4539 40.9329 42.4539Z" fill="#03153B"/>
<path fill-rule="evenodd" clip-rule="evenodd" d="M95.4032 54.3653V2.56761C95.4021 1.88645 95.1308 1.23354 94.6489 0.752163C94.167 0.27079 93.5138 0.000280192 92.8326 0H15.8136C15.1325 0.000448847 14.4795 0.27104 13.9977 0.752401C13.516 1.23376 13.2448 1.88658 13.2438 2.56761V54.3653L0.296939 84.9239C0.0565156 85.4777 -0.0403592 86.0832 0.0152769 86.6843C0.070913 87.2855 0.277263 87.8629 0.615238 88.3632C0.944056 88.8697 1.39523 89.2852 1.92708 89.5713C2.45892 89.8573 3.05429 90.0047 3.65817 89.9999H104.992C105.595 90 106.189 89.8506 106.72 89.5651C107.25 89.2796 107.702 88.8669 108.034 88.3639C108.367 87.8609 108.569 87.2834 108.623 86.683C108.677 86.0827 108.582 85.4782 108.345 84.9239L95.4032 54.3653ZM15.8343 55.963H92.8528L105.613 86.0816C105.663 86.1836 105.684 86.2973 105.673 86.4104C105.662 86.5234 105.621 86.6313 105.553 86.7223C105.495 86.8184 105.413 86.8975 105.314 86.9513C105.216 87.0051 105.105 87.0317 104.992 87.0285H3.6588C3.54651 87.0281 3.43605 86.9999 3.33724 86.9466C3.23843 86.8932 3.15433 86.8163 3.09241 86.7226C3.03049 86.6289 2.99267 86.5214 2.98231 86.4096C2.97195 86.2977 2.98938 86.1851 3.03303 86.0816L15.7945 55.963H15.8343ZM92.4322 2.971V47.0795H16.2148V2.971H92.4322ZM92.4322 52.9922H16.2148V50.0513H92.4322V52.9922Z" fill="white"/>
</svg>
