<svg width="109" height="90" viewBox="0 0 109 90" fill="none" xmlns="http://www.w3.org/2000/svg">
<path fill-rule="evenodd" clip-rule="evenodd" d="M40.9505 80.3914L41.9334 73.9382H66.7134L67.6963 80.3914H40.9505ZM69.4571 72.2296C69.4038 71.8783 69.2263 71.5578 68.9569 71.3262C68.6875 71.0946 68.344 70.9672 67.9887 70.9672H40.6571C40.302 70.9675 39.9587 71.095 39.6895 71.3266C39.4203 71.5581 39.243 71.8785 39.1897 72.2296L37.7523 81.6512C37.7198 81.8628 37.7335 82.079 37.7924 82.2849C37.8513 82.4907 37.954 82.6814 38.0934 82.8439C38.2329 83.0063 38.4058 83.1367 38.6004 83.2261C38.795 83.3155 39.0066 83.3618 39.2207 83.3617H69.4261C69.6402 83.3616 69.8516 83.3152 70.0461 83.2258C70.2405 83.1363 70.4133 83.0059 70.5527 82.8435C70.692 82.681 70.7946 82.4904 70.8534 82.2846C70.9123 82.0788 70.9259 81.8627 70.8935 81.6512L69.4571 72.2296ZM42.4183 16.1546H45.0368V35.381C45.0368 35.775 45.1933 36.1528 45.4719 36.4314C45.7505 36.7099 46.1283 36.8664 46.5222 36.8664H60.6379V39.4826H42.4183V16.1546ZM48.0078 10.565V33.8956H66.227V15.8882L60.1291 10.565H48.0078ZM40.9329 42.4534H62.1233C62.3184 42.4536 62.5116 42.4153 62.6919 42.3407C62.8722 42.2661 63.036 42.1567 63.174 42.0187C63.312 41.8808 63.4214 41.7169 63.496 41.5367C63.5706 41.3564 63.6089 41.1631 63.6087 40.968V36.8664H67.7128C68.1067 36.866 68.4843 36.7094 68.7627 36.4309C69.0412 36.1525 69.1978 35.7749 69.1982 35.381V15.2145C69.1979 15.0025 69.1523 14.793 69.0645 14.6C68.9767 14.407 68.8486 14.2351 68.6889 14.0956L61.663 7.96156C61.3926 7.72543 61.0459 7.59498 60.6869 7.59424H46.5229C46.1289 7.59424 45.7511 7.75073 45.4725 8.0293C45.194 8.30786 45.0375 8.68568 45.0375 9.07963V13.1836H40.9329C40.539 13.1836 40.1612 13.3401 39.8826 13.6186C39.604 13.8972 39.4475 14.275 39.4475 14.6689V40.968C39.4475 41.362 39.604 41.7398 39.8826 42.0183C40.1612 42.2969 40.539 42.4534 40.9329 42.4534Z" fill="#28B4FF"/>
<path fill-rule="evenodd" clip-rule="evenodd" d="M95.4032 54.3653V2.56761C95.4021 1.88645 95.1308 1.23354 94.6489 0.752163C94.167 0.27079 93.5138 0.000280192 92.8326 0H15.8136C15.1325 0.000448847 14.4795 0.27104 13.9977 0.752401C13.516 1.23376 13.2448 1.88658 13.2438 2.56761V54.3653L0.296939 84.9239C0.0565156 85.4777 -0.0403592 86.0832 0.0152769 86.6843C0.070913 87.2855 0.277263 87.8629 0.615238 88.3632C0.944056 88.8697 1.39523 89.2852 1.92708 89.5713C2.45892 89.8573 3.05429 90.0047 3.65817 89.9999H104.992C105.595 90 106.189 89.8506 106.72 89.5651C107.25 89.2796 107.702 88.8669 108.034 88.3639C108.367 87.8609 108.569 87.2834 108.623 86.683C108.677 86.0827 108.582 85.4782 108.345 84.9239L95.4032 54.3653ZM15.8343 55.963H92.8528L105.613 86.0816C105.663 86.1836 105.684 86.2973 105.673 86.4104C105.662 86.5234 105.621 86.6313 105.553 86.7223C105.495 86.8184 105.413 86.8975 105.314 86.9513C105.216 87.0051 105.105 87.0317 104.992 87.0285H3.6588C3.54651 87.0281 3.43605 86.9999 3.33724 86.9466C3.23843 86.8932 3.15433 86.8163 3.09241 86.7226C3.03049 86.6289 2.99267 86.5214 2.98231 86.4096C2.97195 86.2977 2.98938 86.1851 3.03303 86.0816L15.7945 55.963H15.8343ZM92.4322 2.971V47.0795H16.2148V2.971H92.4322ZM92.4322 52.9922H16.2148V50.0513H92.4322V52.9922Z" fill="white"/>
</svg>
