<svg width="19" height="30" viewBox="0 0 19 30" fill="none" xmlns="http://www.w3.org/2000/svg">
<path fill-rule="evenodd" clip-rule="evenodd" d="M2.01211 5.99998e-05C1.10275 5.99998e-05 0.365627 0.737157 0.365627 1.64654V4.02662C0.357423 4.02544 0.34922 4.02427 0.339845 4.02427H0.182814C0.0820325 4.02427 5.72203e-07 4.1063 5.72203e-07 4.20709V5.67075C5.72203e-07 5.77153 0.0820325 5.85356 0.182814 5.85356H0.339845C0.34922 5.85356 0.357423 5.85356 0.365627 5.85239V6.58598H0.182814C0.0820319 6.58598 0 6.66684 0 6.76879V8.9637C0 9.06449 0.0820319 9.14652 0.182814 9.14652H0.365627V9.87776H0.182814C0.0820319 9.87776 0 9.9598 0 10.0606V12.2567C0 12.3574 0.0820319 12.4395 0.182814 12.4395H0.365627V28.3535C0.365627 29.2629 1.10272 30 2.01211 30H16.2807C17.19 30 17.9271 29.2629 17.9271 28.3535V9.87778H18.11C18.2107 9.87778 18.2928 9.79575 18.2928 9.69497V6.40188C18.2928 6.3011 18.2107 6.21907 18.11 6.21907H17.9271V1.64648C17.9271 0.737127 17.19 0 16.2807 0L2.01211 5.99998e-05ZM1.09804 1.64654C1.09804 1.14147 1.50703 0.731307 2.01211 0.731307H16.2807C16.7857 0.731307 17.1947 1.14147 17.1947 1.64654V28.3533C17.1947 28.8584 16.7857 29.2686 16.2807 29.2686H2.01211C1.50703 29.2686 1.09804 28.8584 1.09804 28.3533V1.64654ZM5.85363 1.82936C5.85363 1.42505 6.18177 1.09811 6.58604 1.09811H11.707C12.1113 1.09811 12.4394 1.42505 12.4394 1.82936C12.4394 2.23367 12.1113 2.56061 11.707 2.56061H6.58604C6.18174 2.56061 5.85363 2.23367 5.85363 1.82936ZM12.0738 1.82936C12.0738 2.08248 11.8687 2.28638 11.6156 2.28638C11.3637 2.28638 11.1586 2.08247 11.1586 1.82936C11.1586 1.57625 11.3637 1.37234 11.6156 1.37234C11.8687 1.37234 12.0738 1.57625 12.0738 1.82936ZM9.14647 26.5241C8.6414 26.5241 8.23241 26.9343 8.23241 27.4394C8.23241 27.9444 8.6414 28.3534 9.14647 28.3534C9.65155 28.3534 10.0605 27.9444 10.0605 27.4394C10.0605 26.9343 9.65155 26.5241 9.14647 26.5241ZM7.86563 27.4394C7.86563 26.7316 8.43986 26.1585 9.14647 26.1585C9.85309 26.1585 10.4273 26.7316 10.4273 27.4394C10.4273 28.146 9.85309 28.719 9.14647 28.719C8.43986 28.719 7.86563 28.146 7.86563 27.4394Z" fill="white"/>
</svg>
