<svg width="438" height="433" viewBox="0 0 438 433" fill="none" xmlns="http://www.w3.org/2000/svg">
<g clip-path="url(#clip0_845_4600)">
<path d="M0.0599976 428.26C0.0599976 428.26 91.74 429.78 87.5 429.8C83.26 429.82 78.71 435.68 78.33 403.01C77.95 370.55 72.94 315.42 71.06 313.53C69.18 311.64 48.85 310.75 60.38 314C71.91 317.25 101.54 309.56 105.55 293.92C109.56 278.28 112.93 249.98 112.99 253.92C113.05 257.86 117.18 277.43 101.99 282.65C86.8 287.87 84.65 286 88.25 289.52C91.85 293.04 103.81 290.52 91.25 295.95C78.69 301.38 56.77 305.89 56.73 301.95C56.69 298.01 74.53 261.02 77.6 241.41C80.67 221.8 64.15 176.25 70.1 162.55C76.05 148.85 90.83 147 93.4 154.42C95.97 161.84 111.2 205.82 118.7 212.86C126.2 219.9 157.02 219.68 157.05 221.44C157.08 223.2 152.05 229.77 155.66 238.82C159.27 247.87 132.44 244.82 140.6 244.24C148.76 243.66 166.67 243.44 168.39 241.54C170.11 239.64 167.92 219.33 167.92 219.33C167.92 219.33 162.67 219.27 164.92 221.33C167.17 223.39 187.43 204.54 187.54 208.99C187.65 213.44 185.17 221.66 187.82 221.48C190.47 221.3 212.3 216.58 209.23 219.95C206.16 223.32 194.62 226.82 200.39 225.07C206.16 223.32 215.11 220.43 215.18 223.14C215.25 225.85 201.81 229 201.81 229C201.81 229 217.97 227 215.33 229.88C212.69 232.76 198.39 236 198.39 236C198.39 236 212.97 234.81 210.56 237.45C208.15 240.09 184.12 244.79 179.82 240.82C175.52 236.85 173.11 236.34 173.19 239.91C173.27 243.48 175.63 250.91 180.93 250.6C186.23 250.29 246.77 243.31 246.64 238.74C246.51 234.17 239.45 196.49 237.16 196.67C234.87 196.85 171.64 208.87 171.64 208.87C171.64 208.87 170.11 229.64 171.64 231.09C173.17 232.54 170.64 205.39 170.64 203.18C170.64 200.97 160.24 163.97 157.15 161.18C154.06 158.39 151.29 181.62 154.46 178.06C157.63 174.5 159.8 163.57 154.07 158.41C148.34 153.25 136.32 149.64 137.62 150.81C138.92 151.98 148.3 162.81 146.98 164.29C145.66 165.77 142.26 170.82 142.26 170.82C142.26 170.82 149.26 178.07 149.34 181.13C149.42 184.19 142.6 212.38 142.6 212.38C142.6 212.38 140.96 193.21 137.69 178.2C134.42 163.19 132.5 150.43 132.5 150.43C132.5 150.43 127 178.23 121 172.69C115 167.15 102.79 144.53 102.79 144.53C102.79 144.53 111.69 170.06 115.7 184.41C119.71 198.76 121.64 211.76 121.6 209.58C121.56 207.4 95.8 174.89 96.49 169.53C97.18 164.17 103.82 158.14 103.82 158.14C103.82 158.14 90.46 151.29 93.71 147.56C96.96 143.83 102.71 141.97 108.9 134.94C115.09 127.91 110.47 115.82 114.14 109.01C117.81 102.2 125.76 99.5999 127.14 93.6699C128.52 87.7399 126.75 83.0299 126.8 86.4399C126.85 89.8499 132.64 93.4399 137.8 95.6799C142.96 97.9199 150.1 103.24 150.2 108.41C150.3 113.58 147.37 132.93 140.46 140.77C133.55 148.61 126.78 148.77 122.06 144.52C117.34 140.27 112.81 131.52 112.81 131.52C112.81 131.52 113.13 135.84 107.97 140.21C102.81 144.58 91.48 146.97 85.1 147.6C78.72 148.23 71.85 151.65 75.32 151.31C78.79 150.97 85.49 145.86 92.5 130.7C99.51 115.54 96.09 96.8999 103.81 87.9999C111.53 79.0999 118.06 79.1599 118.08 79.9999C118.1 80.8399 116.76 76.5399 127.69 76.9299C138.62 77.3199 146.46 81.9999 148.93 98.7299C151.5 116.15 153.67 146.8 153.81 154.41C153.95 161.57 134.81 148.67 134.81 149.96C134.81 151.25 137.2 176.25 132.08 176.69C126.96 177.13 123.89 175.56 122.95 176.62C122.01 177.68 112.89 178.82 107.89 166.55C102.89 154.28 90.3 153.65 85 156.72C79.7 159.79 73.47 169.28 73.58 179.06C73.69 188.84 90 232.77 103.89 237.9C112.695 241.124 121.661 243.895 130.75 246.2C130.75 246.2 130.95 282.45 139.28 290.47C147.61 298.49 161.28 302.85 162.95 296.93C164.62 291.01 151.76 249.73 148.61 249.93C145.46 250.13 117.52 244.93 117.61 253.24C117.7 261.55 109.99 282.24 113.44 285.58C116.89 288.92 128.6 285.46 126.28 288.01C123.96 290.56 137.87 298.34 133.84 302.77C129.81 307.2 142.92 302.35 137.4 308.41C131.88 314.47 121.17 316.24 123.32 316.15C125.47 316.06 136.32 321.88 135.06 323.27C133.8 324.66 122.92 318.4 123.06 324.64C119.68 330.42 108.91 433.7 112.65 427.87C112.56 421.52 128.2 335.87 118.81 326.59C109.42 317.31 97.81 310.59 110.1 315.38C122.39 320.17 125.64 324.54 125.97 344.21C126.3 363.88 122.55 426 122.55 426L147.84 424.48C147.84 424.48 168 307.51 161 307.82C154 308.13 144.57 412.14 144.65 416.71C144.73 421.28 149.18 424 158.9 423.93C158.9 423.93 204.24 424.09 199.72 424.12C195.2 424.15 194.43 411.85 193.92 389.91C193.41 367.97 191.5 339.02 186.69 334.4C181.88 329.78 167.47 318.4 175.2 325.79C182.93 333.18 195.87 345.69 204.98 331.22C214.09 316.75 224.98 288.42 224.55 273.31C224.12 258.2 225.97 251.1 226.12 256.62C226.27 262.14 224.03 291.49 232.61 291.08C241.19 290.67 256.53 293.4 256.34 286.78C256.15 280.16 249.4 255.78 249.74 267.38C250.08 278.98 264.25 322.38 275.74 325.57C287.23 328.76 298.08 317.98 297.87 311.76C297.66 305.54 286.3 425.67 286.3 425.67C286.3 425.67 251.18 424.83 251.01 419.09C250.84 413.35 255.27 352.59 249.44 347.09C243.61 341.59 232.57 328.7 236.34 336.23C240.11 343.76 246.6 354.9 246.6 354.9C246.6 354.9 219.71 339.34 228.01 347.24C236.31 355.14 242.75 345.76 243.13 359.11C243.51 372.46 244.01 417.32 241.25 420.2C238.49 423.08 224.43 422.92 220.87 422.94C217.31 422.96 211.52 393.7 209 372.77C206.48 351.84 199.86 346.58 198.33 345.11C196.8 343.64 167.05 318 172.65 311.9C178.25 305.8 179.95 253.9 186.79 253.49C193.63 253.08 241.44 245.49 241.44 245.49C241.44 245.49 222.28 230.7 230.62 238.26C238.96 245.82 265.82 256.8 277.53 250.49C289.24 244.18 283.85 229 282 227.29C280.15 225.58 259.2 207.67 259.39 213.94C259.58 220.21 269.05 227.15 264.39 227.47C259.73 227.79 239.96 211.57 240.17 219.07C240.38 226.57 254.73 230.14 254.73 230.14C254.73 230.14 232.44 213.14 236.21 221.86C239.98 230.58 242.58 232.46 242.58 232.46C242.58 232.46 227.06 218.46 230.29 226.27C233.52 234.08 257.29 247.67 265 247.19C272.71 246.71 284.73 232.19 289.42 231.89C294.11 231.59 298.86 232.3 300.49 233.73C302.12 235.16 300.39 261.47 292.49 259.87C284.59 258.27 277.16 254.1 288.69 255.98C300.22 257.86 362.78 274.25 381.21 266.42C399.83 258.51 381.42 172.01 372.55 161.52C348.01 132.52 337.39 162.52 337.55 167.17C337.71 171.82 343.03 229.92 355.12 233.82C367.21 237.72 367.5 229.37 363.68 229.62C359.86 229.87 309.3 228.53 309.3 228.53C309.3 228.53 340.45 177.44 336 173.7C331.55 169.96 321.79 164.16 328.14 163.61C334.49 163.06 347.76 158.34 349.31 156.61C350.86 154.88 338.31 136.61 336.78 138.31C335.25 140.01 326.59 150.45 318.64 179.67C315.86 189.965 312.337 200.044 308.1 209.83C305.679 215.585 302.879 221.174 299.72 226.56C299.72 226.56 288.99 203.36 292.08 186.89C295.17 170.42 296.9 159.68 296.9 159.68C296.9 159.68 300.9 169.96 303.44 167.21C305.98 164.46 314.71 158.62 319.64 149.04C324.57 139.46 328.04 132.52 328.04 132.52C328.04 132.52 337.71 140.44 337.81 142.86C337.91 145.28 322.06 177.22 322.06 177.22C322.06 177.22 308.81 168.97 308.93 172.41C309.05 175.85 300.85 217.41 300.85 217.41C300.85 217.41 292.43 200.69 294.85 188.76C297.27 176.83 310.01 143 307.7 148.38C305.39 153.76 295.7 156.78 290 154.89C284.3 153 265 133.68 264.65 123.23C264.3 112.78 274.45 103.31 280.3 100.66C286.15 98.0099 281.19 106.66 288.3 108.97C295.41 111.28 302.81 104.56 306.65 107.74C310.49 110.92 309.53 121.4 309.37 116.96C309.21 112.52 313.22 101.96 319.12 106.79C325.02 111.62 323.17 128.73 325.12 122.68C327.07 116.63 325.25 98.5199 319.82 88.1299C314.39 77.7399 303.12 80.7799 303.12 80.7799C303.12 80.7799 308.59 74.7799 295.12 73.8999C281.65 73.0199 257.73 89.3299 257.81 91.9999C257.89 94.6699 264.09 94.3299 261.75 96.9299C259.41 99.5299 257.82 103.73 257.9 106.41C257.98 109.09 263.54 109.86 263.54 109.86C263.54 109.86 261.61 114.77 261.71 117.79C261.81 120.81 266.11 92.1499 290.18 92.1499C329.71 92.1499 318.26 120.09 320.84 126.21C324.91 135.84 291.57 159.32 285.95 165.47C280.33 171.62 275.74 175.93 273.14 182.64C271.57 186.74 264.4 198.52 259.84 207.02C256.92 212.46 255.05 216.56 256.39 216.46C259.81 216.22 280.91 205.4 281.06 209.87C281.21 214.34 287.59 225.67 287.42 220.48C287.25 215.29 272.29 194.19 277.88 188.09C283.47 181.99 287.77 177.67 287.68 174.93C287.59 172.19 283.68 161.55 279.15 161.93C274.62 162.31 248.57 224.93 248.15 211.31C247.73 197.69 249.27 145.76 249.15 143.4C249.15 143.4 251.78 136.28 249.75 129.4C247.72 122.52 245.41 117.74 244.35 118.91C243.29 120.08 243.56 129.3 236.9 136.7C232.913 141.133 228.565 145.227 223.9 148.94C220.872 144.467 217.267 140.412 213.18 136.88C206.3 130.88 204.67 121.21 204.74 124.01C204.81 126.81 200.28 129.37 204.33 150.42C208.38 171.47 214.8 196.3 214.8 196.3L205.28 198.83C205.28 198.83 183.62 163.9 188.06 158.93C192.5 153.96 195.61 151.21 194.54 150.26C193.47 149.31 188.23 151.2 188.15 147.35C188.07 143.5 203.5 120.43 200.24 124.1C198.24 126.38 188.38 130.19 180.35 133.79C175.52 135.95 171.35 138.04 169.87 139.69C165.99 144.07 176.56 191.91 180.53 181.69C184.5 171.47 170.71 138.69 165.99 144.03C161.27 149.37 159.26 160.48 159.26 160.48C159.26 160.48 204.17 126.11 203.97 118.07C203.77 110.03 197.26 102.71 197.4 108.63C197.54 114.55 209.87 132.22 225.65 130.63C241.6 129.05 240.73 97.0799 242.3 95.3099C243.426 93.8736 244.354 92.2929 245.06 90.6099C246.63 86.9799 247.59 82.2499 244.37 79.6099C239.2 75.2699 239.49 85.4499 235.9 85.8499C232.31 86.2499 223.16 78.1999 223 72.2699C222.84 66.3399 216.75 77.8899 209 78.7899C201.25 79.6899 192.6 83.1199 192.68 86.5799C192.76 90.0399 193.35 100.05 193.28 96.9299C193.21 93.8099 179.51 89.1199 186.12 74.5399C192.73 59.9599 214.36 46.6899 219.6 51.0699C224.84 55.4499 223.14 63.5299 223.09 61.7899C223.04 60.0499 226.87 50.3399 233.64 55.9599C240.41 61.5799 244 115 244 115C244 115 248 152.38 245.82 152.58C243.64 152.78 228.64 146.69 228.74 150.23C228.84 153.77 237.64 190.72 236.41 192.07C235.18 193.42 220.72 199.75 220.6 195.07C220.48 190.39 214.53 154.69 219.88 154.2C225.23 153.71 247.51 117.26 253.3 122.2C259.09 127.14 268.44 137.53 268.68 145.05C268.92 152.57 264.49 200.75 267.63 205.9C270.77 211.05 297.97 228.66 319.16 235.05C319.16 235.05 296.39 252.91 297.01 271.05C297.63 289.19 296.9 331.69 304.63 346.37C312.36 361.05 344 361.86 364.78 357C385.78 352 389.36 346.83 389.08 340.26C388.8 333.69 370.66 280.13 370.66 280.13C370.66 280.13 349.78 280.45 331.26 277.83C312.96 275.23 279.57 262.28 279.73 267.19C280.04 276.94 264.56 347.68 275.3 350.88C286.04 354.08 290.45 333.43 290.45 333.43C290.45 333.43 282.38 349.26 282.74 360.59C283.1 371.92 294.69 428.71 297.14 426.17C299.59 423.63 297.7 356.64 304.62 368.6C311.54 380.56 314 429 319 423.84C320.74 422.05 372.59 427.56 378.07 421.98C383.55 416.4 385.53 354.59 378.6 361.72C371.67 368.85 368.74 416.89 388.04 422.66C407.58 428.5 437.55 425.3 437.55 425.3" stroke="#00B3FF" stroke-width="1.76" stroke-linecap="round" stroke-linejoin="round"/>
</g>
<defs>
<clipPath id="clip0_845_4600">
<rect width="437.59" height="432.96" fill="white"/>
</clipPath>
</defs>
</svg>
