<svg width="462" height="150" viewBox="0 0 462 150" fill="none" xmlns="http://www.w3.org/2000/svg">
<path fill-rule="evenodd" clip-rule="evenodd" d="M50.5098 61.5757C50.6001 60.6217 50.9713 59.7159 51.5764 58.9729C52.1815 58.2298 52.9933 57.683 53.9093 57.4014C54.8252 57.1198 55.8041 57.1162 56.7221 57.391C57.6401 57.6658 58.456 58.2066 59.0666 58.9452C59.6772 59.6837 60.055 60.5867 60.1523 61.54C60.2497 62.4933 60.0621 63.454 59.6134 64.3007C59.1646 65.1474 58.4749 65.842 57.6314 66.2966C56.7878 66.7513 55.8284 66.9455 54.8745 66.8549C53.5957 66.7333 52.4176 66.1089 51.5991 65.1189C50.7806 64.129 50.3888 62.8545 50.5098 61.5757Z" fill="white"/>
<path fill-rule="evenodd" clip-rule="evenodd" d="M54.8389 49.342C54.9143 48.5302 55.2287 47.759 55.7426 47.126C56.2564 46.493 56.9464 46.0267 57.7254 45.7861C58.5043 45.5455 59.3372 45.5413 60.1185 45.7742C60.8998 46.0072 61.5944 46.4666 62.1145 47.0945C62.6345 47.7224 62.9566 48.4904 63.04 49.3014C63.1233 50.1124 62.9642 50.9299 62.5827 51.6505C62.2013 52.371 61.6146 52.9621 60.897 53.3491C60.1795 53.7361 59.3632 53.9015 58.5516 53.8243C57.4653 53.7211 56.4644 53.1912 55.7684 52.3508C55.0724 51.5105 54.7381 50.4284 54.8389 49.342Z" fill="white"/>
<path fill-rule="evenodd" clip-rule="evenodd" d="M62.3817 40.6673C62.4493 39.9651 62.7235 39.2987 63.1697 38.7524C63.6159 38.206 64.2141 37.8042 64.8886 37.5977C65.5631 37.3912 66.2837 37.3893 66.9593 37.5922C67.6349 37.7951 68.2352 38.1938 68.6843 38.7378C69.1334 39.2817 69.4112 39.9466 69.4825 40.6484C69.5538 41.3502 69.4155 42.0574 69.085 42.6806C68.7545 43.3039 68.2467 43.8151 67.6257 44.1498C67.0048 44.4845 66.2985 44.6276 65.5963 44.561C65.1294 44.5167 64.6758 44.3809 64.2615 44.1612C63.8472 43.9415 63.4803 43.6422 63.1817 43.2806C62.8831 42.9189 62.6588 42.502 62.5215 42.0536C62.3842 41.6051 62.3367 41.1341 62.3817 40.6673Z" fill="white"/>
<path fill-rule="evenodd" clip-rule="evenodd" d="M71.9437 35.8406C72.0021 35.2234 72.2424 34.6374 72.634 34.1568C73.0257 33.6762 73.5512 33.3226 74.1439 33.1407C74.7366 32.9589 75.37 32.957 75.9638 33.1353C76.5576 33.3136 77.0852 33.664 77.4797 34.1423C77.8742 34.6205 78.118 35.2051 78.1801 35.822C78.2423 36.4389 78.12 37.0603 77.8288 37.6076C77.5376 38.155 77.0906 38.6036 76.5442 38.8968C75.9979 39.1899 75.3769 39.3144 74.7598 39.2545C73.9341 39.1742 73.1739 38.7698 72.6459 38.1298C72.118 37.4898 71.8654 36.6666 71.9437 35.8406Z" fill="white"/>
<path fill-rule="evenodd" clip-rule="evenodd" d="M81.9049 35.6505C81.9593 35.0893 82.1788 34.5568 82.5356 34.1203C82.8925 33.6838 83.3707 33.3628 83.9099 33.1979C84.4491 33.0331 85.025 33.0317 85.565 33.1939C86.1049 33.3562 86.5847 33.6749 86.9436 34.1097C87.3026 34.5445 87.5246 35.0759 87.5817 35.6368C87.6388 36.1977 87.5284 36.763 87.2644 37.2612C87.0004 37.7594 86.5947 38.1682 86.0985 38.4359C85.6023 38.7036 85.0379 38.8183 84.4766 38.7655C84.103 38.7303 83.74 38.6218 83.4085 38.4461C83.0769 38.2704 82.7833 38.031 82.5444 37.7416C82.3055 37.4523 82.126 37.1186 82.0163 36.7598C81.9066 36.4009 81.8687 36.024 81.9049 35.6505Z" fill="white"/>
<path fill-rule="evenodd" clip-rule="evenodd" d="M90.3263 38.9375C90.3751 38.4296 90.5733 37.9476 90.8959 37.5523C91.2185 37.1571 91.6511 36.8663 92.1389 36.7168C92.6267 36.5673 93.1479 36.5657 93.6366 36.7123C94.1253 36.8589 94.5596 37.147 94.8846 37.5403C95.2096 37.9336 95.4107 38.4144 95.4626 38.922C95.5144 39.4295 95.4147 39.9411 95.1759 40.392C94.9372 40.8429 94.5701 41.2129 94.1211 41.4552C93.6722 41.6976 93.1614 41.8014 92.6535 41.7537C92.3156 41.7219 91.9874 41.6238 91.6875 41.465C91.3876 41.3062 91.122 41.0898 90.9058 40.8282C90.6897 40.5666 90.5272 40.265 90.4278 39.9406C90.3283 39.6161 90.2938 39.2753 90.3263 38.9375Z" fill="white"/>
<path fill-rule="evenodd" clip-rule="evenodd" d="M96.5377 44.4252C96.5809 43.9706 96.7579 43.5391 97.0463 43.1851C97.3346 42.8311 97.7215 42.5706 98.1579 42.4364C98.5944 42.3022 99.0608 42.3005 99.4982 42.4313C99.9357 42.5622 100.324 42.8198 100.616 43.1716C100.907 43.5234 101.087 43.9536 101.133 44.4078C101.18 44.862 101.091 45.3199 100.877 45.7234C100.664 46.127 100.336 46.4582 99.9338 46.6752C99.532 46.8922 99.075 46.9852 98.6204 46.9425C98.3183 46.9141 98.0248 46.8265 97.7565 46.6846C97.4883 46.5427 97.2507 46.3493 97.0573 46.1155C96.8639 45.8817 96.7184 45.6121 96.6293 45.322C96.5401 45.032 96.509 44.7272 96.5377 44.4252Z" fill="white"/>
<path fill-rule="evenodd" clip-rule="evenodd" d="M100.459 50.9629C100.494 50.575 100.643 50.2063 100.887 49.9029C101.132 49.5996 101.46 49.3753 101.832 49.2583C102.203 49.1412 102.601 49.1366 102.975 49.2451C103.349 49.3536 103.682 49.5703 103.934 49.8679C104.185 50.1655 104.342 50.5308 104.386 50.9177C104.43 51.3047 104.359 51.696 104.181 52.0425C104.003 52.3889 103.727 52.6751 103.387 52.8648C103.047 53.0546 102.658 53.1396 102.27 53.109C102.009 53.0909 101.754 53.0205 101.52 52.902C101.287 52.7835 101.079 52.6193 100.91 52.4192C100.741 52.219 100.614 51.987 100.537 51.7368C100.459 51.4867 100.433 51.2235 100.459 50.9629Z" fill="white"/>
<path fill-rule="evenodd" clip-rule="evenodd" d="M102.678 57.8538C102.736 57.4326 102.955 57.0502 103.289 56.7867C103.623 56.5232 104.045 56.3989 104.469 56.4398C104.892 56.4807 105.283 56.6837 105.56 57.0063C105.837 57.3289 105.979 57.7461 105.956 58.1708C105.944 58.3926 105.887 58.6097 105.788 58.8089C105.69 59.0082 105.553 59.1855 105.384 59.3303C105.216 59.4751 105.019 59.5843 104.808 59.6513C104.596 59.7184 104.373 59.742 104.152 59.7206C103.93 59.6992 103.716 59.6333 103.521 59.5269C103.326 59.4205 103.154 59.2758 103.017 59.1014C102.879 58.9271 102.778 58.7266 102.72 58.5122C102.662 58.2978 102.647 58.0739 102.678 57.8538Z" fill="white"/>
<path fill-rule="evenodd" clip-rule="evenodd" d="M103.284 64.2923C103.311 64.0104 103.42 63.7426 103.599 63.5229C103.778 63.3033 104.018 63.1416 104.288 63.0583C104.559 62.9751 104.848 62.974 105.12 63.0553C105.391 63.1366 105.632 63.2966 105.812 63.515C105.993 63.7334 106.104 64.0003 106.132 64.2821C106.161 64.5638 106.105 64.8477 105.972 65.0977C105.839 65.3478 105.635 65.5527 105.385 65.6866C105.136 65.8205 104.852 65.8773 104.57 65.8498C104.383 65.8328 104.201 65.7789 104.035 65.6913C103.869 65.6036 103.722 65.4839 103.603 65.3391C103.483 65.1943 103.393 65.0272 103.339 64.8476C103.284 64.6679 103.266 64.4792 103.284 64.2923Z" fill="white"/>
<path fill-rule="evenodd" clip-rule="evenodd" d="M102.713 70.3321C102.736 70.0929 102.829 69.8658 102.981 69.6796C103.133 69.4935 103.337 69.3566 103.567 69.2864C103.797 69.2162 104.042 69.2157 104.272 69.2851C104.502 69.3546 104.706 69.4907 104.859 69.6763C105.011 69.862 105.105 70.0887 105.129 70.3278C105.153 70.5669 105.105 70.8076 104.991 71.0195C104.878 71.2313 104.704 71.4047 104.492 71.5177C104.28 71.6307 104.039 71.6781 103.8 71.6541C103.481 71.6221 103.188 71.465 102.984 71.2173C102.78 70.9695 102.683 70.6513 102.713 70.3321Z" fill="white"/>
<path fill-rule="evenodd" clip-rule="evenodd" d="M101.011 75.6747C101.03 75.4811 101.105 75.2972 101.228 75.1462C101.35 74.9952 101.515 74.8838 101.701 74.8259C101.886 74.7681 102.085 74.7664 102.272 74.8211C102.458 74.8757 102.625 74.9844 102.75 75.1333C102.875 75.2822 102.953 75.4648 102.975 75.6581C102.997 75.8513 102.961 76.0467 102.872 76.2197C102.783 76.3927 102.645 76.5355 102.475 76.6303C102.305 76.725 102.111 76.7675 101.917 76.7523C101.654 76.7293 101.411 76.6029 101.241 76.4008C101.072 76.1988 100.989 75.9376 101.011 75.6747Z" fill="white"/>
<path fill-rule="evenodd" clip-rule="evenodd" d="M98.8193 79.985C98.8295 79.8769 98.8611 79.772 98.9123 79.6763C98.9636 79.5806 99.0334 79.4961 99.1178 79.4278C99.2021 79.3595 99.2993 79.3087 99.4035 79.2784C99.5078 79.2481 99.617 79.239 99.7249 79.2515C99.8333 79.2617 99.9386 79.2933 100.035 79.3444C100.131 79.3956 100.216 79.4653 100.285 79.5495C100.354 79.6337 100.406 79.7307 100.437 79.835C100.468 79.9393 100.479 80.0488 100.467 80.1571C100.444 80.3751 100.337 80.5753 100.167 80.7143C99.9976 80.8533 99.7801 80.9199 99.5619 80.8996C99.3445 80.8768 99.1451 80.7686 99.0076 80.5987C98.87 80.4289 98.8056 80.2114 98.8284 79.9941" fill="white"/>
<path fill-rule="evenodd" clip-rule="evenodd" d="M95.8949 84.2138C95.908 84.0857 95.9586 83.9644 96.0405 83.8651C96.1224 83.7659 96.2318 83.693 96.355 83.6558C96.4782 83.6186 96.6096 83.6186 96.7328 83.656C96.8559 83.6933 96.9653 83.7663 97.047 83.8657C97.1288 83.965 97.1793 84.0864 97.1922 84.2144C97.2052 84.3425 97.1799 84.4715 97.1197 84.5852C97.0594 84.6989 96.9668 84.7922 96.8536 84.8534C96.7405 84.9146 96.6117 84.941 96.4835 84.9291C96.3973 84.9224 96.3133 84.8983 96.2366 84.8584C96.1599 84.8184 96.092 84.7634 96.0371 84.6966C95.9821 84.6298 95.9412 84.5527 95.9168 84.4697C95.8924 84.3867 95.8849 84.2997 95.8949 84.2138Z" fill="white"/>
<path fill-rule="evenodd" clip-rule="evenodd" d="M92.7169 86.9303C92.7307 86.7852 92.8012 86.6515 92.9132 86.5582C93.0251 86.4649 93.1694 86.4196 93.3145 86.4322C93.4603 86.4483 93.5941 86.5207 93.6872 86.6341C93.7803 86.7475 93.8253 86.8928 93.8126 87.039C93.7877 87.1754 93.7123 87.2975 93.6016 87.3809C93.4908 87.4644 93.3527 87.5031 93.2147 87.4895C93.0766 87.4758 92.9488 87.4107 92.8566 87.3071C92.7644 87.2035 92.7145 87.069 92.7169 86.9303Z" fill="white"/>
<path fill-rule="evenodd" clip-rule="evenodd" d="M88.7414 89.5111C88.7399 89.456 88.7501 89.4013 88.7714 89.3505C88.7926 89.2996 88.8244 89.2539 88.8646 89.2163C88.9049 89.1787 88.9526 89.15 89.0048 89.1322C89.0569 89.1144 89.1122 89.1079 89.1671 89.113C89.2219 89.1182 89.275 89.1349 89.3229 89.1622C89.3708 89.1894 89.4124 89.2264 89.4449 89.2709C89.4774 89.3154 89.5001 89.3662 89.5115 89.4201C89.5229 89.474 89.5228 89.5297 89.511 89.5836C89.4908 89.6765 89.4372 89.7589 89.3604 89.815C89.2836 89.8712 89.1888 89.8973 89.0941 89.8884C88.9994 89.8794 88.9112 89.8361 88.8462 89.7666C88.7812 89.6971 88.7439 89.6062 88.7414 89.5111Z" fill="white"/>
<path fill-rule="evenodd" clip-rule="evenodd" d="M84.1412 90.9056C84.1446 90.8699 84.1551 90.8352 84.172 90.8035C84.1889 90.7718 84.2119 90.7438 84.2397 90.7211C84.2675 90.6983 84.2995 90.6813 84.3339 90.671C84.3683 90.6608 84.4044 90.6574 84.4401 90.6612C84.5113 90.6702 84.5764 90.7063 84.6218 90.7619C84.6673 90.8174 84.6898 90.8883 84.6846 90.96C84.6812 90.9957 84.6707 91.0304 84.6538 91.0621C84.6369 91.0938 84.6139 91.1218 84.5861 91.1446C84.5584 91.1673 84.5263 91.1843 84.4919 91.1946C84.4575 91.2049 84.4214 91.2082 84.3857 91.2045C84.3495 91.2023 84.3142 91.1927 84.2818 91.1762C84.2495 91.1597 84.221 91.1367 84.198 91.1086C84.1751 91.0805 84.1582 91.048 84.1484 91.0131C84.1386 90.9781 84.1362 90.9416 84.1412 90.9056Z" fill="white"/>
<path fill-rule="evenodd" clip-rule="evenodd" d="M80.0841 91.2046C80.0864 91.1831 80.0929 91.1623 80.1032 91.1434C80.1135 91.1245 80.1276 91.1078 80.1444 91.0943C80.1613 91.0808 80.1806 91.0708 80.2013 91.0649C80.2221 91.059 80.2438 91.0572 80.2652 91.0597C80.2863 91.0608 80.3069 91.0662 80.3258 91.0756C80.3447 91.085 80.3614 91.0981 80.375 91.1143C80.3886 91.1304 80.3987 91.1492 80.4048 91.1694C80.4108 91.1896 80.4126 91.2108 80.4101 91.2318C80.4055 91.2758 80.3841 91.3164 80.3504 91.345C80.3167 91.3737 80.2732 91.3883 80.229 91.3857C80.2075 91.3834 80.1867 91.377 80.1678 91.3666C80.1489 91.3563 80.1322 91.3423 80.1187 91.3254C80.1052 91.3086 80.0952 91.2892 80.0893 91.2685C80.0834 91.2477 80.0816 91.226 80.0841 91.2046Z" fill="white"/>
<path fill-rule="evenodd" clip-rule="evenodd" d="M75.9195 90.788C75.9207 90.7737 75.9246 90.7598 75.9312 90.747C75.9377 90.7343 75.9467 90.723 75.9577 90.7137C75.9686 90.7044 75.9813 90.6974 75.9949 90.6931C76.0086 90.6888 76.023 90.6872 76.0373 90.6884C76.0669 90.6929 76.0937 90.7085 76.1122 90.7321C76.1307 90.7556 76.1395 90.7853 76.1369 90.8152C76.1309 90.8424 76.1162 90.8669 76.0949 90.8849C76.0736 90.9029 76.047 90.9134 76.0191 90.9148C76.004 90.9137 75.9892 90.9095 75.9758 90.9024C75.9624 90.8953 75.9506 90.8855 75.9412 90.8735C75.9318 90.8616 75.925 90.8478 75.9213 90.833C75.9176 90.8183 75.917 90.803 75.9195 90.788Z" fill="white"/>
<path fill-rule="evenodd" clip-rule="evenodd" d="M71.2373 89.375C71.2456 89.3702 71.2549 89.3677 71.2645 89.3677C71.274 89.3677 71.2834 89.3702 71.2916 89.375C71.2988 89.375 71.3058 89.3764 71.3124 89.3791C71.319 89.3818 71.325 89.3858 71.3301 89.3909C71.3351 89.3959 71.3391 89.4019 71.3418 89.4085C71.3446 89.4151 71.346 89.4222 71.346 89.4293C71.3438 89.4445 71.3361 89.4584 71.3245 89.4684C71.3128 89.4784 71.2979 89.4838 71.2826 89.4836C71.2743 89.4752 71.2696 89.4638 71.2696 89.4519C71.2696 89.4401 71.2743 89.4287 71.2826 89.4202" fill="white"/>
<path fill-rule="evenodd" clip-rule="evenodd" d="M60.1539 62.4811C60.0636 63.4351 59.6925 64.3409 59.0874 65.0839C58.4823 65.8269 57.6704 66.3738 56.7544 66.6554C55.8385 66.937 54.8596 66.9406 53.9416 66.6658C53.0236 66.391 52.2077 65.8502 51.5972 65.1116C50.9866 64.3731 50.6087 63.4701 50.5114 62.5168C50.4141 61.5635 50.6016 60.6028 51.0504 59.7561C51.4991 58.9094 52.1889 58.2148 53.0324 57.7602C53.8759 57.3055 54.8353 57.1112 55.7893 57.2019C57.068 57.3235 58.2461 57.9479 59.0646 58.9378C59.8831 59.9278 60.2749 61.2023 60.1539 62.4811Z" fill="white"/>
<path fill-rule="evenodd" clip-rule="evenodd" d="M55.8168 74.7873C55.7326 75.5964 55.4107 76.3625 54.8918 76.989C54.3729 77.6156 53.6801 78.0744 52.9008 78.3078C52.1214 78.5412 51.2905 78.5386 50.5126 78.3005C49.7347 78.0623 49.0448 77.5992 48.5297 76.9695C48.0146 76.3399 47.6975 75.5718 47.6182 74.7621C47.539 73.9525 47.7012 73.1375 48.0845 72.4199C48.4677 71.7023 49.0548 71.1142 49.7717 70.7298C50.4887 70.3454 51.3034 70.1818 52.1132 70.2596C52.6554 70.3094 53.1822 70.4665 53.6631 70.7219C54.1439 70.9773 54.5691 71.3259 54.9138 71.7473C55.2585 72.1688 55.5159 72.6546 55.6709 73.1765C55.826 73.6984 55.8755 74.246 55.8168 74.7873Z" fill="white"/>
<path fill-rule="evenodd" clip-rule="evenodd" d="M48.2822 83.4531C48.2146 84.1553 47.9404 84.8217 47.4941 85.368C47.0479 85.9144 46.4498 86.3162 45.7752 86.5227C45.1007 86.7292 44.3801 86.7311 43.7045 86.5282C43.0289 86.3253 42.4287 85.9266 41.9796 85.3826C41.5305 84.8387 41.2527 84.1737 41.1814 83.4719C41.11 82.7701 41.2484 82.063 41.5789 81.4397C41.9093 80.8165 42.4171 80.3053 43.0381 79.9706C43.6591 79.6359 44.3653 79.4928 45.0676 79.5594C45.5345 79.6036 45.988 79.7395 46.4023 79.9592C46.8166 80.1789 47.1836 80.4782 47.4821 80.8398C47.7807 81.2014 48.005 81.6184 48.1423 82.0668C48.2796 82.5152 48.3271 82.9863 48.2822 83.4531Z" fill="white"/>
<path fill-rule="evenodd" clip-rule="evenodd" d="M38.7201 88.2797C38.6619 88.8966 38.422 89.4824 38.0308 89.963C37.6397 90.4435 37.1148 90.7974 36.5226 90.9796C35.9304 91.1619 35.2974 91.1645 34.7037 90.9871C34.11 90.8096 33.5822 90.4601 33.1872 89.9827C32.7921 89.5054 32.5474 88.9216 32.4842 88.3052C32.4209 87.6887 32.5418 87.0674 32.8316 86.5197C33.1214 85.972 33.5672 85.5226 34.1124 85.2282C34.6577 84.9338 35.278 84.8077 35.8949 84.8659C36.3046 84.9045 36.7026 85.0234 37.0663 85.2159C37.43 85.4084 37.7523 85.6706 38.0146 85.9876C38.277 86.3046 38.4743 86.6702 38.5954 87.0635C38.7164 87.4568 38.7588 87.87 38.7201 88.2797Z" fill="white"/>
<path fill-rule="evenodd" clip-rule="evenodd" d="M28.7501 88.4698C28.6957 89.031 28.4762 89.5635 28.1194 90C27.7625 90.4366 27.2843 90.7575 26.7451 90.9224C26.2059 91.0873 25.63 91.0887 25.09 90.9264C24.5501 90.7641 24.0703 90.4455 23.7114 90.0107C23.3524 89.5759 23.1304 89.0445 23.0733 88.4835C23.0162 87.9226 23.1266 87.3573 23.3906 86.8591C23.6546 86.3609 24.0603 85.9522 24.5565 85.6844C25.0527 85.4167 25.6171 85.302 26.1784 85.3548C26.552 85.39 26.915 85.4986 27.2465 85.6743C27.5781 85.85 27.8717 86.0893 28.1106 86.3787C28.3495 86.6681 28.529 87.0017 28.6387 87.3606C28.7484 87.7194 28.7863 88.0964 28.7501 88.4698Z" fill="white"/>
<path fill-rule="evenodd" clip-rule="evenodd" d="M20.3293 85.1644C20.2806 85.6723 20.0823 86.1543 19.7597 86.5496C19.4371 86.9448 19.0045 87.2356 18.5167 87.3851C18.0289 87.5346 17.5077 87.5362 17.019 87.3896C16.5303 87.243 16.0961 86.9549 15.7711 86.5616C15.446 86.1683 15.2449 85.6875 15.1931 85.18C15.1412 84.6724 15.241 84.1608 15.4797 83.7099C15.7185 83.2591 16.0855 82.889 16.5345 82.6467C16.9835 82.4043 17.4942 82.3005 18.0022 82.3483C18.34 82.38 18.6683 82.4781 18.9681 82.6369C19.268 82.7957 19.5337 83.0121 19.7498 83.2737C19.966 83.5353 20.1284 83.8369 20.2279 84.1614C20.3273 84.4858 20.3618 84.8267 20.3293 85.1644Z" fill="white"/>
<path fill-rule="evenodd" clip-rule="evenodd" d="M14.1174 79.6859C14.0757 80.1413 13.8997 80.5742 13.6118 80.9295C13.3238 81.2848 12.9368 81.5466 12.4998 81.6817C12.0629 81.8167 11.5957 81.819 11.1574 81.6882C10.7192 81.5574 10.3296 81.2994 10.0382 80.9469C9.74679 80.5944 9.56662 80.1633 9.52054 79.7082C9.47446 79.2532 9.56455 78.7947 9.77937 78.391C9.9942 77.9872 10.3241 77.6563 10.7272 77.4403C11.1304 77.2243 11.5886 77.1328 12.0437 77.1776C12.6505 77.2372 13.2091 77.5344 13.5975 78.0043C13.986 78.4742 14.1729 79.0787 14.1174 79.6859Z" fill="white"/>
<path fill-rule="evenodd" clip-rule="evenodd" d="M10.2052 73.1663C10.1699 73.5563 10.0199 73.9271 9.77415 74.232C9.52841 74.5369 9.19791 74.7622 8.82431 74.8795C8.45071 74.9968 8.05075 75.0009 7.67483 74.8912C7.29891 74.7816 6.96388 74.5631 6.71195 74.2633C6.46003 73.9635 6.3025 73.5959 6.25922 73.2067C6.21594 72.8175 6.28885 72.4242 6.46876 72.0764C6.64867 71.7286 6.92752 71.4418 7.27016 71.2523C7.6128 71.0627 8.00389 70.9788 8.39414 71.0112C8.65536 71.0316 8.9099 71.1039 9.14291 71.2237C9.37592 71.3436 9.58274 71.5086 9.75132 71.7092C9.91989 71.9098 10.0468 72.142 10.1248 72.3921C10.2027 72.6423 10.23 72.9055 10.2052 73.1663Z" fill="white"/>
<path fill-rule="evenodd" clip-rule="evenodd" d="M7.98712 66.2661C7.94363 66.7031 7.72847 67.1049 7.3889 67.3834C7.04932 67.6618 6.61311 67.7941 6.17607 67.7512C5.85255 67.7176 5.54619 67.589 5.2956 67.3816C5.04501 67.1742 4.86138 66.8974 4.76785 66.5858C4.67432 66.2743 4.67506 65.9421 4.76999 65.631C4.86492 65.3198 5.04978 65.0438 5.3013 64.8375C5.55282 64.6313 5.85974 64.5041 6.18342 64.4719C6.50709 64.4398 6.83304 64.5041 7.12022 64.6569C7.40739 64.8096 7.64294 65.0439 7.79721 65.3303C7.95147 65.6167 8.01755 65.9423 7.98712 66.2661Z" fill="white"/>
<path fill-rule="evenodd" clip-rule="evenodd" d="M7.37963 59.8279C7.3532 60.1099 7.2437 60.3776 7.06498 60.5973C6.88626 60.817 6.64637 60.9787 6.37569 61.0619C6.10501 61.1452 5.81572 61.1462 5.54444 61.0649C5.27317 60.9836 5.03213 60.8237 4.85183 60.6053C4.67154 60.3869 4.56011 60.1199 4.53166 59.8382C4.5032 59.5564 4.559 59.2725 4.69199 59.0225C4.82498 58.7725 5.02918 58.5676 5.27872 58.4337C5.52826 58.2998 5.81193 58.243 6.09378 58.2704C6.47056 58.3071 6.81744 58.4916 7.05845 58.7835C7.29946 59.0755 7.41495 59.451 7.37963 59.8279Z" fill="white"/>
<path fill-rule="evenodd" clip-rule="evenodd" d="M7.94187 53.788C7.92812 54.0278 7.84298 54.258 7.69738 54.449C7.55179 54.6401 7.35239 54.7832 7.12482 54.86C6.89725 54.9369 6.6519 54.9439 6.4203 54.8803C6.18869 54.8166 5.98141 54.6851 5.8251 54.5028C5.66878 54.3204 5.57056 54.0955 5.54307 53.8568C5.51558 53.6182 5.56007 53.3768 5.67082 53.1637C5.78157 52.9506 5.95352 52.7754 6.16458 52.6607C6.37564 52.5461 6.61616 52.4971 6.85525 52.5202C7.01285 52.535 7.16599 52.5807 7.30592 52.6547C7.44586 52.7287 7.56983 52.8295 7.67075 52.9515C7.77167 53.0734 7.84756 53.2141 7.89408 53.3654C7.94061 53.5167 7.95685 53.6757 7.94187 53.8332" fill="white"/>
<path fill-rule="evenodd" clip-rule="evenodd" d="M9.64343 48.4546C9.62499 48.6482 9.54975 48.8321 9.42716 48.9831C9.30457 49.1341 9.14009 49.2456 8.95438 49.3034C8.76867 49.3613 8.57001 49.3629 8.38335 49.3083C8.19669 49.2536 8.03034 49.1449 7.90521 48.996C7.78007 48.8471 7.70172 48.6646 7.68 48.4713C7.65828 48.278 7.69415 48.0826 7.78312 47.9096C7.87208 47.7366 8.01017 47.5938 8.18004 47.4991C8.34991 47.4043 8.54399 47.3619 8.7379 47.377C8.86851 47.3873 8.99578 47.4234 9.11229 47.4833C9.22879 47.5432 9.33221 47.6258 9.41649 47.7261C9.50078 47.8264 9.56425 47.9424 9.60321 48.0675C9.64217 48.1926 9.65584 48.3242 9.64343 48.4546Z" fill="white"/>
<path fill-rule="evenodd" clip-rule="evenodd" d="M11.8438 44.1352C11.827 44.297 11.7628 44.4502 11.6591 44.5754C11.5554 44.7007 11.4169 44.7926 11.2612 44.8393C11.1054 44.8861 10.9393 44.8857 10.7837 44.8383C10.6282 44.7908 10.4902 44.6984 10.387 44.5726C10.2839 44.4468 10.2203 44.2934 10.2042 44.1315C10.1882 43.9697 10.2203 43.8067 10.2967 43.6631C10.3731 43.5196 10.4902 43.4018 10.6334 43.3246C10.7766 43.2475 10.9394 43.2145 11.1013 43.2297C11.2097 43.2399 11.315 43.2714 11.4112 43.3226C11.5073 43.3737 11.5924 43.4434 11.6614 43.5276C11.7305 43.6118 11.7821 43.7089 11.8134 43.8131C11.8448 43.9174 11.8551 44.0269 11.8438 44.1352Z" fill="white"/>
<path fill-rule="evenodd" clip-rule="evenodd" d="M14.7693 39.9516C14.7694 40.043 14.7505 40.1335 14.7138 40.2172C14.6771 40.301 14.6234 40.3762 14.5562 40.4382C14.4889 40.5001 14.4095 40.5474 14.3231 40.5771C14.2366 40.6068 14.1449 40.6183 14.0538 40.6108C13.9627 40.6032 13.8741 40.5768 13.7937 40.5333C13.7133 40.4898 13.6427 40.4301 13.5866 40.3579C13.5304 40.2858 13.4899 40.2027 13.4675 40.1141C13.445 40.0254 13.4412 39.9331 13.4563 39.8429C13.4643 39.7572 13.4891 39.6738 13.5294 39.5977C13.5698 39.5216 13.6248 39.4542 13.6913 39.3995C13.7578 39.3448 13.8345 39.3038 13.917 39.2788C13.9994 39.2539 14.086 39.2456 14.1717 39.2543C14.3456 39.2704 14.5061 39.3547 14.6181 39.4888C14.73 39.6228 14.7844 39.7957 14.7693 39.9697" fill="white"/>
<path fill-rule="evenodd" clip-rule="evenodd" d="M17.9381 37.1264C17.9269 37.2331 17.8844 37.334 17.816 37.4166C17.7475 37.4991 17.6562 37.5595 17.5534 37.5902C17.4507 37.6209 17.3412 37.6206 17.2387 37.5892C17.1361 37.5578 17.0452 37.4967 16.9773 37.4137C16.9094 37.3307 16.8676 37.2295 16.8571 37.1228C16.8466 37.0161 16.8679 36.9087 16.9184 36.814C16.9688 36.7194 17.0462 36.6419 17.1406 36.5911C17.2351 36.5403 17.3424 36.5187 17.4492 36.5288C17.5206 36.5356 17.5901 36.5565 17.6534 36.5903C17.7168 36.624 17.7728 36.6701 17.8183 36.7256C17.8638 36.7812 17.8978 36.8452 17.9184 36.914C17.9389 36.9828 17.9456 37.055 17.9381 37.1264Z" fill="white"/>
<path fill-rule="evenodd" clip-rule="evenodd" d="M21.8778 34.6183C21.8732 34.6684 21.8588 34.717 21.8354 34.7614C21.812 34.8059 21.7799 34.8452 21.7412 34.8772C21.7025 34.9092 21.6578 34.9332 21.6098 34.9478C21.5617 34.9625 21.5112 34.9674 21.4612 34.9624C21.4107 34.9591 21.3615 34.9455 21.3164 34.9225C21.2714 34.8994 21.2315 34.8674 21.1993 34.8284C21.1671 34.7894 21.1432 34.7442 21.129 34.6956C21.1149 34.647 21.1108 34.5961 21.1171 34.5459C21.1205 34.4951 21.1341 34.4454 21.157 34.4C21.18 34.3545 21.2118 34.3141 21.2507 34.2811C21.2895 34.2482 21.3346 34.2234 21.3832 34.2082C21.4318 34.193 21.483 34.1878 21.5337 34.1927C21.6355 34.2041 21.7287 34.2552 21.7931 34.3349C21.8575 34.4145 21.8879 34.5164 21.8778 34.6183Z" fill="white"/>
<path fill-rule="evenodd" clip-rule="evenodd" d="M26.5231 33.2144C26.5255 33.2508 26.5206 33.2873 26.5087 33.3218C26.4967 33.3563 26.4779 33.388 26.4533 33.415C26.4288 33.4421 26.3991 33.4639 26.366 33.4792C26.3329 33.4945 26.297 33.503 26.2605 33.5041C26.1884 33.4969 26.1222 33.4614 26.0764 33.4054C26.0305 33.3493 26.0088 33.2774 26.016 33.2053C26.0232 33.1333 26.0587 33.067 26.1148 33.0212C26.1708 32.9753 26.2428 32.9536 26.3148 32.9608C26.3506 32.9642 26.3853 32.9747 26.417 32.9916C26.4486 33.0085 26.4767 33.0315 26.4994 33.0592C26.5221 33.087 26.5391 33.119 26.5494 33.1534C26.5597 33.1878 26.5631 33.2239 26.5593 33.2596" fill="white"/>
<path fill-rule="evenodd" clip-rule="evenodd" d="M30.5798 32.916C30.5857 32.9413 30.5858 32.9675 30.5802 32.9928C30.5745 33.0181 30.5632 33.0418 30.5471 33.0621C30.531 33.0824 30.5105 33.0989 30.4871 33.1101C30.4638 33.1214 30.4382 33.1273 30.4123 33.1273C30.3864 33.1273 30.3608 33.1214 30.3374 33.1101C30.3141 33.0989 30.2936 33.0824 30.2775 33.0621C30.2614 33.0418 30.2501 33.0181 30.2444 32.9928C30.2387 32.9675 30.2389 32.9413 30.2448 32.916C30.247 32.8946 30.2535 32.8738 30.2638 32.8548C30.2742 32.8359 30.2882 32.8192 30.305 32.8057C30.3219 32.7923 30.3412 32.7823 30.362 32.7763C30.3827 32.7704 30.4044 32.7686 30.4259 32.7711C30.4477 32.771 30.4693 32.7755 30.4893 32.7843C30.5092 32.7932 30.5271 32.8061 30.5417 32.8224C30.5562 32.8387 30.5671 32.8579 30.5737 32.8787C30.5803 32.8995 30.5824 32.9215 30.5798 32.9432" fill="white"/>
<path fill-rule="evenodd" clip-rule="evenodd" d="M34.7447 33.3323C34.7447 33.3611 34.7332 33.3888 34.7128 33.4091C34.6925 33.4295 34.6648 33.441 34.636 33.441C34.6072 33.441 34.5795 33.4295 34.5592 33.4091C34.5388 33.3888 34.5273 33.3611 34.5273 33.3323C34.5273 33.3035 34.5388 33.2758 34.5592 33.2555C34.5795 33.2351 34.6072 33.2236 34.636 33.2236C34.6648 33.2236 34.6925 33.2351 34.7128 33.2555C34.7332 33.2758 34.7447 33.3035 34.7447 33.3323Z" fill="white"/>
<path fill-rule="evenodd" clip-rule="evenodd" d="M39.4262 34.745C39.424 34.7602 39.4163 34.7741 39.4047 34.7841C39.393 34.7941 39.3781 34.7995 39.3628 34.7994C39.358 34.7895 39.3555 34.7787 39.3555 34.7677C39.3555 34.7567 39.358 34.7459 39.3628 34.736C39.365 34.7208 39.3726 34.7069 39.3843 34.6969C39.3959 34.6869 39.4108 34.6815 39.4262 34.6816C39.431 34.6915 39.4335 34.7024 39.4335 34.7133C39.4335 34.7243 39.431 34.7352 39.4262 34.745Z" fill="white"/>
<path fill-rule="evenodd" clip-rule="evenodd" d="M55.7889 57.2382C56.7439 57.3291 57.6504 57.7014 58.3935 58.3081C59.1366 58.9147 59.6829 59.7283 59.9631 60.6457C60.2434 61.5632 60.2449 62.5432 59.9676 63.4615C59.6903 64.3798 59.1465 65.1951 58.4053 65.8041C57.6641 66.4131 56.7588 66.7883 55.8042 66.8822C54.8495 66.9761 53.8884 66.7845 53.0428 66.3316C52.1971 65.8787 51.5049 65.185 51.054 64.3383C50.6031 63.4916 50.4136 62.5301 50.5097 61.5756C50.6313 60.2969 51.2557 59.1188 52.2456 58.3003C53.2356 57.4818 54.5101 57.09 55.7889 57.211" fill="white"/>
<path fill-rule="evenodd" clip-rule="evenodd" d="M68.0506 61.5757C68.8594 61.6597 69.6253 61.9812 70.2518 62.4996C70.8782 63.018 71.3373 63.7103 71.5711 64.4891C71.805 65.2679 71.8031 66.0985 71.5658 66.8763C71.3285 67.654 70.8663 68.3442 70.2375 68.8598C69.6087 69.3754 68.8414 69.6934 68.0322 69.7738C67.223 69.8542 66.4081 69.6933 65.6902 69.3114C64.9723 68.9296 64.3834 68.3438 63.9977 67.6279C63.6121 66.912 63.4469 66.098 63.523 65.2884C63.5739 64.7463 63.7318 64.2197 63.9874 63.739C64.2431 63.2584 64.5915 62.8331 65.0125 62.4879C65.4335 62.1426 65.9188 61.8843 66.4402 61.7277C66.9617 61.5712 67.509 61.5195 68.0506 61.5757Z" fill="white"/>
<path fill-rule="evenodd" clip-rule="evenodd" d="M76.7251 69.1096C77.4273 69.1772 78.0936 69.4514 78.64 69.8976C79.1864 70.3438 79.5882 70.942 79.7947 71.6165C80.0012 72.291 80.0031 73.0116 79.8002 73.6872C79.5972 74.3628 79.1986 74.9631 78.6546 75.4122C78.1106 75.8613 77.4457 76.1391 76.7439 76.2104C76.0421 76.2817 75.3349 76.1434 74.7117 75.8129C74.0885 75.4824 73.5773 74.9746 73.2426 74.3536C72.9079 73.7327 72.7648 73.0264 72.8314 72.3242C72.9343 71.387 73.3987 70.5268 74.1258 69.9266C74.8529 69.3263 75.7854 69.0332 76.7251 69.1096Z" fill="white"/>
<path fill-rule="evenodd" clip-rule="evenodd" d="M81.5517 78.6721C82.1686 78.7303 82.7544 78.9702 83.2349 79.3614C83.7155 79.7525 84.0693 80.2774 84.2516 80.8696C84.4339 81.4619 84.4365 82.0948 84.259 82.6885C84.0816 83.2822 83.7321 83.81 83.2547 84.205C82.7773 84.6001 82.1935 84.8448 81.5771 84.908C80.9607 84.9713 80.3394 84.8504 79.7917 84.5606C79.244 84.2708 78.7946 83.825 78.5002 83.2798C78.2058 82.7345 78.0797 82.1142 78.1379 81.4973C78.1765 81.0876 78.2954 80.6896 78.4879 80.3259C78.6803 79.9622 78.9426 79.6399 79.2596 79.3776C79.5766 79.1152 79.9422 78.9179 80.3354 78.7968C80.7287 78.6758 81.142 78.6334 81.5517 78.6721Z" fill="white"/>
<path fill-rule="evenodd" clip-rule="evenodd" d="M81.7328 88.6417C82.2946 88.6943 82.8282 88.9124 83.266 89.2684C83.7038 89.6243 84.0262 90.1021 84.1924 90.6413C84.3587 91.1805 84.3613 91.7568 84.1999 92.2975C84.0385 92.8382 83.7204 93.3188 83.2858 93.6787C82.8512 94.0385 82.3196 94.2614 81.7583 94.3191C81.1971 94.3768 80.6313 94.2667 80.1325 94.0028C79.6338 93.7389 79.2246 93.333 78.9566 92.8365C78.6886 92.34 78.5738 91.7751 78.6269 91.2134C78.661 90.8402 78.7684 90.4774 78.9432 90.1459C79.1179 89.8144 79.3565 89.5207 79.6451 89.2817C79.9338 89.0427 80.2668 88.8631 80.6251 88.7533C80.9834 88.6435 81.3599 88.6055 81.7328 88.6417Z" fill="white"/>
<path fill-rule="evenodd" clip-rule="evenodd" d="M78.427 97.0632C78.9352 97.1122 79.4175 97.3108 79.8127 97.6339C80.208 97.9571 80.4986 98.3902 80.6477 98.8785C80.7967 99.3668 80.7976 99.8883 80.6502 100.377C80.5028 100.866 80.2137 101.3 79.8195 101.625C79.4253 101.949 78.9438 102.149 78.4357 102.2C77.9277 102.251 77.4161 102.15 76.9655 101.909C76.515 101.669 76.1458 101.301 75.9046 100.851C75.6635 100.401 75.5612 99.8895 75.6108 99.3813C75.6773 98.7006 76.0112 98.0742 76.5392 97.6395C77.0673 97.2048 77.7463 96.9976 78.427 97.0632Z" fill="white"/>
<path fill-rule="evenodd" clip-rule="evenodd" d="M72.9668 103.275C73.4217 103.318 73.8535 103.496 74.2075 103.785C74.5615 104.074 74.8219 104.461 74.9556 104.898C75.0893 105.335 75.0904 105.802 74.9586 106.239C74.8269 106.677 74.5684 107.065 74.2157 107.356C73.863 107.646 73.432 107.826 72.9774 107.871C72.5227 107.917 72.0648 107.826 71.6615 107.611C71.2583 107.396 70.9279 107.067 70.7121 106.664C70.4963 106.261 70.4049 105.803 70.4495 105.349C70.4778 105.047 70.5655 104.754 70.7075 104.486C70.8496 104.218 71.0431 103.981 71.277 103.788C71.511 103.596 71.7807 103.451 72.0707 103.363C72.3607 103.275 72.6652 103.245 72.9668 103.275Z" fill="white"/>
<path fill-rule="evenodd" clip-rule="evenodd" d="M66.4295 107.187C66.8174 107.222 67.1862 107.371 67.4895 107.615C67.7928 107.86 68.0171 108.188 68.1342 108.56C68.2512 108.931 68.2558 109.329 68.1473 109.703C68.0388 110.077 67.8221 110.41 67.5245 110.662C67.2269 110.913 66.8616 111.07 66.4747 111.114C66.0877 111.158 65.6964 111.087 65.35 110.909C65.0035 110.731 64.7174 110.455 64.5276 110.115C64.3378 109.775 64.2529 109.386 64.2834 108.998C64.3051 108.738 64.3779 108.485 64.4975 108.253C64.6172 108.021 64.7814 107.815 64.9807 107.647C65.1801 107.479 65.4107 107.352 65.6593 107.273C65.9079 107.194 66.1696 107.165 66.4295 107.187Z" fill="white"/>
<path fill-rule="evenodd" clip-rule="evenodd" d="M59.538 109.405C59.8615 109.439 60.1679 109.568 60.4185 109.775C60.6691 109.982 60.8527 110.259 60.9462 110.571C61.0398 110.882 61.039 111.215 60.9441 111.526C60.8492 111.837 60.6643 112.113 60.4128 112.319C60.1613 112.525 59.8543 112.652 59.5307 112.685C59.207 112.717 58.881 112.652 58.5939 112.5C58.3067 112.347 58.0711 112.113 57.9169 111.826C57.7626 111.54 57.6965 111.214 57.727 110.89C57.7704 110.453 57.9856 110.052 58.3252 109.773C58.6648 109.495 59.101 109.362 59.538 109.405Z" fill="white"/>
<path fill-rule="evenodd" clip-rule="evenodd" d="M53.0906 110.012C53.3726 110.039 53.6403 110.148 53.86 110.327C54.0797 110.505 54.2414 110.745 54.3246 111.016C54.4079 111.287 54.4089 111.576 54.3276 111.847C54.2463 112.119 54.0864 112.36 53.868 112.54C53.6496 112.72 53.3826 112.832 53.1009 112.86C52.8191 112.889 52.5352 112.833 52.2852 112.7C52.0352 112.567 51.8303 112.363 51.6964 112.113C51.5625 111.863 51.5057 111.58 51.5331 111.298C51.5698 110.921 51.7543 110.574 52.0462 110.333C52.3382 110.092 52.7137 109.977 53.0906 110.012Z" fill="white"/>
<path fill-rule="evenodd" clip-rule="evenodd" d="M47.087 109.451C47.3235 109.475 47.5475 109.569 47.7308 109.72C47.9141 109.871 48.0485 110.073 48.1172 110.301C48.1858 110.529 48.1855 110.771 48.1164 110.999C48.0473 111.226 47.9125 111.428 47.7288 111.579C47.5452 111.73 47.321 111.823 47.0845 111.847C46.848 111.871 46.6097 111.824 46.3997 111.713C46.1897 111.601 46.0174 111.43 45.9044 111.221C45.7915 111.012 45.7429 110.774 45.7649 110.537C45.7797 110.379 45.8256 110.225 45.9002 110.084C45.9748 109.944 46.0765 109.819 46.1994 109.718C46.3223 109.617 46.4641 109.542 46.6164 109.496C46.7688 109.45 46.9287 109.434 47.087 109.451Z" fill="white"/>
<path fill-rule="evenodd" clip-rule="evenodd" d="M41.7173 107.758C41.9109 107.776 42.0948 107.851 42.2458 107.974C42.3968 108.096 42.5083 108.261 42.5661 108.447C42.6239 108.632 42.6256 108.831 42.5709 109.018C42.5163 109.204 42.4076 109.371 42.2587 109.496C42.1098 109.621 41.9273 109.699 41.734 109.721C41.5407 109.743 41.3453 109.707 41.1723 109.618C40.9993 109.529 40.8565 109.391 40.7617 109.221C40.667 109.051 40.6245 108.857 40.6397 108.663C40.6628 108.4 40.7892 108.157 40.9912 107.987C41.1932 107.818 41.4544 107.735 41.7173 107.758Z" fill="white"/>
<path fill-rule="evenodd" clip-rule="evenodd" d="M37.4073 105.548C37.619 105.576 37.8115 105.686 37.944 105.853C38.0765 106.021 38.1388 106.233 38.1176 106.446C38.0965 106.659 37.9936 106.855 37.8307 106.993C37.6677 107.131 37.4575 107.201 37.2443 107.187C37.1339 107.18 37.0261 107.15 36.9274 107.101C36.8286 107.051 36.7408 106.982 36.6692 106.898C36.5977 106.813 36.5439 106.715 36.511 106.61C36.4781 106.504 36.4667 106.393 36.4777 106.283C36.4886 106.173 36.5216 106.066 36.5747 105.969C36.6277 105.872 36.6998 105.787 36.7865 105.718C36.8733 105.65 36.9729 105.599 37.0796 105.57C37.1862 105.541 37.2977 105.533 37.4073 105.548Z" fill="white"/>
<path fill-rule="evenodd" clip-rule="evenodd" d="M33.224 102.623C33.3098 102.631 33.3931 102.656 33.4692 102.696C33.5454 102.736 33.6127 102.791 33.6674 102.858C33.7222 102.925 33.7632 103.001 33.7881 103.084C33.813 103.166 33.8213 103.253 33.8126 103.338C33.7943 103.511 33.7094 103.67 33.5759 103.782C33.4424 103.894 33.2707 103.949 33.0972 103.936C32.9225 103.918 32.762 103.832 32.6503 103.696C32.5385 103.561 32.4844 103.387 32.4996 103.212C32.5179 103.038 32.6044 102.878 32.7402 102.768C32.876 102.657 33.0499 102.605 33.224 102.623Z" fill="white"/>
<path fill-rule="evenodd" clip-rule="evenodd" d="M30.4253 99.4445C30.5344 99.4539 30.6381 99.4956 30.7234 99.5641C30.8088 99.6326 30.8718 99.7249 30.9046 99.8294C30.9374 99.9338 30.9384 100.046 30.9075 100.151C30.8766 100.256 30.8153 100.349 30.7312 100.419C30.6471 100.489 30.5441 100.533 30.4353 100.544C30.3264 100.556 30.2166 100.534 30.1198 100.483C30.023 100.432 29.9436 100.354 29.8916 100.257C29.8396 100.161 29.8173 100.051 29.8277 99.9425C29.8415 99.7974 29.912 99.6637 30.0239 99.5704C30.1359 99.4771 30.2802 99.4319 30.4253 99.4445Z" fill="white"/>
<path fill-rule="evenodd" clip-rule="evenodd" d="M27.8812 95.5144C27.9311 95.5192 27.9796 95.5337 28.0239 95.5572C28.0683 95.5807 28.1075 95.6127 28.1395 95.6514C28.1714 95.6901 28.1954 95.7347 28.2102 95.7827C28.2249 95.8306 28.23 95.881 28.2253 95.931C28.2205 95.9809 28.2059 96.0294 28.1824 96.0737C28.1589 96.1181 28.1269 96.1573 28.0882 96.1893C28.0496 96.2212 28.005 96.2452 27.957 96.26C27.909 96.2747 27.8587 96.2798 27.8087 96.2751C27.7078 96.2654 27.6149 96.2162 27.5504 96.138C27.4859 96.0599 27.455 95.9594 27.4646 95.8585C27.4742 95.7576 27.5235 95.6647 27.6016 95.6002C27.6797 95.5357 27.7803 95.5048 27.8812 95.5144Z" fill="white"/>
<path fill-rule="evenodd" clip-rule="evenodd" d="M26.478 90.8694C26.5509 90.8763 26.6182 90.9114 26.6655 90.9672C26.7129 91.0231 26.7366 91.0952 26.7315 91.1682C26.7281 91.204 26.7177 91.2387 26.7008 91.2704C26.6839 91.302 26.6609 91.3301 26.6331 91.3528C26.6053 91.3755 26.5733 91.3925 26.5389 91.4028C26.5045 91.4131 26.4684 91.4165 26.4327 91.4127C26.3962 91.4105 26.3605 91.4008 26.3277 91.3845C26.295 91.3681 26.2659 91.3452 26.2423 91.3173C26.2186 91.2894 26.2008 91.257 26.1899 91.222C26.1791 91.1871 26.1754 91.1503 26.1791 91.1139C26.1882 91.0426 26.2243 90.9776 26.2799 90.9321C26.3354 90.8866 26.4063 90.8642 26.478 90.8694Z" fill="white"/>
<path fill-rule="evenodd" clip-rule="evenodd" d="M26.188 86.8128C26.2312 86.8128 26.2727 86.83 26.3032 86.8605C26.3338 86.8911 26.351 86.9326 26.351 86.9758C26.351 87.019 26.3338 87.0605 26.3032 87.091C26.2727 87.1216 26.2312 87.1388 26.188 87.1388C26.1669 87.1377 26.1463 87.1323 26.1274 87.1229C26.1085 87.1135 26.0918 87.1003 26.0782 87.0842C26.0646 87.0681 26.0545 87.0493 26.0484 87.0291C26.0424 87.0089 26.0406 86.9877 26.0431 86.9667C26.0477 86.9227 26.0691 86.8821 26.1028 86.8535C26.1365 86.8248 26.18 86.8102 26.2242 86.8128" fill="white"/>
<path fill-rule="evenodd" clip-rule="evenodd" d="M26.6047 82.6471C26.6327 82.6514 26.6582 82.6657 26.6765 82.6874C26.6948 82.709 26.7047 82.7365 26.7043 82.7648C26.7033 82.78 26.6991 82.7947 26.692 82.8081C26.6848 82.8216 26.675 82.8334 26.6631 82.8427C26.6511 82.8521 26.6373 82.8589 26.6226 82.8626C26.6079 82.8664 26.5925 82.867 26.5776 82.8644C26.5633 82.8633 26.5493 82.8593 26.5366 82.8528C26.5238 82.8462 26.5125 82.8372 26.5033 82.8263C26.494 82.8153 26.487 82.8027 26.4826 82.789C26.4783 82.7753 26.4767 82.761 26.4779 82.7467C26.479 82.7315 26.4832 82.7168 26.4903 82.7033C26.4974 82.6899 26.5073 82.6781 26.5192 82.6687C26.5312 82.6593 26.5449 82.6526 26.5597 82.6488C26.5744 82.6451 26.5897 82.6445 26.6047 82.6471Z" fill="white"/>
<path fill-rule="evenodd" clip-rule="evenodd" d="M28.0173 77.9656C28.0173 77.9656 28.0173 77.9656 28.0173 78.029C28.0173 78.0924 28.0173 78.029 27.9539 78.029C27.8905 78.029 27.9086 78.029 27.9086 77.9656C27.9086 77.9023 27.9086 77.9204 27.972 77.9204" fill="white"/>
<path fill-rule="evenodd" clip-rule="evenodd" d="M54.8748 66.8817C53.9222 66.7922 53.0174 66.4226 52.2745 65.8196C51.5316 65.2165 50.984 64.4069 50.7007 63.493C50.4173 62.579 50.411 61.6016 50.6824 60.6841C50.9539 59.7666 51.4909 58.9499 52.2259 58.3373C52.9609 57.7246 53.8608 57.3433 54.8122 57.2414C55.7637 57.1395 56.7239 57.3217 57.5719 57.7649C58.42 58.2081 59.1177 58.8925 59.5773 59.7318C60.0368 60.5711 60.2375 61.5277 60.154 62.4809C60.0325 63.7596 59.4081 64.9378 58.4181 65.7562C57.4281 66.5747 56.1536 66.9665 54.8748 66.8455" fill="white"/>
<path fill-rule="evenodd" clip-rule="evenodd" d="M42.6049 62.5535C41.7924 62.4778 41.0208 62.1625 40.3877 61.6477C39.7547 61.1328 39.2887 60.4416 39.049 59.6617C38.8093 58.8817 38.8065 58.0481 39.0411 57.2666C39.2757 56.4851 39.7371 55.7908 40.3668 55.2718C40.9964 54.7529 41.766 54.4325 42.5779 54.3514C43.3899 54.2704 44.2076 54.4322 44.9274 54.8164C45.6473 55.2007 46.2368 55.79 46.6213 56.5097C47.0058 57.2294 47.168 58.047 47.0872 58.859C47.0375 59.4015 46.8804 59.9287 46.6251 60.41C46.3698 60.8913 46.0214 61.317 45.6001 61.6625C45.1788 62.0079 44.6931 62.2662 44.1711 62.4223C43.6491 62.5783 43.1014 62.6291 42.5596 62.5716" fill="white"/>
<path fill-rule="evenodd" clip-rule="evenodd" d="M33.9387 55.0107C33.2366 54.9431 32.5702 54.6689 32.0238 54.2227C31.4775 53.7764 31.0757 53.1783 30.8692 52.5038C30.6627 51.8292 30.6608 51.1087 30.8637 50.4331C31.0666 49.7575 31.4653 49.1572 32.0092 48.7081C32.5532 48.259 33.2181 47.9812 33.9199 47.9099C34.6217 47.8386 35.3289 47.9769 35.9521 48.3074C36.5753 48.6379 37.0866 49.1457 37.4213 49.7666C37.756 50.3876 37.8991 51.0938 37.8325 51.7961C37.7894 52.2634 37.6543 52.7176 37.4349 53.1325C37.2156 53.5474 36.9164 53.9148 36.5545 54.2136C36.1926 54.5124 35.7751 54.7366 35.3262 54.8734C34.8773 55.0102 34.4058 55.0569 33.9387 55.0107Z" fill="white"/>
<path fill-rule="evenodd" clip-rule="evenodd" d="M29.1121 45.4481C28.4949 45.3896 27.9089 45.1493 27.4283 44.7577C26.9476 44.366 26.594 43.8406 26.4122 43.2478C26.2304 42.6551 26.2285 42.0217 26.4068 41.4279C26.585 40.8341 26.9355 40.3066 27.4138 39.912C27.892 39.5175 28.4766 39.2737 29.0935 39.2116C29.7103 39.1494 30.3318 39.2717 30.8791 39.5629C31.4265 39.8541 31.8751 40.3012 32.1683 40.8475C32.4614 41.3938 32.5859 42.0148 32.526 42.6319C32.4874 43.0412 32.3684 43.4389 32.1758 43.8021C31.9832 44.1654 31.7208 44.4871 31.4037 44.7487C31.0865 45.0103 30.7208 45.2068 30.3276 45.3268C29.9344 45.4468 29.5213 45.488 29.1121 45.4481Z" fill="white"/>
<path fill-rule="evenodd" clip-rule="evenodd" d="M28.9228 35.4875C28.3619 35.4333 27.8297 35.2142 27.3932 34.8578C26.9567 34.5015 26.6356 34.0238 26.4703 33.4852C26.3049 32.9465 26.3029 32.3709 26.4643 31.8311C26.6257 31.2912 26.9434 30.8113 27.3774 30.4518C27.8113 30.0923 28.3419 29.8694 28.9024 29.8112C29.4628 29.7529 30.028 29.862 30.5265 30.1246C31.025 30.3872 31.4346 30.7916 31.7036 31.2867C31.9726 31.7819 32.0888 32.3456 32.0378 32.9067C31.9644 33.661 31.5957 34.3556 31.0121 34.839C30.4286 35.3225 29.6775 35.5556 28.9228 35.4875Z" fill="white"/>
<path fill-rule="evenodd" clip-rule="evenodd" d="M32.2275 27.0662C31.7196 27.0174 31.2376 26.8191 30.8424 26.4965C30.4471 26.1739 30.1564 25.7414 30.0069 25.2535C29.8573 24.7657 29.8558 24.2446 30.0023 23.7559C30.1489 23.2672 30.437 22.8329 30.8303 22.5079C31.2236 22.1829 31.7044 21.9817 32.212 21.9299C32.7196 21.878 33.2311 21.9778 33.682 22.2165C34.1329 22.4553 34.5029 22.8223 34.7453 23.2713C34.9876 23.7203 35.0915 24.231 35.0437 24.739C35.0119 25.0768 34.9138 25.4051 34.755 25.705C34.5962 26.0048 34.3798 26.2705 34.1183 26.4866C33.8567 26.7028 33.555 26.8652 33.2306 26.9647C32.9062 27.0641 32.5653 27.0986 32.2275 27.0662Z" fill="white"/>
<path fill-rule="evenodd" clip-rule="evenodd" d="M37.6967 20.8269C37.3607 20.8533 37.0229 20.8058 36.7072 20.6877C36.3915 20.5696 36.1055 20.3838 35.8692 20.1434C35.6329 19.903 35.4522 19.6138 35.3396 19.296C35.227 18.9783 35.1854 18.6398 35.2176 18.3042C35.2498 17.9687 35.3551 17.6443 35.5261 17.3538C35.697 17.0633 35.9295 16.8137 36.2072 16.6226C36.4849 16.4316 36.801 16.3036 37.1335 16.2477C37.4659 16.1919 37.8065 16.2095 38.1314 16.2993C38.6548 16.444 39.1105 16.7686 39.4184 17.216C39.7262 17.6634 39.8665 18.205 39.8146 18.7456C39.7627 19.2862 39.522 19.7912 39.1346 20.1718C38.7473 20.5525 38.2381 20.7844 37.6967 20.8269Z" fill="white"/>
<path fill-rule="evenodd" clip-rule="evenodd" d="M44.2254 16.9333C43.8381 16.8965 43.4704 16.746 43.1684 16.5008C42.8663 16.2556 42.6435 15.9267 42.5278 15.5552C42.4121 15.1838 42.4087 14.7865 42.5181 14.4132C42.6275 14.0399 42.8447 13.7072 43.1425 13.4569C43.4404 13.2066 43.8055 13.0499 44.1921 13.0065C44.5787 12.963 44.9695 13.0348 45.3154 13.2127C45.6613 13.3906 45.947 13.6668 46.1365 14.0066C46.326 14.3463 46.4109 14.7345 46.3805 15.1223C46.3613 15.384 46.2898 15.6391 46.1704 15.8727C46.0509 16.1063 45.8859 16.3136 45.685 16.4824C45.4841 16.6512 45.2515 16.7781 45.0008 16.8555C44.7501 16.933 44.4865 16.9594 44.2254 16.9333Z" fill="white"/>
<path fill-rule="evenodd" clip-rule="evenodd" d="M51.1263 14.7145C50.8027 14.6809 50.4964 14.5524 50.2458 14.345C49.9952 14.1376 49.8116 13.8607 49.718 13.5492C49.6245 13.2377 49.6253 12.9054 49.7202 12.5943C49.8151 12.2832 50 12.0072 50.2515 11.8009C50.503 11.5947 50.8099 11.4675 51.1336 11.4353C51.4573 11.4032 51.7832 11.4675 52.0704 11.6203C52.3576 11.773 52.5931 12.0073 52.7474 12.2937C52.9017 12.58 52.9677 12.9056 52.9373 13.2295C52.9169 13.4463 52.8538 13.6569 52.7515 13.8492C52.6493 14.0415 52.5099 14.2116 52.3415 14.3497C52.1731 14.4878 51.979 14.5911 51.7704 14.6537C51.5618 14.7164 51.3429 14.737 51.1263 14.7145Z" fill="white"/>
<path fill-rule="evenodd" clip-rule="evenodd" d="M57.5638 14.1081C57.2819 14.0817 57.0141 13.9722 56.7944 13.7935C56.5747 13.6148 56.413 13.3749 56.3298 13.1042C56.2466 12.8335 56.2455 12.5442 56.3268 12.273C56.4081 12.0017 56.5681 11.7606 56.7865 11.5803C57.0048 11.4001 57.2718 11.2886 57.5536 11.2602C57.8353 11.2317 58.1192 11.2875 58.3692 11.4205C58.6192 11.5535 58.8242 11.7577 58.9581 12.0072C59.0919 12.2568 59.1488 12.5404 59.1213 12.8223C59.0846 13.1991 58.9001 13.546 58.6082 13.787C58.3163 14.028 57.9407 14.1435 57.5638 14.1081Z" fill="white"/>
<path fill-rule="evenodd" clip-rule="evenodd" d="M63.604 14.6784C63.3032 14.626 63.0332 14.4622 62.8478 14.2196C62.6625 13.9769 62.5754 13.6734 62.604 13.3694C62.6325 13.0654 62.7746 12.7834 63.0019 12.5795C63.2293 12.3757 63.5251 12.2651 63.8303 12.2697C63.9879 12.2844 64.1411 12.3301 64.281 12.4041C64.421 12.4781 64.5449 12.579 64.6459 12.7009C64.7468 12.8229 64.8227 12.9635 64.8692 13.1148C64.9157 13.2661 64.932 13.4251 64.917 13.5827C64.8871 13.9017 64.7323 14.1959 64.4863 14.4011C64.2403 14.6064 63.9231 14.7061 63.604 14.6784Z" fill="white"/>
<path fill-rule="evenodd" clip-rule="evenodd" d="M68.9373 16.3808C68.8067 16.3706 68.6794 16.3344 68.5629 16.2745C68.4464 16.2146 68.343 16.1321 68.2587 16.0318C68.1744 15.9315 68.111 15.8154 68.072 15.6903C68.033 15.5652 68.0194 15.4337 68.0318 15.3032C68.0548 15.0403 68.1812 14.7973 68.3832 14.6275C68.5853 14.4578 68.8464 14.3751 69.1094 14.3977C69.24 14.4079 69.3672 14.4441 69.4838 14.504C69.6003 14.5639 69.7037 14.6464 69.788 14.7467C69.8722 14.847 69.9357 14.9631 69.9747 15.0882C70.0136 15.2133 70.0273 15.3449 70.0149 15.4753C69.9919 15.7382 69.8655 15.9812 69.6634 16.151C69.4614 16.3207 69.2002 16.4034 68.9373 16.3808Z" fill="white"/>
<path fill-rule="evenodd" clip-rule="evenodd" d="M73.2565 18.5724C73.0947 18.5556 72.9416 18.4913 72.8163 18.3876C72.691 18.2839 72.5992 18.1455 72.5524 17.9897C72.5056 17.8339 72.506 17.6678 72.5534 17.5123C72.6009 17.3567 72.6933 17.2187 72.8191 17.1155C72.9449 17.0124 73.0983 16.9488 73.2602 16.9327C73.422 16.9167 73.585 16.9488 73.7286 17.0252C73.8722 17.1016 73.9899 17.2187 74.0671 17.3619C74.1442 17.5051 74.1772 17.6679 74.162 17.8298C74.153 17.9387 74.1222 18.0447 74.0715 18.1414C74.0207 18.2381 73.951 18.3237 73.8666 18.3929C73.7821 18.4622 73.6846 18.5138 73.5798 18.5446C73.475 18.5754 73.365 18.5849 73.2565 18.5724Z" fill="white"/>
<path fill-rule="evenodd" clip-rule="evenodd" d="M77.4399 21.4972C77.3092 21.4857 77.1848 21.4355 77.0827 21.3531C76.9806 21.2706 76.9053 21.1597 76.8665 21.0343C76.8277 20.9089 76.8271 20.7748 76.8647 20.6491C76.9024 20.5234 76.9766 20.4117 77.078 20.3283C77.1793 20.2449 77.3032 20.1936 77.4338 20.1809C77.5644 20.1681 77.6959 20.1946 77.8114 20.2568C77.927 20.319 78.0214 20.4143 78.0826 20.5304C78.1439 20.6465 78.1691 20.7781 78.1553 20.9087C78.1473 20.9944 78.1225 21.0778 78.0822 21.1539C78.0418 21.23 77.9868 21.2974 77.9203 21.3521C77.8538 21.4068 77.7771 21.4478 77.6946 21.4727C77.6122 21.4977 77.5256 21.506 77.4399 21.4972Z" fill="white"/>
<path fill-rule="evenodd" clip-rule="evenodd" d="M80.2381 24.6756C80.088 24.6624 79.9493 24.5901 79.8525 24.4746C79.7557 24.3591 79.7087 24.2099 79.7219 24.0598C79.7351 23.9097 79.8074 23.771 79.9229 23.6742C80.0384 23.5774 80.1876 23.5305 80.3377 23.5437C80.4827 23.5575 80.6165 23.628 80.7097 23.74C80.803 23.8519 80.8483 23.9962 80.8357 24.1413C80.8219 24.2864 80.7514 24.4201 80.6394 24.5134C80.5275 24.6067 80.3832 24.652 80.2381 24.6394" fill="white"/>
<path fill-rule="evenodd" clip-rule="evenodd" d="M82.774 28.6054C82.6999 28.5962 82.6302 28.5655 82.5735 28.5169C82.5168 28.4684 82.4756 28.4043 82.4551 28.3325C82.4346 28.2607 82.4356 28.1845 82.4581 28.1133C82.4806 28.0421 82.5236 27.9792 82.5816 27.9322C82.6397 27.8853 82.7103 27.8565 82.7846 27.8494C82.8589 27.8423 82.9336 27.8572 82.9995 27.8923C83.0654 27.9274 83.1195 27.9811 83.1551 28.0467C83.1907 28.1123 83.2061 28.187 83.1996 28.2613C83.1951 28.3122 83.1804 28.3617 83.1564 28.4067C83.1324 28.4518 83.0996 28.4916 83.0599 28.5237C83.0201 28.5558 82.9744 28.5796 82.9252 28.5937C82.8761 28.6077 82.8247 28.6117 82.774 28.6054Z" fill="white"/>
<path fill-rule="evenodd" clip-rule="evenodd" d="M84.2136 33.2507C84.1416 33.2435 84.0753 33.208 84.0295 33.152C83.9836 33.0959 83.9619 33.024 83.9691 32.9519C83.9763 32.8799 84.0119 32.8136 84.0679 32.7678C84.1239 32.7219 84.1959 32.7002 84.2679 32.7074C84.3036 32.711 84.3382 32.7215 84.3698 32.7385C84.4014 32.7554 84.4294 32.7784 84.4521 32.8062C84.4748 32.8339 84.4918 32.8659 84.5022 32.9002C84.5125 32.9345 84.516 32.9706 84.5124 33.0062C84.5089 33.0419 84.4983 33.0765 84.4814 33.1081C84.4644 33.1397 84.4414 33.1677 84.4137 33.1904C84.3859 33.2131 84.354 33.2301 84.3196 33.2404C84.2853 33.2508 84.2493 33.2543 84.2136 33.2507Z" fill="white"/>
<path fill-rule="evenodd" clip-rule="evenodd" d="M84.4765 37.3075C84.4325 37.3029 84.3919 37.2815 84.3632 37.2478C84.3345 37.2141 84.32 37.1706 84.3226 37.1264C84.3226 37.0831 84.3397 37.0417 84.3703 37.0111C84.4009 36.9806 84.4423 36.9634 84.4856 36.9634C84.5288 36.9634 84.5702 36.9806 84.6008 37.0111C84.6314 37.0417 84.6485 37.0831 84.6485 37.1264C84.6475 37.1474 84.642 37.168 84.6327 37.1869C84.6233 37.2058 84.6101 37.2226 84.594 37.2362C84.5778 37.2497 84.5591 37.2599 84.5389 37.2659C84.5187 37.2719 84.4974 37.2738 84.4765 37.2713" fill="white"/>
<path fill-rule="evenodd" clip-rule="evenodd" d="M84.0603 41.4731C84.0455 41.4733 84.0309 41.4703 84.0174 41.4642C84.004 41.4581 83.9921 41.4491 83.9826 41.4379C83.973 41.4266 83.9661 41.4133 83.9623 41.3991C83.9585 41.3848 83.958 41.3699 83.9606 41.3554C83.9618 41.3411 83.9657 41.3272 83.9723 41.3144C83.9788 41.3017 83.9878 41.2903 83.9988 41.2811C84.0097 41.2718 84.0224 41.2648 84.036 41.2605C84.0497 41.2561 84.0641 41.2545 84.0784 41.2558C84.0927 41.2569 84.1066 41.2609 84.1193 41.2674C84.1321 41.274 84.1434 41.283 84.1527 41.2939C84.1619 41.3048 84.1689 41.3175 84.1733 41.3312C84.1776 41.3448 84.1792 41.3592 84.178 41.3735C84.1782 41.3882 84.1752 41.4029 84.1691 41.4163C84.163 41.4298 84.154 41.4417 84.1427 41.4512C84.1315 41.4607 84.1182 41.4676 84.104 41.4714C84.0897 41.4752 84.0748 41.4758 84.0603 41.4731Z" fill="white"/>
<path fill-rule="evenodd" clip-rule="evenodd" d="M82.6471 46.1819C82.6327 46.1819 82.6189 46.1762 82.6087 46.166C82.5985 46.1558 82.5928 46.142 82.5928 46.1276C82.595 46.1124 82.6026 46.0985 82.6143 46.0885C82.6259 46.0785 82.6408 46.0731 82.6562 46.0732C82.6701 46.0779 82.6825 46.0863 82.6921 46.0975C82.7016 46.1086 82.708 46.1221 82.7105 46.1366C82.7105 46.1366 82.7105 46.191 82.6471 46.1366" fill="white"/>
<path d="M153.034 78.0742C149.321 78.0742 146.514 77.0117 144.612 74.8867C142.923 72.8613 142.054 70.2768 142.176 67.6425V66.8276C142.175 66.5576 142.196 66.2881 142.24 66.0217C142.3 65.5047 142.548 65.0279 142.937 64.6815C143.122 64.5127 143.343 64.3889 143.583 64.3198C143.823 64.2506 144.076 64.2381 144.322 64.283C144.565 64.3151 144.798 64.3959 145.008 64.5204C145.218 64.6448 145.401 64.8105 145.545 65.0075C145.841 65.3779 146.004 65.8372 146.007 66.3114C145.783 69.0582 146.266 71.0896 147.456 72.4056C148.578 73.6371 150.435 74.2166 153.034 74.2166C153.882 74.2359 154.726 74.0977 155.524 73.8092C156.169 73.5685 156.76 73.2022 157.262 72.7316C157.71 72.3172 158.068 71.8147 158.313 71.2556C158.533 70.7333 158.688 70.1859 158.775 69.6256C158.853 69.0365 158.822 68.438 158.684 67.8599C158.542 67.2394 158.287 66.6502 157.932 66.1213C157.535 65.5249 157.036 65.0037 156.456 64.5819C155.786 64.0946 155.039 63.7213 154.247 63.4771L149.14 62.2003C148.223 61.9302 147.352 61.5209 146.559 60.9869C145.797 60.4719 145.154 59.7986 144.676 59.0129V59.0401C144.203 58.3298 143.877 57.5325 143.716 56.6948C143.544 55.8451 143.517 54.9728 143.634 54.114C143.885 52.0877 144.847 50.2164 146.351 48.8348C148.076 47.2567 150.353 46.4207 152.689 46.5076C153.86 46.5112 155.02 46.7291 156.112 47.1505C157.172 47.5391 158.155 48.109 159.019 48.8348C159.904 49.6373 160.614 50.6147 161.102 51.7053C161.605 52.7859 161.864 53.9636 161.862 55.1554C161.87 55.4037 161.824 55.6507 161.729 55.8802C161.634 56.1096 161.491 56.3163 161.31 56.4865C161.139 56.6565 160.935 56.7906 160.711 56.8808C160.487 56.971 160.247 57.0155 160.006 57.0117C159.755 57.0189 159.505 56.9762 159.27 56.886C159.035 56.7959 158.821 56.6601 158.639 56.4865C158.456 56.3174 158.313 56.1109 158.217 55.8812C158.122 55.6515 158.077 55.4039 158.086 55.1554C158.102 54.4982 157.972 53.8457 157.705 53.2447C157.439 52.6436 157.044 52.1087 156.547 51.6782C155.489 50.7338 154.107 50.2343 152.689 50.2837C151.948 50.2722 151.212 50.3981 150.516 50.6549C149.916 50.8674 149.363 51.1933 148.886 51.6148C148.461 52.0181 148.106 52.4894 147.836 53.0093C147.578 53.4852 147.421 54.0093 147.374 54.5487C147.265 55.3743 147.407 56.2136 147.782 56.9574C148.013 57.3995 148.342 57.7833 148.744 58.0798C149.145 58.3763 149.609 58.5777 150.1 58.6688L155.207 59.9456C156.432 60.2322 157.593 60.7451 158.63 61.4578C159.622 62.1339 160.471 62.9985 161.129 64.0023C161.717 64.9179 162.14 65.9292 162.379 66.9906C162.625 68.0655 162.674 69.1761 162.523 70.2686C162.364 71.3122 162.04 72.3239 161.564 73.2658C161.088 74.1931 160.45 75.0274 159.68 75.7289C157.819 77.2844 155.459 78.117 153.034 78.0742Z" fill="white"/>
<path d="M175.11 78.0741C174.862 78.0831 174.614 78.0385 174.385 77.9431C174.155 77.8478 173.948 77.7041 173.779 77.5217C173.609 77.3503 173.475 77.1467 173.385 76.9228C173.295 76.6988 173.25 76.4591 173.254 76.2177V34.4097C173.25 34.1683 173.295 33.9286 173.385 33.7047C173.475 33.4808 173.609 33.2771 173.779 33.1058C173.948 32.9234 174.155 32.7796 174.385 32.6843C174.614 32.589 174.862 32.5443 175.11 32.5534C175.364 32.5444 175.617 32.5889 175.853 32.6841C176.088 32.7793 176.301 32.9229 176.478 33.1058C176.653 33.2749 176.792 33.4775 176.887 33.7015C176.982 33.9255 177.03 34.1664 177.03 34.4097V76.2449C177.03 76.4882 176.982 76.7291 176.887 76.9531C176.792 77.1772 176.653 77.3798 176.478 77.5489C176.301 77.7317 176.088 77.8754 175.853 77.9705C175.617 78.0657 175.364 78.1102 175.11 78.1012M188.693 78.1012C184.666 78.1133 180.783 76.599 177.827 73.8634C176.387 72.5225 175.241 70.8974 174.462 69.0909C173.683 67.2844 173.287 65.3358 173.299 63.3684C173.292 61.4397 173.687 59.5307 174.458 57.7632C176.116 54.1492 179.089 51.3029 182.771 49.8036C184.662 49.083 186.67 48.7206 188.693 48.7351C189.184 48.7185 189.661 48.8939 190.024 49.2241C190.368 49.5929 190.559 50.0782 190.559 50.5824C190.559 51.0865 190.368 51.5719 190.024 51.9407C189.85 52.114 189.642 52.25 189.413 52.3403C189.184 52.4306 188.939 52.4733 188.693 52.4659C187.139 52.4673 185.601 52.775 184.166 53.3714C182.804 53.9207 181.555 54.7157 180.48 55.7167C179.434 56.7001 178.586 57.8742 177.981 59.1758C177.368 60.5037 177.059 61.9513 177.075 63.4136C177.063 64.8843 177.372 66.3399 177.981 67.6787C178.581 68.9885 179.43 70.1694 180.48 71.1559C182.712 73.2466 185.662 74.4005 188.72 74.3795C188.969 74.3722 189.216 74.4177 189.445 74.5129C189.675 74.6081 189.881 74.7509 190.052 74.9319C190.224 75.1127 190.359 75.3257 190.449 75.5588C190.539 75.7918 190.583 76.0404 190.577 76.2902C190.581 76.5316 190.536 76.7713 190.446 76.9952C190.356 77.2191 190.222 77.4228 190.052 77.5941C189.872 77.7656 189.658 77.897 189.424 77.9797C189.19 78.0625 188.941 78.0946 188.693 78.0741V78.1012Z" fill="white"/>
<path d="M206.623 45.3485C206.139 45.3441 205.676 45.1533 205.331 44.8158C204.985 44.4784 204.783 44.0204 204.766 43.5374V41.5815C204.76 41.336 204.804 41.0919 204.895 40.8638C204.986 40.6358 205.122 40.4287 205.296 40.2551C205.47 40.0814 205.677 39.9449 205.905 39.8538C206.133 39.7627 206.377 39.719 206.623 39.7252C206.874 39.719 207.124 39.764 207.357 39.8574C207.591 39.9508 207.803 40.0907 207.981 40.2685C208.157 40.4387 208.297 40.6427 208.392 40.8684C208.486 41.0941 208.535 41.3367 208.533 41.5815V43.465C208.537 43.7088 208.489 43.9506 208.394 44.1751C208.299 44.3996 208.158 44.6018 207.981 44.769C207.805 44.9506 207.594 45.0936 207.36 45.1888C207.126 45.2839 206.875 45.329 206.623 45.3213M206.623 78.047C206.139 78.0426 205.676 77.8517 205.331 77.5143C204.985 77.1768 204.783 76.7189 204.766 76.2359V49.6407C204.783 49.1577 204.985 48.6997 205.331 48.3623C205.676 48.0249 206.139 47.834 206.623 47.8296C206.874 47.8252 207.125 47.8718 207.358 47.9668C207.592 48.0617 207.803 48.2029 207.981 48.382C208.156 48.5511 208.295 48.7537 208.39 48.9777C208.485 49.2018 208.533 49.4426 208.533 49.686V76.2178C208.537 76.4616 208.489 76.7034 208.394 76.9279C208.299 77.1524 208.158 77.3546 207.981 77.5218C207.805 77.7034 207.594 77.8464 207.36 77.9415C207.126 78.0367 206.875 78.0818 206.623 78.0741V78.047Z" fill="white"/>
<path d="M232.321 78.0742C230.747 78.0898 229.188 77.7815 227.739 77.1687C226.338 76.5654 225.061 75.7089 223.972 74.6423C222.884 73.575 222.016 72.3043 221.418 70.9025C220.801 69.4517 220.492 67.8881 220.513 66.3115V34.4099C220.509 34.1661 220.557 33.9243 220.652 33.6998C220.747 33.4753 220.888 33.273 221.065 33.1059C221.234 32.931 221.437 32.7919 221.661 32.697C221.885 32.6021 222.126 32.5533 222.369 32.5536C222.616 32.5387 222.863 32.5746 223.095 32.6589C223.328 32.7433 223.541 32.8743 223.72 33.044C223.9 33.2137 224.043 33.4184 224.141 33.6455C224.239 33.8726 224.289 34.1173 224.289 34.3646V66.2934C224.277 67.3707 224.493 68.4383 224.923 69.4265C225.329 70.3689 225.91 71.226 226.634 71.9529C227.369 72.6802 228.236 73.261 229.188 73.6643C230.185 74.094 231.261 74.3129 232.348 74.3073C232.593 74.3058 232.835 74.354 233.061 74.4489C233.287 74.5439 233.491 74.6836 233.661 74.8596C233.841 75.0358 233.982 75.2476 234.076 75.4815C234.169 75.7153 234.213 75.9662 234.204 76.2179C234.188 76.7009 233.986 77.1588 233.64 77.4963C233.294 77.8337 232.831 78.0246 232.348 78.029" fill="white"/>
<path d="M253.546 78.0744C251.973 78.0899 250.413 77.7817 248.964 77.1688C247.562 76.5634 246.283 75.7073 245.188 74.6424C244.106 73.572 243.242 72.302 242.644 70.9026C242.026 69.4518 241.718 67.8883 241.738 66.3116V34.41C241.757 33.9278 241.96 33.4711 242.305 33.1341C242.651 32.7971 243.112 32.6056 243.595 32.599C243.841 32.5841 244.089 32.62 244.321 32.7043C244.553 32.7887 244.766 32.9197 244.946 33.0894C245.126 33.2591 245.269 33.4638 245.367 33.6909C245.465 33.918 245.515 34.1628 245.514 34.41V66.2935C245.503 67.3708 245.719 68.4384 246.148 69.4266C246.554 70.369 247.135 71.2262 247.86 71.953C248.595 72.6803 249.461 73.2611 250.413 73.6645C251.411 74.0942 252.487 74.313 253.573 74.3074C253.817 74.3039 254.059 74.3513 254.284 74.4464C254.508 74.5415 254.71 74.6822 254.877 74.8598C255.059 75.0351 255.202 75.2466 255.297 75.4805C255.392 75.7144 255.437 75.9656 255.43 76.218C255.411 76.7003 255.208 77.157 254.863 77.4939C254.518 77.8309 254.056 78.0225 253.573 78.0291" fill="white"/>
<path d="M306.655 78.0743C302.943 78.0743 300.138 77.0118 298.243 74.8868C296.55 72.8636 295.681 70.2776 295.807 67.6426V66.8277C295.807 66.5581 295.826 66.2889 295.861 66.0218C295.926 65.506 296.173 65.0306 296.559 64.6816C296.742 64.5195 296.959 64.4004 297.194 64.333C297.429 64.2656 297.676 64.2517 297.917 64.2922C298.157 64.3255 298.389 64.4067 298.597 64.5312C298.806 64.6556 298.987 64.8207 299.13 65.0166C299.429 65.3862 299.595 65.8454 299.601 66.3206C299.366 69.0673 299.849 71.0987 301.05 72.4148C302.173 73.6463 304.029 74.2258 306.619 74.2258C307.467 74.2465 308.312 74.1083 309.109 73.8183C309.756 73.5755 310.349 73.2095 310.857 72.7407C311.3 72.3237 311.654 71.8217 311.898 71.2647C312.135 70.7763 312.305 70.2587 312.405 69.7253C312.489 69.1213 312.458 68.5069 312.315 67.9143C312.169 67.2934 311.911 66.7042 311.554 66.1757C311.157 65.5793 310.657 65.0581 310.078 64.6363C309.408 64.1618 308.665 63.8008 307.878 63.5678L302.77 62.291C301.85 62.0228 300.976 61.6134 300.181 61.0776C299.418 60.5626 298.776 59.8893 298.297 59.1035V59.0402C297.828 58.328 297.502 57.5315 297.337 56.6949C297.166 55.8452 297.138 54.9729 297.256 54.1141C297.506 52.0878 298.469 50.2165 299.972 48.8349C301.699 47.2593 303.975 46.4238 306.311 46.5077C307.485 46.5106 308.648 46.7285 309.743 47.1506C310.799 47.5413 311.779 48.1111 312.641 48.8349C313.526 49.6395 314.238 50.6163 314.732 51.7054C315.227 52.7883 315.483 53.9649 315.484 55.1555C315.493 55.404 315.448 55.6516 315.353 55.8813C315.258 56.111 315.114 56.3175 314.932 56.4866C314.76 56.6566 314.557 56.7907 314.333 56.8809C314.109 56.9711 313.869 57.0156 313.628 57.0118C313.376 57.019 313.126 56.9763 312.891 56.8861C312.657 56.796 312.442 56.6602 312.26 56.4866C312.079 56.3164 311.937 56.1097 311.841 55.8803C311.746 55.6508 311.701 55.4038 311.708 55.1555C311.72 54.4996 311.589 53.849 311.325 53.2486C311.061 52.6482 310.669 52.1124 310.178 51.6783C309.115 50.735 307.731 50.2358 306.311 50.2838C305.57 50.2739 304.834 50.3998 304.138 50.655C303.549 50.8729 303.005 51.1984 302.535 51.6149C302.126 52.0301 301.79 52.5106 301.539 53.0365C301.282 53.5137 301.122 54.0368 301.068 54.5759C300.963 55.4014 301.105 56.2395 301.476 56.9846C301.708 57.4279 302.038 57.8123 302.442 58.1089C302.845 58.4054 303.31 58.6062 303.803 58.6961L308.901 59.9729C310.126 60.2595 311.287 60.7723 312.324 61.4851C313.317 62.1592 314.167 63.0241 314.823 64.0296C315.394 64.9455 315.801 65.9535 316.027 67.0088C316.278 68.0831 316.327 69.1945 316.172 70.2868C316.017 71.3312 315.692 72.3435 315.212 73.2841C314.736 74.2179 314.091 75.056 313.311 75.7561C311.438 77.3081 309.068 78.1313 306.637 78.0743" fill="white"/>
<path d="M327.374 45.3485C326.899 45.3327 326.447 45.1368 326.111 44.8005C325.775 44.4642 325.579 44.0127 325.563 43.5374V41.5815C325.557 41.3399 325.599 41.0995 325.688 40.8745C325.776 40.6495 325.908 40.4445 326.077 40.2715C326.246 40.0985 326.448 39.9611 326.67 39.8672C326.893 39.7734 327.132 39.7251 327.374 39.7252C327.626 39.719 327.876 39.764 328.109 39.8574C328.343 39.9508 328.555 40.0906 328.732 40.2685C328.908 40.4386 329.048 40.6427 329.143 40.8684C329.238 41.0941 329.286 41.3367 329.285 41.5815V43.465C329.288 43.7088 329.241 43.9506 329.146 44.1751C329.051 44.3996 328.91 44.6018 328.732 44.7689C328.557 44.9506 328.346 45.0936 328.112 45.1887C327.878 45.2839 327.627 45.329 327.374 45.3213M327.374 78.0469C326.899 78.0311 326.447 77.8352 326.111 77.499C325.775 77.1627 325.579 76.7112 325.563 76.2359V49.6407C325.579 49.1654 325.775 48.7138 326.111 48.3776C326.447 48.0413 326.899 47.8454 327.374 47.8296C327.626 47.8251 327.876 47.8718 328.11 47.9667C328.343 48.0617 328.555 48.2029 328.732 48.382C328.907 48.5511 329.046 48.7537 329.141 48.9777C329.236 49.2018 329.285 49.4426 329.285 49.6859V76.2178C329.288 76.4616 329.241 76.7034 329.146 76.9279C329.051 77.1524 328.91 77.3546 328.732 77.5217C328.557 77.7034 328.346 77.8464 328.112 77.9415C327.878 78.0366 327.627 78.0818 327.374 78.0741V78.0469Z" fill="white"/>
<path d="M356.677 91.5937C354.706 91.6205 352.752 91.231 350.942 90.4508C349.131 89.6707 347.506 88.5173 346.173 87.0661C344.821 85.6064 343.758 83.9043 343.04 82.0495C342.305 80.1744 341.93 78.1775 341.935 76.1636C341.931 75.9117 341.978 75.6616 342.073 75.4281C342.167 75.1946 342.308 74.9825 342.486 74.8044C342.664 74.6262 342.876 74.4856 343.11 74.3909C343.343 74.2962 343.594 74.2493 343.845 74.2529C344.095 74.2477 344.343 74.2941 344.573 74.3892C344.804 74.4842 345.012 74.6259 345.186 74.8053C345.53 75.1757 345.716 75.6668 345.702 76.1726C345.705 77.7265 346.013 79.2647 346.607 80.7003C347.159 82.0689 347.954 83.3266 348.953 84.4129C349.932 85.4673 351.107 86.3222 352.412 86.9303C353.751 87.5392 355.205 87.8543 356.677 87.8543C358.148 87.8543 359.602 87.5392 360.942 86.9303C362.253 86.3201 363.434 85.4622 364.419 84.4038C365.421 83.3179 366.218 82.0602 366.773 80.6912C367.932 77.7652 367.932 74.5076 366.773 71.5816C366.22 70.2115 365.422 68.9535 364.419 67.869C363.438 66.8052 362.256 65.9465 360.942 65.3426C359.604 64.7295 358.148 64.4202 356.677 64.4371C356.427 64.4422 356.18 64.3958 355.949 64.3008C355.718 64.2057 355.51 64.0641 355.337 63.8847C355.165 63.7034 355.031 63.4901 354.943 63.257C354.854 63.0239 354.813 62.7756 354.82 62.5264C354.815 62.2857 354.858 62.0463 354.947 61.8224C355.036 61.5985 355.168 61.3946 355.337 61.2224C355.51 61.043 355.718 60.9014 355.949 60.8063C356.18 60.7113 356.427 60.6649 356.677 60.6701C358.622 60.6664 360.547 61.0705 362.327 61.8563C364.146 62.6657 365.791 63.8188 367.172 65.252C368.53 66.6861 369.594 68.3718 370.305 70.2143C371.778 74.0218 371.778 78.242 370.305 82.0495C369.586 83.9043 368.523 85.6064 367.172 87.0661C365.799 88.5026 364.152 89.6482 362.327 90.4346C360.544 91.2075 358.62 91.6022 356.677 91.5937ZM356.677 50.8451C355.206 50.8307 353.75 51.1398 352.412 51.7507C351.095 52.3793 349.911 53.2555 348.925 54.3314C346.844 56.5696 345.692 59.5154 345.702 62.5717C345.703 64.1433 346.011 65.6996 346.607 67.1536C347.149 68.5273 347.945 69.7868 348.953 70.8663C349.937 71.9065 351.111 72.7487 352.412 73.3474C353.751 73.9564 355.205 74.2714 356.677 74.2714C358.148 74.2714 359.602 73.9564 360.942 73.3474C362.25 72.7437 363.43 71.8954 364.419 70.8482C365.43 69.7694 366.229 68.5099 366.773 67.1355C367.37 65.6815 367.677 64.1252 367.679 62.5536C367.7 59.4952 366.546 56.5455 364.455 54.3133C363.464 53.2687 362.284 52.4208 360.978 51.8141C359.632 51.1844 358.163 50.8597 356.677 50.8632V50.8451ZM356.677 78.0109C354.718 78.0233 352.778 77.6158 350.99 76.8156C349.181 76.0072 347.546 74.8573 346.173 73.4289C344.815 71.9948 343.75 70.3091 343.04 68.4666C341.567 64.6559 341.567 60.4331 343.04 56.6224C343.759 54.7708 344.822 53.0718 346.173 51.6148C347.543 50.1886 349.18 49.0442 350.99 48.2463C352.782 47.4816 354.71 47.0874 356.659 47.0874C358.607 47.0874 360.535 47.4816 362.327 48.2463C364.148 49.0391 365.795 50.1839 367.172 51.6148C369.896 54.5781 371.408 58.456 371.41 62.4811C371.423 64.5164 371.048 66.5356 370.305 68.4304C369.597 70.2825 368.527 71.9748 367.157 73.4083C365.787 74.8419 364.145 75.9879 362.327 76.7793C360.553 77.5877 358.627 78.0105 356.677 78.0199V78.0109Z" fill="white"/>
<path d="M417.546 78.0743C417.297 78.0794 417.049 78.033 416.819 77.938C416.588 77.8429 416.38 77.7013 416.206 77.5219C416.038 77.3498 415.905 77.1458 415.817 76.9219C415.728 76.698 415.685 76.4587 415.69 76.2179V59.5653C415.692 58.4968 415.473 57.4394 415.047 56.4594C414.243 54.5316 412.71 52.999 410.782 52.1944C409.784 51.7676 408.708 51.5517 407.622 51.5605C406.545 51.55 405.477 51.7659 404.489 52.1944C403.546 52.6007 402.689 53.1814 401.962 53.9058C401.232 54.64 400.648 55.5066 400.242 56.4594C399.819 57.44 399.603 58.4974 399.608 59.5653V76.2179C399.589 76.7017 399.385 77.1597 399.038 77.4969C398.691 77.8341 398.227 78.0247 397.743 78.029C397.49 78.0367 397.239 77.9915 397.005 77.8964C396.771 77.8013 396.56 77.6583 396.384 77.4766C396.207 77.3095 396.066 77.1073 395.971 76.8828C395.876 76.6583 395.829 76.4164 395.832 76.1727V59.5653C395.812 57.9917 396.121 56.4312 396.737 54.9834C397.93 52.1582 400.178 49.91 403.004 48.7172C404.453 48.1015 406.011 47.7842 407.586 47.7842C409.16 47.7842 410.718 48.1015 412.168 48.7172C413.573 49.316 414.854 50.1729 415.944 51.2436C417.028 52.3141 417.895 53.5839 418.497 54.9834C419.11 56.4325 419.418 57.9921 419.403 59.5653V76.2179C419.406 76.4617 419.359 76.7035 419.264 76.928C419.169 77.1525 419.028 77.3548 418.85 77.5219C418.675 77.7036 418.464 77.8466 418.23 77.9417C417.996 78.0368 417.744 78.082 417.492 78.0743M383.834 78.0743C383.58 78.0832 383.327 78.0387 383.091 77.9435C382.856 77.8484 382.643 77.7047 382.466 77.5219C382.291 77.3528 382.152 77.1502 382.058 76.9261C381.963 76.7021 381.914 76.4612 381.914 76.2179V59.5653C381.912 58.016 382.219 56.4818 382.818 55.0528C383.416 53.6238 384.294 52.3287 385.4 51.2436C386.487 50.1732 387.765 49.3162 389.167 48.7172C390.618 48.1004 392.182 47.792 393.758 47.8117C395.283 47.8181 396.79 48.1258 398.195 48.7172C399.611 49.299 400.903 50.1475 401.999 51.2164C402.184 51.3861 402.332 51.5925 402.433 51.8224C402.534 52.0523 402.587 52.3008 402.587 52.5521C402.587 52.8033 402.534 53.0518 402.433 53.2817C402.332 53.5117 402.184 53.718 401.999 53.8877C401.65 54.2089 401.196 54.3923 400.722 54.4039C400.465 54.4283 400.207 54.3945 399.966 54.3052C399.724 54.2158 399.506 54.0731 399.327 53.8877C398.595 53.161 397.725 52.5868 396.769 52.1982C395.814 51.8096 394.79 51.6144 393.758 51.6239C392.67 51.6152 391.591 51.831 390.589 52.2578C388.666 53.0698 387.136 54.5999 386.324 56.5228C385.905 57.5047 385.69 58.5612 385.69 59.6287V76.2179C385.694 76.4593 385.649 76.699 385.559 76.9229C385.469 77.1469 385.335 77.3505 385.165 77.5219C385.002 77.6973 384.804 77.837 384.584 77.9321C384.365 78.0272 384.128 78.0756 383.888 78.0743H383.834Z" fill="white"/>
<path d="M455.378 78.0744C454.895 78.07 454.432 77.8792 454.086 77.5417C453.741 77.2043 453.538 76.7463 453.522 76.2634V62.5809C453.538 62.098 453.741 61.64 454.086 61.3025C454.432 60.9651 454.895 60.7743 455.378 60.7699C455.63 60.7654 455.881 60.8121 456.114 60.907C456.348 61.0019 456.559 61.1432 456.737 61.3222C456.912 61.4913 457.051 61.6939 457.146 61.918C457.24 62.142 457.289 62.3829 457.289 62.6262V76.2181C457.292 76.4619 457.245 76.7037 457.15 76.9282C457.055 77.1527 456.914 77.3549 456.737 77.522C456.561 77.7037 456.35 77.8467 456.116 77.9418C455.882 78.037 455.631 78.0821 455.378 78.0744ZM442.547 50.9087C441.076 50.8919 439.619 51.2011 438.282 51.8142C436.972 52.4227 435.792 53.2773 434.805 54.3316C433.805 55.4017 433.018 56.6525 432.487 58.0171C431.364 60.9498 431.364 64.1939 432.487 67.1266C433.021 68.4982 433.807 69.7575 434.805 70.8393C435.784 71.8956 436.963 72.748 438.273 73.3476C439.611 73.9623 441.066 74.2806 442.538 74.2806C444.01 74.2806 445.465 73.9623 446.803 73.3476C448.122 72.7464 449.307 71.8874 450.289 70.8212C451.29 69.7363 452.085 68.4782 452.635 67.1085C453.498 64.9767 453.737 62.6431 453.323 60.3805C452.91 58.118 451.86 56.0199 450.298 54.3316C449.307 53.2848 448.124 52.4392 446.812 51.8414C445.477 51.2203 444.02 50.9048 442.547 50.9178V50.9087ZM442.547 78.0744C440.589 78.0837 438.651 77.6794 436.86 76.8882C435.068 76.0791 433.453 74.9253 432.106 73.4925H432.161C430.788 72.049 429.706 70.3551 428.973 68.503C427.86 65.6879 427.563 62.6158 428.118 59.6397C428.672 56.6635 430.054 53.9041 432.106 51.6784C433.435 50.2419 435.052 49.1013 436.851 48.3306C438.649 47.5599 440.59 47.1764 442.547 47.2051C444.482 47.199 446.397 47.584 448.179 48.337C449.994 49.1142 451.633 50.2508 452.997 51.6784C454.377 53.1264 455.46 54.8307 456.184 56.695C457.651 60.4819 457.651 64.6799 456.184 68.4668C455.455 70.3205 454.372 72.015 452.997 73.4562C451.654 74.9061 450.034 76.073 448.234 76.8882C446.443 77.6784 444.505 78.0826 442.547 78.0744Z" fill="white"/>
<path d="M174.431 125.605H175.753L180.498 138.128H179.076L177.863 134.859H172.257L171.053 138.128H169.677L174.431 125.605ZM177.428 133.646L175.074 127.307L172.71 133.646H177.428Z" fill="white"/>
<path d="M228.853 125.678H230.193V138.129H228.853V125.678Z" fill="white"/>
<path d="M233.118 128.865H234.395V130.395C234.643 129.887 235.03 129.46 235.511 129.162C235.991 128.864 236.546 128.708 237.111 128.711C238.995 128.711 240.136 130.006 240.136 132.089V138.156H238.859V132.442C238.859 130.794 238.071 129.861 236.722 129.861C236.389 129.867 236.06 129.942 235.757 130.081C235.454 130.22 235.184 130.421 234.962 130.671C234.741 130.92 234.574 131.213 234.471 131.53C234.369 131.847 234.334 132.182 234.368 132.514V138.156H233.091L233.118 128.865Z" fill="white"/>
<path d="M242.681 125.442H244.102V126.955H242.681V125.442ZM242.753 128.865H244.03V138.129H242.753V128.865Z" fill="white"/>
<path d="M247.208 135.982V129.997H246.085V128.865H247.208V126.148H248.485V128.865H250.911V129.997H248.485V135.765C248.459 135.947 248.476 136.133 248.534 136.307C248.592 136.481 248.69 136.639 248.82 136.769C248.95 136.899 249.109 136.997 249.283 137.056C249.457 137.114 249.643 137.131 249.825 137.105C250.201 137.097 250.571 137.011 250.911 136.852V137.956C250.476 138.164 249.999 138.272 249.517 138.273C249.206 138.311 248.891 138.278 248.595 138.176C248.299 138.074 248.03 137.907 247.808 137.687C247.586 137.466 247.416 137.199 247.312 136.903C247.209 136.608 247.173 136.293 247.208 135.982Z" fill="white"/>
<path d="M253.03 125.442H254.452V126.955H253.03V125.442ZM253.103 128.865H254.389V138.129H253.103V128.865Z" fill="white"/>
<path d="M256.526 135.439V135.376C256.526 133.465 257.893 132.388 259.94 132.388C260.748 132.382 261.553 132.507 262.321 132.759V132.207C262.352 131.891 262.312 131.573 262.203 131.276C262.094 130.978 261.92 130.709 261.693 130.488C261.466 130.267 261.192 130.1 260.892 129.999C260.591 129.899 260.272 129.867 259.958 129.907C259.131 129.92 258.32 130.134 257.594 130.531L257.169 129.49C258.071 129.014 259.074 128.76 260.094 128.747C260.565 128.716 261.039 128.78 261.485 128.936C261.932 129.091 262.342 129.335 262.692 129.653C263.003 129.989 263.243 130.385 263.399 130.816C263.554 131.246 263.622 131.704 263.598 132.161V138.12H262.33V136.77C262.038 137.255 261.622 137.653 261.126 137.925C260.63 138.197 260.071 138.333 259.505 138.319C259.117 138.339 258.729 138.279 258.365 138.142C258.001 138.006 257.669 137.796 257.39 137.526C257.11 137.256 256.89 136.932 256.741 136.573C256.592 136.214 256.519 135.828 256.526 135.439ZM262.339 134.914V133.755C261.622 133.499 260.864 133.373 260.103 133.384C258.627 133.384 257.803 134.144 257.803 135.322V135.376C257.791 135.634 257.835 135.892 257.932 136.132C258.028 136.371 258.175 136.588 258.362 136.766C258.549 136.945 258.772 137.081 259.016 137.166C259.26 137.251 259.519 137.283 259.777 137.259C260.1 137.28 260.424 137.236 260.729 137.129C261.034 137.021 261.315 136.854 261.554 136.636C261.793 136.418 261.986 136.154 262.121 135.859C262.256 135.565 262.33 135.247 262.339 134.923V134.914Z" fill="white"/>
<path d="M266.414 135.982V129.997H265.318V128.865H266.441V126.148H267.718V128.865H270.136V129.997H267.718V135.765C267.692 135.947 267.709 136.133 267.768 136.307C267.826 136.481 267.924 136.639 268.054 136.769C268.184 136.899 268.342 136.997 268.516 137.056C268.691 137.114 268.876 137.131 269.058 137.105C269.431 137.096 269.798 137.009 270.136 136.852V137.956C269.704 138.165 269.23 138.273 268.75 138.273C268.438 138.315 268.119 138.285 267.82 138.186C267.52 138.086 267.248 137.92 267.022 137.699C266.797 137.478 266.625 137.208 266.52 136.911C266.414 136.614 266.378 136.296 266.414 135.982Z" fill="white"/>
<path d="M272.219 125.442H273.64V126.955H272.219V125.442ZM272.291 128.865H273.577V138.129H272.291V128.865Z" fill="white"/>
<path d="M275.551 128.865H276.936L279.535 136.481L282.17 128.865H283.519L280.124 138.201H278.965L275.551 128.865Z" fill="white"/>
<path d="M284.425 133.574V133.483C284.425 130.658 286.073 128.684 288.246 128.684C290.582 128.684 291.968 130.676 291.968 133.465C291.968 133.592 291.968 133.846 291.968 134H285.738C285.883 136.046 287.15 137.187 288.599 137.187C289.053 137.186 289.502 137.091 289.916 136.907C290.331 136.723 290.703 136.454 291.008 136.118L291.741 136.942C291.339 137.386 290.847 137.74 290.297 137.979C289.747 138.217 289.153 138.337 288.554 138.328C286.272 138.328 284.425 136.517 284.425 133.574ZM290.682 133.003C290.591 131.247 289.776 129.798 288.246 129.798C286.879 129.798 285.846 131.066 285.72 133.003H290.682Z" fill="white"/>
<path fill-rule="evenodd" clip-rule="evenodd" d="M191.718 127.425V138.744H188.657V127.425H185.271V124.374H194.905V127.425H191.718Z" fill="white"/>
<path fill-rule="evenodd" clip-rule="evenodd" d="M196.915 135.684H204.739C204.897 135.686 205.053 135.652 205.196 135.585C205.339 135.517 205.464 135.418 205.563 135.294C205.767 135.036 205.882 134.718 205.889 134.389C205.889 134.058 205.773 133.738 205.563 133.483C205.465 133.358 205.34 133.258 205.197 133.189C205.054 133.119 204.897 133.084 204.739 133.085H200.872C200.131 133.108 199.394 132.975 198.708 132.695C198.162 132.467 197.671 132.124 197.268 131.69C196.9 131.296 196.621 130.826 196.453 130.314C196.296 129.797 196.217 129.26 196.218 128.72C196.216 128.163 196.305 127.61 196.48 127.081C196.649 126.566 196.93 126.096 197.304 125.705C197.718 125.304 198.212 124.996 198.753 124.799C199.431 124.551 200.15 124.434 200.872 124.455H208.035V127.507H200.501C200.34 127.508 200.181 127.541 200.033 127.605C199.885 127.669 199.752 127.762 199.641 127.878C199.409 128.123 199.276 128.446 199.269 128.783C199.269 128.951 199.301 129.118 199.365 129.273C199.429 129.429 199.522 129.57 199.641 129.689C199.758 129.81 199.899 129.905 200.055 129.969C200.21 130.033 200.378 130.064 200.546 130.06H204.349C205.573 129.998 206.777 130.385 207.736 131.147C208.53 132.055 208.967 133.219 208.967 134.425C208.967 135.63 208.53 136.795 207.736 137.703C206.766 138.493 205.535 138.89 204.286 138.817H196.924L196.915 135.684Z" fill="white"/>
<path fill-rule="evenodd" clip-rule="evenodd" d="M214.781 133.04C214.622 133.042 214.464 133.076 214.318 133.14C214.172 133.204 214.04 133.296 213.93 133.411C213.699 133.657 213.566 133.979 213.559 134.316C213.563 134.654 213.696 134.978 213.93 135.222C214.042 135.351 214.181 135.453 214.338 135.52C214.495 135.588 214.665 135.619 214.835 135.611H222.351V138.672H215.152C214.414 138.69 213.679 138.564 212.988 138.301C212.443 138.063 211.952 137.715 211.548 137.278C211.177 136.876 210.902 136.397 210.742 135.874C210.585 135.357 210.502 134.82 210.498 134.28C210.497 133.746 210.612 133.218 210.833 132.732C211.088 132.189 211.506 131.74 212.028 131.446C211.472 131.156 211.034 130.682 210.788 130.106C210.58 129.525 210.481 128.911 210.498 128.295C210.501 127.576 210.698 126.872 211.068 126.257C211.408 125.655 211.906 125.157 212.508 124.817C213.336 124.441 214.244 124.27 215.152 124.319H222.324V127.371H214.781C214.622 127.374 214.464 127.408 214.318 127.471C214.172 127.535 214.04 127.627 213.93 127.742C213.698 127.988 213.565 128.31 213.559 128.648C213.552 128.815 213.581 128.981 213.641 129.137C213.702 129.293 213.794 129.435 213.912 129.553C214.028 129.676 214.168 129.773 214.324 129.837C214.481 129.901 214.649 129.931 214.817 129.925H222.333V132.976L214.781 133.04Z" fill="white"/>
</svg>
