<svg width="89" height="114" viewBox="0 0 89 114" fill="none" xmlns="http://www.w3.org/2000/svg">
<path d="M17.2503 69.1891C8.56821 63.5957 2.97001 55.0054 0.944293 45.642C-1.08449 36.283 0.461925 26.1468 6.05799 17.4605C11.6569 8.76984 20.2474 3.17141 29.6078 1.15011C38.964 -0.874251 49.1003 0.672051 57.791 6.27096C66.4731 11.8643 72.0713 20.4547 74.097 29.818C76.1258 39.177 74.5794 49.3132 68.9833 57.9995C67.8224 59.8014 66.5202 61.4818 65.1008 63.0318C63.9429 64.2989 62.7124 65.4703 61.4191 66.5403C62.6372 68.295 63.7934 70.0037 64.8791 71.6609C65.9445 73.2928 66.916 74.8337 67.7936 76.2835C68.8394 76.2131 69.8114 76.3329 70.6966 76.6348L70.7567 76.6552C71.8766 77.0473 72.8517 77.7305 73.6648 78.6934L73.7038 78.7369L73.7054 78.744L73.7214 78.7665L73.7229 78.7736L73.7389 78.7961L73.7404 78.8032L73.7564 78.8257L73.758 78.8328L73.774 78.8553L73.7755 78.8624L73.8266 78.9441L73.8398 78.9709L73.8573 79.0005C75.6849 82.0628 77.7843 85.5077 80.1441 89.3154C82.5097 93.1331 85.0031 97.1124 87.6254 101.242L87.6632 101.297C89.4705 104.163 88.9268 107.223 87.2092 109.624C86.5048 110.603 85.6052 111.469 84.5933 112.159C83.5815 112.85 82.4387 113.364 81.264 113.644C78.4355 114.323 75.4221 113.65 73.355 110.818L73.3144 110.767L73.2618 110.679L66.5365 100.154L58.7132 87.7454L58.636 87.6285C58.018 86.5899 57.821 85.4564 58.0481 84.2424C58.2095 83.3765 58.5952 82.4842 59.2009 81.563C58.3436 80.1384 57.3924 78.6228 56.3519 77.0374C55.3376 75.4872 54.1685 73.7702 52.8559 71.8875C47.3401 74.3609 41.2824 75.4786 35.2272 75.1156C29.0253 74.7434 22.8289 72.8194 17.2378 69.2174L17.2503 69.1891ZM85.4241 102.604C82.6574 98.2536 80.1555 94.2687 77.9298 90.6693C75.6954 87.0643 73.6046 83.6249 71.6441 80.3429C71.14 79.7619 70.5547 79.3543 69.9023 79.117L69.8623 79.1034C69.1372 78.8559 68.2817 78.811 67.3125 78.9614C66.735 79.0529 66.1869 78.7486 65.943 78.256L65.9328 78.2433L65.9313 78.2362C64.9947 76.6507 63.9093 74.9266 62.6969 73.078C61.7017 71.5645 60.5876 69.9136 59.3492 68.1335C58.6783 68.6162 57.987 69.0738 57.2869 69.5072C56.6262 69.9173 55.9467 70.3091 55.2484 70.6829C56.3924 72.3349 57.4948 73.9662 58.5426 75.5684C59.7871 77.4621 60.8844 79.2243 61.8414 80.8351C62.1673 81.2952 62.1743 81.928 61.8119 82.396C61.1581 83.2498 60.7605 84.0185 60.6333 84.6989C60.5283 85.2595 60.619 85.7816 60.8995 86.2551L60.9303 86.3115L68.7519 98.7133L75.4729 109.235C76.8148 111.081 78.7959 111.51 80.665 111.061C81.5224 110.857 82.367 110.474 83.127 109.957C83.8871 109.44 84.5667 108.792 85.086 108.071C86.2232 106.486 86.6029 104.486 85.4521 102.664L85.4155 102.598L85.4241 102.604ZM52.7022 69.0486L52.7898 69.0074L52.7969 69.0058L52.8237 68.9926C53.8613 68.4899 54.8879 67.919 55.9022 67.2914C56.8967 66.6755 57.8648 66.0061 58.8022 65.2801L58.8401 65.2496L58.85 65.2438L58.8725 65.2278L58.8978 65.2074C60.4155 64.0258 61.8513 62.706 63.1715 61.2628C64.4735 59.8385 65.6849 58.2705 66.7792 56.5719C71.9837 48.4934 73.4202 39.0674 71.5371 30.3631C69.6609 21.6573 64.4532 13.6724 56.3749 8.4681C48.2967 3.26378 38.8704 1.82706 30.1689 3.70587C21.4647 5.58917 13.4754 10.7943 8.27104 18.8725C3.0665 26.951 1.63 36.377 3.51312 45.0813C5.39211 53.7827 10.5999 61.7677 18.6825 66.9748C23.8856 70.3269 29.649 72.1184 35.4115 72.4636C41.3614 72.8197 47.3243 71.641 52.679 69.0577L52.7086 69.0401L52.7022 69.0486Z" fill="white"/>
</svg>
