<svg width="69" height="56" viewBox="0 0 69 56" fill="none" xmlns="http://www.w3.org/2000/svg">
<path fill-rule="evenodd" clip-rule="evenodd" d="M54.9839 3.88156V3.89039C53.7038 5.18197 52.9856 6.92686 52.9856 8.74534C52.9856 10.5638 53.7038 12.3087 54.9839 13.6003L59.8374 18.4582L64.7041 13.6003C65.9846 12.3077 66.703 10.5618 66.703 8.74239C66.703 6.92295 65.9846 5.17708 64.7041 3.8845C63.4119 2.60219 61.6653 1.88233 59.8448 1.88164C58.0243 1.88095 56.2772 2.59949 54.9839 3.88082V3.88156ZM56.6194 5.5141C57.0426 5.09034 57.5452 4.75417 58.0985 4.5248C58.6517 4.29543 59.2448 4.17737 59.8437 4.17737C60.4426 4.17737 61.0356 4.29543 61.5888 4.5248C62.1421 4.75417 62.6447 5.09034 63.0679 5.5141C63.7066 6.1525 64.1415 6.96603 64.3176 7.85171C64.4937 8.73739 64.4031 9.65541 64.0572 10.4896C63.7113 11.3237 63.1257 12.0365 62.3746 12.5377C61.6234 13.0389 60.7404 13.306 59.8374 13.3051C58.9345 13.3056 58.0518 13.038 57.3012 12.5362C56.5506 12.0344 55.9658 11.321 55.6211 10.4865C55.2765 9.652 55.1873 8.73392 55.3651 7.84869C55.5428 6.96345 55.9794 6.15092 56.6194 5.5141ZM59.8374 6.05951C60.4546 6.05935 61.0528 6.27313 61.5302 6.66445C62.0075 7.05577 62.3344 7.60044 62.4553 8.20571C62.5762 8.81098 62.4835 9.43944 62.1931 9.98409C61.9027 10.5287 61.4326 10.9559 60.8626 11.1928C60.2927 11.4298 59.6582 11.4618 59.0673 11.2836C58.4764 11.1053 57.9655 10.7278 57.6217 10.2152C57.2778 9.70259 57.1223 9.08668 57.1815 8.4723C57.2407 7.85792 57.5111 7.28307 57.9465 6.84561C58.1945 6.59667 58.4892 6.3991 58.8137 6.26421C59.1381 6.12932 59.486 6.05976 59.8374 6.05951ZM67.2781 13.3589V54.8386C67.2771 55.0875 67.178 55.3259 67.0023 55.5022C66.8266 55.6784 66.5885 55.7783 66.3396 55.78H5.34957C3.93141 55.7771 2.5722 55.2123 1.56956 54.2094C0.566907 53.2065 0.00252837 51.8471 0 50.429V11.1161C0.000583259 9.70771 0.559931 8.35706 1.55528 7.36061C2.55063 6.36415 3.90067 5.80331 5.30908 5.80116H10.3502C10.4738 5.80106 10.5961 5.82537 10.7102 5.87268C10.8243 5.91999 10.9279 5.98938 11.0151 6.07685C11.1023 6.16433 11.1714 6.26817 11.2183 6.38241C11.2653 6.49665 11.2892 6.61905 11.2887 6.74256V10.8423H51.3501C51.1854 10.1546 51.0999 9.45029 51.0954 8.74313C51.094 7.59371 51.3195 6.45532 51.7589 5.39322C52.1983 4.33111 52.843 3.36618 53.6561 2.55374C55.2985 0.920298 57.52 0.00234842 59.8363 4.49974e-06C62.1526 -0.00233942 64.376 0.911112 66.0217 2.54122L66.0481 2.56846C67.4297 3.97175 68.3018 5.79713 68.5253 7.75365C68.7489 9.71017 68.3111 11.6852 67.2818 13.364L67.2781 13.3589ZM52.0471 12.7273C52.4609 13.5453 53.0043 14.291 53.6561 14.9355L59.1764 20.4558C59.3521 20.6314 59.5904 20.7301 59.8389 20.7301C60.0873 20.7301 60.3256 20.6314 60.5013 20.4558L65.382 15.5699V53.8972H5.34957C4.43004 53.8949 3.54878 53.5289 2.89816 52.8791C2.24754 52.2293 1.88041 51.3485 1.87691 50.429V49.7341C2.17611 49.0131 2.67351 48.3917 3.31146 47.9419C3.81732 47.5871 4.39742 47.3524 5.00765 47.2556C5.61787 47.1588 6.24213 47.2024 6.83296 47.3832C7.42378 47.5639 7.96559 47.8771 8.41718 48.2987C8.86878 48.7204 9.21825 49.2395 9.43902 49.8166C9.49421 50.0162 9.61309 50.1923 9.77757 50.3181C9.94206 50.444 10.1432 50.5126 10.3502 50.5136C10.4738 50.5137 10.5961 50.4894 10.7102 50.4421C10.8243 50.3948 10.9279 50.3254 11.0151 50.2379C11.1023 50.1504 11.1714 50.0466 11.2183 49.9324C11.2653 49.8181 11.2892 49.6957 11.2887 49.5722V12.7273H52.0471ZM32.2284 26.0681C32.3787 26.1024 32.535 26.0999 32.684 26.0608C32.9245 25.9966 33.13 25.84 33.2556 25.6251C33.3812 25.4102 33.4168 25.1543 33.3546 24.9133L32.8909 23.1166L32.8776 23.0791L32.489 21.8234L33.3604 20.2681C33.474 20.0672 33.5108 19.832 33.4639 19.606C33.4171 19.3801 33.2898 19.1788 33.1058 19.0396L29.7406 16.5606C29.5801 16.4355 29.383 16.3666 29.1795 16.3644C28.976 16.3623 28.7775 16.4271 28.6144 16.5489L25.155 19.0985C25.0026 19.1998 24.8819 19.3422 24.8069 19.5092C24.7097 19.7379 24.7057 19.9955 24.7958 20.2271C24.8858 20.4586 25.0628 20.6458 25.289 20.7487L27.9005 21.8984L27.8202 22.9076C27.8055 23.1476 27.8823 23.3843 28.0352 23.57L29.4697 25.3137C29.6106 25.4989 29.8166 25.6236 30.046 25.6626L32.2314 26.0652L32.2284 26.0681ZM30.7136 23.8813L31.1553 23.963L31.061 23.6009L30.565 21.9919C30.5279 21.8702 30.5159 21.7422 30.5297 21.6157C30.5435 21.4892 30.5828 21.3668 30.6452 21.2559L31.3157 20.0546L29.1746 18.4685L27.5251 19.6807L29.2415 20.4367C29.4255 20.5111 29.5807 20.6426 29.6844 20.8118C29.7881 20.9809 29.8349 21.1789 29.8179 21.3766L29.7259 22.6757L30.718 23.8813H30.7136ZM13.8229 26.4737C13.8417 26.6758 13.9247 26.8666 14.0598 27.0182C14.1949 27.1697 14.375 27.274 14.5737 27.3157L17.7784 27.9782L18.6617 28.5515L18.0316 30.9437C17.9716 31.1276 17.9704 31.3256 18.028 31.5102C18.0856 31.6949 18.1993 31.857 18.3533 31.9741L21.7317 34.5282C21.853 34.6188 21.9945 34.6786 22.144 34.7026C22.2934 34.7267 22.4465 34.7142 22.5901 34.6663C22.7337 34.6183 22.8636 34.5363 22.9687 34.4273C23.0737 34.3183 23.1509 34.1855 23.1935 34.0402L23.7161 32.2583L25.8211 32.3525C25.9507 32.3622 26.0808 32.3447 26.2031 32.3011C26.3254 32.2574 26.4373 32.1887 26.5314 32.0993L30.0056 28.8467C30.0785 28.7773 30.1417 28.6983 30.1933 28.6119C30.2567 28.5063 30.2987 28.3893 30.3169 28.2674C30.3351 28.1456 30.3291 28.0214 30.2992 27.9019C30.2693 27.7824 30.2162 27.67 30.1428 27.571C30.0694 27.4721 29.9773 27.3886 29.8716 27.3253L27.096 25.6817C26.9566 25.5989 26.798 25.5538 26.6359 25.551C26.4738 25.5481 26.3137 25.5876 26.1715 25.6655L24.3748 26.6467L22.9027 25.1054C22.8091 25.0046 22.6949 24.925 22.5678 24.8721L19.2291 23.4522C19.0981 23.3957 18.9557 23.3705 18.8133 23.3786L14.6178 23.5994C14.5911 23.5976 14.5643 23.5976 14.5376 23.5994C14.2876 23.6188 14.0554 23.7365 13.8921 23.9268C13.7287 24.1171 13.6474 24.3644 13.6661 24.6144L13.8266 26.4737H13.8229ZM15.6196 25.4241L15.6461 25.6199L18.301 26.1668C18.4253 26.1886 18.5439 26.2352 18.6499 26.3037L20.2184 27.3187C20.3955 27.4223 20.5336 27.5814 20.6111 27.7715C20.6887 27.9615 20.7015 28.1717 20.6475 28.3697L19.9902 30.8517L21.7766 32.2016L22.1115 31.0563C22.1641 30.8462 22.2876 30.6607 22.4611 30.531C22.6346 30.4014 22.8475 30.3355 23.0639 30.3445L25.5437 30.4549L27.8364 28.3028L26.6028 27.5704L24.6891 28.6163C24.5042 28.7271 24.2873 28.7721 24.0735 28.7442C23.8598 28.7163 23.6617 28.617 23.5114 28.4625L21.661 26.5237L18.6977 25.2658L15.6277 25.4241H15.6196ZM28.437 37.0904L24.3608 36.9071L22.5649 38.6081L23.758 40.5373L24.3078 40.7816C24.4803 40.8574 24.6261 40.9831 24.7264 41.1425C24.8268 41.3019 24.8771 41.4877 24.8709 41.6759L24.9644 47.7586L27.2034 42.1647C27.2679 41.9977 27.3795 41.8531 27.5247 41.7486C27.6699 41.644 27.8424 41.584 28.0212 41.5758L29.282 41.4956L30.7541 39.2794L28.437 37.0904ZM24.0524 35.0125C23.9271 35.0063 23.8019 35.0256 23.6843 35.0694C23.5667 35.1132 23.4593 35.1805 23.3687 35.2672L20.7145 37.7697C20.5602 37.9203 20.4616 38.1189 20.4348 38.3328C20.4081 38.5468 20.4548 38.7635 20.5673 38.9474L22.297 41.7753C22.4127 41.9593 22.5877 42.0985 22.7931 42.1698L23.008 42.2648L23.1147 49.5222C23.1151 49.6448 23.1397 49.7661 23.1872 49.8792C23.2346 49.9922 23.3039 50.0948 23.3911 50.181C23.4783 50.2672 23.5817 50.3353 23.6953 50.3814C23.809 50.4275 23.9306 50.4506 24.0532 50.4496C24.1166 50.4498 24.1798 50.4427 24.2416 50.4282L25.5819 50.139C25.7425 50.1052 25.8915 50.0298 26.0138 49.9204C26.1361 49.811 26.2276 49.6714 26.279 49.5155L28.719 43.4137L29.8723 43.3401C30.0166 43.3302 30.1567 43.2876 30.2821 43.2157C30.4076 43.1438 30.5151 43.0444 30.5966 42.925L32.7679 39.6665C32.8978 39.4719 32.9504 39.2358 32.9156 39.0045C32.8807 38.7731 32.7609 38.563 32.5795 38.4153L29.4697 35.4873C29.2995 35.3252 29.0739 35.2342 28.8389 35.2326L24.0546 35.0118L24.0524 35.0125ZM51.1757 38.9526L47.3416 41.8474L48.3478 43.9775L49.8898 42.7535C50.0493 42.6275 50.2455 42.5569 50.4488 42.5525C50.652 42.5481 50.8511 42.6102 51.0159 42.7292L56.325 46.5382L56.9551 41.3734L51.1764 38.9533L51.1757 38.9526ZM45.5986 40.8074C45.4194 40.94 45.2937 41.1326 45.2444 41.3501C45.1951 41.5675 45.2254 41.7955 45.33 41.9924L47.1539 45.8493C47.2059 45.961 47.2795 46.0613 47.3704 46.1444C47.4614 46.2275 47.5679 46.2918 47.6838 46.3335C47.7997 46.3753 47.9228 46.3936 48.0458 46.3876C48.1689 46.3815 48.2895 46.3512 48.4008 46.2983C48.4846 46.2601 48.5615 46.2081 48.6282 46.1445L50.5058 44.6665L56.5252 48.9893C56.6243 49.0614 56.7368 49.1132 56.8561 49.1415C56.9754 49.1699 57.0991 49.1742 57.2201 49.1544C57.3411 49.1345 57.457 49.0908 57.5609 49.0258C57.6649 48.9609 57.7549 48.8759 57.8258 48.7758C57.9265 48.6506 57.9873 48.498 58.0002 48.3379L58.9122 40.8935C58.9367 40.6825 58.889 40.4694 58.7771 40.2888C58.6651 40.1083 58.4953 39.971 58.2954 39.8991L51.4038 37.0124C51.2528 36.9492 51.0878 36.9268 50.9255 36.9475C50.7631 36.9682 50.609 37.0311 50.4786 37.1301L45.5986 40.8103V40.8074ZM40.5037 21.0446L40.4905 21.0321C40.3147 20.8566 40.0765 20.7581 39.8281 20.7581C39.5797 20.7581 39.3414 20.8566 39.1656 21.0321L36.9671 23.2322C36.8776 23.3194 36.8066 23.4237 36.7582 23.5388C36.7097 23.654 36.6849 23.7777 36.6852 23.9027V25.7089L35.6797 26.2889C35.519 26.3647 35.3832 26.4847 35.2883 26.6349C35.1934 26.7851 35.1433 26.9592 35.1439 27.1369V29.9338L34.2054 30.4763C34.0445 30.5519 33.9085 30.6718 33.8135 30.822C33.7184 30.9722 33.6683 31.1465 33.6688 31.3242V35.4461C33.6706 35.697 33.7718 35.937 33.9502 36.1134C34.1285 36.2899 34.3696 36.3884 34.6206 36.3875H36.203V40.3275H36.2163C36.2141 40.549 36.2899 40.7642 36.4305 40.9355L38.5893 43.4704C38.7504 43.6605 38.9804 43.779 39.2288 43.7998C39.4771 43.8207 39.7236 43.7422 39.9142 43.5816L41.939 41.8695C42.0464 41.7778 42.132 41.6634 42.1899 41.5346C42.2479 41.4058 42.2765 41.2658 42.2739 41.1246L42.1532 37.6196L44.0979 35.3474C44.2686 35.169 44.3645 34.9319 44.3658 34.685V32.4533H45.1165L46.2942 33.2217C46.412 33.3086 46.5487 33.3665 46.6931 33.3907C46.8375 33.4148 46.9855 33.4046 47.1252 33.3608L48.52 32.9266L49.8338 34.7269C49.9581 34.8992 50.1379 35.0235 50.3429 35.079C50.5479 35.1344 50.7658 35.1177 50.96 35.0317L53.7754 33.7804C53.9494 33.7129 54.0996 33.5954 54.207 33.4426C54.3145 33.2899 54.3743 33.1088 54.3789 32.9222L54.4326 30.4336L56.2153 28.5398C56.3007 28.4489 56.3671 28.342 56.4108 28.2252C56.4546 28.1085 56.4747 27.9842 56.47 27.8597L56.4442 27.301L59.2331 27.4394C59.3783 27.4547 59.5251 27.4366 59.6622 27.3864L62.5711 26.3088C62.6902 26.2679 62.7994 26.2026 62.8919 26.1171C62.9843 26.0315 63.0578 25.9276 63.1077 25.812L63.9386 23.9719C63.9869 23.8523 64.0143 23.7253 64.0196 23.5965C64.0196 23.347 63.921 23.1076 63.7452 22.9305C63.5693 22.7535 63.3307 22.6532 63.0812 22.6514L55.5735 22.5911L52.5557 20.5588C52.4309 20.4656 52.2852 20.4043 52.1313 20.3802C51.9773 20.356 51.8198 20.3699 51.6725 20.4205L43.1344 23.4655L40.5037 21.0446ZM42.2864 25.229L39.8465 22.9988L38.5584 24.2898V26.2477C38.5567 26.4117 38.5126 26.5725 38.4303 26.7144C38.348 26.8563 38.2303 26.9745 38.0888 27.0574L37.0164 27.6734V30.4704C37.0173 30.635 36.9743 30.7968 36.8917 30.9391C36.8092 31.0814 36.6901 31.1992 36.5468 31.2801L35.5546 31.8578V34.4958H37.1503C37.3992 34.4976 37.6373 34.5974 37.813 34.7737C37.9887 34.9499 38.0878 35.1884 38.0888 35.4372V39.9757L39.4137 41.5339L40.3794 40.7183L40.2586 37.3428C40.2473 37.0965 40.3287 36.8549 40.4868 36.6657L42.4844 34.3339V31.5082C42.4839 31.3847 42.5077 31.2623 42.5546 31.1481C42.6016 31.0338 42.6706 30.93 42.7579 30.8426C42.8451 30.7551 42.9488 30.6858 43.0629 30.6386C43.177 30.5914 43.2994 30.5673 43.4229 30.5676H45.38C45.5652 30.5685 45.7464 30.621 45.9034 30.7192L46.989 31.4287L48.598 30.926C48.7841 30.8679 48.9838 30.8699 49.1687 30.9315C49.3537 30.9932 49.5145 31.1116 49.6285 31.2697L50.8886 33.0031L52.5079 32.2848L52.5616 30.0722C52.554 29.9488 52.5728 29.8251 52.6167 29.7095C52.6606 29.5939 52.7287 29.4889 52.8163 29.4017L54.5725 27.5329L54.5305 26.3721V26.2647C54.5444 26.0149 54.6566 25.7809 54.8425 25.6136C55.0284 25.4463 55.2729 25.3594 55.5227 25.3718L59.1963 25.5529L61.5693 24.6763L61.6363 24.5099L55.3063 24.4577C55.1112 24.4622 54.9193 24.407 54.7565 24.2994L51.8602 22.3445L43.2264 25.4204C43.0671 25.4772 42.8952 25.4891 42.7296 25.4548C42.5639 25.4205 42.4109 25.3414 42.2872 25.2261L42.2864 25.229ZM1.87691 11.7852V46.6737C1.99762 46.5795 2.11833 46.4897 2.23905 46.4043C3.23891 45.7034 4.43032 45.3275 5.65134 45.3275C6.87237 45.3275 8.06378 45.7034 9.06364 46.4043C9.18435 46.4897 9.29108 46.5795 9.41179 46.6737V7.68396H5.30908C4.39917 7.68513 3.52687 8.04711 2.88346 8.69051C2.24006 9.33391 1.87808 10.2062 1.87691 11.1161V11.7852Z" fill="#00B3FF"/>
</svg>
