<svg width="83" height="90" viewBox="0 0 83 90" fill="none" xmlns="http://www.w3.org/2000/svg">
<path fill-rule="evenodd" clip-rule="evenodd" d="M15.8924 11.6C20.0657 11.6 23.4494 14.9837 23.4494 19.157C23.4494 23.3302 20.0657 26.7139 15.8924 26.7139C11.7191 26.7139 8.3354 23.3304 8.3354 19.157C8.3354 14.9835 11.7191 11.6 15.8924 11.6ZM59.5932 41.0491H52.466C51.6307 41.0491 50.9534 41.7263 50.9534 42.5617C50.9534 43.397 51.6307 44.0743 52.466 44.0743H81.2254V44.0709C81.2936 44.0707 81.3627 44.0662 81.4322 44.0565C82.2577 43.9423 82.8344 43.1805 82.7204 42.3548C82.1693 38.4323 80.1998 34.9652 77.3476 32.4889C71.8815 27.7433 63.9083 27.2498 57.9154 31.2865C49.2239 21.1058 33.5146 21.1061 24.823 31.2865C18.83 27.2498 10.8569 27.7434 5.39074 32.4889C2.56689 34.9404 0.608635 38.3633 0.0351682 42.2378C-0.15126 43.2565 0.582543 44.0743 1.51279 44.0743H30.2721C31.1075 44.0743 31.7847 43.397 31.7847 42.5617C31.7847 41.7263 31.1075 41.0491 30.2721 41.0491H23.1449C25.1321 32.6931 32.6271 26.6731 41.3694 26.6731C50.1113 26.6731 57.606 32.6931 59.5932 41.0491ZM20.0551 41.0491H3.36952C5.76227 32.5857 15.7175 28.9284 23.0253 33.7129C21.6164 35.9191 20.5947 38.3965 20.0551 41.0491ZM59.7125 33.7131C67.0194 28.9286 76.9755 32.5849 79.3685 41.0491H62.6827C62.1431 38.3965 61.1212 35.9193 59.7125 33.7131ZM41.369 0C46.8571 0 51.3068 4.44952 51.3068 9.93782C51.3068 15.4261 46.8571 19.8754 41.369 19.8754C35.8807 19.8754 31.4312 15.4259 31.4312 9.93782C31.4314 4.44933 35.8809 0 41.369 0ZM46.2572 5.04964C43.5577 2.35021 39.1804 2.35021 36.481 5.04964C33.7816 7.74889 33.7818 12.1264 36.481 14.8258C39.1803 17.5252 43.5577 17.525 46.2572 14.8258C48.9564 12.1266 48.9564 7.74908 46.2572 5.04964ZM66.8458 11.6C71.0191 11.6 74.4028 14.9837 74.4028 19.157C74.4028 23.3302 71.0191 26.7139 66.8458 26.7139C62.6725 26.7139 59.2888 23.3304 59.2888 19.157C59.2888 14.9835 62.6725 11.6 66.8458 11.6ZM70.0503 15.9523C71.8198 17.7219 71.8198 20.5919 70.0503 22.3614C67.2031 25.2085 62.314 23.1824 62.314 19.157C62.314 15.1313 67.2031 13.1052 70.0503 15.9523ZM82.738 48.631C82.738 47.7957 82.0607 47.1184 81.2254 47.1184H64.8395C64.0042 47.1184 63.3269 47.7957 63.3269 48.631C63.3269 60.7583 53.4963 70.5889 41.369 70.5889C29.2419 70.5889 19.4111 60.7583 19.4111 48.631C19.4111 47.7957 18.7338 47.1184 17.8985 47.1184H1.51261C0.677269 47.1184 0 47.7957 0 48.631V55.1316C0 55.967 0.677269 56.6442 1.51261 56.6442H6.6099C7.49798 60.5082 9.03649 64.2082 11.1243 67.5435L7.52029 71.1475C6.92962 71.7381 6.92962 72.6958 7.52029 73.2865L16.7137 82.4799C17.3044 83.0706 18.2621 83.0706 18.8527 82.4799L22.4569 78.8757C25.7928 80.9633 29.492 82.5018 33.3562 83.3901V88.4874C33.3562 89.3227 34.0334 90 34.8688 90H47.87C48.7053 90 49.3826 89.3227 49.3826 88.4874V83.3901C53.2465 82.5018 56.9466 80.9633 60.2819 78.8757L63.8858 82.4799C64.4765 83.0706 65.4342 83.0706 66.0248 82.4799L75.2183 73.2865C75.8089 72.6958 75.8089 71.7381 75.2183 71.1475L71.6141 67.5433C73.7017 64.2076 75.2402 60.5082 76.1285 56.644H81.2258C82.0611 56.644 82.7384 55.9668 82.7384 55.1314L82.738 48.631ZM79.7128 53.619V50.1436H66.3066C65.5223 63.274 54.6221 73.6141 41.369 73.6141C28.1161 73.6141 17.2155 63.274 16.4314 50.1436H3.02521V53.619H7.83322V53.6215C8.54395 53.6207 9.17792 54.124 9.31632 54.848C9.73721 57.0318 10.3723 59.1334 11.1991 61.1291C12.0292 63.1327 13.0617 65.0462 14.2731 66.8447C14.7146 67.4369 14.6666 68.279 14.1289 68.8167L10.7285 72.2171L17.7829 79.2717L21.1833 75.8713L21.1842 75.8723C21.6853 75.3701 22.4877 75.2767 23.0977 75.6881C24.9132 76.9163 26.8465 77.9621 28.8719 78.8012C30.8413 79.6171 32.9139 80.2464 35.0667 80.6672C35.8083 80.7644 36.381 81.3988 36.381 82.1668V86.9748H46.357V82.1668H46.3595C46.3587 81.4561 46.862 80.8221 47.586 80.6837C49.7698 80.2628 51.8714 79.6275 53.8671 78.8009C55.8707 77.9708 57.7842 76.9383 59.5826 75.7269C60.1748 75.2854 61.017 75.3334 61.5547 75.8711L64.955 79.2715L72.0095 72.2169L68.6091 68.8165L68.6101 68.8156C68.1079 68.3145 68.0145 67.5123 68.4259 66.9022C69.6541 65.0866 70.6999 63.1533 71.539 61.128C72.3549 59.1586 72.9841 57.0859 73.405 54.9331C73.5022 54.1915 74.1366 53.6188 74.9046 53.6188L79.7128 53.619ZM19.0968 15.9523C16.2497 13.1052 11.3606 15.1313 11.3606 19.1568C11.3606 23.1822 16.2499 25.2083 19.0968 22.3612C20.8664 20.5917 20.8664 17.7219 19.0968 15.9523Z" fill="white"/>
<path fill-rule="evenodd" clip-rule="evenodd" d="M37.3651 42.4679L39.7457 38.3445H46.148L40.3916 46.8758C39.6283 47.95 40.4166 49.2935 41.6036 49.2935H49.8649L40.8357 59.4214L43.0198 52.7914C43.3892 51.7434 42.6238 50.7464 41.6036 50.7464H32.582L37.3651 42.4679ZM34.7084 41.0392C34.7225 41.0111 34.7375 40.9831 34.7534 40.9553L37.5161 36.17C37.7618 35.6665 38.2785 35.3193 38.8764 35.3193H48.9913C50.1785 35.3193 50.9668 36.6629 50.2033 37.737L44.4469 46.2683H53.2374V46.2702C54.5301 46.2696 55.2352 47.8095 54.366 48.7853L38.2927 66.8144C37.1866 68.1047 35.1786 66.9333 35.6899 65.3805L39.5139 53.7714H29.9698V53.7652C28.8243 53.7661 28.0828 52.5173 28.664 51.5084L34.7084 41.0392Z" fill="#03153B"/>
</svg>
