<svg width="68" height="65" viewBox="0 0 68 65" fill="none" xmlns="http://www.w3.org/2000/svg">
<rect x="1.6582" y="1" width="64.383" height="63" rx="9" stroke="white" stroke-width="2"/>
<path d="M33.3867 18.6774C26.2716 18.9091 20.3964 24.6684 20.0372 31.7835C19.9097 34.3445 20.4775 36.7664 21.5784 38.8754L20.0372 45.7935C19.9677 46.1064 20.2458 46.3845 20.5586 46.315L27.4767 44.7737C29.5626 45.863 31.9613 46.4308 34.5107 46.315C41.6142 45.9905 47.3967 40.1501 47.6632 33.0466C47.9761 25.0045 41.4172 18.4224 33.3867 18.6774ZM33.8502 43.4643C31.8338 43.4643 29.9566 42.9197 28.3343 41.9694C28.1836 41.8883 28.033 41.7956 27.8939 41.7029L23.4788 42.8849L24.6608 38.4698C23.5484 36.7548 22.8994 34.7037 22.8994 32.5136C22.8994 26.4646 27.8244 21.5512 33.8618 21.5512C39.8992 21.5512 44.8241 26.4762 44.8241 32.5136C44.8241 38.5509 39.8876 43.4643 33.8502 43.4643Z" fill="white"/>
<path d="M40.3519 37.3227C40.1549 37.6124 39.9579 37.8789 39.645 38.1918C38.9381 38.8987 37.9647 39.2463 36.9797 39.1536C35.2068 38.9682 32.6922 37.9948 30.5252 35.8278C28.3582 33.6609 27.3848 31.1462 27.1994 29.3733C27.0951 28.3883 27.4543 27.4033 28.1612 26.708C28.4857 26.3835 28.7522 26.1866 29.0303 25.9896C29.5634 25.6303 30.2818 25.8737 30.4788 26.4762L31.2089 28.6548C31.4059 29.2574 31.3132 29.6282 31.0582 29.8831L30.4788 30.4626C30.1891 30.7523 30.1428 31.1926 30.3629 31.5402C30.6874 32.0385 31.29 32.8497 32.3909 33.9506C33.5033 35.063 34.3029 35.6656 34.8012 35.9785C35.1488 36.1986 35.5892 36.1523 35.8789 35.8626L36.4583 35.2832C36.7132 35.0283 37.084 34.9356 37.6866 35.1326L39.8652 35.8626C40.4793 36.0712 40.7111 36.8012 40.3519 37.3227Z" fill="white"/>
</svg>
